<svg width="135" height="42" viewBox="0 0 135 42" fill="none" xmlns="http://www.w3.org/2000/svg">
<path d="M53.9695 3.07422V5.46951H55.0094C56.987 5.46951 57.6519 6.32192 57.6519 8.40182V12.8514C57.6519 14.9313 56.7824 15.6985 55.052 15.6985H53.9695V18.2558H52.0771V15.6985H50.9945C49.2726 15.6985 48.3947 14.9313 48.3947 12.8514V8.40182C48.3947 6.32192 49.0595 5.46951 51.0371 5.46951H52.0771V3.07422H53.9695ZM52.0771 7.25106H51.2843C50.6791 7.25106 50.3467 7.62612 50.3467 8.41887V12.8685C50.3467 13.593 50.7388 13.951 51.2417 13.951H52.0771V7.25106ZM53.9695 13.951H54.8048C55.2992 13.951 55.6999 13.6016 55.6999 12.8685V8.41887C55.6999 7.65169 55.3674 7.25106 54.7622 7.25106H53.9695V13.951Z" fill="#180F5E"/>
<path d="M63.6528 18.0426L63.2778 15.3404H61.07L60.7376 18.0426H58.8452L60.9251 3.35547H63.2778L65.5452 18.0426H63.6528ZM62.0929 5.92124L61.2831 13.5504H63.0306L62.0929 5.92124Z" fill="#180F5E"/>
<path d="M75.2541 20.9571H73.3191V18.0419H68.699V20.9571H66.764V16.1495C67.8637 16.1495 68.2217 15.0499 68.2217 12.97V3.36328H73.8817V16.158H75.2541V20.9657V20.9571ZM69.6196 16.1495H71.9467V5.27269H70.1567V12.97C70.1567 14.8453 69.9862 15.6551 69.6196 16.1495Z" fill="#180F5E"/>
<path d="M80.5985 18.0419V11.2226H78.8084V18.0419H76.8734V3.36328H78.8084V9.33019H80.5985V3.36328H82.5335V18.0504H80.5985V18.0419Z" fill="#180F5E"/>
<path d="M92.7795 3.36328C94.382 3.36328 94.7741 4.05374 94.7741 5.54547V8.66531C94.7741 10.6173 94.6889 11.393 92.8221 11.393H90.8871V18.0504H88.9948V3.36328H92.7795ZM90.9042 9.64559H92.1316C92.6516 9.64559 92.8136 9.50068 92.8136 8.99775V5.87791C92.8136 5.34089 92.6857 5.15335 92.089 5.15335H90.9042V9.64559Z" fill="#180F5E"/>
<path d="M102.651 14.7608C102.651 17.6079 101.108 18.1961 99.4455 18.1961C97.7832 18.1961 96.4961 17.5056 96.4961 14.7608V7.0635C96.4961 5.73373 96.6666 3.26172 99.6586 3.26172C102.275 3.26172 102.651 5.15408 102.651 7.10612V14.7608ZM100.733 7.13169C100.733 5.58882 100.588 4.9495 99.6074 4.9495C98.4226 4.9495 98.4226 5.98945 98.4226 6.67138V15.0506C98.4226 15.8434 98.5504 16.5935 99.5477 16.5935C100.69 16.5935 100.733 15.6814 100.733 14.8461V7.13169Z" fill="#180F5E"/>
<path d="M110.962 14.531C110.962 16.3381 110.382 18.2305 107.757 18.2305C104.841 18.2305 104.637 15.9034 104.637 14.7356V7.37073C104.637 5.62327 104.91 3.21094 107.919 3.21094C110.348 3.21094 110.953 4.81348 110.953 6.80813V8.68345H109.018V6.41602C109.018 5.81081 108.933 4.89872 107.808 4.89872C106.828 4.89872 106.58 5.64885 106.58 6.50126V14.8635C106.58 16.2188 106.896 16.5513 107.765 16.5513C108.89 16.5513 108.993 15.6988 108.993 14.8294V11.9823H110.945V14.5395L110.962 14.531Z" fill="#180F5E"/>
<path d="M119.171 14.531C119.171 16.3381 118.591 18.2305 115.965 18.2305C113.05 18.2305 112.846 15.9034 112.846 14.7356V7.37073C112.846 5.62327 113.118 3.21094 116.136 3.21094C118.565 3.21094 119.171 4.81348 119.171 6.80813V8.68345H117.236V6.41602C117.236 5.81081 117.15 4.89872 116.034 4.89872C115.053 4.89872 114.806 5.64885 114.806 6.50126V14.8635C114.806 16.2188 115.122 16.5513 115.991 16.5513C117.116 16.5513 117.218 15.6988 117.218 14.8294V11.9823H119.171V14.5395V14.531Z" fill="#180F5E"/>
<path d="M124.993 18.0419V9.96951L122.998 16.4138V18.0334H121.063V3.36328H122.998V11.2055L124.993 4.76124V3.37181H126.928V18.0589H124.993V18.0419Z" fill="#180F5E"/>
<path d="M132.886 18.0419V9.96951L130.891 16.4138V18.0334H128.956V3.36328H130.891V11.2055L132.886 4.76124V3.37181H134.821V18.0589H132.886V18.0419Z" fill="#180F5E"/>
<path d="M51.1815 25.5078V26.2665C52.9034 26.2665 53.2614 26.8887 53.2614 27.9883C53.2614 29.088 52.9034 29.6932 51.1815 29.6932V30.4859H50.5422V29.6932C48.8203 29.6932 48.4623 29.105 48.4623 28.0054C48.4623 26.9058 48.8203 26.275 50.5422 26.275V25.5163H51.1815V25.5078ZM50.5422 26.7779C49.4085 26.7779 49.1272 27.1615 49.1272 28.0139C49.1272 28.8663 49.4085 29.1647 50.5422 29.1647V26.7779ZM51.1815 29.1647C52.2726 29.1647 52.5965 28.9004 52.5965 27.9798C52.5965 27.1189 52.3408 26.7779 51.1815 26.7779V29.1647Z" fill="#180F5E"/>
<path d="M54.5737 28.9428C54.5737 29.4372 54.8464 30.1021 55.6136 30.1021C56.1762 30.1021 56.3893 29.6418 56.4575 29.3519L57.0116 29.4287C56.9349 29.6503 56.6365 30.5112 55.5625 30.5112C54.7697 30.5112 53.994 30.0424 53.994 28.7723C53.994 27.5022 54.8805 27.1016 55.5454 27.1016C56.2444 27.1016 57.0116 27.5704 57.0116 28.8149V28.9002H54.5737V28.9428ZM56.4149 28.5081C56.4149 27.9796 56.0398 27.5192 55.4943 27.5192C54.9146 27.5192 54.6333 27.9966 54.5822 28.5081H56.4149Z" fill="#180F5E"/>
<path d="M60.6771 29.9564H61.2056V31.218H60.7283V30.3997H57.992V31.218H57.5146V29.9564C58.1795 29.7945 58.3671 28.7375 58.3756 27.706V27.2031H60.6771V29.9564ZM58.87 27.6464V27.9021C58.87 28.4732 58.7507 29.5473 58.3074 29.9479H60.1486V27.6379H58.87V27.6464Z" fill="#180F5E"/>
<path d="M62.314 28.9428C62.314 29.4372 62.5868 30.1021 63.354 30.1021C63.9166 30.1021 64.1297 29.6418 64.1979 29.3519L64.7519 29.4287C64.6752 29.6503 64.3769 30.5112 63.3028 30.5112C62.5101 30.5112 61.7344 30.0424 61.7344 28.7723C61.7344 27.5022 62.6209 27.1016 63.2858 27.1016C63.9848 27.1016 64.7519 27.5704 64.7519 28.8149V28.9002H62.314V28.9428ZM64.1552 28.5081C64.1552 27.9796 63.7802 27.5192 63.2346 27.5192C62.655 27.5192 62.3737 27.9966 62.3225 28.5081H64.1552Z" fill="#180F5E"/>
<path d="M66.1583 27.2039V27.6556C66.3373 27.434 66.7464 27.1016 67.3005 27.1016C67.9569 27.1016 68.7411 27.6215 68.7411 28.8149C68.7411 29.548 68.3916 30.5112 67.2408 30.5112C66.8317 30.5112 66.3969 30.3578 66.1583 30.0339V31.9348H65.6298V27.2039H66.1583ZM67.1641 30.0339C67.8205 30.0339 68.1614 29.548 68.1614 28.7979C68.1614 27.9284 67.6415 27.6045 67.2067 27.6045C66.5845 27.6045 66.1668 28.0563 66.1668 28.8661C66.1668 29.5906 66.5504 30.0339 67.1726 30.0339H67.1641Z" fill="#180F5E"/>
<path d="M71.5371 28.3802C71.5371 28.0818 71.5371 27.5192 70.8211 27.5192C70.3693 27.5192 70.1307 27.7409 70.1307 28.1415V28.1927L69.5681 28.1586C69.5681 28.0051 69.6618 27.1016 70.7955 27.1016C70.9916 27.1016 71.3326 27.1357 71.5968 27.2891C72.0486 27.5448 72.0827 27.8773 72.0827 28.4484V29.5736C72.0827 29.7611 72.0827 29.9486 72.3299 29.9486C72.3981 29.9486 72.4322 29.9316 72.4919 29.9231V30.3748C72.3299 30.426 72.2361 30.4345 72.1424 30.4345C72.1168 30.4345 71.9207 30.4345 71.8014 30.3493C71.6735 30.2555 71.5883 30.0509 71.5798 29.9572C71.4349 30.1191 71.1024 30.4771 70.4887 30.4771C69.8749 30.4771 69.3976 30.1106 69.3976 29.5565C69.3976 29.4031 69.4402 29.0962 69.7471 28.8661C70.071 28.6189 70.6421 28.5336 71.0427 28.5081L71.5286 28.474V28.3631L71.5371 28.3802ZM70.3949 29.0706C70.2926 29.1133 70.0028 29.2497 70.0028 29.5565C70.0028 29.7952 70.1818 30.0339 70.608 30.0339C70.8978 30.0339 71.5457 29.9145 71.5457 29.0877V28.832C71.2985 28.8746 70.6506 28.9513 70.3949 29.0621V29.0706Z" fill="#180F5E"/>
<path d="M75.9951 30.4082H75.4666V27.6549H74.1879V27.9447C74.1879 29.4535 74.1879 30.4082 73.0968 30.4082H73.0116V29.9564H73.0968C73.5742 29.9564 73.6935 29.6325 73.6935 27.9447V27.2031H75.9951V30.4082Z" fill="#180F5E"/>
<path d="M77.5808 28.4647H78.6378C79.4561 28.4647 79.7374 28.908 79.7374 29.4109C79.7374 30.1866 79.3112 30.4082 78.4929 30.4082H77.0608V27.2031H77.5893V28.4647H77.5808ZM77.5808 29.965H78.4332C78.8423 29.965 79.1577 29.8541 79.1577 29.4365C79.1577 29.0188 78.8509 28.9165 78.382 28.9165H77.5808V29.965Z" fill="#180F5E"/>
<path d="M81.0414 27.2031V28.4988H82.6866V27.2031H83.2151V30.4082H82.6866V28.9506H81.0414V30.4082H80.5129V27.2031H81.0414Z" fill="#180F5E"/>
<path d="M85.7298 27.1016C86.5737 27.1016 87.2557 27.6215 87.2557 28.7723C87.2557 29.9231 86.5396 30.5112 85.6872 30.5112C84.8348 30.5112 84.1188 29.9145 84.1188 28.8064C84.1188 28.2864 84.3489 27.1016 85.7384 27.1016H85.7298ZM85.6787 30.0765C86.3351 30.0765 86.6675 29.565 86.6675 28.7382C86.6675 28.1841 86.4459 27.5448 85.7213 27.5448C84.6984 27.5448 84.6899 28.6359 84.6899 28.8405C84.6899 29.2241 84.8092 30.0765 85.6702 30.0765H85.6787Z" fill="#180F5E"/>
<path d="M88.5601 28.9428C88.5601 29.4372 88.8329 30.1021 89.6001 30.1021C90.1626 30.1021 90.3758 29.6418 90.444 29.3519L90.998 29.4287C90.9213 29.6503 90.623 30.5112 89.5489 30.5112C88.7562 30.5112 87.9805 30.0424 87.9805 28.7723C87.9805 27.5022 88.867 27.1016 89.5319 27.1016C90.2308 27.1016 90.998 27.5704 90.998 28.8149V28.9002H88.5601V28.9428ZM90.4013 28.5081C90.4013 27.9796 90.0263 27.5192 89.4807 27.5192C88.9011 27.5192 88.6198 27.9966 88.5686 28.5081H90.4013Z" fill="#180F5E"/>
<path d="M95.4474 28.3802C95.4474 28.0818 95.4474 27.5192 94.7314 27.5192C94.2796 27.5192 94.0409 27.7409 94.0409 28.1415V28.1927L93.4783 28.1586C93.4783 28.0051 93.5721 27.1016 94.7058 27.1016C94.9019 27.1016 95.2428 27.1357 95.5071 27.2891C95.9674 27.5448 95.993 27.8773 95.993 28.4484V29.5736C95.993 29.7611 95.993 29.9486 96.2402 29.9486C96.3084 29.9486 96.3425 29.9316 96.4021 29.9231V30.3748C96.2402 30.426 96.1464 30.4345 96.0526 30.4345C96.0271 30.4345 95.831 30.4345 95.7117 30.3493C95.5838 30.2555 95.4986 30.0509 95.4986 29.9572C95.3451 30.1191 95.0212 30.4771 94.399 30.4771C93.7767 30.4771 93.3079 30.1106 93.3079 29.5565C93.3079 29.4031 93.3505 29.0962 93.6573 28.8661C93.9813 28.6189 94.5439 28.5336 94.953 28.5081L95.4474 28.474V28.3631V28.3802ZM94.3052 29.0706C94.2029 29.1133 93.9131 29.2497 93.9131 29.5565C93.9131 29.7952 94.0921 30.0339 94.5183 30.0339C94.8081 30.0339 95.4559 29.9145 95.4559 29.0877V28.832C95.2087 28.8746 94.5609 28.9513 94.3052 29.0621V29.0706Z" fill="#180F5E"/>
<path d="M99.4453 27.2031V27.6549H97.6637V30.4082H97.1353V27.2031H99.4453Z" fill="#180F5E"/>
<path d="M100.519 28.9428C100.519 29.4372 100.792 30.1021 101.559 30.1021C102.122 30.1021 102.335 29.6418 102.403 29.3519L102.957 29.4287C102.88 29.6503 102.582 30.5112 101.508 30.5112C100.715 30.5112 99.9395 30.0424 99.9395 28.7723C99.9395 27.5022 100.826 27.1016 101.491 27.1016C102.19 27.1016 102.957 27.5704 102.957 28.8149V28.9002H100.519V28.9428ZM102.36 28.5081C102.36 27.9796 101.985 27.5192 101.44 27.5192C100.86 27.5192 100.579 27.9966 100.528 28.5081H102.36Z" fill="#180F5E"/>
<path d="M104.364 27.2031V28.4988H106.009V27.2031H106.537V30.4082H106.009V28.9506H104.364V30.4082H103.835V27.2031H104.364Z" fill="#180F5E"/>
<path d="M109.938 27.2031V27.6549H108.873V30.4082H108.344V27.6549H107.279V27.2031H109.947H109.938Z" fill="#180F5E"/>
<path d="M113.535 29.2497C113.356 30.1788 112.76 30.5112 112.027 30.5112C111.021 30.5112 110.441 29.8122 110.441 28.832C110.441 27.8517 110.961 27.1016 112.001 27.1016C112.964 27.1016 113.399 27.7153 113.476 28.1756L112.879 28.2268C112.794 27.7579 112.487 27.4937 112.009 27.4937C111.532 27.4937 111.046 27.8176 111.046 28.7893C111.046 29.548 111.387 30.085 112.044 30.085C112.657 30.085 112.896 29.6929 112.956 29.19L113.544 29.2411L113.535 29.2497Z" fill="#180F5E"/>
<path d="M116.681 27.2031V27.6549H115.615V30.4082H115.087V27.6549H114.021V27.2031H116.689H116.681Z" fill="#180F5E"/>
<path d="M118.982 27.2031C119.835 27.2031 120.014 27.6293 120.014 28.0044C120.014 28.3795 119.852 28.5926 119.571 28.7375C119.971 28.8568 120.15 29.104 120.15 29.5558C120.15 30.0928 119.733 30.4082 119.025 30.4082H117.414V27.2031H118.982ZM117.942 28.5073H118.829C119.187 28.5073 119.485 28.4477 119.485 28.0896C119.485 27.7316 119.195 27.6549 118.829 27.6549H117.942V28.5158V28.5073ZM117.942 29.9564H118.931C119.357 29.9564 119.622 29.8371 119.622 29.4706C119.622 29.1807 119.477 28.9591 118.931 28.9591H117.942V29.9564Z" fill="#180F5E"/>
<path d="M122.435 27.1016C123.279 27.1016 123.961 27.6215 123.961 28.7723C123.961 29.9231 123.245 30.5112 122.392 30.5112C121.54 30.5112 120.824 29.9145 120.824 28.8064C120.824 28.2864 121.054 27.1016 122.443 27.1016H122.435ZM122.384 30.0765C123.04 30.0765 123.381 29.565 123.381 28.7382C123.381 28.1841 123.159 27.5448 122.435 27.5448C121.412 27.5448 121.403 28.6359 121.403 28.8405C121.403 29.2241 121.523 30.0765 122.384 30.0765Z" fill="#180F5E"/>
<path d="M51.2579 35.3633V38.5684H50.7294V35.8151H49.1354V38.5684H48.6069V35.3633H51.2579Z" fill="#180F5E"/>
<path d="M53.7731 35.2585C54.6169 35.2585 55.2989 35.7785 55.2989 36.9293C55.2989 38.08 54.5828 38.6597 53.7304 38.6597C52.878 38.6597 52.162 38.063 52.162 36.9548C52.162 36.4349 52.3921 35.25 53.7816 35.25L53.7731 35.2585ZM53.7219 38.2335C54.3783 38.2335 54.7107 37.722 54.7107 36.8952C54.7107 36.3411 54.4891 35.7018 53.7645 35.7018C52.7416 35.7018 52.7416 36.7929 52.7416 36.9975C52.7416 37.381 52.861 38.2335 53.7219 38.2335Z" fill="#180F5E"/>
<path d="M60.6262 38.1166H61.1547V39.3782H60.6774V38.5598H57.9411V39.3782H57.4637V38.1166C58.1286 37.9546 58.3162 36.8976 58.3247 35.8662V35.3633H60.6262V38.1166ZM58.8191 35.8065V36.0623C58.8191 36.6334 58.6997 37.7074 58.2565 38.1081H60.0977V35.798H58.8191V35.8065Z" fill="#180F5E"/>
<path d="M62.2712 37.1022C62.2712 37.5966 62.5439 38.2615 63.3111 38.2615C63.8737 38.2615 64.0868 37.8097 64.155 37.5114L64.7091 37.5881C64.6324 37.8097 64.334 38.6707 63.26 38.6707C62.4672 38.6707 61.6915 38.2018 61.6915 36.9403C61.6915 35.6787 62.578 35.2695 63.2429 35.2695C63.9419 35.2695 64.7091 35.7384 64.7091 36.9829V37.0681H62.2712V37.1108V37.1022ZM64.1124 36.6675C64.1124 36.139 63.7373 35.6787 63.1918 35.6787C62.6121 35.6787 62.3308 36.156 62.2797 36.6675H64.1124Z" fill="#180F5E"/>
<path d="M68.1956 38.5684H67.6671V35.8151H66.3885V36.1049C66.3885 37.6137 66.3885 38.5684 65.2974 38.5684H65.2122V38.1166H65.2974C65.7748 38.1166 65.8941 37.7927 65.8941 36.1049V35.3633H68.1956V38.5684Z" fill="#180F5E"/>
<path d="M71.1872 36.5364C71.1872 36.2381 71.1872 35.6755 70.4711 35.6755C70.0194 35.6755 69.7807 35.8971 69.7807 36.2978V36.3489L69.2181 36.3148C69.2181 36.1614 69.3119 35.2578 70.4456 35.2578C70.6416 35.2578 70.9826 35.2919 71.2468 35.4453C71.6986 35.7011 71.7327 36.0335 71.7327 36.6046V37.7298C71.7327 37.9174 71.7327 38.1049 71.9799 38.1049C72.0481 38.1049 72.0822 38.0878 72.1419 38.0793V38.5311C71.9799 38.5822 71.8862 38.5908 71.7924 38.5908C71.7668 38.5908 71.5708 38.5908 71.4514 38.5055C71.3236 38.4118 71.2383 38.2072 71.2298 38.1134C71.0849 38.2754 70.7524 38.6334 70.1387 38.6334C69.525 38.6334 69.0476 38.2668 69.0476 37.7128C69.0476 37.5593 69.0902 37.2525 69.3971 37.0223C69.721 36.7751 70.2921 36.6899 70.6928 36.6643L71.1786 36.6302V36.5194L71.1872 36.5364ZM70.0449 37.2269C69.9426 37.2695 69.6528 37.4059 69.6528 37.7128C69.6528 37.9514 69.8318 38.1901 70.258 38.1901C70.5479 38.1901 71.1957 38.0708 71.1957 37.2439V36.9882C70.9485 37.0308 70.3007 37.1076 70.0449 37.2184V37.2269Z" fill="#180F5E"/>
<path d="M76.3277 35.3633V38.5684H75.8503V35.9344L74.8871 38.5684H74.333L73.4124 35.8833V38.5684H72.8839V35.3633H73.6852L74.6655 38.0228L75.6457 35.3633H76.3362H76.3277Z" fill="#180F5E"/>
<path d="M79.5921 35.3633V36.659H81.2373V35.3633H81.7658V38.5684H81.2373V37.1107H79.5921V38.5684H79.0636V35.3633H79.5921Z" fill="#180F5E"/>
<path d="M84.7582 36.5364C84.7582 36.2381 84.7582 35.6755 84.0422 35.6755C83.5904 35.6755 83.3517 35.8971 83.3517 36.2978V36.3489L82.7891 36.3148C82.7891 36.1614 82.8829 35.2578 84.0166 35.2578C84.2127 35.2578 84.5536 35.2919 84.8179 35.4453C85.2697 35.7011 85.3038 36.0335 85.3038 36.6046V37.7298C85.3038 37.9174 85.3038 38.1049 85.551 38.1049C85.6192 38.1049 85.6533 38.0878 85.7129 38.0793V38.5311C85.551 38.5822 85.4572 38.5908 85.3634 38.5908C85.3379 38.5908 85.1418 38.5908 85.0225 38.5055C84.8946 38.4118 84.8094 38.2072 84.8008 38.1134C84.6559 38.2754 84.3235 38.6334 83.7097 38.6334C83.096 38.6334 82.6187 38.2668 82.6187 37.7128C82.6187 37.5593 82.6613 37.2525 82.9681 37.0223C83.2921 36.7751 83.8632 36.6899 84.2638 36.6643L84.7497 36.6302V36.5194L84.7582 36.5364ZM83.616 37.2269C83.5137 37.2695 83.2239 37.4059 83.2239 37.7128C83.2239 37.9514 83.4029 38.1901 83.8291 38.1901C84.1189 38.1901 84.7667 38.0708 84.7667 37.2439V36.9882C84.5195 37.0308 83.8717 37.1076 83.616 37.2184V37.2269Z" fill="#180F5E"/>
<path d="M86.9744 35.3601V38.1134H88.5684V35.3601H89.0969V38.1134H89.6254V39.375H89.1481V38.5566H86.4374V35.3516H86.9659L86.9744 35.3601Z" fill="#180F5E"/>
<path d="M90.9036 35.3633V37.5199L92.617 35.7042V35.3633H93.1455V38.5684H92.617V36.3606L90.9036 38.1763V38.5684H90.3751V35.3633H90.9036Z" fill="#180F5E"/>
<path d="M95.6607 35.2585C96.5046 35.2585 97.1866 35.7785 97.1866 36.9293C97.1866 38.08 96.4705 38.6597 95.6181 38.6597C94.7657 38.6597 94.0497 38.063 94.0497 36.9548C94.0497 36.4349 94.2798 35.25 95.6693 35.25L95.6607 35.2585ZM95.6096 38.2335C96.266 38.2335 96.5984 37.722 96.5984 36.8952C96.5984 36.3411 96.3853 35.7018 95.6522 35.7018C94.6293 35.7018 94.6208 36.7929 94.6208 36.9975C94.6208 37.381 94.7401 38.2335 95.6011 38.2335H95.6096Z" fill="#180F5E"/>
<path d="M98.6097 35.3633V36.659H100.255V35.3633H100.783V38.5684H100.255V37.1107H98.6097V38.5684H98.0812V35.3633H98.6097Z" fill="#180F5E"/>
<path d="M103.767 36.5364C103.767 36.2381 103.767 35.6755 103.051 35.6755C102.599 35.6755 102.361 35.8971 102.361 36.2978V36.3489L101.798 36.3148C101.798 36.1614 101.892 35.2578 103.026 35.2578C103.222 35.2578 103.563 35.2919 103.827 35.4453C104.279 35.7011 104.313 36.0335 104.313 36.6046V37.7298C104.313 37.9174 104.313 38.1049 104.56 38.1049C104.628 38.1049 104.662 38.0878 104.722 38.0793V38.5311C104.56 38.5822 104.466 38.5908 104.372 38.5908C104.347 38.5908 104.151 38.5908 104.031 38.5055C103.904 38.4118 103.818 38.2072 103.81 38.1134C103.665 38.2754 103.333 38.6334 102.719 38.6334C102.105 38.6334 101.628 38.2668 101.628 37.7128C101.628 37.5593 101.67 37.2525 101.977 37.0223C102.301 36.7751 102.872 36.6899 103.273 36.6643L103.759 36.6302V36.5194L103.767 36.5364ZM102.625 37.2269C102.523 37.2695 102.233 37.4059 102.233 37.7128C102.233 37.9514 102.412 38.1901 102.838 38.1901C103.128 38.1901 103.776 38.0708 103.776 37.2439V36.9882C103.529 37.0308 102.881 37.1076 102.625 37.2184V37.2269Z" fill="#180F5E"/>
<path d="M108.225 38.5684H107.697V35.8151H106.418V36.1049C106.418 37.6137 106.418 38.5684 105.327 38.5684H105.242V38.1166H105.327C105.804 38.1166 105.924 37.7927 105.924 36.1049V35.3633H108.225V38.5684Z" fill="#180F5E"/>
<path d="M109.819 36.6249H110.876C111.694 36.6249 111.967 37.0681 111.967 37.571C111.967 38.3467 111.549 38.5684 110.722 38.5684H109.29V35.3633H109.819V36.6249ZM109.819 38.1251H110.671C111.08 38.1251 111.396 38.0143 111.396 37.5966C111.396 37.1789 111.089 37.0766 110.62 37.0766H109.819V38.1251Z" fill="#180F5E"/>
<path d="M113.271 35.3633V36.659H114.916V35.3633H115.445V38.5684H114.916V37.1107H113.271V38.5684H112.743V35.3633H113.271Z" fill="#180F5E"/>
<path d="M117.959 35.2585C118.803 35.2585 119.485 35.7785 119.485 36.9293C119.485 38.08 118.769 38.6597 117.917 38.6597C117.064 38.6597 116.348 38.063 116.348 36.9548C116.348 36.4349 116.579 35.25 117.968 35.25L117.959 35.2585ZM117.908 38.2335C118.565 38.2335 118.906 37.722 118.906 36.8952C118.906 36.3411 118.684 35.7018 117.959 35.7018C116.937 35.7018 116.928 36.7929 116.928 36.9975C116.928 37.381 117.047 38.2335 117.908 38.2335Z" fill="#180F5E"/>
<path d="M123.304 37.4059C123.125 38.335 122.529 38.6675 121.796 38.6675C120.79 38.6675 120.21 37.9685 120.21 36.9882C120.21 36.0079 120.73 35.2578 121.77 35.2578C122.733 35.2578 123.168 35.8716 123.245 36.3319L122.648 36.383C122.563 35.9142 122.256 35.6499 121.779 35.6499C121.301 35.6499 120.815 35.9738 120.815 36.9456C120.815 37.7042 121.156 38.2413 121.813 38.2413C122.426 38.2413 122.665 37.8492 122.725 37.3462L123.313 37.3974L123.304 37.4059Z" fill="#180F5E"/>
<path d="M126.458 35.3633V35.8151H125.393V38.5684H124.864V35.8151H123.799V35.3633H126.467H126.458Z" fill="#180F5E"/>
<path d="M127.541 37.1022C127.541 37.5966 127.813 38.2615 128.581 38.2615C129.143 38.2615 129.356 37.8097 129.425 37.5114L129.979 37.5881C129.902 37.8097 129.604 38.6707 128.53 38.6707C127.737 38.6707 126.961 38.2018 126.961 36.9403C126.961 35.6787 127.848 35.2695 128.512 35.2695C129.211 35.2695 129.979 35.7384 129.979 36.9829V37.0681H127.541V37.1108V37.1022ZM129.382 36.6675C129.382 36.139 129.007 35.6787 128.461 35.6787C127.882 35.6787 127.6 36.156 127.549 36.6675H129.382Z" fill="#180F5E"/>
<path d="M131.394 35.3632V37.5198L133.107 35.7041V35.3632H133.636V38.5683H133.107V36.3605L131.394 38.1761V38.5683H130.865V35.3632H131.394ZM133.235 33.9823C133.167 34.4852 132.758 34.8006 132.246 34.8006C131.735 34.8006 131.326 34.4852 131.258 33.9823L131.692 33.9141C131.761 34.2721 132.016 34.3658 132.246 34.3658C132.477 34.3658 132.741 34.2806 132.8 33.9141L133.235 33.9823Z" fill="#180F5E"/>
<path d="M28.1581 13.9143C27.5188 13.3517 26.5896 13.3602 26.0611 13.5307C26.4106 13.1045 27.2204 12.755 27.4506 12.7124C27.6296 12.7806 28.1495 13.3176 28.1495 13.9143H28.1581ZM30.2039 11.5872C29.7777 9.32826 24.5353 10.8285 21.8928 9.86529C21.8417 10.5216 22.7026 11.5786 23.5294 11.9708C22.1144 13.1982 20.8443 15.6702 20.5886 18.6878C20.3329 15.6702 19.0628 13.1982 17.6563 11.9708C18.4831 11.5786 19.3441 10.5216 19.2929 9.86529C16.6504 10.8285 11.3996 9.32826 10.9819 11.5872C10.8966 12.0645 11.1268 12.7976 11.374 13.0022C11.4166 12.8487 11.6468 12.3543 12.3798 12.2435C16.0793 11.6809 19.1651 17.3836 16.3777 19.6851C16.3351 19.7192 16.3606 19.7874 16.4203 19.7874H24.774C24.8336 19.7874 24.8507 19.7192 24.8166 19.6851C22.0292 17.3836 25.1149 11.6809 28.8144 12.2435C29.5475 12.3543 29.7777 12.8487 29.8203 13.0022C30.0675 12.7891 30.2976 12.0645 30.2124 11.5872H30.2039ZM31.0989 6.40448C31.474 7.60638 30.7579 9.11516 28.7121 9.21745C28.6951 9.19188 28.7121 8.92763 28.7121 8.92763C30.434 8.92763 31.2182 7.07789 29.8629 5.82483C30.5875 3.54036 31.6871 5.82483 32.6247 6.413C33.1532 6.74544 34.6023 6.54939 34.7132 7.19722C34.8751 8.13488 33.2129 8.11783 33.9545 10.1551C33.5794 9.87381 32.1985 9.08106 32.531 10.5898C32.3861 10.5898 31.9172 10.2659 31.9172 9.83119C31.9172 8.88501 33.2129 8.4588 33.2129 7.54671C33.2129 6.19137 31.0478 6.1999 31.116 6.413L31.0989 6.40448ZM7.19715 10.1466C7.93876 8.10931 6.26802 8.12636 6.42998 7.1887C6.54079 6.53234 7.99843 6.73692 8.5184 6.40448C9.44753 5.81631 10.5472 3.54036 11.2802 5.81631C9.92489 7.06936 10.7176 8.9191 12.431 8.9191C12.431 8.9191 12.4395 9.19188 12.431 9.20893C10.3852 9.10664 9.66916 7.60638 10.0442 6.39595C10.1124 6.18285 7.94728 6.17432 7.94728 7.52967C7.94728 8.44175 9.24295 8.86796 9.24295 9.81414C9.24295 10.2574 8.77412 10.5728 8.62921 10.5728C8.96166 9.05549 7.58074 9.84824 7.20568 10.1381L7.19715 10.1466ZM13.0192 13.9143C13.0192 13.309 13.5391 12.7806 13.7181 12.7124C13.9568 12.755 14.7666 13.1045 15.1076 13.5307C14.5791 13.3687 13.6585 13.3517 13.0106 13.9143H13.0192ZM21.5689 1.28146L20.5716 0.0625L19.5742 1.28146L20.5716 2.5686L21.5689 1.28146ZM27.2716 4.96389L26.5641 4.09443L25.8565 4.96389L26.5641 5.80779L27.2716 4.96389ZM33.0339 29.9994L32.1303 29.0447L31.2268 29.9994L32.1303 30.8347L33.0339 29.9994ZM15.2866 4.96389L14.5791 4.09443L13.8716 4.96389L14.5791 5.80779L15.2866 4.96389ZM13.2493 9.20893H15.9003C18.1251 9.20893 19.131 7.83654 19.4379 6.65168H21.7053C22.0121 7.83654 23.0095 9.20893 25.2428 9.20893H27.8938C27.8938 9.20893 28.3541 8.57814 28.4735 8.27127C28.8911 7.14608 28.3541 6.6261 27.5784 6.6261L26.5726 7.53819L25.5667 6.6261C24.7825 6.6261 24.254 7.14608 24.6717 8.27127C24.7228 8.41618 24.8507 8.62928 24.97 8.80829C24.0324 8.68043 22.8305 8.03259 22.5662 6.65168C22.5662 6.65168 23.2652 5.54354 23.4357 5.10028C24.0665 3.48921 23.2652 2.83285 22.0889 2.83285L20.5801 4.60588L19.0713 2.83285C17.9035 2.83285 17.1022 3.48921 17.7245 5.10028C17.895 5.54354 18.594 6.65168 18.594 6.65168C18.3297 8.03259 17.1278 8.6719 16.1901 8.80829C16.3095 8.62076 16.4373 8.41618 16.4885 8.27127C16.9062 7.14608 16.3692 6.6261 15.5935 6.6261L14.5876 7.53819L13.5818 6.6261C12.7975 6.6261 12.269 7.14608 12.6867 8.27127C12.8061 8.58666 13.2664 9.20893 13.2664 9.20893H13.2493ZM40.663 17.4262C40.1516 17.6819 37.1511 19.0884 33.3067 18.5685C33.3493 18.3809 33.3834 18.2019 33.409 18.0144C35.9662 17.7075 38.0461 17.2728 39.3759 16.5397C40.8846 15.6958 41.5495 13.6926 40.7824 12.1924C40.7653 12.1583 40.7056 12.1498 40.6801 12.1753C40.2624 12.6527 37.6369 15.5168 33.4942 16.4033C33.4857 16.1902 33.4601 15.9771 33.4345 15.764C35.4462 14.6218 37.4068 13.309 38.3444 12.1071C39.7595 10.2915 39.6316 7.97292 38.2848 6.78806C38.2592 6.76249 38.2081 6.77102 38.191 6.80511C37.7648 7.50409 33.784 13.9484 29.4111 16.7272C29.3685 16.7528 29.3088 16.7954 29.2492 16.8295C29.1213 16.9062 29.1128 17.0682 29.2151 17.162C29.718 17.6223 30.0334 18.2531 30.0334 18.9606C30.0334 20.188 29.0872 21.2109 27.8342 21.4326C27.1948 21.5519 26.2828 21.5178 25.3962 21.228C25.3536 21.2195 25.3195 21.245 25.3195 21.2791V25.1662C25.3195 25.2258 25.4133 25.2429 25.4389 25.1832C25.9759 23.7597 27.5784 23.4613 28.2774 23.4613C28.5331 24.9786 28.9849 26.2317 29.5646 26.9136C30.5193 28.0132 32.0792 27.9962 32.7526 27.2375C32.7782 27.212 32.7696 27.1693 32.7355 27.1523C32.3349 26.9221 30.0675 25.5327 29.6157 23.2482C29.7947 23.1886 29.9737 23.1204 30.1357 23.0351C30.8688 24.2455 31.9343 25.3281 32.7952 25.7373C34.2358 26.4277 35.557 26.0953 36.1452 25.0809C36.1623 25.0468 36.1452 25.0042 36.0941 24.9957C35.199 24.9275 32.4628 24.1433 31.295 22.2253C31.4314 22.106 31.5592 21.9781 31.6786 21.8417C32.8975 22.7709 34.6194 23.5892 35.8554 23.7597C37.3045 23.9557 38.9411 23.4954 38.9752 21.8162C38.9752 21.7821 38.9497 21.7565 38.907 21.7565C38.3956 21.7906 34.9944 21.9355 32.5651 20.5461C32.6503 20.3841 32.727 20.2221 32.8037 20.0602C32.8037 20.0602 36.4691 20.9296 38.1995 20.6398C39.9214 20.3585 40.9358 19.0714 40.7397 17.4688C40.7397 17.4262 40.6886 17.4092 40.6545 17.4262H40.663ZM8.33087 20.0602C8.33087 20.0602 4.66548 20.9296 2.93507 20.6398C1.21319 20.3585 0.198817 19.0714 0.394872 17.4688C0.394872 17.4262 0.446017 17.4006 0.488638 17.4262C1.00861 17.6905 4.00912 19.0884 7.84499 18.5685C7.80237 18.3809 7.76827 18.2019 7.7427 18.0144C5.18545 17.7075 3.10556 17.2728 1.77579 16.5397C0.26701 15.6958 -0.397875 13.6926 0.3693 12.2009C0.386348 12.1668 0.446017 12.1583 0.47159 12.1924C0.897798 12.6783 3.52324 15.5339 7.65746 16.4204C7.66598 16.2073 7.69156 15.9942 7.71713 15.7811C5.70543 14.6388 3.74487 13.3261 2.80721 12.1242C1.3922 10.3085 1.52859 7.98997 2.86688 6.80511C2.89245 6.77954 2.9436 6.78806 2.96065 6.82216C3.38685 7.52967 7.36764 13.9654 11.7405 16.7443C11.7832 16.7699 11.8428 16.8125 11.9025 16.8466C12.0304 16.9233 12.0389 17.0853 11.9366 17.179C11.4337 17.6393 11.1183 18.2701 11.1183 18.9776C11.1183 20.2051 12.0645 21.228 13.3175 21.4496C13.9483 21.569 14.8689 21.5349 15.7554 21.245C15.798 21.2365 15.8407 21.2621 15.8407 21.2962V25.1832C15.8407 25.2429 15.7469 25.2599 15.7213 25.2003C15.1843 23.7767 13.5818 23.4784 12.8828 23.4784C12.627 24.9957 12.1838 26.2487 11.5956 26.9307C10.6409 28.0303 9.08099 28.0132 8.40759 27.2546C8.38201 27.229 8.39054 27.1864 8.42463 27.1693C8.82527 26.9392 11.0927 25.5497 11.5445 23.2653C11.3655 23.2056 11.195 23.1374 11.0245 23.0522C10.2914 24.2626 9.22591 25.3452 8.36497 25.7543C6.92438 26.4448 5.60314 26.1123 5.01497 25.098C4.99792 25.0639 5.01497 25.0212 5.06611 25.0127C5.96115 24.9445 8.69741 24.1603 9.86522 22.2424C9.72883 22.123 9.60097 21.9952 9.48163 21.8588C8.26267 22.7879 6.53227 23.6062 5.30479 23.7767C3.86421 23.9728 2.21904 23.5125 2.18495 21.8332C2.18495 21.7991 2.21052 21.7735 2.25314 21.7735C2.77311 21.8076 6.16573 21.9525 8.59512 20.5631C8.50988 20.4011 8.43316 20.2392 8.35644 20.0772L8.33087 20.0602ZM32.1474 32.0622L33.4857 31.0137C34.2528 31.4655 34.7302 32.3009 34.6194 33.23C34.4915 34.287 33.5624 35.148 32.4202 35.2588C31.4143 35.3611 30.5278 34.8922 30.0419 34.1762C29.2918 33.4261 27.3824 32.872 25.8395 32.872C25.6008 32.872 25.49 32.6674 25.5667 32.4714C26.189 30.9796 24.8507 29.9056 23.4783 30.7836C22.8816 31.1672 22.2679 31.9173 21.8076 33.1789C24.0665 33.7244 26.905 35.2332 27.4761 36.8784C27.6978 37.5177 26.9647 38.3786 26.0782 38.5576C26.0441 38.5576 26.01 38.5406 26.01 38.515C25.5497 36.06 22.9072 34.2273 21.5263 33.9205C21.4581 34.108 21.4837 34.0483 21.4155 34.2273C22.9157 34.9348 24.3648 36.4266 24.7825 38.2081C24.97 39.0179 24.0665 39.751 23.3163 39.9556C23.2822 39.9641 23.2396 39.9385 23.2396 39.9044C23.0947 37.6626 22.1059 35.7532 21.2194 34.8837C21.1938 35.0542 21.1768 35.2247 21.1683 35.3952C21.1683 35.3952 22.0803 37.9268 22.0803 39.7766C22.0803 40.6375 20.8017 41.2342 20.563 41.3194C20.3755 41.2342 19.0969 40.6375 19.0969 39.7766C19.0969 37.9268 20.009 35.3952 20.009 35.3952C20.0004 35.2247 19.9749 35.0542 19.9578 34.8837C19.0713 35.7532 18.0825 37.6541 17.9376 39.9044C17.9376 39.9385 17.895 39.9641 17.8609 39.9556C17.1108 39.751 16.2072 39.0179 16.3947 38.2081C16.8124 36.4351 18.2615 34.9348 19.7618 34.2273C19.6936 34.0398 19.7191 34.0995 19.6424 33.9205C18.27 34.2273 15.6276 36.06 15.1587 38.515C15.1587 38.5491 15.1246 38.5661 15.0905 38.5576C14.204 38.3871 13.4709 37.5177 13.6926 36.8784C14.2637 35.2332 17.1022 33.7244 19.3611 33.1789C18.9008 31.9173 18.2871 31.1672 17.6904 30.7836C16.3095 29.9056 14.9797 30.9882 15.602 32.4714C15.6872 32.6674 15.5679 32.872 15.3292 32.872C13.9653 32.872 12.3117 33.3067 11.4337 33.929C11.4337 33.929 12.5077 34.9263 12.5248 34.9434C12.6015 35.0116 12.6611 35.1053 12.6697 35.2161C12.6867 35.4548 12.4907 35.6679 12.2349 35.685C12.09 35.6935 11.9622 35.6424 11.8684 35.5571L10.8029 34.5683C10.4875 34.7558 10.0868 34.8411 9.66064 34.7558C9.06395 34.6365 8.59512 34.1677 8.50135 33.6051C8.44168 33.2471 8.52692 32.9061 8.71446 32.6333C8.71446 32.6333 4.674 28.823 4.6399 28.7719L4.45237 28.8656C4.01764 29.1214 3.50619 28.7975 3.53176 28.5758C3.22489 28.8571 1.80988 28.9594 1.3922 27.5359C1.68202 27.5614 2.26166 27.5444 2.26166 27.5444C2.26166 27.5444 1.56268 26.4704 2.06561 25.8737C2.63673 25.3452 3.77044 25.9589 3.77044 25.9589C3.77044 25.9589 3.74487 25.3878 3.70225 25.1065C5.17693 25.4304 5.15988 26.8198 4.89563 27.1438C5.12578 27.1097 5.4838 27.587 5.24512 28.0303L5.21102 28.107C5.28774 28.1496 9.43049 32.0707 9.43049 32.0707C9.60097 32.0025 9.7885 31.9684 9.99308 31.9684C10.4449 31.9684 10.8455 32.1474 11.1183 32.4373C12.1753 32.5651 14.4256 32.0537 14.2125 31.7383C11.8173 28.3627 13.6499 26.3595 15.8577 26.4704V28.7378C15.8577 29.4623 16.4885 30.059 17.2727 30.059H18.7985C19.8896 30.059 20.5971 31.1586 20.5971 31.1586C20.5971 31.1586 21.3046 30.059 22.4043 30.059H23.9301C24.7143 30.059 25.3451 29.4709 25.3451 28.7378V26.4704C27.5529 26.3595 29.3855 28.3712 26.9817 31.7383C26.7686 32.0622 28.9593 32.5481 29.7606 32.4373C29.914 31.8491 30.3062 31.3462 30.8347 31.0308L32.173 32.0793L32.1474 32.0622ZM22.3105 25.294C22.7878 25.115 23.5294 25.2599 23.5039 25.9504C23.5039 26.1038 23.717 26.1038 23.734 25.9504C23.8789 24.919 23.18 24.6291 22.4554 24.7485C22.3616 24.399 22.2934 24.0836 22.2082 23.7767C22.14 23.5295 22.1144 23.0607 22.4043 23.0607C22.5577 23.0607 22.498 23.4954 22.481 23.683C22.4639 23.8449 22.5236 23.9472 22.66 23.9472C22.7452 23.9472 22.8475 23.8449 22.9072 23.7767C23.3249 23.3079 23.4186 22.5748 22.9328 22.2253C22.5236 21.927 21.5007 22.1486 21.2194 22.5663C21.1768 22.4043 20.9722 22.1486 20.8784 22.0293C20.7847 21.9185 20.7591 21.8417 20.887 21.748C20.9466 21.6968 21.1342 21.5178 21.1342 21.3218C21.1342 21.2109 21.0489 20.9978 20.7676 20.9978C20.546 20.9978 20.3073 21.1513 20.3073 21.4922C20.3073 21.569 20.3244 21.6457 20.3755 21.7309C20.2391 21.7053 19.8641 21.7139 19.668 21.765L22.3446 29.1128C23.1118 28.7378 23.6744 28.1326 23.6744 27.4933C23.6744 26.9477 22.8646 27.1267 22.4725 27.5529C22.3446 26.8625 22.2338 26.2146 22.1144 25.5753C22.0803 25.3963 22.1741 25.3366 22.3105 25.2855V25.294ZM18.5258 20.2989L19.0884 21.8588C18.611 21.9696 17.8353 22.3276 17.8353 22.7879C17.8353 23.4102 18.9349 23.8108 19.5657 23.7597C19.5316 23.9046 19.5657 24.0239 19.668 24.1433C19.4379 24.1433 19.0031 24.2541 18.8582 24.4075C18.5258 24.0921 17.9973 23.9813 17.7501 24.1688C17.5029 24.3564 17.4943 24.6888 17.7501 25.0553C17.9291 25.3111 17.9973 25.5583 17.7927 25.8566C18.5599 25.8566 18.2786 24.8678 18.5769 24.8678C18.5343 25.0639 18.5599 25.2855 18.6451 25.5327C18.7048 25.6947 18.7048 25.814 18.6025 25.9674C18.3553 26.3595 17.9717 27.2631 18.0228 28.0814C17.7756 28.0814 17.6478 28.0218 17.733 27.6808C17.7671 27.5529 17.6904 27.4592 17.5796 27.6211C17.4688 27.7916 17.4091 28.0899 17.4091 28.2178C17.4091 28.9424 18.2786 29.0958 18.611 28.9424C19.5657 29.8715 21.4496 29.6243 22.0803 29.3089L18.7644 20.2221C18.6962 20.0517 18.4576 20.1284 18.5172 20.3074L18.5258 20.2989ZM18.415 27.7831C18.7048 27.5785 19.2759 27.4933 19.7532 27.4933C19.4805 27.2461 19.3867 26.5215 19.5316 26.0953C18.8667 26.7431 18.3468 27.408 18.415 27.7831Z" fill="#180F5E"/>
</svg>
