<svg width="145" height="56" viewBox="0 0 145 56" fill="none" xmlns="http://www.w3.org/2000/svg">
<path d="M65.4876 25.2503H64.394V18.5352H65.5066L67.77 21.5621L70.0078 18.5352H71.1014V25.2503H70.0078V20.1504L68.0688 22.6813H67.4266L65.4876 20.1504V25.2503Z" fill="#012B6B"/>
<path d="M73.8033 25.2503H72.8688V18.5352H73.9623V23.4698L77.7959 18.5352H78.7496V25.2503H77.6561V20.303L73.8033 25.2503Z" fill="#012B6B"/>
<path d="M81.6105 25.2503H80.517V18.5352H81.6105V21.1869H85.2407V18.5352H86.3406V25.2503H85.2407V22.1535H81.6105V25.2503Z" fill="#012B6B"/>
<path d="M93.8808 24.3789C93.2069 25.0466 92.355 25.3772 91.3314 25.3772C90.3078 25.3772 89.4622 25.0466 88.782 24.3789C88.1144 23.6984 87.7775 22.8718 87.7775 21.8925C87.7775 20.9132 88.1144 20.0801 88.782 19.4188C89.4559 18.7447 90.3078 18.4141 91.3314 18.4141C92.355 18.4141 93.2005 18.7511 93.8808 19.4188C94.5611 20.0865 94.898 20.9068 94.898 21.8925C94.898 22.8781 94.5611 23.7048 93.8808 24.3789ZM89.6021 23.6794C90.0726 24.1499 90.6511 24.3916 91.3314 24.3916C92.0117 24.3916 92.5902 24.1563 93.0607 23.6794C93.5311 23.1961 93.7664 22.5983 93.7664 21.8925C93.7664 21.1866 93.5311 20.5889 93.0607 20.1183C92.5902 19.635 92.0117 19.3997 91.3314 19.3997C90.6511 19.3997 90.0726 19.6414 89.6021 20.1183C89.138 20.5825 88.9028 21.1739 88.9028 21.8925C88.9028 22.611 89.138 23.2024 89.6021 23.6794Z" fill="#012B6B"/>
<path d="M99.2784 25.2503H96.3348V18.5352H101.249V19.5017H97.4284V20.9198H99.2784C100.067 20.9198 100.69 21.1233 101.148 21.5239C101.605 21.9182 101.834 22.4396 101.834 23.0882C101.834 23.7369 101.605 24.2647 101.148 24.6526C100.696 25.0468 100.073 25.2503 99.2784 25.2503ZM97.4284 21.8927V24.2837H99.1767C99.6662 24.2837 100.048 24.182 100.315 23.9722C100.582 23.7623 100.715 23.4698 100.715 23.0946C100.715 22.7194 100.582 22.4205 100.308 22.2107C100.035 22.0008 99.6599 21.8927 99.1704 21.8927H97.422H97.4284Z" fill="#012B6B"/>
<path d="M104.263 25.2503H103.169V18.5352H106.164C106.895 18.5352 107.461 18.7196 107.868 19.082C108.287 19.4318 108.497 19.9024 108.497 20.481C108.497 21.0597 108.287 21.543 107.868 21.9182C107.461 22.287 106.895 22.4714 106.164 22.4714H104.263V25.244V25.2503ZM104.263 19.5017V21.5048H106.075C106.488 21.5048 106.806 21.4158 107.041 21.2441C107.27 21.0661 107.391 20.8181 107.391 20.5001C107.391 20.1822 107.276 19.9341 107.047 19.7625C106.819 19.5908 106.494 19.5017 106.075 19.5017H104.263Z" fill="#012B6B"/>
<path d="M110.83 25.2503H109.737V18.5352H110.83V21.1869H114.467V18.5352H115.56V25.2503H114.467V22.1535H110.83V25.2503Z" fill="#012B6B"/>
<path d="M117.881 25.2533H116.717L119.763 18.5H120.818L123.863 25.2533H122.687L121.931 23.5872H118.625L117.881 25.2533ZM120.278 19.8354L119 22.6588H121.549L120.278 19.8354Z" fill="#012B6B"/>
<path d="M125.981 25.379C125.542 25.379 125.211 25.3281 124.995 25.2263V24.228C125.256 24.3361 125.516 24.3933 125.79 24.3933C126.063 24.3933 126.298 24.3233 126.489 24.1834C126.667 24.0436 126.871 23.751 127.099 23.2995L124.372 18.543H125.605L127.665 22.1803L129.376 18.543H130.552L127.983 23.821C127.481 24.8639 126.813 25.3853 125.981 25.3853" fill="#012B6B"/>
<path d="M132.783 25.2503H131.69V18.5352H132.783V21.2823L135.638 18.5352H137.043L133.82 21.6066L137.564 25.2503H136.07L132.783 22.0263V25.2503Z" fill="#012B6B"/>
<path d="M139.567 25.2503H138.632V18.5352H139.726V23.4698L143.559 18.5352H144.513V25.2503H143.42V20.303L139.567 25.2503Z" fill="#012B6B"/>
<path d="M65.4876 36.8363H64.394V30.1211H67.3885C68.1196 30.1211 68.6855 30.3055 69.0924 30.668C69.512 31.0177 69.7218 31.4883 69.7218 32.067C69.7218 32.6456 69.512 33.1289 69.0924 33.5041C68.6855 33.8729 68.1196 34.0573 67.3885 34.0573H65.4876V36.8299V36.8363ZM65.4876 31.0877V33.0908H67.2995C67.7127 33.0908 68.0306 33.0017 68.2659 32.8301C68.4947 32.652 68.6155 32.404 68.6155 32.086C68.6155 31.7681 68.5011 31.5201 68.2722 31.3484C68.0433 31.1767 67.7191 31.0877 67.2995 31.0877H65.4876Z" fill="#012B6B"/>
<path d="M76.8804 35.9609C76.2065 36.6286 75.3546 36.9593 74.331 36.9593C73.3074 36.9593 72.4619 36.6286 71.7816 35.9609C71.1141 35.2805 70.7771 34.4538 70.7771 33.4745C70.7771 32.4952 71.1141 31.6622 71.7816 31.0008C72.4555 30.3268 73.3074 29.9961 74.331 29.9961C75.3546 29.9961 76.2002 30.3331 76.8804 31.0008C77.5607 31.6685 77.8977 32.4888 77.8977 33.4745C77.8977 34.4602 77.5607 35.2868 76.8804 35.9609ZM72.6017 35.2614C73.0722 35.732 73.6508 35.9736 74.331 35.9736C75.0113 35.9736 75.5898 35.7383 76.0603 35.2614C76.5308 34.7781 76.766 34.1804 76.766 33.4745C76.766 32.7686 76.5308 32.1709 76.0603 31.7003C75.5898 31.217 75.0113 30.9817 74.331 30.9817C73.6508 30.9817 73.0722 31.2234 72.6017 31.7003C72.1376 32.1645 71.9024 32.7559 71.9024 33.4745C71.9024 34.1931 72.1376 34.7845 72.6017 35.2614Z" fill="#012B6B"/>
<path d="M82.7995 36.9593C81.7568 36.9593 80.8795 36.635 80.1738 35.98C79.4744 35.3186 79.1311 34.4856 79.1311 33.4745C79.1311 32.4634 79.4808 31.6304 80.1738 30.9817C80.8667 30.3204 81.7377 29.9961 82.7995 29.9961C83.5115 29.9961 84.1409 30.1487 84.6877 30.4476V31.5095C84.1219 31.1598 83.4988 30.9817 82.8058 30.9817C82.0747 30.9817 81.4644 31.217 80.9748 31.694C80.4916 32.1582 80.2501 32.7559 80.2501 33.4809C80.2501 34.2058 80.4916 34.8035 80.9875 35.2741C81.4771 35.7383 82.1001 35.9736 82.8503 35.9736C83.645 35.9736 84.3126 35.7701 84.8403 35.3631V36.4251C84.2554 36.7812 83.5751 36.9593 82.7995 36.9593Z" fill="#012B6B"/>
<path d="M89.4558 36.9593C88.4132 36.9593 87.5358 36.635 86.8301 35.98C86.1308 35.3186 85.7875 34.4856 85.7875 33.4745C85.7875 32.4634 86.1371 31.6304 86.8301 30.9817C87.5231 30.3204 88.3941 29.9961 89.4558 29.9961C90.1679 29.9961 90.7973 30.1487 91.3441 30.4476V31.5095C90.7782 31.1598 90.1552 30.9817 89.4622 30.9817C88.7311 30.9817 88.1207 31.217 87.6312 31.694C87.148 32.1582 86.9064 32.7559 86.9064 33.4809C86.9064 34.2058 87.148 34.8035 87.6439 35.2741C88.1334 35.7383 88.7565 35.9736 89.5067 35.9736C90.3014 35.9736 90.969 35.7701 91.4966 35.3631V36.4251C90.9117 36.7812 90.2315 36.9593 89.4558 36.9593Z" fill="#012B6B"/>
<path d="M93.8044 36.8363H92.8699V30.1211H93.9697V35.0494L97.797 30.1211H98.7571V36.8363H97.6572V31.8826L93.8044 36.8363Z" fill="#012B6B"/>
<path d="M101.453 36.8363H100.518V30.1211H101.618V35.0494L105.445 30.1211H106.405V36.8363H105.305V31.8826L101.453 36.8363Z" fill="#012B6B"/>
<path d="M39.5675 41.3086C39.4022 41.3086 39.2687 41.4485 39.2687 41.6202C39.2687 41.7919 39.4022 41.9254 39.5675 41.9254C39.7328 41.9254 39.8663 41.7855 39.8663 41.6202C39.8663 41.4549 39.7328 41.3086 39.5675 41.3086Z" fill="#012B6B"/>
<path d="M40.5402 44.1334C40.5402 44.3051 40.6737 44.445 40.839 44.445C41.0043 44.445 41.1378 44.3051 41.1378 44.1334C41.1378 43.9617 41.0043 43.8281 40.839 43.8281C40.6737 43.8281 40.5402 43.968 40.5402 44.1334Z" fill="#012B6B"/>
<path d="M39.5675 43.8281C39.4022 43.8281 39.2687 43.968 39.2687 44.1397C39.2687 44.3114 39.4022 44.4513 39.5675 44.4513C39.7328 44.4513 39.8663 44.3114 39.8663 44.1397C39.8663 43.968 39.7328 43.8281 39.5675 43.8281Z" fill="#012B6B"/>
<path d="M41.8053 44.1334C41.8053 44.3051 41.9388 44.445 42.1041 44.445C42.2694 44.445 42.4029 44.3051 42.4029 44.1334C42.4029 43.9617 42.2694 43.8281 42.1041 43.8281C41.9388 43.8281 41.8053 43.968 41.8053 44.1334Z" fill="#012B6B"/>
<path d="M39.1478 38.4961L39.2114 39.2083L38.5947 39.1384V39.9523L39.2114 39.8824L39.1478 40.6327H39.9807L39.9171 39.8824L40.5338 39.9523V39.1384L39.9171 39.2083L39.9807 38.4961H39.1478Z" fill="#012B6B"/>
<path d="M40.0887 41.0586V43.634H42.5937C42.3775 42.324 41.3666 41.2875 40.0887 41.0586Z" fill="#012B6B"/>
<path d="M39.5675 42.5625C39.4022 42.5625 39.2687 42.7024 39.2687 42.8741C39.2687 43.0458 39.4022 43.1857 39.5675 43.1857C39.7328 43.1857 39.8663 43.0458 39.8663 42.8741C39.8663 42.7024 39.7328 42.5625 39.5675 42.5625Z" fill="#012B6B"/>
<path d="M40.6229 45.8672C40.5339 45.8672 40.3431 46.5158 40.5402 46.98C40.6419 47.228 40.8899 47.3298 41.0933 47.2598C41.2968 47.1899 41.354 46.9991 41.3603 46.8465C41.3794 46.3441 40.9344 45.8672 40.6165 45.8672" fill="#012B6B"/>
<path d="M38.512 45.8672C38.1941 45.8672 37.7491 46.3441 37.7682 46.8465C37.7682 46.9991 37.8317 47.1899 38.0352 47.2598C38.2386 47.3298 38.4866 47.228 38.5883 46.98C38.7854 46.5158 38.5883 45.8672 38.5057 45.8672" fill="#012B6B"/>
<path d="M39.5674 45.5234C39.3067 45.5234 38.671 46.8334 39.1478 47.5011C39.2368 47.6283 39.3957 47.6982 39.5674 47.6982C39.739 47.6982 39.898 47.6283 39.987 47.5011C40.4638 46.8398 39.8217 45.5234 39.5674 45.5234Z" fill="#012B6B"/>
<path d="M36.4903 44.1388C36.4903 43.878 36.5348 43.6364 36.5348 43.6364H39.0397V41.5824V41.061C37.8317 41.2708 36.8654 42.2056 36.5729 43.4138C36.503 43.5156 36.2741 43.5664 36.1152 43.5474C35.1933 43.4329 33.3242 43.0959 33.3242 42.6952C33.3242 42.1357 33.7056 41.9131 34.068 41.9131C34.5893 41.9131 35.1615 42.1929 35.6383 41.4997C33.9409 41.5761 35.2442 39.1151 33.8455 38.6445C33.9154 39.2741 33.8455 40.3806 33.623 40.9656C33.623 40.9656 33.1207 40.4314 32.5612 40.2279C32.6058 40.6858 32.5167 41.6333 32.3133 42.0593C32.3133 42.0593 31.722 41.5061 31.1053 41.3026C31.6712 42.1293 31.6521 43.3057 31.4995 44.0243C31.455 44.2341 31.6076 44.4885 32.0399 44.4694C32.7202 44.4376 35.0344 44.5394 36.0389 44.9527C36.3504 45.0799 36.6174 45.2262 36.7509 45.4487C36.859 45.7476 37.1197 46.2182 37.4439 46.4535C37.5901 45.932 38.2132 45.3788 38.6137 45.3978C38.7345 45.4042 38.868 45.6077 38.8935 45.8048C38.9316 45.6204 39.2241 45.1117 39.5547 45.1117C39.8535 45.1117 40.1459 45.5377 40.2476 45.8875C40.2794 45.6586 40.4129 45.4233 40.5337 45.4233C40.9406 45.4233 41.4492 45.7858 41.64 46.3771C41.7926 46.18 42.511 45.2643 42.5936 44.6538H36.5284C36.5284 44.6538 36.4839 44.3931 36.4839 44.1197" fill="#012B6B"/>
<path d="M38.0225 44.1334C38.0225 44.3051 38.156 44.445 38.3213 44.445C38.4866 44.445 38.6201 44.3051 38.6201 44.1334C38.6201 43.9617 38.4866 43.8281 38.3213 43.8281C38.156 43.8281 38.0225 43.968 38.0225 44.1334Z" fill="#012B6B"/>
<path d="M36.7891 44.1334C36.7891 44.3051 36.9226 44.445 37.0879 44.445C37.2532 44.445 37.3867 44.3051 37.3867 44.1334C37.3867 43.9617 37.2532 43.8281 37.0879 43.8281C36.9226 43.8281 36.7891 43.968 36.7891 44.1334Z" fill="#012B6B"/>
<path d="M12.9226 45.3906C12.8208 45.486 12.5856 46.1474 12.6873 46.548C12.7318 46.7197 12.8272 46.796 12.9861 46.7833C13.1514 46.7705 13.2404 46.6879 13.2722 46.5098C13.3358 46.1092 13.0306 45.4733 12.9226 45.3906Z" fill="#012B6B"/>
<path d="M15.0715 47.1955C14.9316 47.3418 14.7917 47.4499 14.7155 47.5007C14.7727 47.558 14.9253 47.6597 15.1223 47.6597C15.2368 47.6597 15.3385 47.6279 15.4339 47.5643C15.631 47.24 15.4402 46.9093 15.3576 46.8203C15.3067 46.903 15.2114 47.0492 15.0715 47.1955Z" fill="#012B6B"/>
<path d="M14.2704 46.3968C14.4802 46.1742 14.5501 46.0153 14.4993 45.8881C14.423 45.7037 13.9525 45.1759 13.3295 44.5781C13.3104 44.6989 13.285 44.8198 13.2468 44.9406C13.6664 45.4938 13.819 46.0916 13.6791 46.5876C13.73 46.6194 13.7618 46.6385 13.7809 46.6448C13.9398 46.7084 14.1433 46.524 14.2704 46.3905" fill="#012B6B"/>
<path d="M15.065 46.4394C15.0841 46.344 15.0714 46.2677 15.0205 46.2168C15.0078 46.2041 14.9887 46.1914 14.9824 46.1914C14.9442 46.1914 14.8679 46.2931 14.7916 46.3885C14.7281 46.4648 14.6454 46.5666 14.5437 46.6747C14.442 46.7828 14.3466 46.8718 14.2703 46.9354C14.1813 47.0181 14.0859 47.1008 14.0859 47.1389C14.0859 47.1453 14.0923 47.1643 14.1114 47.1771C14.1432 47.2089 14.1877 47.2279 14.2449 47.2279C14.3275 47.2279 14.5055 47.1834 14.7726 46.9036C14.976 46.6874 15.0396 46.5348 15.065 46.4394Z" fill="#012B6B"/>
<path d="M11.2505 43.3875C11.2505 43.3875 11.1678 43.4638 11.1169 43.5719C11.2441 43.5719 11.3967 43.5974 11.5365 43.6292C11.5302 43.5084 11.5175 43.343 11.5302 43.2031C11.4158 43.2286 11.295 43.3367 11.2505 43.3875Z" fill="#012B6B"/>
<path d="M12.7954 43.5591C12.7954 43.5591 13.997 44.621 14.3975 45.0026C14.4929 45.0916 14.6201 45.117 14.7536 45.0471C14.8299 45.0089 14.9252 44.9644 15.0206 44.9199C16.2158 44.4939 18.1803 44.4493 18.8988 44.4811C19.3311 44.5002 19.4837 44.2395 19.4455 44.036C19.3056 43.3556 19.2739 42.141 19.8397 41.3143C19.223 41.5178 18.6317 42.0711 18.6317 42.0711C18.4283 41.6386 18.3456 40.6911 18.3838 40.2397C17.8243 40.4431 17.3221 40.9773 17.3221 40.9773C17.0995 40.3923 17.036 39.2858 17.0995 38.6562C15.7072 39.1205 17.0105 41.5878 15.3067 41.5051C15.7835 42.1982 16.3557 41.9184 16.877 41.9184C17.2394 41.9184 17.6908 42.1601 17.6209 42.7006C17.57 43.0949 15.2876 43.5909 14.3721 43.5909C13.73 43.5909 13.2977 43.3937 12.9798 42.9486C12.8272 42.7324 12.6683 42.637 12.4903 42.6625C12.2741 42.6942 12.0134 42.9232 12.0134 43.4446C12.0134 43.8134 12.1597 44.621 12.6047 44.621C12.9162 44.621 12.9289 43.9788 12.8018 43.5591" fill="#012B6B"/>
<path d="M10.513 43.1783C10.5639 43.1974 10.6211 43.1783 10.672 43.1528C10.5003 43.3881 10.513 43.5407 10.5829 43.6171C10.6974 43.7315 10.78 43.5217 11.0725 43.2164C11.3586 42.9112 11.562 42.8158 11.4476 42.7013C11.3713 42.6314 11.2187 42.625 10.9962 42.8095C11.0216 42.7522 11.0343 42.7013 11.0153 42.6505C10.9199 42.3707 10.4749 42.0019 10.2269 42.0019C10.1888 42.0019 10.157 42.0082 10.1252 42.0209C10.2333 41.8492 10.2078 41.7157 10.1316 41.6457C10.0553 41.5694 10.0044 41.6203 9.91539 41.7348C9.92811 41.6521 9.90904 41.5631 9.83274 41.4486C9.464 40.889 7.51856 39.0513 7.07353 38.8668C6.8065 38.7587 6.72386 38.9114 6.72386 38.9114C6.72386 38.9114 6.57763 39.0067 6.69207 39.2738C6.8828 39.7253 8.7583 41.6394 9.31142 42.0019C9.42585 42.0782 9.51486 42.0909 9.59115 42.0782C9.48307 42.1735 9.43221 42.2244 9.5085 42.3007C9.57844 42.3707 9.71195 42.3961 9.87725 42.2817C9.86453 42.3134 9.85817 42.3516 9.85817 42.3898C9.86453 42.6441 10.2396 43.0893 10.513 43.1783Z" fill="#012B6B"/>
<path d="M11.8926 44.5644C11.8926 44.3736 11.5239 44.043 11.0915 44.043C10.4431 44.043 10.1633 44.4563 10.1633 44.6662C10.1633 45.0604 10.5448 45.1113 10.6592 45.1176C11.1106 45.1431 11.8481 44.6789 11.8926 44.5644Z" fill="#012B6B"/>
<path d="M11.3331 45.5485C11.1615 45.7711 11.0979 45.9873 11.1424 46.1908C11.1933 46.4388 11.4412 46.5469 11.6574 46.5469C11.8863 46.5469 12.0897 46.4388 12.2041 46.2544C12.4521 45.8665 12.4648 45.0016 12.3821 44.9062C12.1723 44.9062 11.6256 45.1733 11.3331 45.5485Z" fill="#012B6B"/>
<path d="M5.66846 36.5443C5.48408 36.3599 5.11534 36.6333 4.88647 36.5061C4.98819 35.9529 5.376 36.5315 5.75746 36.1309C5.91005 35.972 5.8274 35.7176 5.73839 35.6476C5.57309 35.813 5.32514 35.7557 5.30607 35.6604C5.73839 34.6429 4.89282 33.5046 4.09176 33.6445C4.2507 33.8544 4.29521 34.5984 4.22527 34.7955C4.53044 35.0181 4.31428 35.5395 3.97097 35.3869C3.74209 35.2915 3.34156 34.7256 3.80567 34.325C3.79295 34.1787 3.53865 34.1469 3.27162 34.4903C3.46871 33.848 2.26076 34.0515 2.01281 34.2041C1.87294 34.4649 1.714 35.7176 2.33069 35.495C2.0001 35.7812 2.0446 36.0419 2.18447 36.0546C2.55957 35.5713 3.1254 35.9656 3.22076 36.1945C3.3797 36.5379 2.87745 36.7796 2.65493 36.4743C2.4642 36.5506 1.74579 36.5252 1.52963 36.3726C1.41519 37.2056 2.54685 38.0386 3.52593 37.5617C3.61494 37.5808 3.67851 37.8352 3.52593 38.0068C3.60222 38.0959 3.85017 38.1722 3.9964 38.0068C4.37785 37.6062 3.79931 37.2183 4.33335 37.0975C4.4605 37.3264 4.21256 37.7143 4.39693 37.8987C4.68938 38.1913 5.05812 37.6253 5.41415 37.5999C5.42687 37.231 5.96091 36.8368 5.66846 36.5443ZM2.64222 35.2534C2.64222 35.2534 2.45149 35.1198 2.68036 34.8718C2.90924 34.6302 3.04911 34.821 3.04911 34.821C3.04911 34.821 3.25891 35.2979 3.32249 35.5141C3.10633 35.4569 2.64222 35.2534 2.64222 35.2534ZM4.51136 36.6969C4.39693 36.7096 4.11719 36.9576 3.97732 36.8241L3.34156 36.1882L3.65944 35.8511L3.97732 35.5141L4.61309 36.15C4.75296 36.2899 4.51772 36.5824 4.51136 36.7032" fill="#012B6B"/>
<path d="M5.83376 37.7422C5.77654 37.7422 5.69389 37.7549 5.63667 37.8185C5.5731 37.8821 5.55402 37.9838 5.5731 38.0983C5.59853 38.2255 5.66846 38.3527 5.77654 38.4608C5.90369 38.5879 6.06263 38.6642 6.2025 38.6642C6.25972 38.6642 6.34237 38.6515 6.39959 38.5879C6.5331 38.448 6.46952 38.1555 6.25972 37.9457C6.13257 37.8185 5.97363 37.7422 5.83376 37.7422Z" fill="#012B6B"/>
<path d="M4.00274 35.8281L3.83108 36.0125L3.65942 36.1969C3.65942 36.1969 4.01545 36.6612 4.30155 36.4831C4.46685 36.1779 4.00274 35.8281 4.00274 35.8281Z" fill="#012B6B"/>
<path d="M37.6474 34.0737C37.6347 34.1691 37.1579 34.4171 36.8273 33.7684C36.4839 33.6985 36.1406 33.5904 35.9054 33.495C36.3123 34.3153 36.6683 34.983 37.2341 35.3519C38.0734 35.8987 39.4212 35.7779 39.8535 35.1738C39.116 34.7732 38.2323 33.7494 37.7555 32.7383C37.6601 32.9863 37.4884 33.3805 37.3486 33.6476C37.4376 33.7939 37.552 33.9592 37.6537 34.0737" fill="#012B6B"/>
<path d="M45.7089 21.4799C46.6498 21.0792 47.9786 20.1763 48.5953 19.5467C48.6779 19.6548 48.8941 20.1763 48.2011 20.7613C47.6925 21.1874 46.6626 21.6579 45.8678 21.9695C45.5182 22.4973 44.857 23.0823 43.9033 23.7119C45.7471 23.4257 47.9659 22.6881 49.0403 21.6325C51.0875 19.6167 49.994 17.1621 49.7269 16.6406C48.3982 18.294 45.8679 20.0427 43.5028 20.9775C44.2975 21.0729 45.1176 21.2446 45.7089 21.4735" fill="#012B6B"/>
<path d="M44.1894 17.7544C45.3783 16.7688 46.6943 14.7975 46.8978 14.098C47.1648 14.2951 47.2983 14.861 46.9232 15.5033C46.2747 16.6225 45.1622 17.6018 44.1831 18.3712C44.1386 19.0898 43.827 19.9229 43.5028 20.546C44.946 19.5922 46.599 18.1232 47.3492 17.1376C48.3283 15.8594 48.7288 14.5749 48.5508 13.3285C48.608 11.9104 47.5844 10.4606 47.1585 10.1172C46.8914 11.6942 45.2957 14.3396 43.9097 15.8531C44.075 16.3999 44.1767 17.1249 44.1894 17.7544Z" fill="#012B6B"/>
<path d="M43.274 26.9062C43.5537 27.2369 43.8589 27.6439 44.056 27.9873C45.1431 28.2289 46.5036 28.1717 46.5036 28.1717C46.5036 28.1717 46.421 28.7504 45.6708 28.7949C45.3402 28.814 44.3166 28.6423 43.8843 28.5214C43.6999 28.5978 42.9116 28.7949 42.0851 28.8966C43.2358 29.3036 44.9142 29.7297 45.9632 29.7297C46.065 29.7297 46.1667 29.7297 46.2557 29.717C47.9468 29.5643 48.7988 28.0127 48.8433 27.1161C48.341 27.2178 47.4764 27.2814 46.5799 27.2814C45.8234 27.2814 44.3866 27.2178 43.274 26.9126" fill="#012B6B"/>
<path d="M50.2547 22.5117C48.7543 23.3066 46.0841 24.1333 43.9861 24.1206C44.5137 24.4449 45.016 24.8201 45.3402 25.1316C46.224 25.0808 47.4128 24.8073 48.1185 24.5275C48.1312 24.6547 48.144 25.208 47.3302 25.456C46.7771 25.6277 45.9188 25.6404 45.2894 25.6531C44.7808 25.9774 44.0051 26.3017 43.3757 26.5179C43.9606 26.6006 44.6791 26.6642 45.3593 26.6642C46.4783 26.6642 47.4764 26.5497 48.1058 26.3462C48.7034 26.1555 50.598 25.3097 50.2547 22.5181" fill="#012B6B"/>
<path d="M42.1487 30.446C42.7908 30.7449 43.4584 30.9421 44.0369 31.012C44.0369 31.012 43.9415 31.5716 43.0387 31.4571C42.5429 31.3935 41.9516 31.0184 41.8117 30.9293C41.4239 30.9866 40.5974 30.9675 40.2859 30.9039C41.2713 31.6034 42.7972 32.4174 44.056 32.5382C44.1195 32.5382 44.1831 32.5445 44.2467 32.5445C45.5754 32.5445 46.6181 31.2028 46.8915 30.5605C45.5437 30.5414 43.2676 29.9946 41.8753 29.2188C41.9707 29.5367 42.0787 29.9628 42.1487 30.446Z" fill="#012B6B"/>
<path d="M39.8663 32.2207C40.2223 32.6022 40.7818 32.8693 40.7818 32.8693C40.7818 32.8693 40.6355 33.1554 40.2859 33.1554C40.1714 33.1554 40.0506 33.1236 39.9298 33.0537C39.6882 32.9202 39.3767 32.5513 39.3767 32.5513C38.9317 32.5068 38.5311 32.4242 38.1306 32.297C38.83 33.1809 39.9998 34.2301 41.2268 34.5354C41.4112 34.5799 41.5955 34.6053 41.7863 34.6053C42.9052 34.6053 43.7953 33.7786 44.0496 33.2572C42.7781 33.0728 40.9598 32.1253 39.987 31.1523C39.9807 31.5402 39.9362 31.9345 39.8663 32.2143" fill="#012B6B"/>
<path d="M31.6013 46.4021C32.2053 46.4021 32.6567 46.1477 32.911 45.5245C32.0718 45.9315 31.1118 45.7026 29.4143 45.1875C29.4143 45.1875 28.7531 45.4737 28.3907 45.5118C29.4143 45.8234 30.902 46.3067 31.1499 46.879C31.2453 47.3559 30.9655 47.4386 30.9655 47.4386C30.3679 46.7518 29.7004 46.3321 28.219 45.887C28.219 46.1541 28.1682 46.3385 28.1682 46.3385C28.1682 46.3385 27.8567 46.4148 27.1955 46.3003C27.774 46.7836 29.179 47.9664 29.3443 49.2637C29.4524 50.1285 28.8484 50.1666 28.8484 50.1666C28.7594 48.863 28.2 48.0427 26.9666 46.6946C26.9666 46.6946 26.7631 47.0126 26.4961 47.1715C26.4961 47.1715 26.0384 47.0889 25.6633 46.8409C25.8095 48.5578 25.8921 52.7039 25.8031 53.378C25.7396 53.8485 25.4662 54.0457 25.4662 54.0457C25.4662 54.0457 25.1928 53.8485 25.1292 53.378C25.0402 52.7039 25.1292 48.5578 25.2691 46.8409C24.894 47.0889 24.4362 47.1715 24.4362 47.1715C24.1692 47.0126 23.9658 46.6946 23.9658 46.6946C22.7324 48.0491 22.1729 48.8694 22.0839 50.1666C22.0839 50.1666 21.4799 50.1285 21.588 49.2637C21.7533 47.9664 23.152 46.7836 23.7369 46.3003C23.0757 46.4148 22.7642 46.3385 22.7642 46.3385C22.7642 46.3385 22.7133 46.1541 22.7133 45.887C21.2383 46.3321 20.5644 46.7455 19.9668 47.4386C19.9668 47.4386 19.6807 47.3559 19.7824 46.879C20.0304 46.3067 21.5181 45.8234 22.5417 45.5118C22.1793 45.4737 21.5181 45.1875 21.5181 45.1875C19.8206 45.7026 18.8606 45.9315 18.0214 45.5245C18.2757 46.1477 18.7271 46.4021 19.3311 46.4021C18.5491 46.701 17.748 47.4768 17.5446 48.2971C18.1295 50.4146 19.9541 51.0569 19.9541 51.0569C19.4964 50.0458 19.6871 48.0109 22.4463 46.6119C20.7488 48.3098 20.094 49.836 20.5454 51.2858C20.9586 52.6149 22.3064 53.1554 23.3173 53.1808C22.5989 50.9806 22.9231 48.9902 24.4045 47.4005C23.7687 49.1428 22.8723 54.4908 25.4598 55.3811C28.0474 54.4908 27.151 49.1428 26.5088 47.4005C27.9965 48.9839 28.3144 50.9806 27.596 53.1808C28.6069 53.1554 29.9547 52.6212 30.3679 51.2858C30.8193 49.836 30.1645 48.3098 28.467 46.6119C31.2262 48.0109 31.4233 50.0458 30.9655 51.0569C30.9655 51.0569 32.7902 50.4146 33.3751 48.2971C33.1653 47.4768 32.3706 46.701 31.5886 46.4021" fill="#012B6B"/>
<path d="M13.7172 35.3519C14.2831 34.983 14.6391 34.3153 15.046 33.495C14.8108 33.5904 14.4674 33.6985 14.1241 33.7684C13.7872 34.4171 13.3167 34.1627 13.304 34.0737C13.4057 33.9592 13.5265 33.7939 13.6092 33.6476C13.4693 33.3805 13.2913 32.9799 13.2023 32.7383C12.7191 33.7494 11.8417 34.7732 11.1042 35.1738C11.5366 35.7779 12.8844 35.8987 13.7236 35.3519" fill="#012B6B"/>
<path d="M7.03542 23.7212C6.08177 23.0916 5.42058 22.5066 5.07091 21.9788C4.2762 21.6672 3.24626 21.1966 2.73765 20.7706C2.03831 20.1855 2.26083 19.6577 2.34348 19.556C2.95381 20.1855 4.28256 21.0885 5.22985 21.4891C5.82111 21.2602 6.63489 21.0885 7.43595 20.9931C5.07091 20.0583 2.53421 18.3032 1.21182 16.6562C0.944796 17.1777 -0.148719 19.6323 1.89844 21.6481C2.97924 22.7101 5.19806 23.4414 7.04178 23.7275" fill="#012B6B"/>
<path d="M7.43585 20.546C7.11161 19.9292 6.80009 19.0898 6.75558 18.3712C5.77651 17.6018 4.65756 16.6225 4.01544 15.5033C3.64034 14.8547 3.78021 14.2887 4.04087 14.098C4.24431 14.8038 5.56035 16.7688 6.74923 17.7544C6.75558 17.1249 6.86366 16.3999 7.02896 15.8531C5.643 14.346 4.04723 11.6942 3.78021 10.1172C3.3606 10.4669 2.33066 11.9168 2.38788 13.3349C2.20987 14.5812 2.6104 15.8594 3.58948 17.1376C4.33968 18.1232 5.99267 19.5858 7.43585 20.546Z" fill="#012B6B"/>
<path d="M6.88911 27.9873C7.0862 27.6439 7.39137 27.2369 7.6711 26.9062C6.55852 27.2115 5.12805 27.2751 4.36513 27.2751C3.4687 27.2751 2.5977 27.2115 2.10181 27.1097C2.14631 28.0127 3.00459 29.5643 4.68937 29.7106C4.77837 29.717 4.87374 29.7233 4.98182 29.7233C6.03719 29.7233 7.70925 29.2973 8.85998 28.8903C8.03985 28.7822 7.24514 28.5914 7.06077 28.5151C6.63481 28.6359 5.61123 28.8076 5.27427 28.7885C4.51771 28.744 4.44142 28.1653 4.44142 28.1653C4.44142 28.1653 5.80196 28.2226 6.88911 27.9809" fill="#012B6B"/>
<path d="M2.83297 26.3399C3.46237 26.5434 4.46052 26.6578 5.57947 26.6578C6.25974 26.6578 6.97815 26.5942 7.56306 26.5116C6.93365 26.2954 6.15166 25.971 5.64305 25.6467C5.00728 25.634 4.149 25.6149 3.59588 25.4496C2.78211 25.2016 2.79482 24.6484 2.81389 24.5212C3.51324 24.801 4.70847 25.0744 5.59219 25.1253C5.91643 24.8137 6.41868 24.4385 6.95272 24.1142C4.86106 24.1333 2.19085 23.3066 0.684083 22.5117C0.340771 25.3033 2.23535 26.1491 2.83297 26.3399Z" fill="#012B6B"/>
<path d="M6.69202 32.5445C6.7556 32.5445 6.81917 32.5445 6.88275 32.5382C8.14792 32.411 9.67376 31.6034 10.6528 30.9039C10.3413 30.9675 9.51482 30.9866 9.127 30.9293C8.99349 31.0184 8.39587 31.3935 7.89997 31.4571C6.99719 31.5716 6.90182 31.012 6.90182 31.012C7.48037 30.9421 8.14792 30.7449 8.79004 30.446C8.85362 29.9628 8.96806 29.5367 9.06342 29.2188C7.6711 29.9946 5.39506 30.5414 4.04724 30.5605C4.32062 31.2028 5.36327 32.5445 6.69202 32.5445Z" fill="#012B6B"/>
<path d="M9.15248 34.6107C9.33685 34.6107 9.52758 34.5852 9.71195 34.5407C10.939 34.2355 12.1151 33.1862 12.8081 32.3023C12.4076 32.4295 12.0071 32.5122 11.562 32.5567C11.562 32.5567 11.2505 32.9192 11.0089 33.0591C10.8881 33.129 10.7673 33.1608 10.6529 33.1608C10.3032 33.1608 10.157 32.8746 10.157 32.8746C10.157 32.8746 10.7165 32.6076 11.0725 32.226C11.0026 31.9462 10.9581 31.552 10.9517 31.1641C9.98533 32.137 8.16069 33.0845 6.88916 33.2689C7.14347 33.7904 8.03354 34.617 9.15248 34.617" fill="#012B6B"/>
<path d="M25.0021 3.04579C25.0021 3.31287 25.2119 3.52908 25.4725 3.52908C25.7332 3.52908 25.943 3.31287 25.943 3.04579C25.943 2.77871 25.7332 2.5625 25.4725 2.5625C25.2119 2.5625 25.0021 2.77871 25.0021 3.04579Z" fill="#012B6B"/>
<path d="M25.1483 2.00946H25.7904L25.7205 1.24002L26.4135 1.30997V0.699496L25.7205 0.775805L25.7904 0L25.1483 0L25.2183 0.775805L24.5253 0.699496V1.30997L25.2183 1.24002L25.1483 2.00946Z" fill="#012B6B"/>
<path d="M22.9295 9.65979C22.9994 9.68523 23.0757 9.69795 23.1711 9.69795H27.774C27.8694 9.69795 27.9457 9.68523 28.0156 9.65979C28.1618 9.60892 28.2572 9.49446 28.289 9.31641H22.6561C22.6943 9.49446 22.7833 9.60892 22.9295 9.65979Z" fill="#012B6B"/>
<path d="M27.9966 8.4375H22.955C22.9093 8.4375 22.8723 8.47451 22.8723 8.52017V8.86992C22.8723 8.91557 22.9093 8.95258 22.955 8.95258H27.9966C28.0422 8.95258 28.0792 8.91557 28.0792 8.86992V8.52017C28.0792 8.47451 28.0422 8.4375 27.9966 8.4375Z" fill="#012B6B"/>
<path d="M28.5179 8.0837C28.645 7.92472 29.2935 6.67199 29.2935 5.40654C29.2935 4.26826 27.8694 3.64508 27.0175 3.61328C26.9221 5.23484 26.2863 7.78482 25.4662 7.78482C24.6906 7.78482 24.0103 5.24756 23.9149 3.61328C23.0694 3.63872 21.6453 4.26826 21.6453 5.40654C21.6453 6.67199 22.2874 7.91836 22.4209 8.0837H28.5179Z" fill="#012B6B"/>
<path d="M25.4725 6.98149C25.8604 6.98149 26.3626 5.74147 26.4898 4.57141C26.4898 4.33612 26.102 3.97366 25.4725 3.96094C24.8431 3.9673 24.4553 4.33612 24.4553 4.57141C24.5698 5.66516 25.0911 6.98149 25.4725 6.98149Z" fill="#012B6B"/>
<path d="M32.7838 25.9268C32.7838 25.7678 32.6567 25.6406 32.4977 25.6406H18.4791C18.3202 25.6406 18.193 25.7678 18.193 25.9268V35.6243H18.1867C18.1867 35.6243 18.1612 36.114 18.4346 36.7117C18.7461 37.4112 19.9159 38.5686 21.4545 39.3635C23.6034 40.4636 24.8622 41.3475 25.4852 41.8435C26.1083 41.3539 27.3671 40.4636 29.516 39.3635C31.0609 38.5749 32.2243 37.4112 32.5359 36.7117C32.8156 36.0949 32.7775 35.5925 32.7775 35.5862V25.9204L32.7838 25.9268ZM28.0601 29.437L28.0855 29.5196C28.2826 30.2191 28.4161 30.9441 28.4924 31.6627C29.0773 32.1205 29.5986 32.5911 30.0373 33.068C30.8956 32.0696 31.3533 31.1476 31.3724 30.4354C31.3661 30.4354 31.3597 30.4354 31.347 30.4354C30.9401 30.4354 30.6095 30.1047 30.6095 29.6977C30.6095 29.5514 30.6604 29.4243 30.7367 29.3098C30.3552 29.1063 29.8784 29.0554 29.4778 29.0554C29.1409 29.0554 28.7721 29.0936 28.378 29.1635C28.3589 29.1635 28.3335 29.1699 28.3144 29.1763L28.1936 29.2081L28.2254 29.1317C28.2635 29.03 28.2953 28.9346 28.3144 28.8647V28.8392H28.3462C29.4969 28.6294 30.3997 28.7248 30.9782 29.0745C31.0863 29.0109 31.2071 28.9664 31.3406 28.9664C31.7475 28.9664 32.0781 29.2971 32.0781 29.7041C32.0781 29.9839 31.9192 30.2128 31.6903 30.34C31.703 31.1603 31.2071 32.2159 30.2471 33.3224C30.298 33.386 30.3488 33.4432 30.3933 33.5068C30.4251 33.5449 30.4506 33.5831 30.4823 33.6212L30.5078 33.653L30.4823 33.6785C30.4315 33.7293 30.387 33.7802 30.3298 33.8502L30.3043 33.8756L30.2725 33.8565C30.2725 33.8565 30.2471 33.8502 30.2408 33.8438H30.228C30.1962 33.7993 30.1708 33.7611 30.1454 33.723C30.1072 33.6721 30.0691 33.6276 30.0246 33.5767C29.9165 33.6975 29.7894 33.8184 29.6686 33.9328L29.5796 34.0219C29.3952 34.1427 29.2299 34.1745 29.0964 34.1109L29.0392 34.0854L29.0837 34.0409C29.3698 33.7802 29.605 33.5449 29.8084 33.3287C29.4333 32.9217 29.0074 32.5211 28.5242 32.1269C28.556 32.5275 28.5687 32.9345 28.5687 33.3287C28.5687 33.6785 28.556 34.0537 28.5178 34.5051V34.5306L28.4924 34.5433C28.4352 34.5751 28.3335 34.6323 28.2317 34.6896L28.1618 34.7277V34.6514C28.2127 34.1745 28.2317 33.7484 28.2317 33.3351C28.2317 33.1952 28.2317 33.0616 28.219 32.9217V32.8264V32.8136C28.2254 32.5466 28.1618 31.7135 28.0792 31.1794H28.0601V31.1476C27.9901 30.6834 27.9011 30.2255 27.7867 29.7867V29.7549L27.8058 29.7359C27.8058 29.7359 27.8121 29.7295 27.8185 29.7295L27.8439 29.7104C27.9075 29.6468 27.9584 29.5832 28.0029 29.526L28.0537 29.4561L28.0601 29.437ZM23.2855 28.3496C23.8704 26.9824 24.6524 26.232 25.4852 26.232C26.3181 26.232 27.1001 26.9824 27.685 28.3432L27.6977 28.375L27.6659 28.3941C27.6659 28.3941 27.5578 28.4577 27.437 28.5022L27.3989 28.5149L27.3798 28.4768C26.8585 27.2558 26.1655 26.5563 25.4789 26.5563C24.7923 26.5563 24.0993 27.2558 23.5779 28.4768L23.5589 28.5149L23.5207 28.5022C23.3999 28.4577 23.3236 28.4132 23.2918 28.3941L23.2601 28.375L23.2728 28.3432L23.2855 28.3496ZM23.0948 28.7184C23.2982 28.8392 23.8132 29.0936 24.3663 28.9346C24.8622 28.7884 25.4916 28.7884 25.4916 28.7884C25.4916 28.7884 26.1146 28.7884 26.6169 28.9346C27.1637 29.1 27.685 28.8392 27.8884 28.7184C27.9266 28.6993 27.9711 28.7311 27.9584 28.7693C27.9075 29.0109 27.7041 29.6023 26.8458 29.7994C26.032 29.9902 25.6633 30.9186 25.5425 31.3002C25.5297 31.3447 25.4662 31.3447 25.4534 31.3002C25.3327 30.9186 24.9576 29.9902 24.1501 29.7994C23.2918 29.6023 23.0884 29.0109 23.0375 28.7693C23.0312 28.7311 23.0757 28.6993 23.1075 28.7184M24.5062 31.0395C24.646 31.0395 24.7859 30.9949 24.9003 30.9186C24.9766 31.0649 25.0338 31.1984 25.072 31.3002C24.9003 31.4019 24.7096 31.4592 24.5062 31.4592C23.8895 31.4592 23.3809 30.9568 23.3809 30.3336C23.3809 30.1873 23.419 30.0474 23.4762 29.9203C23.5843 29.9839 23.7178 30.0411 23.8577 30.092C23.8259 30.1683 23.8068 30.2509 23.8068 30.34C23.8068 30.7279 24.1247 31.0458 24.5125 31.0458M24.201 30.34C24.201 30.2955 24.2137 30.2573 24.2264 30.2191C24.4108 30.3018 24.5697 30.4354 24.6969 30.5943C24.646 30.6325 24.5825 30.6579 24.5189 30.6579C24.3472 30.6579 24.2074 30.518 24.2074 30.3463M24.5189 31.8343C24.7732 31.8343 25.0338 31.758 25.2627 31.6245C25.3327 31.6754 25.4217 31.9043 25.5107 31.9043C25.5997 31.9043 25.6887 31.6754 25.7586 31.6181C25.9938 31.758 26.2545 31.8343 26.5088 31.8343C26.9093 31.8343 27.2717 31.6754 27.5388 31.4146C27.5388 31.4274 27.5515 31.4401 27.5515 31.4528C27.6913 31.8916 27.7104 32.4893 27.6786 32.7373C27.6532 32.979 27.5896 33.227 27.526 33.4368C27.437 33.723 27.348 33.9392 27.348 33.9456C27.348 33.9456 27.3226 34.0091 27.2845 34.1109C27.2018 34.3207 27.0429 34.715 26.8458 35.1538C26.4071 34.893 25.9048 34.7341 25.3581 34.7341C24.8622 34.7341 24.4044 34.8613 23.9975 35.0838C23.8195 34.6959 23.6797 34.3462 23.597 34.1363C23.5525 34.0155 23.5271 33.9455 23.5207 33.9392C23.5207 33.9392 23.4126 33.6785 23.3173 33.3478C23.2601 33.157 23.2156 32.9408 23.1901 32.731C23.1711 32.5529 23.152 31.9552 23.2982 31.4846C23.3173 31.4146 23.3427 31.3511 23.3745 31.2938C23.6479 31.6181 24.0548 31.8343 24.5125 31.8343M26.5088 31.0522C26.8966 31.0522 27.2145 30.7342 27.2145 30.3463C27.2145 30.2573 27.1891 30.1746 27.1573 30.0983C27.2972 30.0475 27.4307 29.9966 27.5388 29.933C27.596 30.0665 27.6341 30.2001 27.6341 30.3463C27.6341 30.9632 27.1319 31.4719 26.5088 31.4719C26.3054 31.4719 26.1083 31.4083 25.943 31.3065C25.9811 31.2048 26.0384 31.0649 26.1146 30.925C26.2291 31.0077 26.3689 31.0522 26.5152 31.0522M26.3308 30.5943C26.458 30.4354 26.6169 30.3018 26.8013 30.2191C26.8203 30.2573 26.8267 30.3018 26.8267 30.3463C26.8267 30.518 26.6868 30.6579 26.5152 30.6579C26.4452 30.6579 26.3817 30.6325 26.3308 30.5943ZM19.6298 28.9664C19.7761 28.9664 19.9032 29.0173 20.0177 29.0936C20.3928 28.8647 20.895 28.7311 21.5244 28.7311C21.8614 28.7311 22.2301 28.7629 22.6116 28.8329L22.6688 28.8456V28.871C22.6942 28.941 22.7197 29.0427 22.7642 29.1381L22.796 29.2144L22.6624 29.1826C22.6243 29.1699 22.5862 29.1635 22.548 29.1572C22.1793 29.0936 21.8296 29.0618 21.5181 29.0618C21.1112 29.0618 20.6216 29.119 20.2402 29.3289C20.3101 29.4433 20.361 29.5642 20.361 29.7104C20.361 30.1174 20.0304 30.4417 19.6298 30.4481C19.6553 31.1539 20.113 32.0823 20.965 33.0744C21.41 32.5911 21.925 32.1205 22.5035 31.669C22.5798 30.9568 22.7133 30.2382 22.9104 29.5387L22.9358 29.4561L22.9867 29.526C23.0375 29.596 23.082 29.6532 23.1456 29.7104C23.1583 29.7295 23.1711 29.7359 23.1838 29.7486L23.2028 29.7677V29.7994C23.0884 30.2382 22.9994 30.6897 22.9295 31.1476V31.1794H22.8977C22.8468 31.5164 22.8023 31.9806 22.7832 32.4575C22.7642 32.7882 22.7514 33.068 22.7514 33.3351C22.7514 33.6721 22.7642 34.0346 22.796 34.4606V34.5306L22.7387 34.5051C22.6497 34.467 22.5734 34.4479 22.5035 34.4416H22.4654V34.4034C22.4463 34.0854 22.4209 33.7166 22.4209 33.3351C22.4209 32.9535 22.4399 32.5338 22.4654 32.1332C21.9885 32.5211 21.5626 32.9217 21.1875 33.3287C21.499 33.6721 21.8805 34.0346 22.3128 34.4034L22.3763 34.4543L22.3001 34.4734C22.1538 34.5115 22.0076 34.5051 21.8677 34.4479H21.855C21.4863 34.1172 21.2002 33.8374 20.9586 33.5831C20.9077 33.6403 20.8632 33.6975 20.8187 33.7548L20.7742 33.8057H20.7615C20.6979 33.8311 20.6216 33.8565 20.5581 33.8947L20.5326 33.9138L20.5072 33.8883C20.5072 33.8883 20.4691 33.8565 20.4436 33.8374C20.4246 33.8247 20.4118 33.812 20.3991 33.7993L20.3673 33.7739L20.3928 33.7421C20.5136 33.5894 20.628 33.4495 20.7361 33.3224C19.7824 32.2222 19.2865 31.1794 19.2992 30.359C19.0577 30.2382 18.886 29.9902 18.886 29.7041C18.886 29.2971 19.2166 28.9664 19.6235 28.9664M27.8566 37.92C27.4243 39.0773 26.8521 39.8595 26.2227 40.2092C26.1655 40.559 25.8731 40.826 25.5107 40.826C25.1483 40.826 24.8558 40.5526 24.7986 40.2092C24.1756 39.8658 23.6034 39.0837 23.1774 37.9454L23.1583 37.9009L23.4762 37.8119L23.4889 37.85C23.8577 38.8293 24.3218 39.5097 24.824 39.8404C24.9258 39.5542 25.1928 39.3507 25.5107 39.3507C25.8285 39.3507 26.0956 39.5542 26.1973 39.8404C26.6932 39.5097 27.1573 38.8293 27.526 37.8564L27.5388 37.8246H27.5705C27.6532 37.8437 27.7358 37.8564 27.8185 37.8691H27.8694L27.8503 37.9263L27.8566 37.92ZM24.8685 37.8627C24.8685 37.6274 24.9448 37.017 25.0338 36.788C25.161 36.699 25.3199 36.6545 25.4852 36.6545C25.6823 36.6545 25.854 36.7245 26.0002 36.8326C26.0829 37.0551 26.1528 37.6465 26.1528 37.8627C26.1528 38.1044 25.606 38.2761 25.5043 38.3015C25.4217 38.2761 24.8749 38.1044 24.8749 37.8627M32.2943 35.529C32.2561 35.5798 32.2053 35.618 32.1353 35.6434C32.1353 35.6434 32.129 35.6434 32.1226 35.6434C32.059 35.6689 31.9827 35.6816 31.8937 35.6879H31.8365C31.7157 35.6879 31.614 35.6689 31.5314 35.6307C31.4996 35.6116 31.4678 35.5925 31.4423 35.5671C31.4423 35.5671 31.436 35.5671 31.4296 35.5671C31.2325 35.5925 30.8384 35.707 30.7239 35.7642C30.7875 35.7642 31.2834 35.8088 31.6522 36.0822C31.8175 36.1712 32.1417 36.2666 32.2752 36.2666C32.2752 36.3238 31.6967 36.7372 30.6222 36.5019L30.3425 36.4319C29.8466 36.292 29.3507 36.2412 28.8548 36.273C28.912 36.292 28.9629 36.3048 28.9947 36.3175C29.1345 36.3684 29.2617 36.4192 29.3761 36.4765C29.3952 36.4828 29.4079 36.4955 29.4143 36.5146C29.4397 36.5146 29.4715 36.5146 29.4969 36.5146C29.5478 36.521 29.5923 36.5337 29.6431 36.5464C29.7004 36.5655 29.7639 36.5973 29.8275 36.6291C29.9102 36.6736 29.9801 36.7372 30.0246 36.8008C30.05 36.8389 30.0691 36.8771 30.0818 36.9216C30.1009 37.0106 30.0818 37.106 30.031 37.195C29.8275 37.4367 29.6177 37.4367 29.3888 37.195C29.3761 37.1823 29.3507 37.1569 29.3443 37.1442C29.3062 37.1124 29.2299 37.017 29.1917 36.9152C29.1854 36.8962 29.1727 36.8644 29.1727 36.8389C29.16 36.8389 29.1472 36.8389 29.1345 36.8262C29.0455 36.7435 28.9438 36.6799 28.8548 36.6418C28.6513 36.5591 28.4606 36.5019 28.2699 36.4701C28.2127 36.4637 28.1682 36.4574 28.1173 36.451C28.2953 36.5655 28.4352 36.6863 28.5305 36.8262C28.5305 36.8326 28.5433 36.8516 28.5496 36.858C28.6704 37.0424 28.6513 37.2014 28.7086 37.354C28.8739 37.7228 28.9438 37.7419 29.0964 37.8754C28.9438 37.92 28.0792 37.9136 27.6532 37.3222C27.6341 37.2968 27.6214 37.2586 27.6023 37.2205C27.507 37.0106 27.4307 36.7563 27.3862 36.5973C27.3353 36.4065 27.418 36.273 27.3162 36.2157C27.2145 36.1585 27.1509 36.2285 27.1509 36.2285C27.1509 36.2285 27.1382 36.2348 27.1319 36.2475C27.1319 36.2475 27.1255 36.2539 27.1192 36.2602C27.1192 36.2602 27.1128 36.2602 27.1064 36.2666C27.1064 36.2666 27.1001 36.273 27.0937 36.2793L27.0746 36.2984C27.0301 36.3366 27.0238 36.3493 27.0111 36.3747L26.992 36.4129C26.992 36.4129 26.9602 36.4637 26.9539 36.4765C26.9539 36.4828 26.9348 36.5082 26.9284 36.5146C26.9157 36.5337 26.903 36.5464 26.8903 36.5591C26.8839 36.5591 26.8648 36.5782 26.8521 36.5846C26.8203 36.6036 26.7886 36.6036 26.7631 36.5846C26.7504 36.5909 26.7377 36.6036 26.7313 36.61C26.725 36.6164 26.6932 36.6354 26.6868 36.6418C26.636 36.6672 26.5788 36.6799 26.5215 36.6799C26.4643 36.6799 26.4135 36.6354 26.4071 36.5846C26.4071 36.5528 26.4071 36.521 26.4262 36.4955H26.4071C26.3689 36.5146 26.3372 36.521 26.3054 36.5273C26.2609 36.5273 26.2227 36.5146 26.1909 36.4637C26.1655 36.4192 26.1719 36.3747 26.2037 36.3366C26.2227 36.3048 26.2036 36.3048 26.1973 36.3048C26.1591 36.3366 26.121 36.362 26.0829 36.3811C26.0447 36.4001 26.0066 36.3938 25.9684 36.3683C25.9366 36.3429 25.9176 36.2984 25.9239 36.2602V36.2094C25.9239 36.2094 25.9366 36.1903 25.9366 36.1839C25.9366 36.1839 25.9366 36.1585 25.9366 36.1521C25.9366 36.1521 25.9366 36.1394 25.9366 36.1331C25.9239 36.1331 25.9112 36.1267 25.8985 36.1203L25.8667 36.1076C25.8667 36.1076 25.854 36.1076 25.8476 36.1076C25.765 36.0822 25.6823 36.0631 25.606 36.044C25.5933 36.044 25.587 36.044 25.5742 36.0377C25.5679 36.0377 25.5615 36.0377 25.5552 36.0377C25.4852 36.0631 25.4026 36.0886 25.3263 36.1203C25.3263 36.1203 25.3136 36.1203 25.3072 36.1203L25.2754 36.1331C25.2754 36.1331 25.2373 36.1458 25.2182 36.1521C25.2182 36.1394 25.2055 36.1331 25.1991 36.1203V36.1076C25.1991 36.1076 25.1801 36.0822 25.1737 36.0695C25.1928 36.044 25.2055 36.025 25.2119 36.0122C25.2119 36.0059 25.2119 35.9868 25.2119 35.9804C25.2055 35.9804 25.1991 35.9804 25.1928 35.9804C25.1546 35.9804 25.1165 35.9868 25.0783 35.9868C25.0783 36.0122 25.0783 36.044 25.0593 36.0631C25.0529 36.0758 25.0338 36.0822 25.0211 36.0886C25.0211 36.114 25.0275 36.1331 25.0338 36.1585V36.1903C25.0338 36.1903 25.0338 36.1903 25.0338 36.1967V36.2221C25.0466 36.2666 25.0338 36.3238 24.9957 36.3493C24.9576 36.3811 24.9194 36.3938 24.8813 36.3747C24.8622 36.3684 24.8431 36.3556 24.824 36.3429C24.805 36.3302 24.7859 36.3175 24.7668 36.2984C24.7668 36.2984 24.7541 36.292 24.7541 36.2857C24.7541 36.2857 24.7541 36.2857 24.735 36.2666C24.735 36.2666 24.735 36.2602 24.7287 36.2539C24.7223 36.2475 24.716 36.2348 24.7096 36.2285C24.7096 36.2285 24.716 36.2475 24.7223 36.2539C24.7223 36.2539 24.7223 36.2602 24.7287 36.2666L24.7414 36.292V36.2984C24.7414 36.3048 24.7668 36.3366 24.7732 36.3429C24.7859 36.3811 24.7859 36.4192 24.7668 36.451C24.7287 36.4955 24.6842 36.5146 24.6333 36.4955C24.6206 36.4955 24.5952 36.4955 24.5761 36.4828C24.557 36.4765 24.5443 36.4701 24.5252 36.4574C24.5507 36.4892 24.5634 36.5273 24.5507 36.5655C24.5379 36.61 24.4934 36.6418 24.4426 36.6481C24.3981 36.6481 24.3599 36.6481 24.3154 36.6354C24.3091 36.6354 24.29 36.6291 24.2709 36.6227C24.2709 36.6227 24.2328 36.6036 24.2264 36.5973C24.201 36.5782 24.1883 36.5655 24.1756 36.5528C24.1501 36.5782 24.1183 36.5782 24.0866 36.5528C24.0866 36.5528 24.0548 36.5273 24.0484 36.521C24.023 36.4955 24.0039 36.4701 23.9848 36.4447L23.9721 36.4256C23.9721 36.4256 23.9658 36.4129 23.9594 36.4065C23.9594 36.4065 23.9467 36.3874 23.9467 36.3811L23.9276 36.3493L23.9022 36.3238C23.7687 36.2094 23.6034 36.6164 23.597 36.6227C23.0503 37.7419 21.8105 37.9327 21.7978 37.8818C21.8042 37.8627 22.0839 37.7419 22.1729 37.3413C22.2238 37.1124 22.2238 37.0361 22.3509 36.8389C22.37 36.8071 22.3891 36.7817 22.4145 36.7499C22.4971 36.6418 22.6179 36.5464 22.7578 36.4637C22.7578 36.4637 22.7578 36.4637 22.7578 36.4574C22.7133 36.4574 22.6624 36.4637 22.6116 36.4765C22.4272 36.5082 22.2428 36.5591 22.0394 36.6481C21.944 36.6863 21.8487 36.7499 21.7533 36.8326C21.7406 36.8453 21.7279 36.8389 21.7152 36.8453C21.7152 36.8707 21.7088 36.8962 21.6961 36.9216C21.6707 36.9915 21.6325 37.0615 21.5689 37.1314C21.5562 37.1505 21.5371 37.1632 21.5244 37.1823C21.5244 37.1823 21.5054 37.2077 21.499 37.2077C21.2828 37.4367 21.073 37.443 20.8696 37.2332C20.8505 37.2077 20.8378 37.1823 20.8251 37.1569C20.7933 37.0806 20.7806 37.0043 20.7997 36.9343C20.8187 36.8707 20.8505 36.8135 20.9014 36.7563C20.9459 36.7117 20.9967 36.6736 21.054 36.6354C21.1175 36.5973 21.1811 36.5718 21.2383 36.5528C21.2828 36.54 21.3273 36.5273 21.3718 36.521C21.3973 36.521 21.4291 36.521 21.4608 36.521C21.4736 36.5082 21.4863 36.4892 21.5054 36.4828C21.5626 36.4574 21.6198 36.4256 21.6897 36.4001C21.7469 36.3747 21.8042 36.3429 21.8677 36.3175C21.8932 36.3048 21.925 36.292 21.9567 36.2793C21.4799 36.2539 21.0095 36.3111 20.539 36.4447C20.4563 36.4637 20.361 36.4892 20.2593 36.5146C19.6807 36.6545 18.5935 36.3366 18.5999 36.2793C18.6063 36.2221 18.8669 36.2284 19.2039 36.0504C19.4073 35.9423 19.5663 35.8151 19.7506 35.7897C19.8905 35.7515 20.1957 35.7452 20.2656 35.7388C20.1448 35.6816 19.6362 35.5989 19.4518 35.5735C19.4518 35.5735 19.4455 35.5671 19.4391 35.5671C19.4137 35.5925 19.3819 35.6116 19.3501 35.6243C19.2293 35.6752 19.1085 35.6943 18.9877 35.6816C18.9051 35.6816 18.8288 35.6625 18.7652 35.6371C18.7652 35.6371 18.7652 35.6371 18.7588 35.6371C18.6889 35.6053 18.6317 35.5671 18.5935 35.5162C18.5554 35.4654 18.5173 35.3763 18.5427 35.2428C18.5999 34.9884 18.8224 34.8867 19.1022 34.9757C19.2547 35.0266 19.3755 35.0902 19.4455 35.1665C19.4645 35.1792 19.4773 35.2046 19.49 35.2301C19.49 35.2301 19.49 35.2301 19.4963 35.2301C19.6807 35.2555 19.8842 35.3191 20.113 35.4209C20.3355 35.5162 20.5072 35.5671 20.6598 35.6053C20.6153 35.5798 20.5644 35.5544 20.5072 35.5226C20.4691 35.5035 20.4182 35.4781 20.3673 35.4463C20.3038 35.4145 20.2402 35.3763 20.1893 35.3509C19.8524 35.1919 19.5091 35.0202 19.2675 34.7532C19.0767 34.5369 19.0386 34.378 18.9877 34.1936C18.9178 33.6912 18.6826 33.4495 18.7271 33.405C18.7652 33.3605 19.5726 33.7421 19.8587 34.0664C20.0558 34.2889 20.1003 34.467 20.1385 34.626V34.6641C20.1893 34.8358 20.3737 35.0012 20.6407 35.1856C20.6789 35.211 20.7106 35.2364 20.7488 35.2555C20.6852 35.1665 20.6216 35.0775 20.5708 34.9821C20.5581 34.963 20.5581 34.9439 20.5581 34.9185C20.5326 34.9058 20.5072 34.8867 20.4818 34.8676C20.4563 34.8422 20.4246 34.8104 20.3928 34.7722C20.3546 34.715 20.3228 34.6578 20.2974 34.5942C20.2275 34.4225 20.2211 34.2762 20.2783 34.1618C20.3101 34.1045 20.3737 34.0282 20.5008 33.9964C20.7297 33.9392 20.895 34.0664 20.9904 34.3843C20.9967 34.4543 21.0031 34.5179 21.0031 34.5751C21.0031 34.6387 20.9967 34.6896 20.984 34.7341C20.984 34.7595 20.9713 34.7659 20.965 34.7849C20.9713 34.7977 20.984 34.804 20.984 34.8167C21.1048 35.1792 21.3973 35.4717 21.7152 35.6816C21.3146 35.3318 21.0921 34.5497 21.143 34.5179C21.1875 34.4861 21.5753 34.7086 21.9122 34.8422C22.103 34.9185 22.2746 35.0075 22.4272 35.1093C22.5353 35.1792 22.637 35.2555 22.7324 35.3445C22.8214 35.4209 22.8977 35.4972 22.9613 35.5671L22.9867 35.5989C23.0503 35.6625 23.0948 35.707 23.1393 35.7515C23.1774 35.7833 23.2219 35.8151 23.2664 35.8405C23.3681 35.9041 23.5334 35.8342 23.5334 35.8342C23.5652 35.8215 23.6288 35.8088 23.6987 35.8024C23.7051 35.796 23.7115 35.7833 23.7178 35.777C23.7369 35.7579 23.7432 35.7515 23.7496 35.7388C23.8132 35.6879 23.8768 35.6625 23.934 35.6561C23.934 35.6371 23.934 35.6243 23.934 35.6053C23.953 35.5099 24.0103 35.4336 24.1056 35.3827C24.1311 35.37 24.1565 35.3573 24.1883 35.3509C24.201 35.3509 24.2264 35.3445 24.2455 35.3382C24.2646 35.3382 24.2773 35.3382 24.29 35.3382C24.3154 35.3382 24.3345 35.3382 24.3472 35.3382C24.3663 35.2937 24.3981 35.2492 24.4489 35.2237C24.4489 35.2237 24.4617 35.2174 24.468 35.2174C24.5952 35.1538 24.7541 35.1856 24.8495 35.2873C24.9003 35.3382 24.9258 35.4018 24.9385 35.4717C24.9385 35.4717 24.9385 35.5099 24.9385 35.5162C24.9385 35.548 24.9385 35.5798 24.9385 35.6053C24.9385 35.6434 24.9448 35.6752 24.9576 35.7134C24.9576 35.7134 24.9576 35.7197 24.9576 35.7261C25.0338 35.7261 25.1101 35.7261 25.1864 35.7388C25.1928 35.7388 25.2055 35.7388 25.2119 35.7388C25.2119 35.7388 25.2246 35.7388 25.2309 35.7388C25.2309 35.7388 25.2309 35.7388 25.2373 35.7388C25.2754 35.7388 25.3136 35.7515 25.3517 35.7579C25.4089 35.7642 25.4662 35.777 25.5297 35.7897C25.5806 35.777 25.6378 35.7579 25.6887 35.7452C25.7268 35.7388 25.765 35.7261 25.7968 35.7197C25.7968 35.7197 25.8095 35.7197 25.8158 35.7134C25.8222 35.7134 25.8349 35.7134 25.8413 35.7134C25.8667 35.7134 25.8921 35.707 25.9239 35.7006C25.9366 35.6498 25.943 35.5862 25.943 35.5162C25.943 35.4463 25.9557 35.4081 25.9748 35.37C25.9875 35.3509 26.0002 35.3191 26.0256 35.3C26.0447 35.281 26.0638 35.2619 26.0829 35.2492C26.1719 35.1856 26.3054 35.1728 26.4135 35.2237L26.4389 35.2364C26.4834 35.2619 26.5152 35.3064 26.5342 35.3509C26.5724 35.3509 26.6169 35.3382 26.655 35.3509C26.6805 35.3509 26.7059 35.3636 26.7186 35.37C26.7377 35.3763 26.7504 35.3827 26.7631 35.3891C26.7631 35.3891 26.7631 35.3891 26.7695 35.3891C26.8648 35.4399 26.9221 35.5162 26.9411 35.6116C26.9411 35.6116 26.9411 35.6243 26.9411 35.6371C26.9539 35.6371 26.9602 35.6371 26.9729 35.6371C26.9729 35.6371 26.9729 35.6371 26.9856 35.6371C27.0111 35.6371 27.0365 35.6371 27.0683 35.6371C27.0746 35.6371 27.0874 35.6371 27.0874 35.6371C27.0874 35.6371 27.3671 35.6371 27.4497 35.6689L27.7422 35.6879C27.7803 35.6561 27.8121 35.6243 27.8503 35.5798C27.9202 35.5035 27.9965 35.4272 28.0919 35.3445C28.1872 35.2555 28.289 35.1792 28.397 35.1029C28.5623 34.9948 28.7849 34.9503 28.9819 34.874C29.5732 34.6196 29.6304 34.2889 29.6813 34.3144C29.7321 34.3462 29.5414 35.3 29.1472 35.6498C29.4651 35.4399 29.7512 35.1538 29.8657 34.7977C29.8657 34.7849 29.8784 34.7786 29.8847 34.7659C29.8784 34.7468 29.8657 34.7341 29.8593 34.715C29.8466 34.6705 29.8402 34.6133 29.8402 34.556C29.8402 34.4988 29.8402 34.4352 29.8529 34.3652C29.9483 34.0537 30.1072 33.9201 30.3361 33.9773C30.476 34.0091 30.5396 34.0854 30.565 34.1427C30.6222 34.2508 30.6159 34.4034 30.5396 34.5687C30.5141 34.6387 30.476 34.6959 30.4442 34.7468C30.4124 34.7913 30.3806 34.8231 30.3488 34.8485C30.3234 34.8676 30.298 34.8867 30.2725 34.8994C30.2725 34.9185 30.2725 34.9376 30.2662 34.9566C30.2153 35.0457 30.1517 35.1411 30.0627 35.2555C30.1009 35.2237 30.1454 35.1919 30.1899 35.1601C30.4696 34.9439 30.6413 34.7722 30.6858 34.5942C30.7303 34.4288 30.7748 34.2508 30.9655 34.0346C31.2325 33.7293 31.2898 33.653 31.6267 33.475C31.703 33.4432 32.0845 33.3414 32.1226 33.386C32.1608 33.4305 31.8302 33.5704 31.7284 34.1554C31.6839 34.3335 31.6331 34.6133 31.4423 34.8295C31.2071 35.0965 30.9973 35.1601 30.6667 35.3191L30.5968 35.3509C30.5268 35.3827 30.4569 35.4145 30.3933 35.4526C30.3043 35.4972 30.228 35.548 30.1517 35.5862C30.3107 35.548 30.5078 35.4908 30.7239 35.3891C30.921 35.2937 31.1308 35.2301 31.3406 35.1983C31.3406 35.1983 31.347 35.1983 31.3533 35.1983C31.3661 35.1728 31.3788 35.1538 31.3978 35.1347C31.4678 35.0584 31.5886 34.9948 31.7348 34.9439C32.0336 34.8549 32.2371 34.963 32.3006 35.211C32.3261 35.3445 32.2879 35.4336 32.2498 35.4844" fill="#012B6B"/>
<path d="M42.3267 23.9359C43.204 23.5226 44.66 22.556 45.2194 21.8883C44.3993 21.6276 42.7781 21.4432 41.8562 21.4177C43.7572 20.1141 43.8335 17.3225 43.2676 15.2812C42.8353 16.9219 41.6782 18.2128 40.8899 19.0395C40.9598 19.8216 40.7055 21.2142 40.2668 22.0664C40.8899 22.3016 41.6337 22.6641 42.155 23.0584C41.8054 23.4971 41.0552 24.1776 40.5911 24.5464C40.9852 24.9597 41.6591 25.7228 41.958 26.168C41.5193 26.4986 40.5593 26.8738 40.0697 27.0519C40.3113 27.5479 40.661 28.4509 40.7564 29.074C40.1969 29.1631 39.4276 29.2267 38.6202 29.2203C38.6583 29.8181 38.5757 30.7465 38.474 31.2997C37.7301 31.2425 36.8464 30.9372 36.4522 30.7401C36.2424 31.5668 35.7338 32.368 35.7084 32.4125C34.99 31.6304 34.3033 31.3251 33.693 31.3251V30.8037C34.3415 30.7846 35.0027 31.0517 35.524 31.5477C35.7465 31.1344 35.9945 30.3713 36.0898 29.9516C36.5667 30.206 37.2914 30.4667 37.9463 30.5621C38.0099 30.0088 38.0607 29.2521 37.9844 28.6543C38.6138 28.7179 39.3322 28.7179 40.0443 28.578C39.9299 28.063 39.4848 27.1918 39.1924 26.7148C39.8472 26.5368 40.6483 26.2188 41.0552 25.9772C40.7309 25.532 40.1142 24.858 39.7201 24.5082C40.2032 24.1776 40.928 23.5671 41.2395 23.211C40.75 22.8803 40.0189 22.5306 39.4467 22.308C40.2287 21.1888 40.4321 18.9441 40.2668 17.933C39.5484 20.2922 37.4885 22.0282 36.2297 22.8231C36.1598 22.8676 36.1089 22.9121 36.0581 22.963C36.0581 22.963 36.0581 22.963 36.0517 22.9693C36.0008 23.0202 35.7529 23.3064 35.8737 23.6752C35.8864 23.7706 35.9118 23.866 35.9436 23.9486C36.039 24.4065 36.0326 25.1123 35.3714 25.7546C34.8183 26.2951 34.0935 26.3142 33.6867 26.2761V25.0297C33.6867 24.8643 33.5531 24.7308 33.3878 24.7308H32.5423L32.1672 24.3111C32.1672 24.3111 32.5741 24.3238 33.0255 24.292C33.4769 24.2602 33.9982 24.0313 33.9982 24.0313C33.9982 24.0313 33.4896 24.0313 33.2289 23.9804C32.9746 23.9296 32.3261 23.6816 31.8175 23.0775C31.6268 22.8549 31.4806 22.6069 31.3598 22.3716C30.8766 21.9773 30.3934 21.4305 30.0628 20.6737C29.8466 20.1841 29.7258 19.421 29.675 18.9377C29.516 19.0776 29.319 19.2811 29.1028 19.58C28.7213 20.1014 28.5115 20.8581 28.5115 20.8645L28.359 21.4241L28.0601 20.9281C28.0601 20.9281 27.6533 20.2477 27.5897 19.3892C27.5642 19.014 27.5897 18.6388 27.6342 18.3463C27.5007 18.4226 27.3481 18.518 27.1828 18.6388C26.4771 19.1348 26.1147 19.6881 26.1083 19.6944C25.7396 20.165 25.5552 20.5465 25.4662 20.7564C25.3836 20.5402 25.1992 20.165 24.8241 19.6944C24.8241 19.6944 24.4554 19.1348 23.7497 18.6388C23.5844 18.5244 23.4318 18.429 23.2983 18.3463C23.3364 18.6325 23.3682 19.014 23.3428 19.3892C23.2792 20.2477 22.8914 20.9027 22.8723 20.9281L22.5735 21.4241L22.4209 20.8645C22.4209 20.8645 22.2048 20.0951 21.8297 19.58C21.6135 19.2875 21.4164 19.0776 21.2575 18.9377C21.2002 19.421 21.0858 20.1777 20.8696 20.6737C20.539 21.4241 20.0495 21.9773 19.5727 22.3716C19.4583 22.6005 19.3057 22.8549 19.1149 23.0775C18.6 23.6816 17.9578 23.9296 17.7035 23.9804C17.4492 24.0313 16.9343 24.0313 16.9343 24.0313C16.9343 24.0313 17.4556 24.2602 17.907 24.292C18.3584 24.3238 18.7653 24.3111 18.7653 24.3111L18.3902 24.7308H17.551C17.3857 24.7308 17.2521 24.8643 17.2521 25.0297V26.2761C16.8453 26.3142 16.1205 26.2951 15.5674 25.7546C14.9125 25.1123 14.9062 24.4129 14.9952 23.9486C15.027 23.866 15.0524 23.7706 15.0651 23.6752C15.1859 23.3064 14.938 23.0202 14.8871 22.9693C14.8871 22.9693 14.8871 22.9693 14.8807 22.963C14.8362 22.9121 14.779 22.8676 14.7091 22.8231C13.4503 22.0282 11.3968 20.2922 10.672 17.933C10.5067 18.9441 10.7165 21.1888 11.4921 22.308C10.9199 22.5242 10.1952 22.8803 9.69927 23.211C10.0108 23.5671 10.7356 24.1776 11.2187 24.5082C10.8246 24.8643 10.2079 25.5384 9.88364 25.9772C10.2905 26.2188 11.0916 26.5431 11.7464 26.7148C11.454 27.1981 11.0089 28.063 10.8945 28.578C11.6066 28.7179 12.325 28.7179 12.9544 28.6543C12.8717 29.2585 12.9289 30.0152 12.9925 30.5621C13.6474 30.4667 14.3658 30.1996 14.849 29.9516C14.938 30.3649 15.1923 31.1344 15.4148 31.5477C15.9361 31.0517 16.5973 30.7846 17.2458 30.8037V31.3251C16.6291 31.3251 15.9425 31.6304 15.2241 32.4125C15.1986 32.368 14.69 31.5668 14.4802 30.7401C14.086 30.9372 13.2087 31.2425 12.4585 31.2997C12.3568 30.7465 12.2678 29.8181 12.3123 29.2203C11.5048 29.233 10.7356 29.1694 10.1761 29.074C10.2651 28.4509 10.6148 27.5479 10.8564 27.0519C10.3668 26.8802 9.40681 26.4986 8.96814 26.168C9.26695 25.7292 9.9345 24.9597 10.335 24.5464C9.86456 24.1776 9.11436 23.4971 8.77105 23.0584C9.29873 22.6578 10.0362 22.3016 10.6593 22.0664C10.2206 21.2206 9.96629 19.828 10.0362 19.0395C9.24787 18.2128 8.09078 16.9219 7.65846 15.2812C7.09899 17.3161 7.16892 20.1141 9.06986 21.4177C8.148 21.4432 6.53316 21.6212 5.70667 21.8883C6.26614 22.5624 7.72204 23.5289 8.59939 23.9359C7.91913 24.1966 6.69846 24.8516 6.18985 25.3222C6.84468 25.7292 8.28151 26.1934 8.96178 26.346C8.5676 26.6703 7.75383 27.5987 7.44866 28.1011C8.01449 28.2792 9.17158 28.4318 9.90907 28.4763C9.67383 28.9659 9.40681 29.8371 9.33052 30.4094C9.69291 30.4476 10.9136 30.384 11.5176 30.2505C11.4667 30.7465 11.4858 31.6431 11.5684 32.031C12.166 31.942 13.0116 31.7067 13.4121 31.5541C13.5266 31.9928 13.9335 32.9403 14.0797 33.1693C14.3467 33.1184 14.6392 33.0357 14.9189 32.934C15.7009 32.6478 16.6164 32.9849 16.947 33.7479C17.5255 35.077 17.2967 36.654 16.1777 36.3297C14.8871 36.5396 15.7708 38.1548 15.0524 38.6699C16.0506 39.3503 16.3494 37.7414 17.5637 38.0085C17.4302 38.6126 17.4492 39.6809 17.5446 40.1324C17.9451 39.8208 18.511 39.5856 18.8797 39.5601C18.7907 39.9099 18.7144 40.7366 18.8479 41.2453C19.1086 41.0481 20.7298 40.6412 20.7298 40.6412C20.7298 40.6412 20.094 41.9384 20.5009 43.1848C20.7171 43.3501 22.2048 42.6379 22.2238 42.1864C22.2683 42.7079 21.6326 43.8716 20.6789 44.0814C21.7216 45.0925 22.6371 45.0607 22.7769 45.0607C22.9232 45.0607 23.0694 45.0353 23.1965 44.9717C23.1139 45.2706 23.0885 45.6394 23.1457 45.8937C23.2093 45.8937 23.2728 45.8937 23.3364 45.8937C23.5971 45.8937 23.8323 45.8556 24.0358 45.7538C24.0675 46.0273 24.1947 46.358 24.3981 46.5805C24.4363 46.625 24.4808 46.6632 24.5253 46.7013C24.7605 46.7013 25.3264 46.4279 25.4535 46.2562C25.4535 46.2562 25.4599 46.2499 25.4599 46.2435C25.4599 46.2435 25.4662 46.2499 25.4662 46.2562C25.5934 46.4279 26.1592 46.7013 26.3944 46.7013C26.4389 46.6696 26.4834 46.625 26.5216 46.5805C26.725 46.358 26.8522 46.0273 26.884 45.7538C27.0874 45.8556 27.3227 45.8937 27.5833 45.8937C27.6469 45.8937 27.7105 45.8937 27.774 45.8937C27.8313 45.6394 27.8058 45.2706 27.7232 44.9717C27.8503 45.0353 27.9966 45.0607 28.1428 45.0607C28.2827 45.0607 29.1982 45.0989 30.2408 44.0814C29.2872 43.8652 28.6514 42.7079 28.6959 42.1864C28.715 42.6379 30.1963 43.3501 30.4188 43.1848C30.8257 41.9384 30.19 40.6412 30.19 40.6412C30.19 40.6412 31.8112 41.0545 32.0718 41.2453C32.2053 40.7302 32.1354 39.9099 32.04 39.5601C32.4088 39.5856 32.9682 39.8208 33.3751 40.1324C33.4705 39.6809 33.4832 38.6126 33.3561 38.0085C34.5767 37.7414 34.8755 39.3439 35.8673 38.6699C35.1489 38.1548 36.0263 36.5396 34.742 36.3297C33.6231 36.6477 33.3942 35.0706 33.9727 33.7479C34.3033 32.9849 35.2189 32.6542 36.0008 32.934C36.2806 33.0357 36.573 33.1184 36.84 33.1693C36.9863 32.9467 37.3932 31.9928 37.5076 31.5541C37.9018 31.7067 38.7537 31.9483 39.345 32.031C39.4276 31.6431 39.4467 30.7465 39.3958 30.2505C39.9998 30.384 41.2141 30.4476 41.5829 30.4094C41.5129 29.8435 41.2459 28.9723 41.0043 28.4763C41.7418 28.4318 42.8989 28.2792 43.4647 28.1011C43.1659 27.5987 42.3521 26.664 41.9516 26.346C42.6319 26.1934 44.0687 25.7292 44.7299 25.3222C44.2213 24.8516 43.0006 24.1903 42.3203 23.9359M32.981 36.9148C32.9428 37.0038 32.8856 37.0992 32.8284 37.1946C32.8093 37.2264 32.7839 37.2581 32.7648 37.2899C32.7203 37.3599 32.6694 37.4298 32.6122 37.4998C32.5804 37.5379 32.555 37.5761 32.5232 37.6143C32.4469 37.7033 32.3706 37.7987 32.2816 37.8941C32.2244 37.9576 32.1608 38.0212 32.0972 38.0848C32.0464 38.1357 32.0019 38.1802 31.951 38.2311C31.8811 38.301 31.8048 38.3646 31.7285 38.4346C31.684 38.4727 31.6459 38.5109 31.6013 38.549C31.4106 38.7144 31.2072 38.8733 30.9847 39.0323C30.7049 39.2358 30.3998 39.4266 30.0755 39.611C29.9611 39.6746 29.853 39.7382 29.7386 39.7954C27.1446 41.1245 25.8668 42.1419 25.4789 42.4726H25.4471C25.0657 42.1419 23.7878 41.1245 21.1875 39.7954C21.0731 39.7382 20.965 39.6682 20.8506 39.611C20.5263 39.4266 20.2212 39.2358 19.9414 39.0323C19.7189 38.8733 19.5155 38.708 19.3247 38.549C19.2802 38.5109 19.2357 38.4727 19.1976 38.4346C19.1213 38.3646 19.045 38.301 18.9751 38.2311C18.9242 38.1802 18.8733 38.1357 18.8225 38.0848C18.7589 38.0212 18.6953 37.9576 18.6381 37.8941C18.5491 37.7987 18.4665 37.7033 18.3965 37.6143C18.3647 37.5761 18.3393 37.5379 18.3075 37.4998C18.2503 37.4298 18.1994 37.3535 18.1549 37.2899C18.1359 37.2581 18.1104 37.2264 18.0914 37.1946C18.0278 37.0992 17.9769 37.0038 17.9388 36.9148C17.6018 36.158 17.6527 35.5476 17.6527 35.5412V35.5158V25.443C17.6527 25.2777 17.7862 25.1441 17.9515 25.1441H32.9619C33.1272 25.1441 33.2607 25.2777 33.2607 25.443V35.5158V35.5412C33.2607 35.5412 33.3179 36.158 32.9746 36.9148" fill="#012B6B"/>
<path d="M32.6694 9.22012C32.8728 9.22012 33.0381 9.04842 33.0381 8.83857C33.0381 8.62873 32.8728 8.45703 32.6694 8.45703C32.466 8.45703 32.3007 8.62873 32.3007 8.83857C32.3007 9.04842 32.466 9.22012 32.6694 9.22012Z" fill="#012B6B"/>
<path d="M32.6694 11.3755C32.9237 11.3755 33.1272 10.4025 33.1272 9.91924C33.1272 9.65216 32.9237 9.48047 32.6694 9.48047C32.4151 9.48047 32.2053 9.65216 32.2053 9.91924C32.2053 10.4025 32.4151 11.3755 32.6694 11.3755Z" fill="#012B6B"/>
<path d="M32.4214 7.84767H32.9109L32.8537 7.21176L33.4641 7.27535V6.77299L32.8537 6.83658L32.9109 6.20703H32.4214L32.485 6.83658L31.8683 6.77299V7.27535L32.485 7.21176L32.4214 7.84767Z" fill="#012B6B"/>
<path d="M30.4187 12.514C30.584 12.5522 30.762 12.584 30.9464 12.6094C30.9591 12.6094 30.9782 12.6094 30.9909 12.6094H31.0036H31.0227H31.029H31.0417H31.0545H31.0672H31.0735H31.1435C31.1435 12.6094 31.2007 12.6158 31.2261 12.6221H31.3215C31.3723 12.6348 31.4296 12.6348 31.4804 12.6412C31.5186 12.6412 31.5504 12.6412 31.5885 12.6412C31.6394 12.6412 31.6902 12.6412 31.7411 12.6412C32.1988 12.6221 32.6884 12.514 33.1143 12.4123C33.5594 12.3105 34.0616 12.1961 34.5766 12.1706H34.6211C34.6211 12.1706 34.672 12.1706 34.6974 12.1706H34.7165H34.7355H34.7673C34.7673 12.1706 34.7864 12.1706 34.7928 12.1706H34.8373H34.8563H34.9453H34.9581H34.9644C34.9644 12.1706 35.0026 12.1706 35.0216 12.1706C35.1615 11.6746 35.295 11.0578 35.295 10.7398C35.295 10.0531 34.9136 9.28997 33.5721 9.05469C33.5721 9.90044 33.1716 11.929 32.682 11.929H32.6248C32.1353 11.929 31.7347 9.88772 31.7347 9.05469C30.3996 9.28997 30.0309 10.0531 30.0309 10.7398C30.0309 11.115 30.2153 11.8972 30.3806 12.4123C30.3869 12.4377 30.3996 12.4695 30.4123 12.4949" fill="#012B6B"/>
<path d="M37.3486 8.88515H37.3677C37.3677 8.88515 36.9735 7.94401 37.6029 7.68965C38.2323 7.44165 37.3804 7.60062 37.8318 6.30974C38.3658 4.78356 39.5229 5.13967 39.5229 5.13967C38.7219 4.48469 38.0988 4.55464 37.6474 4.89167C37.374 5.10787 36.9735 5.55937 36.6811 6.47507C36.3123 7.68329 36.7128 8.77069 37.3423 8.87879" fill="#012B6B"/>
<path d="M40.3303 6.63912C40.3812 8.54683 43.5854 9.33536 43.5854 9.33536C43.5854 9.33536 41.7354 8.01267 42.1105 7.03338C42.1105 7.03338 43.3248 7.55482 44.7171 7.33225C41.7544 6.71543 42.7272 5.79336 42.0151 5.03028C41.284 4.24175 40.1014 4.15273 39.8217 4.13365C39.0842 4.08914 39.027 4.08914 38.156 4.27991C40.0887 4.32442 40.2922 5.36731 40.3303 6.63912Z" fill="#012B6B"/>
<path d="M39.8917 10.2146C40.3113 8.69476 39.542 8.04614 39.542 8.04614C39.3068 7.78542 38.0925 7.80449 37.6665 8.09701C37.6665 8.09701 38.8173 8.07793 38.6456 9.75672C38.4803 11.4292 36.1661 11.7725 35.5367 11.8489L35.4668 12.0587C36.554 12.0587 39.4658 11.7344 39.8917 10.2146Z" fill="#012B6B"/>
<path d="M27.8821 10.168H26.6996C27.2718 11.7577 28.9184 12.311 30.0437 12.4509L29.9928 12.2728C28.8675 11.834 28.2636 11.3762 27.8885 10.168" fill="#012B6B"/>
<path d="M18.2757 9.22012C18.4792 9.22012 18.6445 9.04842 18.6445 8.83857C18.6445 8.62873 18.4792 8.45703 18.2757 8.45703C18.0723 8.45703 17.907 8.62873 17.907 8.83857C17.907 9.04842 18.0723 9.22012 18.2757 9.22012Z" fill="#012B6B"/>
<path d="M18.2756 11.3755C18.5299 11.3755 18.7334 10.4025 18.7334 9.91924C18.7334 9.65216 18.5236 9.48047 18.2756 9.48047C18.0277 9.48047 17.8115 9.65216 17.8115 9.91924C17.8115 10.4025 18.015 11.3755 18.2756 11.3755Z" fill="#012B6B"/>
<path d="M18.0277 7.84767H18.5236L18.46 7.21176L19.0767 7.27535V6.77299L18.46 6.83658L18.5236 6.20703H18.0277L18.0913 6.83658L17.4746 6.77299V7.27535L18.0913 7.21176L18.0277 7.84767Z" fill="#012B6B"/>
<path d="M15.9678 12.1906H15.9869H16.0886H16.2158C16.2158 12.1906 16.2667 12.1906 16.2921 12.1906H16.3366C16.8516 12.2224 17.3538 12.3369 17.7988 12.4323C18.2312 12.534 18.7143 12.6421 19.1721 12.6612C19.223 12.6612 19.2738 12.6612 19.3247 12.6612C19.3628 12.6612 19.3946 12.6612 19.4328 12.6612C19.4836 12.6612 19.5345 12.6612 19.5917 12.6485H19.6871C19.6871 12.6485 19.7379 12.6357 19.7697 12.6357L19.8396 12.6294C19.8396 12.6294 19.8396 12.6294 19.846 12.6294H19.8587H19.8714H19.8842H19.8905H19.9096H19.9223C19.9223 12.6294 19.9541 12.6294 19.9668 12.6294C20.1575 12.6039 20.3292 12.5722 20.4945 12.534C20.5072 12.5022 20.5136 12.4768 20.5263 12.4513C20.6916 11.9362 20.8759 11.1541 20.8759 10.7789C20.8759 10.0921 20.5072 9.32904 19.1721 9.09375C19.1721 9.92679 18.7652 11.968 18.282 11.968H18.2248C17.7353 11.968 17.3347 9.94586 17.3347 9.09375C15.9933 9.32904 15.6118 10.0921 15.6118 10.7789C15.6118 11.1032 15.7453 11.72 15.8916 12.2097C15.9106 12.2097 15.9297 12.2097 15.9488 12.2097" fill="#012B6B"/>
<path d="M11.4158 5.13835C11.4158 5.13835 12.5792 4.78224 13.1069 6.30841C13.5583 7.5993 12.7127 7.44033 13.3358 7.68833C13.9652 7.93633 13.571 8.87111 13.571 8.87111H13.5901C14.2195 8.76937 14.62 7.67561 14.2513 6.47375C13.9588 5.55169 13.5583 5.10019 13.2849 4.89034C12.8335 4.54696 12.2105 4.48336 11.4094 5.13835" fill="#012B6B"/>
<path d="M8.83454 7.02759C9.20328 8.01324 7.35957 9.32957 7.35957 9.32957C7.35957 9.32957 10.5638 8.54104 10.6147 6.63333C10.6528 5.36152 10.8563 4.31863 12.789 4.27412C11.9116 4.08335 11.8608 4.08335 11.1169 4.1215C10.8436 4.14058 9.66103 4.2296 8.9299 5.01813C8.21149 5.78757 9.19057 6.70964 6.22791 7.3201C7.62659 7.54267 8.83454 7.02123 8.83454 7.02123" fill="#012B6B"/>
<path d="M12.2931 9.75535C12.1214 8.0702 13.2722 8.09563 13.2722 8.09563C12.8462 7.80312 11.6319 7.77768 11.3967 8.04476C11.3967 8.04476 10.6274 8.69339 11.047 10.2132C11.4666 11.733 14.3784 12.0573 15.4656 12.0573L15.3956 11.8475C14.7599 11.7712 12.452 11.4278 12.2867 9.75535" fill="#012B6B"/>
<path d="M24.2455 10.168H23.063C22.6879 11.3762 22.0839 11.834 20.9586 12.2728L20.9014 12.4509C22.0203 12.311 23.6733 11.7577 24.2455 10.168Z" fill="#012B6B"/>
<path d="M26.9665 17.2317C26.6105 17.7722 26.3371 18.3509 26.121 18.8977C26.3117 18.6943 26.5724 18.459 26.8902 18.23C27.4116 17.8612 27.8439 17.6704 27.863 17.6641L28.3207 17.467L28.1999 17.9566C28.1999 17.9566 28.0283 18.6752 28.0791 19.3556C28.0982 19.6481 28.1681 19.9152 28.2381 20.1314C28.3461 19.8643 28.5051 19.5527 28.6958 19.292C29.2489 18.5353 29.7385 18.2746 29.7575 18.2618L30.0945 18.0901L30.1199 18.4717C30.1199 18.4717 30.2153 19.8134 30.5141 20.4811C31.0354 21.6576 31.9954 22.2871 32.5931 22.5796C32.5104 22.5033 32.415 22.4079 32.3006 22.2808C32.0336 21.9819 31.7221 21.4604 31.5631 20.3603C31.436 19.4383 31.8047 18.4908 31.9255 18.2173C31.9891 18.4717 32.0908 18.6688 32.218 18.7515C32.218 18.7515 32.1989 18.5353 32.2625 18.2936C32.3578 17.645 33.0826 16.7102 33.979 16.0807C34.1761 15.9471 34.3223 15.8581 34.4686 15.7754C34.6148 15.6928 34.7419 15.6165 34.9009 15.502C34.7229 15.5274 34.4813 15.5656 34.3541 15.5783H34.2969C34.1697 15.5974 33.9854 15.6101 33.7756 15.6101C33.3433 15.6101 32.7901 15.5402 32.3896 15.2031C31.9954 14.8788 31.8174 14.4973 31.7411 14.2556C31.5758 14.262 31.3215 14.262 31.0227 14.2429C30.6858 14.2175 30.3742 14.1539 30.1899 14.1094C29.7448 14.3892 29.2616 14.5164 28.6895 14.5418C28.6195 14.5418 28.5051 14.5354 28.4352 14.5291C28.6259 14.6753 28.823 14.8025 29.0391 14.9043C29.0518 14.9043 29.0582 14.9106 29.0709 14.917L28.9374 14.9678C28.9374 14.9678 28.1745 15.413 26.9602 17.238" fill="#012B6B"/>
<path d="M34.4941 14.0215C34.2906 14.0024 34.0745 13.996 33.8519 14.0024C33.8392 14.1359 33.8456 14.2567 33.871 14.3712C33.9092 14.5429 33.9918 14.6764 34.0872 14.7782C34.2843 14.6319 34.4432 14.3903 34.4941 14.0215Z" fill="#012B6B"/>
<path d="M34.9454 12.6854H34.9263C34.9263 12.6854 34.9263 12.6854 34.9136 12.6854H34.8691C34.8691 12.6854 34.85 12.6854 34.8373 12.6854H34.7864C34.7864 12.6854 34.7801 12.6854 34.7737 12.6854H34.7419C34.7419 12.6854 34.7356 12.6854 34.7292 12.6854C34.6911 12.6854 34.6466 12.6854 34.6084 12.6854C34.1507 12.7108 33.6929 12.8126 33.2415 12.9143C32.7647 13.0224 32.2688 13.1369 31.7793 13.156C31.6776 13.156 31.5822 13.156 31.4805 13.156C31.4169 13.156 31.3597 13.1496 31.3025 13.1433C31.2707 13.1433 31.2389 13.1433 31.2007 13.1369C31.1626 13.1369 31.1244 13.1305 31.0863 13.1242C31.0799 13.1242 31.0736 13.1242 31.0672 13.1242C31.0609 13.1242 31.0545 13.1242 31.0482 13.1242C31.0354 13.1242 31.0227 13.1242 31.01 13.1242C31.0036 13.1242 30.9973 13.1242 30.9909 13.1242C30.9909 13.1242 30.9782 13.1242 30.9719 13.1242C30.9655 13.1242 30.9528 13.1242 30.9401 13.1242C30.9401 13.1242 30.9274 13.1242 30.921 13.1242C30.921 13.1242 30.9083 13.1242 30.9019 13.1242C29.8911 12.9906 29.1663 12.66 28.8357 12.4883C28.912 12.59 29.0201 12.7236 29.1599 12.8698C29.2172 12.9271 29.2744 12.9843 29.3443 13.0415C29.4778 13.156 29.6304 13.2704 29.8084 13.3786C30.0691 13.5057 31.01 13.9 32.2752 13.7156C33.7247 13.5121 33.979 13.5248 34.3351 13.5502H34.4622C34.9645 13.5884 35.7083 13.9254 36.0135 14.1035C36.1533 13.8237 36.2741 13.5248 36.3568 13.2132C36.2805 13.1369 36.1724 13.0479 35.9817 12.9398C35.9181 12.908 35.8545 12.8762 35.7719 12.8507C35.632 12.7999 35.4604 12.7554 35.2569 12.7299C35.1615 12.7172 35.0662 12.7045 34.9581 12.7045H34.9454V12.6854Z" fill="#012B6B"/>
<path d="M38.9889 17.4368C39.0144 17.405 38.9889 17.3986 38.9635 17.4113C38.9444 17.4241 38.4358 17.7229 37.3423 17.0107C36.2615 16.3049 35.4223 16.006 34.9773 15.9297C34.8755 15.9996 34.7802 16.0569 34.6785 16.1141C34.5449 16.1904 34.3987 16.2731 34.2207 16.4003C34.1635 16.4384 34.1126 16.4829 34.0618 16.5211C34.0872 16.5338 34.119 16.5465 34.1762 16.5465C35.1998 16.6355 36.0008 17.2587 36.0962 17.4749C36.1026 17.494 36.128 17.494 36.1344 17.4749C36.2424 17.1379 36.0962 16.8645 36.0962 16.8645C36.0962 16.8645 36.573 17.157 37.4949 17.6975C38.4231 18.238 38.8427 17.6339 38.9889 17.4368Z" fill="#012B6B"/>
<path d="M33.4896 14.5766C33.4133 14.5066 33.3561 14.424 33.3116 14.3286C33.2671 14.2396 33.2416 14.1505 33.2226 14.0742C32.9937 14.0997 32.7076 14.1378 32.3388 14.1887C32.2625 14.2014 32.1926 14.2078 32.1227 14.2141C32.2816 14.5448 32.5868 14.9073 33.1844 15.0472C33.2226 15.0535 33.2607 15.0662 33.2988 15.0726C33.337 15.0726 33.3751 15.0853 33.4196 15.0917C33.6739 15.1235 33.9155 15.1425 34.1317 15.1425C34.5132 15.1425 34.9963 15.0917 35.4414 14.9708C35.5431 14.85 35.6385 14.7101 35.7338 14.5639C35.7084 14.5511 35.6766 14.5321 35.6321 14.513C35.5304 14.4494 35.2189 14.2714 35.079 14.2141C35.0154 14.3795 34.9264 14.5511 34.7865 14.6529C34.6276 14.7737 34.3987 14.8437 34.1698 14.8437C33.941 14.8437 33.7312 14.7737 33.5659 14.6593C33.5341 14.6402 33.5086 14.6147 33.4832 14.5893" fill="#012B6B"/>
<path d="M36.592 13.75C36.2551 14.6466 35.6892 15.3588 35.2823 15.7086C35.2823 15.7086 35.2823 15.7086 35.2887 15.7086C37.8763 15.0155 38.3277 16.3318 38.3213 16.3763C38.3213 16.4272 38.3467 16.4462 38.3849 16.4017C38.4357 16.3381 39.294 15.4034 38.6773 14.5512C38.156 13.8327 36.9671 13.7627 36.5984 13.7564M36.573 14.4304C36.662 14.3032 36.7446 14.0743 36.7446 14.0743C36.9417 14.0743 37.2914 14.1379 37.2914 14.3795C37.0561 14.335 36.7764 14.3414 36.573 14.4304Z" fill="#012B6B"/>
<path d="M17.0678 14.3727C17.0932 14.2583 17.0932 14.1374 17.0868 14.0039C16.8643 14.0039 16.6481 14.0039 16.4447 14.023C16.4956 14.3918 16.6545 14.6335 16.8516 14.7797C16.947 14.6843 17.0296 14.5508 17.0678 14.3727Z" fill="#012B6B"/>
<path d="M20.0241 13.1106C20.0241 13.1106 20.0113 13.1106 20.005 13.1106C19.9986 13.1106 19.9859 13.1106 19.9732 13.1106C19.9668 13.1106 19.9605 13.1106 19.9541 13.1106C19.9478 13.1106 19.9414 13.1106 19.9287 13.1106C19.916 13.1106 19.9033 13.1106 19.8905 13.1106C19.8842 13.1106 19.8778 13.1106 19.8715 13.1106C19.8651 13.1106 19.8588 13.1106 19.8524 13.1106C19.8142 13.1106 19.7761 13.1169 19.738 13.1233C19.7062 13.1233 19.6744 13.1233 19.6362 13.1296C19.579 13.1296 19.5218 13.136 19.4646 13.1424C19.3629 13.1424 19.2675 13.1424 19.1658 13.1424C18.6699 13.1233 18.1803 13.0152 17.6972 12.9007C17.2458 12.799 16.788 12.6972 16.3303 12.6718C16.2858 12.6718 16.2476 12.6718 16.2095 12.6718C16.2095 12.6718 16.2031 12.6718 16.1968 12.6718H16.165C16.165 12.6718 16.1586 12.6718 16.1522 12.6718H16.1014C16.1014 12.6718 16.0823 12.6718 16.0696 12.6718H16.0251C16.0251 12.6718 16.0187 12.6718 16.0124 12.6718H15.9806C15.8725 12.6718 15.7771 12.6845 15.6818 12.6972C15.4783 12.7227 15.3067 12.7672 15.1668 12.818C15.0842 12.8498 15.0142 12.8753 14.957 12.9071C14.7663 13.0152 14.6582 13.1042 14.5819 13.1805C14.6646 13.4985 14.7854 13.7973 14.9252 14.0708C15.2304 13.8864 15.9742 13.5557 16.4765 13.5239H16.6036C16.9597 13.4921 17.2203 13.473 18.6635 13.6765C19.9287 13.8546 20.8696 13.4667 21.1303 13.3395C21.3083 13.2314 21.4609 13.1169 21.5944 13.0025C21.658 12.9452 21.7215 12.888 21.7788 12.8308C21.9186 12.6845 22.0267 12.551 22.103 12.4492C21.7724 12.6273 21.054 12.9579 20.0368 13.0851H20.0241" fill="#012B6B"/>
<path d="M11.9499 17.4368C12.0961 17.6339 12.5221 18.238 13.4439 17.6975C14.3658 17.157 14.8426 16.8645 14.8426 16.8645C14.8426 16.8645 14.6964 17.1443 14.8045 17.4749C14.8045 17.494 14.8299 17.494 14.8426 17.4749C14.9316 17.2587 15.7391 16.6355 16.7626 16.5465C16.8135 16.5465 16.8516 16.5274 16.8771 16.5211C16.8199 16.4829 16.769 16.4384 16.7181 16.4003C16.5338 16.2731 16.3939 16.1904 16.2604 16.1141C16.165 16.0569 16.0633 15.9996 15.9616 15.9297C15.5165 16.006 14.6837 16.3049 13.5965 17.0107C12.503 17.7229 11.9944 17.4241 11.9753 17.4113C11.9563 17.3986 11.9245 17.405 11.9499 17.4368Z" fill="#012B6B"/>
<path d="M15.8534 14.2063C15.7199 14.2635 15.4021 14.4479 15.3003 14.5052C15.2558 14.5243 15.2304 14.5433 15.1986 14.5561C15.294 14.7023 15.3957 14.8422 15.4911 14.963C15.9361 15.0839 16.4193 15.1347 16.8007 15.1347C17.0169 15.1347 17.2585 15.122 17.5128 15.0839C17.5509 15.0839 17.5954 15.0711 17.6336 15.0648C17.6781 15.0584 17.7162 15.0521 17.748 15.0393C18.3456 14.8931 18.6508 14.537 18.8098 14.2063C18.7398 14.1999 18.6635 14.1936 18.5936 14.1809C18.2248 14.13 17.9388 14.0918 17.7099 14.0664C17.6908 14.1427 17.6654 14.2254 17.6209 14.3208C17.5764 14.4162 17.5191 14.4988 17.4429 14.5688C17.4174 14.5942 17.3856 14.6196 17.3602 14.6387C17.2013 14.7595 16.9915 14.8231 16.7626 14.8231C16.5337 14.8231 16.3048 14.7532 16.1459 14.6324C16.006 14.5306 15.917 14.3589 15.8534 14.1936" fill="#012B6B"/>
<path d="M12.2677 14.5434C11.651 15.3955 12.5029 16.3303 12.5601 16.3939C12.5983 16.4384 12.6301 16.4193 12.6237 16.3685C12.6237 16.324 13.0687 15.0076 15.6563 15.7008C15.6563 15.7008 15.6563 15.7008 15.6627 15.7008C15.2558 15.3574 14.6836 14.6452 14.353 13.7422C13.9842 13.7422 12.789 13.8249 12.274 14.5371M14.3784 14.4099C14.175 14.3209 13.8952 14.3081 13.66 14.359C13.66 14.1174 14.0033 14.0538 14.2068 14.0538C14.2068 14.0538 14.2958 14.2827 14.3848 14.4099H14.3784Z" fill="#012B6B"/>
<path d="M22.4972 14.5252C22.4209 14.5252 22.3065 14.5379 22.2429 14.5379C21.6644 14.5124 21.1875 14.3853 20.7425 14.1055C20.5581 14.15 20.253 14.2136 19.9096 14.239C19.6108 14.2644 19.3565 14.2644 19.1912 14.2517C19.1149 14.487 18.9369 14.8686 18.5428 15.1992C18.1422 15.5299 17.5891 15.6062 17.1568 15.6062C16.947 15.6062 16.769 15.5935 16.6418 15.5808H16.5846C16.4574 15.5617 16.2159 15.5299 16.0378 15.5045C16.1968 15.6189 16.3239 15.6952 16.4702 15.7779C16.61 15.8606 16.7626 15.9496 16.9597 16.0831C17.8561 16.7063 18.5873 17.6475 18.6763 18.2961C18.7335 18.5377 18.7144 18.7603 18.7208 18.7539C18.8416 18.6713 18.9433 18.4741 19.0132 18.2198C19.134 18.4932 19.5091 19.4407 19.3756 20.3628C19.223 21.4629 18.9115 21.9843 18.6381 22.2832C18.5237 22.404 18.4283 22.5058 18.3457 22.5821C18.9433 22.2896 19.9033 21.66 20.4246 20.4836C20.7171 19.8159 20.8124 18.4869 20.8124 18.4741L20.8379 18.0926L21.1748 18.2643C21.1748 18.2643 21.6898 18.5314 22.2429 19.2945C22.4336 19.5615 22.5862 19.8731 22.7007 20.1339C22.7706 19.9176 22.8405 19.6506 22.8596 19.358C22.9105 18.6776 22.7388 17.9654 22.7388 17.9591L22.618 17.4694L23.0758 17.6665C23.0758 17.6665 23.5271 17.8637 24.0485 18.2325C24.3727 18.4614 24.627 18.6967 24.8178 18.9002C24.6079 18.347 24.3282 17.7746 23.9722 17.2341C22.7579 15.4091 21.995 14.9639 21.995 14.9639L21.8614 14.9131C21.8614 14.9131 21.8805 14.9067 21.8932 14.9004C22.1094 14.7986 22.3065 14.6714 22.4972 14.5252Z" fill="#012B6B"/>
</svg>
