<svg width="251" height="47" viewBox="0 0 251 47" fill="none" xmlns="http://www.w3.org/2000/svg">
<path fill-rule="evenodd" clip-rule="evenodd" d="M34.5364 39.5278C34.4646 39.5278 34.2996 40.0732 34.4718 40.4679C34.5579 40.676 34.766 40.7621 34.9383 40.7047C35.1105 40.6473 35.1607 40.4822 35.1607 40.3602C35.1751 39.9368 34.8019 39.5349 34.5364 39.5349V39.5278ZM33.2949 33.3059L33.3523 33.9087L32.8356 33.8513V34.5402L33.3523 34.4828L33.2949 35.1143H33.9982L33.9407 34.4828L34.4574 34.5402V33.8513L33.9407 33.9087L33.9982 33.3059H33.2949ZM33.6465 35.6812C33.503 35.6812 33.3953 35.7961 33.3953 35.9396C33.3953 36.0831 33.5102 36.1979 33.6465 36.1979C33.7829 36.1979 33.8977 36.0831 33.8977 35.9396C33.8977 35.7961 33.7829 35.6812 33.6465 35.6812ZM33.6465 36.7362C33.503 36.7362 33.3953 36.851 33.3953 36.9945C33.3953 37.138 33.5102 37.2529 33.6465 37.2529C33.7829 37.2529 33.8977 37.138 33.8977 36.9945C33.8977 36.851 33.7829 36.7362 33.6465 36.7362ZM33.6465 37.8054C33.503 37.8054 33.3953 37.9203 33.3953 38.0638C33.3953 38.2073 33.5102 38.3221 33.6465 38.3221C33.7829 38.3221 33.8977 38.2073 33.8977 38.0638C33.8977 37.9203 33.7829 37.8054 33.6465 37.8054ZM34.4718 38.0638C34.4718 38.2073 34.5866 38.3221 34.723 38.3221C34.8593 38.3221 34.9741 38.2073 34.9741 38.0638C34.9741 37.9203 34.8593 37.8054 34.723 37.8054C34.5866 37.8054 34.4718 37.9203 34.4718 38.0638ZM35.5411 38.0638C35.5411 38.2073 35.6559 38.3221 35.7922 38.3221C35.9286 38.3221 36.0434 38.2073 36.0434 38.0638C36.0434 37.9203 35.9286 37.8054 35.7922 37.8054C35.6559 37.8054 35.5411 37.9203 35.5411 38.0638ZM33.6537 39.2335C33.4384 39.2335 32.9002 40.3387 33.302 40.8984C33.381 41.0061 33.5102 41.0635 33.6537 41.0635C33.7972 41.0635 33.9336 41.0061 34.0053 40.8984C34.4072 40.3387 33.869 39.2335 33.6537 39.2335ZM32.7638 39.5206C32.4911 39.5206 32.1179 39.9225 32.1395 40.3459C32.1395 40.475 32.1969 40.6329 32.3619 40.6903C32.5342 40.7477 32.7423 40.6616 32.8284 40.4535C32.9935 40.066 32.8284 39.5134 32.7638 39.5134V39.5206ZM32.3476 38.0566C32.3476 38.2001 32.4624 38.315 32.5988 38.315C32.7351 38.315 32.8499 38.2001 32.8499 38.0566C32.8499 37.9131 32.7351 37.7983 32.5988 37.7983C32.4624 37.7983 32.3476 37.9131 32.3476 38.0566ZM31.307 38.0566C31.307 38.2001 31.4218 38.315 31.5582 38.315C31.6945 38.315 31.8094 38.2001 31.8094 38.0566C31.8094 37.9131 31.6945 37.7983 31.5582 37.7983C31.4218 37.7983 31.307 37.9131 31.307 38.0566ZM31.0558 38.0566C31.0558 37.8341 31.0917 37.6332 31.0917 37.6332H33.2088V35.9037V35.4659C32.1897 35.6454 31.3716 36.4347 31.1276 37.4538C31.0702 37.5399 30.8764 37.583 30.7401 37.5686C29.9579 37.4753 28.3791 37.1883 28.3791 36.851C28.3791 36.3773 28.702 36.1908 29.0034 36.1908C29.4412 36.1908 29.9292 36.4276 30.331 35.8463C28.8958 35.9109 29.9937 33.8297 28.8168 33.435C28.8742 33.9661 28.8168 34.899 28.6302 35.3942C28.6302 35.3942 28.2068 34.9421 27.7332 34.7698C27.7691 35.1574 27.6973 35.9539 27.5251 36.3199C27.5251 36.3199 27.0227 35.8535 26.506 35.6812C26.9868 36.3773 26.9725 37.3749 26.8433 37.9777C26.8074 38.1499 26.9366 38.3724 27.3026 38.358C27.8767 38.3293 29.8287 38.4226 30.6827 38.7671C30.9482 38.8747 31.1707 38.9967 31.2855 39.1905C31.3788 39.4416 31.6012 39.8363 31.8739 40.0373C31.9959 39.5995 32.5198 39.1259 32.8643 39.1474C32.9648 39.1474 33.0796 39.3196 33.1011 39.4919C33.1298 39.334 33.381 38.9034 33.6609 38.9034C33.912 38.9034 34.1632 39.2622 34.2421 39.5565C34.2709 39.3627 34.3785 39.1618 34.479 39.1618C34.8234 39.1618 35.254 39.4632 35.4119 39.9727C35.5411 39.8076 36.1511 39.0326 36.2156 38.5159H31.0917C31.0917 38.5159 31.0558 38.2934 31.0558 38.0638V38.0566ZM34.0986 35.4588V37.6332H36.2156C36.0291 36.528 35.1823 35.6525 34.0986 35.4588ZM9.11771 37.2457C9.16077 37.26 9.20383 37.2457 9.25406 37.2242C9.11054 37.4251 9.11771 37.5543 9.17513 37.6189C9.26842 37.7121 9.34018 37.5399 9.58418 37.2816C9.82817 37.0232 10.0004 36.9443 9.89994 36.8438C9.83535 36.7792 9.70618 36.7792 9.51959 36.9371C9.54112 36.894 9.5483 36.8438 9.53394 36.8007C9.455 36.5639 9.07466 36.2553 8.87372 36.2553C8.84501 36.2553 8.81631 36.2553 8.7876 36.2769C8.88089 36.1333 8.85219 36.0185 8.7876 35.9611C8.72301 35.8965 8.67996 35.9396 8.60819 36.0401C8.61537 35.9755 8.60819 35.8965 8.53643 35.7961C8.22785 35.3224 6.58446 33.7723 6.20411 33.6144C5.98165 33.5212 5.90988 33.6503 5.90988 33.6503C5.90988 33.6503 5.78788 33.7293 5.88118 33.9589C6.04623 34.3393 7.62503 35.9611 8.0915 36.2625C8.18479 36.3271 8.26373 36.3415 8.32831 36.3271C8.23502 36.406 8.19196 36.4491 8.26373 36.5137C8.32831 36.5711 8.43596 36.5926 8.57231 36.4993C8.56513 36.528 8.55796 36.5567 8.55796 36.5926C8.55796 36.8079 8.88089 37.1811 9.11054 37.26L9.11771 37.2457ZM5.16354 32.6528C5.11331 32.6528 5.04872 32.6672 4.99131 32.7174C4.94107 32.7748 4.91954 32.8537 4.94107 32.9542C4.9626 33.0619 5.02001 33.1695 5.11331 33.2556C5.22095 33.3633 5.3573 33.4279 5.47212 33.4279C5.52236 33.4279 5.58695 33.4135 5.64436 33.3633C5.752 33.2484 5.70177 32.9973 5.52236 32.8179C5.41471 32.7102 5.27836 32.6456 5.16354 32.6456V32.6528ZM10.2803 38.4154C10.2803 38.2504 9.9717 37.9777 9.60571 37.9777C9.0603 37.9777 8.82348 38.3221 8.82348 38.5015C8.82348 38.8317 9.14642 38.8747 9.23971 38.8819C9.62006 38.9034 10.2444 38.5087 10.2803 38.4154ZM9.81382 39.2479C9.67029 39.4345 9.61288 39.6139 9.64876 39.7861C9.69182 39.9942 9.89994 40.0875 10.0865 40.0875C10.2803 40.0875 10.4525 39.9942 10.553 39.8435C10.7611 39.5134 10.7683 38.7814 10.7037 38.7025C10.5315 38.7025 10.065 38.9321 9.821 39.2479H9.81382ZM5.02719 31.6409C4.87649 31.4902 4.56073 31.7199 4.36696 31.6122C4.45308 31.1458 4.78319 31.6338 5.09895 31.2965C5.22813 31.1601 5.15636 30.952 5.0846 30.8874C4.94825 31.031 4.73296 30.9807 4.71861 30.9018C5.0846 30.0406 4.37414 29.079 3.69239 29.201C3.82874 29.3804 3.86462 30.0047 3.80721 30.177C4.06556 30.3636 3.87897 30.8013 3.59192 30.6793C3.39816 30.6004 3.06087 30.1196 3.44839 29.7823C3.43404 29.6603 3.22592 29.6316 2.99628 29.9258C3.16134 29.3876 2.14229 29.5526 1.93418 29.6818C1.81218 29.9043 1.68301 30.9592 2.1997 30.7726C1.91983 31.0166 1.95571 31.2391 2.07771 31.2462C2.39347 30.8372 2.87428 31.1673 2.95322 31.3611C3.08957 31.6553 2.66617 31.8562 2.47241 31.5979C2.30735 31.6625 1.70454 31.6409 1.52513 31.5118C1.43183 32.2151 2.38629 32.9183 3.21157 32.5165C3.29051 32.5308 3.34075 32.7461 3.21157 32.8968C3.27616 32.9686 3.48427 33.0332 3.61345 32.8968C3.93638 32.5595 3.44121 32.2294 3.9005 32.1289C4.00815 32.3227 3.80003 32.6528 3.95074 32.8035C4.19473 33.0475 4.51049 32.5739 4.8119 32.5523C4.81908 32.2366 5.27119 31.9065 5.02719 31.6625V31.6409ZM2.47241 30.5501C2.47241 30.5501 2.31453 30.4353 2.50111 30.2272C2.69487 30.0263 2.8097 30.1841 2.8097 30.1841C2.8097 30.1841 2.9891 30.586 3.03934 30.7726C2.85993 30.7224 2.46523 30.5501 2.46523 30.5501H2.47241ZM4.0512 31.7701C3.95074 31.7845 3.72109 31.9926 3.59909 31.8778L3.06087 31.3395L3.32639 31.0525L3.59909 30.7654L4.13732 31.3037C4.25214 31.4185 4.05838 31.6697 4.0512 31.7701ZM12.9642 39.9942C12.9858 39.9153 12.9642 39.8507 12.9284 39.8076C12.914 39.7933 12.9068 39.7861 12.8997 39.7861C12.8709 39.7861 12.7992 39.8722 12.7346 39.9512C12.6772 40.0158 12.6126 40.1019 12.5265 40.1952C12.4404 40.2885 12.3614 40.3602 12.2968 40.4176C12.2179 40.4894 12.1461 40.554 12.139 40.5899C12.139 40.597 12.1461 40.6114 12.1605 40.6257C12.1892 40.6545 12.2251 40.6688 12.2681 40.6688C12.3399 40.6688 12.4906 40.6329 12.7131 40.3961C12.8853 40.2167 12.9427 40.0803 12.9571 40.0014L12.9642 39.9942ZM12.9642 40.6329C12.8494 40.7549 12.7274 40.8482 12.6628 40.8913C12.7131 40.9415 12.8422 41.0204 13.0073 41.0204C13.1006 41.0204 13.1939 40.9917 13.2728 40.9343C13.4379 40.6616 13.2728 40.3817 13.2082 40.31C13.1652 40.3817 13.0862 40.5037 12.9642 40.6257V40.6329ZM11.1486 39.1044C11.0625 39.1833 10.8687 39.7431 10.9549 40.0803C10.9907 40.2239 11.0697 40.2885 11.206 40.2813C11.3496 40.2741 11.4213 40.2023 11.4429 40.0516C11.4931 39.7143 11.2419 39.1761 11.1486 39.1044ZM11.041 37.5543C11.041 37.5543 12.0528 38.4513 12.3901 38.7742C12.4691 38.8532 12.5767 38.8675 12.6915 38.8101C12.7561 38.7742 12.8351 38.7384 12.914 38.7025C13.9259 38.3437 15.5836 38.3078 16.1864 38.3293C16.5524 38.3437 16.6816 38.1284 16.6457 37.949C16.5237 37.3749 16.5022 36.3486 16.983 35.6525C16.4591 35.8248 15.964 36.2912 15.964 36.2912C15.7917 35.9252 15.72 35.1287 15.7558 34.7411C15.2822 34.9134 14.8588 35.3655 14.8588 35.3655C14.6722 34.8703 14.6148 33.9374 14.6722 33.4063C13.4953 33.801 14.5933 35.8822 13.158 35.8176C13.5599 36.406 14.0479 36.162 14.4856 36.162C14.7942 36.162 15.1746 36.363 15.11 36.8223C15.0669 37.1596 13.1365 37.5758 12.3614 37.5758C11.8232 37.5758 11.4572 37.4107 11.1845 37.0304C11.0553 36.851 10.919 36.7649 10.7683 36.7936C10.5817 36.8223 10.3664 37.0089 10.3664 37.4538C10.3664 37.7624 10.4956 38.4513 10.8687 38.4513C11.1343 38.4513 11.1414 37.9131 11.0338 37.5543H11.041ZM12.2897 39.9512C12.4691 39.7646 12.5265 39.6282 12.4834 39.5206C12.4188 39.3699 12.017 38.9178 11.4931 38.4154C11.4787 38.5231 11.4572 38.6235 11.4213 38.724C11.773 39.1905 11.9093 39.6928 11.7873 40.1162C11.8304 40.1449 11.8591 40.1593 11.8734 40.1665C12.0098 40.2239 12.1748 40.066 12.2825 39.9512H12.2897ZM9.74206 37.4036C9.74206 37.4036 9.67747 37.4681 9.63441 37.5543C9.74206 37.5543 9.87123 37.5758 9.98605 37.6045C9.97888 37.504 9.9717 37.3677 9.98605 37.2457C9.88558 37.2672 9.78512 37.3605 9.74923 37.4036H9.74206ZM27.3528 40.6186C27.683 40.4679 27.927 40.0588 27.9844 39.6569C27.7762 39.7574 27.5394 39.8076 27.2667 39.8076C26.5132 39.8076 25.5731 39.3914 24.7119 39.0111C24.7119 39.0111 24.5254 39.1689 24.2239 39.1977C25.0851 39.4632 26.7859 40.4033 26.9079 41.0133C26.994 41.4151 26.7285 41.573 26.7285 41.573C26.3482 40.9559 25.3793 40.0014 24.0804 39.5206C24.0804 39.7431 24.0374 39.9009 24.0374 39.9009C24.0374 39.9009 23.7718 39.9655 23.2121 39.8651C23.7001 40.2741 24.9918 41.7166 25.1282 42.8145C25.2215 43.5465 24.7119 43.5824 24.7119 43.5824C24.6402 42.4844 24.0589 41.3434 23.0183 40.2023C23.0183 40.2023 22.8461 40.4679 22.6236 40.6042C22.6236 40.6042 22.2361 40.5325 21.9203 40.3243C22.0423 41.774 22.1141 43.6613 22.0423 44.2283C21.9921 44.623 21.7625 44.7952 21.7625 44.7952C21.7625 44.7952 21.5328 44.6302 21.4754 44.2283C21.3965 43.6542 21.4754 41.774 21.5974 40.3243C21.2816 40.5325 20.8941 40.6042 20.8941 40.6042C20.6645 40.4679 20.4994 40.2023 20.4994 40.2023C19.4588 41.3434 18.8847 42.4844 18.8058 43.5824C18.8058 43.5824 18.2963 43.5465 18.3896 42.8145C18.5259 41.7166 19.8177 40.2741 20.3057 39.8651C19.7459 39.9655 19.4804 39.9009 19.4804 39.9009C19.4804 39.9009 19.4373 39.7431 19.4373 39.5206C18.1384 40.0014 17.1624 40.9559 16.7892 41.573C16.7892 41.573 16.5237 41.4151 16.6098 41.0133C16.7318 40.4105 18.4326 39.4632 19.2938 39.1977C18.9852 39.1618 18.8058 39.0111 18.8058 39.0111C17.9518 39.3914 17.0045 39.8076 16.251 39.8076C15.9783 39.8076 15.7415 39.7574 15.5334 39.6569C15.598 40.0588 15.8348 40.4679 16.1649 40.6186C15.0023 41.4367 15.72 43.3528 14.1627 42.9939C15.031 44.6086 16.7892 44.7665 16.7892 44.7665C16.4017 43.9125 16.8825 41.3075 19.2148 40.1234C17.7796 41.5515 17.1265 43.2882 17.5069 44.5153C17.8585 45.642 18.9924 46.0941 19.8464 46.1157C19.2436 44.257 19.6167 42.1256 20.8726 40.7908C20.3344 42.262 19.5808 46.1802 21.7625 46.9338C23.9441 46.1802 23.1906 42.262 22.6523 40.7908C23.9082 42.1328 24.2814 44.257 23.6785 46.1157C24.5325 46.0941 25.6736 45.642 26.018 44.5153C26.3984 43.2882 25.7453 41.5587 24.3101 40.1234C26.6424 41.3075 27.1304 43.9125 26.7357 44.7665C26.7357 44.7665 28.4939 44.6014 29.3622 42.9939C27.805 43.3528 28.5226 41.4367 27.36 40.6186H27.3528ZM21.9203 8.32495C21.9203 8.21013 21.827 8.11684 21.7194 8.11684C21.6118 8.11684 21.5185 8.21013 21.5185 8.32495C21.5185 8.43978 21.6118 8.53307 21.7194 8.53307C21.827 8.53307 21.9203 8.43978 21.9203 8.32495ZM22.9394 8.32495C22.9394 8.21013 22.8461 8.11684 22.7384 8.11684C22.6308 8.11684 22.5375 8.21013 22.5375 8.32495C22.5375 8.43978 22.6308 8.53307 22.7384 8.53307C22.8461 8.53307 22.9394 8.43978 22.9394 8.32495ZM21.3534 2.89963C21.3534 3.11492 21.5256 3.29433 21.7338 3.29433C21.9419 3.29433 22.1141 3.11492 22.1141 2.89963C22.1141 2.68434 21.9419 2.50493 21.7338 2.50493C21.5256 2.50493 21.3534 2.68434 21.3534 2.89963ZM21.4754 2.06717H21.9921L21.9347 1.44283L22.4944 1.50024V1.01224L21.9347 1.06966L21.9921 0.445312H21.4754L21.5328 1.06966L20.9731 1.01224V1.50741L21.5328 1.45L21.4754 2.07435V2.06717ZM20.9013 8.32495C20.9013 8.21013 20.808 8.11684 20.7004 8.11684C20.5927 8.11684 20.4994 8.21013 20.4994 8.32495C20.4994 8.43978 20.5927 8.53307 20.7004 8.53307C20.808 8.53307 20.9013 8.43978 20.9013 8.32495ZM19.6885 9.1C19.7459 9.12153 19.8033 9.12871 19.8823 9.12871H23.5996C23.6714 9.12871 23.736 9.12153 23.7934 9.1C23.9154 9.05694 23.9871 8.96365 24.0158 8.82012H19.4732C19.5019 8.96365 19.5737 9.05694 19.6957 9.1H19.6885ZM19.8894 8.32495C19.8894 8.21013 19.7961 8.11684 19.6885 8.11684C19.5808 8.11684 19.4876 8.21013 19.4876 8.32495C19.4876 8.43978 19.5808 8.53307 19.6885 8.53307C19.7961 8.53307 19.8894 8.43978 19.8894 8.32495ZM23.9513 8.32495C23.9513 8.21013 23.858 8.11684 23.7503 8.11684C23.6427 8.11684 23.5494 8.21013 23.5494 8.32495C23.5494 8.43978 23.6427 8.53307 23.7503 8.53307C23.858 8.53307 23.9513 8.43978 23.9513 8.32495ZM24.1952 7.82979C24.3029 7.70061 24.8196 6.68874 24.8196 5.6697C24.8196 4.75113 23.6714 4.24878 22.9824 4.22725C22.9035 5.54053 22.394 7.59297 21.7338 7.59297C21.1022 7.59297 20.5568 5.5477 20.4851 4.22725C19.8033 4.24878 18.6479 4.7583 18.6479 5.6697C18.6479 6.68874 19.1718 7.70061 19.2723 7.82979H24.1952ZM21.7338 6.93992C22.0495 6.93992 22.4514 5.63382 22.5519 4.39949C22.5519 4.14831 22.2361 3.76797 21.7338 3.75361C21.2242 3.76079 20.9156 4.14831 20.9156 4.39949C21.0089 5.5477 21.4252 6.93992 21.7338 6.93992ZM11.7945 13.5996C11.1845 14.432 12.0241 15.3506 12.0816 15.4152C12.1174 15.4583 12.1461 15.4367 12.1461 15.3865C12.1461 15.3434 12.5839 14.0517 15.1172 14.7334C15.1746 14.7478 15.2033 14.7478 15.153 14.6976C14.6866 14.3244 14.1268 13.4919 13.9474 12.8174C13.9474 12.8174 12.4045 12.7599 11.7945 13.5996ZM13.158 13.4273C13.158 13.1905 13.4953 13.1259 13.6891 13.1259C13.6891 13.1259 13.7752 13.3484 13.8613 13.4776C13.6603 13.3915 13.3876 13.3771 13.158 13.4273ZM14.5072 12.3365C14.3349 12.3365 14.2775 12.4442 14.3278 12.6308C14.909 14.5971 16.5022 15.0707 17.1265 15.9175C17.1265 15.9175 17.1265 15.652 17.4136 15.0205C17.6145 15.3434 18.1456 15.9606 18.4972 16.0324C18.4111 15.8601 18.3178 15.164 18.3896 14.6976C19.2149 15.4224 20.2267 15.5587 20.7721 15.1425C20.3057 15.1568 19.7028 14.6401 19.4014 14.1809C19.8248 14.2813 20.4133 14.1809 20.5281 14.0589C20.2626 13.9943 19.9325 13.7575 19.7387 13.5278C20.0401 13.5063 20.6932 13.2623 20.8798 12.9106C20.6142 12.9681 20.2267 12.8604 19.9755 12.7312C20.1693 12.6236 20.6501 12.1069 20.7649 11.6548C20.0832 11.9921 19.0067 12.3222 17.4064 12.3222C17.4064 12.3222 14.5861 12.3294 14.4928 12.3294L14.5072 12.3365ZM16.2725 13.2336C15.8204 13.413 15.598 13.657 15.598 13.657C15.598 13.657 15.3827 13.2982 15.3109 13.1833C15.2391 13.0685 15.2176 12.925 15.4544 12.925H16.8538C16.8538 13.0183 16.7247 13.047 16.2725 13.2264V13.2336ZM11.4931 16.4414C11.6366 16.6352 12.0528 17.2308 12.9571 16.6998C13.8613 16.1687 14.3278 15.8817 14.3278 15.8817C14.3278 15.8817 14.1842 16.1544 14.2919 16.4845C14.2919 16.506 14.3206 16.506 14.3278 16.4845C14.421 16.2692 15.2033 15.6592 16.208 15.5731C15.842 15.2501 15.4329 14.9631 15.4329 14.9631C15.0023 15.0348 14.1699 15.3291 13.0934 16.0252C12.017 16.7285 11.5218 16.4342 11.5003 16.4199C11.4787 16.4055 11.45 16.4127 11.4787 16.4486L11.4931 16.4414ZM24.3388 38.7886C24.4967 38.7384 24.6258 38.6594 24.6904 38.5733C23.9943 38.5446 23.4202 37.9418 23.2121 37.5686C22.9824 37.949 22.5662 38.2504 22.5662 38.2504C22.272 38.1714 21.8701 37.8557 21.7338 37.6045C21.5902 37.8485 21.1883 38.1714 20.9013 38.2504C20.9013 38.2504 20.4922 37.949 20.2554 37.5686C20.0473 37.9418 19.4732 38.5374 18.7771 38.5733C18.8417 38.6594 18.9709 38.7384 19.1287 38.7886C19.2292 38.8245 19.344 38.846 19.466 38.846C19.588 38.846 19.71 38.8245 19.8248 38.7742C19.7531 39.0254 19.7315 39.3412 19.7818 39.5493C19.7818 39.5493 20.1478 39.578 20.5353 39.4345C20.564 39.6641 20.6645 39.944 20.8439 40.1306C20.8798 40.1665 20.9156 40.2023 20.9515 40.231C21.1596 40.231 21.6476 39.9942 21.7409 39.8435C21.8342 39.9942 22.3294 40.231 22.5303 40.231C22.5662 40.2023 22.6021 40.1665 22.638 40.1306C22.8102 39.944 22.9179 39.6641 22.9466 39.4345C23.1188 39.5206 23.3197 39.5565 23.535 39.5565C23.5853 39.5565 23.6427 39.5565 23.6929 39.5565C23.7431 39.3412 23.7216 39.0326 23.6498 38.7814C23.7575 38.8317 23.8795 38.8532 24.0087 38.8532C24.1235 38.8532 24.2383 38.8317 24.3459 38.7958L24.3388 38.7886ZM17.4064 23.9479C17.2701 23.9479 17.1839 24.034 17.1839 24.1775V32.6887C17.1839 33.4996 17.4997 33.9087 18.1312 33.9087H19.7028C20.7793 33.9087 21.418 34.289 21.7266 34.7483C21.9921 34.3177 22.7313 33.9158 23.7503 33.9158H25.3219C25.9535 33.9158 26.2692 33.4996 26.2692 32.6887V24.1775C26.2692 24.034 26.1831 23.9479 26.0467 23.9479H17.3921H17.4064ZM18.9421 31.9065C18.9278 32.0931 19.1431 32.4375 19.5091 32.3299C19.4947 32.4016 19.5163 32.5882 19.6024 32.7318C18.9637 32.8753 18.691 32.3514 18.9493 31.9065H18.9421ZM24.7335 29.0933C24.6474 29 24.5612 28.9068 24.4751 28.8063C24.3818 28.7058 24.3172 28.6628 24.2239 28.6628C24.0158 28.6628 23.7934 28.7776 23.6714 28.8565C23.6642 28.8565 23.657 28.8709 23.657 28.8852C23.7862 28.8709 23.9082 28.8637 24.0374 28.8493C24.1522 28.835 24.2527 28.8422 24.3459 28.9139C24.4249 28.9713 24.4608 29.0359 24.4679 29.1292C24.4823 29.4163 24.7119 30.0263 24.7263 30.2128C24.7478 30.2846 24.6545 30.3061 24.5397 30.6434C24.4536 30.7439 24.2096 30.4281 24.2455 30.3564C24.3818 30.177 24.4249 30.0621 24.389 29.9258C24.3603 29.8181 24.3101 29.6244 24.267 29.5167C24.2168 29.3732 24.0948 29.323 23.9513 29.3732C23.3771 29.567 23.2838 29.3086 22.7169 29.5526L23.3771 30.5717C23.3771 30.4999 23.3413 30.3636 23.2336 30.2703C23.2551 30.1698 23.4633 30.1267 23.535 30.22C23.6283 30.342 23.8149 30.5143 23.9656 30.543C24.2598 30.6004 24.2383 31.0453 25.0205 31.196C24.9201 31.2965 24.7048 31.2606 24.6115 31.2175C24.6689 31.3037 24.7335 31.3898 24.8555 31.4185C24.7335 31.5405 24.3818 31.2534 24.4177 31.5405C24.4751 31.5046 24.5612 31.4974 24.633 31.5189C24.7909 31.5548 25.0492 32.4519 24.5038 32.8394C24.6187 32.8753 24.7407 32.8107 24.8626 32.8107C24.9344 32.8107 24.9918 32.8753 24.999 32.9542C25.0492 32.9901 25.0851 33.0403 25.1138 33.1049C25.0708 33.1193 24.9918 33.1049 24.9488 33.0762C24.9631 33.1264 24.9631 33.2413 24.9488 33.2484C24.8985 33.2484 24.8626 33.2269 24.8124 33.1982C24.7406 33.2341 24.511 33.2197 24.4464 33.1623C24.2742 33.2054 24.102 33.2628 23.9225 33.2628C23.8221 33.2628 23.7001 33.2628 23.7001 33.1408C23.7001 33.0834 23.7288 33.0547 23.7503 32.9901C23.6642 32.904 23.5278 32.9901 23.3628 33.0045C23.1403 33.026 23.047 32.9901 22.9968 32.947C23.2049 32.7533 23.0829 32.2796 22.7528 32.2366C23.0183 32.4949 22.9824 32.9112 22.6882 33.0045C22.7743 33.0332 22.8174 33.069 22.8533 33.1336C22.9609 33.1767 22.9609 33.2556 22.9537 33.2915C22.8963 33.2484 22.7959 33.2126 22.7097 33.2197C22.7097 33.2556 22.6882 33.3202 22.6595 33.3489C22.6236 33.3417 22.5806 33.3059 22.559 33.2843C22.4657 33.2126 21.8701 33.3489 21.8342 33.2556C21.8127 33.1623 21.9706 33.0906 22.1141 33.0547C21.7338 32.9183 21.4108 32.2007 20.8295 32.0859C20.5568 32.0285 20.198 32.1505 20.198 32.5021C20.198 32.6743 20.3344 32.8107 20.4851 32.8107C20.6214 32.8107 20.6932 32.7174 20.6932 32.6169C20.6717 32.6313 20.6573 32.6456 20.6429 32.6528C20.5568 32.7246 20.4492 32.7174 20.3702 32.6385C20.2985 32.5739 20.2985 32.4519 20.3702 32.3801C20.4277 32.3155 20.4922 32.2796 20.5784 32.2653C20.808 32.2294 20.9946 32.3083 21.1166 32.4878C21.174 32.5739 21.2099 32.6672 21.2099 32.7605C21.2099 33.1623 20.808 33.2556 20.5784 33.2556C20.0186 33.2556 19.6813 32.8537 19.6813 32.3801C19.6813 32.3227 19.6813 32.2725 19.6957 32.2151C19.7818 31.6912 20.2554 31.4687 20.6573 31.4041C20.6071 31.2175 20.5066 31.074 20.3631 30.952C20.2913 30.8946 20.2841 30.8444 20.3272 30.7654C20.3918 30.6578 20.4564 30.5573 20.4779 30.4425C20.4779 30.4138 20.4851 30.3851 20.4922 30.3564C20.2913 30.5358 20.0043 30.7008 19.6167 30.8228C19.4947 30.8803 19.4301 30.9951 19.4158 31.1242C19.4014 31.275 19.3943 31.4257 19.3943 31.5764C19.3943 31.6122 19.4158 31.6481 19.4373 31.684C19.5091 31.806 19.588 31.928 19.6096 32.0859C19.6096 32.1648 19.2292 32.172 19.2292 32.1074C19.2292 31.8347 19.0426 31.7271 19.0641 31.5477C19.1144 31.2678 19.1287 30.9807 19.0785 30.7008C19.0641 30.6291 19.1072 30.586 19.1574 30.543C19.2364 30.4784 19.3225 30.4281 19.4014 30.3636C19.588 30.22 19.667 30.0263 19.6239 29.7966C19.6239 29.7679 19.6024 29.7392 19.588 29.7105C19.4947 29.5024 19.423 29.2871 19.423 29.0503C19.423 28.7919 19.1 28.8063 19.1216 29.0575C19.1216 29.1364 19.1861 29.2512 19.222 29.323C19.5521 30.0765 18.9637 30.6219 18.3537 30.6219C18.9924 30.3994 18.203 29.5742 18.203 28.9642C18.203 28.591 18.49 28.3111 18.8417 28.3111C19.2436 28.3111 19.4947 28.5695 19.5665 28.6125C19.7603 28.3039 20.3487 28.2537 20.5712 28.2178C20.5568 28.0528 20.5712 27.9092 20.6788 27.7801C20.6788 27.7729 20.686 27.7585 20.6788 27.7442C20.6501 27.6652 20.6142 27.5863 20.5712 27.5145C20.3918 27.7227 20.3487 27.9954 20.3487 28.1317C19.6741 28.1245 19.3799 27.8231 19.179 27.7083C19.179 27.6581 19.3584 27.3351 19.5163 27.1198C19.344 27.2705 19.2005 27.4356 19.0929 27.6437C18.9996 27.5719 18.8919 27.5074 18.7986 27.4715C18.9493 27.1485 19.1503 26.8902 19.4086 26.6247C19.0498 26.761 18.734 27.1701 18.612 27.4284C18.5116 27.4141 18.3537 27.4141 18.2747 27.4284C18.6694 26.9476 18.8489 25.9932 19.7172 25.785C19.5019 26.6677 20.0401 27.0265 20.4133 26.7969C20.3631 26.7969 20.3344 26.8041 20.2985 26.7969C19.5737 26.6103 20.0042 25.6056 19.8248 25.3975C19.7603 25.3186 19.7244 25.2468 19.7315 25.1463C19.7315 25.1105 19.7315 25.0674 19.71 25.0387L19.3225 24.3928C19.2723 24.3139 19.423 24.2565 19.4588 24.2924L19.8535 24.9382C19.8535 24.9382 19.8751 24.9813 19.8894 24.9813C20.033 25.01 20.076 25.1248 20.1334 25.2325C20.155 25.2683 20.1693 25.3042 20.1693 25.3473C20.1693 25.376 20.1693 25.419 20.1478 25.4406C20.0832 25.5052 20.0975 25.5626 20.1478 25.6487C20.2267 25.7779 22.5519 29.6603 22.5519 29.6603C22.0495 29.8684 21.1309 29.8827 20.8654 29.8612C20.808 29.9976 20.7219 30.1411 20.5999 30.2774C20.7291 30.1913 20.8224 30.0909 20.9156 29.976C21.0161 29.9904 21.174 30.0263 21.3247 30.0406C21.2314 30.2416 21.0951 30.4353 20.9156 30.6004C20.8295 30.6865 20.7291 30.7583 20.7649 30.8874C20.808 31.0381 21.0879 31.3252 21.1883 31.5046C21.2888 31.5261 21.4611 31.562 21.583 31.6122C21.6548 31.7629 21.8916 31.9567 22.1859 31.8562C21.6046 31.8491 21.6476 31.2534 21.827 30.9377C21.8055 31.2319 21.949 31.4759 22.1285 31.5046C21.8629 31.2606 21.8845 30.7008 22.15 30.3994C22.1859 30.8946 22.3366 31.1601 22.5519 31.2175C22.2648 30.952 22.0997 30.3492 22.5232 29.9114C22.559 31.0453 23.5924 30.8372 23.6857 32.1505C24.0661 32.1505 24.0948 31.6338 23.8795 31.5405C23.7575 31.4902 23.6427 31.4113 23.5781 31.2965C23.5494 31.2462 23.5207 31.1673 23.4991 31.1171C23.3843 30.7798 23.0614 30.8013 23.0686 30.7224C23.0757 30.6937 23.126 30.6793 23.1977 30.6793L22.5877 29.7392L22.559 29.689C22.6308 29.6746 22.6451 29.6316 22.5734 29.5096C22.5734 29.5096 20.2985 25.7204 20.2841 25.6989C20.4994 25.663 20.7004 25.7204 20.8941 25.7994C20.8439 25.7492 20.8008 25.6846 20.7865 25.6128C20.7793 25.5554 20.7865 25.5195 20.8295 25.4836C20.8798 25.4406 20.9228 25.3975 20.9587 25.3473C21.0735 25.175 21.2816 25.0889 21.4682 25.1463C21.7553 25.2253 21.8558 25.5482 21.6476 25.7204C21.5328 25.9644 21.3965 25.9357 21.3678 26.0434C21.4252 26.0721 21.8127 26.3735 21.8414 26.4955C21.7266 26.7395 21.6692 27.1127 21.7696 27.328C21.8414 26.3233 22.4514 25.8281 23.0399 25.8281C23.1762 25.8281 23.3197 25.8496 23.4561 25.8999C23.535 25.9286 23.6068 25.9644 23.6714 26.0147C23.7647 26.0864 23.8508 26.1654 23.9297 26.2515C24.0445 26.3807 24.1522 26.5098 24.3459 26.5242C24.2885 26.6031 24.2239 26.6677 24.1594 26.7251C24.1091 26.7682 24.0876 26.8184 24.0804 26.883C24.0661 27.0194 24.023 27.1485 23.9154 27.2562C23.901 27.2705 23.8938 27.2849 23.8867 27.3064C23.8221 27.493 23.7575 27.6868 23.6929 27.8734C23.6785 27.9164 23.6785 27.981 23.6211 27.981C23.5637 27.981 23.4991 27.9666 23.4633 27.9308C23.3771 27.859 23.3484 27.7585 23.3771 27.6509C23.4058 27.5432 23.3771 27.45 23.3413 27.3495C23.3054 27.249 23.291 27.1414 23.2695 27.0265C23.1116 26.9691 22.803 27.3136 23.0399 27.6078C23.1906 27.8231 23.3269 28.2178 23.3484 28.3757C23.3484 28.3901 23.2121 28.4833 23.0183 28.4546C22.3581 28.3685 21.949 27.9164 21.8199 27.5289C21.8127 28.1819 22.3509 28.6628 23.1547 28.6197C23.1906 28.7704 23.3126 28.878 23.4561 28.878C23.4848 28.7776 23.4848 28.5766 23.4561 28.4403C23.4417 28.3829 23.4776 28.3542 23.5278 28.3398C23.7001 28.2968 23.9297 28.3111 24.1235 28.2393C24.2957 28.1748 24.3818 28.2106 24.4895 28.4259C24.5684 28.5838 24.7119 28.756 24.8411 28.8709C24.8985 28.9211 24.9488 28.9713 25.0062 29.0216C25.0708 29.0862 25.1066 29.1651 25.1138 29.2656C25.0995 29.4163 25.1138 29.7249 25.1138 29.732C25.0779 29.8325 24.7981 29.732 24.755 29.6172C24.7406 29.5742 24.877 29.2943 24.7335 29.1436V29.0933ZM29.5129 12.8245C29.3335 13.4991 28.7738 14.3316 28.3073 14.7047C28.2571 14.755 28.2929 14.755 28.3432 14.7406C30.8836 14.0589 31.3214 15.3506 31.3142 15.3937C31.3142 15.4439 31.3429 15.4654 31.3788 15.4224C31.429 15.3578 32.2687 14.4464 31.6658 13.6068C31.0558 12.7743 29.5129 12.8245 29.5129 12.8245ZM29.599 13.4848C29.6852 13.3628 29.7713 13.1331 29.7713 13.1331C29.965 13.1331 30.3023 13.1977 30.3023 13.4345C30.0727 13.3915 29.7928 13.3986 29.599 13.4848ZM31.9744 16.4414C31.9744 16.4414 31.9744 16.4055 31.9529 16.4127C31.9314 16.4271 31.4362 16.7213 30.3597 16.018C29.2833 15.3147 28.4508 15.0277 28.0202 14.9559C28.0202 14.9559 27.6184 15.243 27.2452 15.5659C28.2499 15.652 29.0393 16.262 29.1254 16.4773C29.1326 16.4988 29.1541 16.4988 29.1613 16.4773C29.2689 16.1472 29.1254 15.8745 29.1254 15.8745C29.1254 15.8745 29.5919 16.1615 30.4961 16.6926C31.4003 17.2236 31.8165 16.628 31.9601 16.4342L31.9744 16.4414ZM23.4776 12.7384C23.2264 12.8748 22.8389 12.9824 22.5734 12.9178C22.76 13.2695 23.413 13.5135 23.7144 13.535C23.5207 13.7646 23.1906 14.0015 22.925 14.066C23.047 14.188 23.6283 14.2885 24.0517 14.188C23.7503 14.6473 23.1403 15.164 22.681 15.1497C23.2264 15.5659 24.2455 15.4224 25.0636 14.7047C25.1425 15.1712 25.0421 15.8673 24.9559 16.0395C25.3076 15.9606 25.8386 15.3506 26.0396 15.0277C26.3338 15.6592 26.3266 15.9247 26.3266 15.9247C26.951 15.0707 28.5441 14.6043 29.1254 12.6379C29.1828 12.4514 29.1182 12.3437 28.946 12.3437C28.8599 12.3437 26.0324 12.3365 26.0324 12.3365C24.4321 12.3365 23.3556 11.9993 22.6739 11.6691C22.7887 12.1212 23.2695 12.6379 23.4633 12.7456L23.4776 12.7384ZM28.0131 12.9322C28.2499 12.9322 28.2212 13.0757 28.1566 13.1905C28.0848 13.3053 27.8695 13.6642 27.8695 13.6642C27.8695 13.6642 27.6399 13.4202 27.195 13.2408C26.7429 13.0614 26.6137 13.0326 26.6137 12.9394H28.0131V12.9322ZM17.5715 15.8817C17.4782 16.14 17.4566 16.4271 17.4997 16.7931C17.7939 17.4318 17.9375 18.6159 17.8442 19.2761C18.3106 18.623 18.5187 17.891 18.6551 17.3026C18.9206 17.5753 19.2723 17.97 19.5163 18.2857C19.5593 17.9413 19.6311 17.5179 19.6957 17.2093C20.0473 17.5394 20.7721 17.9628 21.2601 18.1135C20.93 16.7213 20.3631 15.8314 20.3631 15.8314C19.8823 15.8817 19.1144 15.7597 18.7627 15.4224C18.8273 15.9247 19.1718 16.506 19.1718 16.506C18.4255 16.5778 17.9016 16.3266 17.5643 15.8817H17.5715ZM25.8817 15.8817C25.5444 16.3266 25.0205 16.5778 24.2742 16.506C24.2742 16.506 24.6187 15.9247 24.6832 15.4224C24.3388 15.7668 23.5637 15.8817 23.0829 15.8314C23.0829 15.8314 22.516 16.7213 22.1859 18.1135C22.6739 17.9628 23.3987 17.5466 23.7503 17.2093C23.8149 17.5179 23.8867 17.9413 23.9297 18.2857C24.1737 17.97 24.5182 17.5753 24.7909 17.3026C24.9272 17.891 25.1353 18.623 25.6018 19.2761C25.5085 18.6159 25.652 17.4318 25.9463 16.7931C25.9965 16.4199 25.9678 16.14 25.8745 15.8817H25.8817ZM19.4876 20.2664C19.7674 20.7185 20.0186 21.2568 20.1047 21.7447C20.3702 21.4218 20.6573 20.8549 20.8511 20.1803C21.0879 20.4745 21.4969 21.0773 21.7266 21.5725C21.9562 21.0773 22.3653 20.4745 22.6021 20.1803C22.7959 20.8549 23.0757 21.4218 23.3484 21.7447C23.4345 21.2639 23.6857 20.7185 23.9656 20.2664C24.1809 21.1419 24.999 21.9959 25.853 22.0605C25.3004 21.3429 25.2789 20.1014 25.3148 19.6923C24.9488 19.1182 24.7048 18.6015 24.5899 18.257C24.3388 18.501 23.9512 18.9818 23.6068 19.5344C23.6068 19.5344 23.5996 18.8383 23.4561 18.0059C23.0973 18.3288 22.4514 18.5656 22.1069 18.6517C21.8916 19.0106 21.827 19.2833 21.7266 19.7282C21.6261 19.2833 21.5615 19.0034 21.3462 18.6517C21.0018 18.5584 20.3559 18.3288 19.9971 18.0059C19.8607 18.8383 19.8464 19.5273 19.8464 19.5344C19.5019 18.9818 19.1144 18.501 18.8632 18.257C18.7484 18.6087 18.5044 19.1254 18.1384 19.6923C18.1743 20.1085 18.1528 21.3429 17.6002 22.0605C18.447 21.9959 19.2723 21.1419 19.4876 20.2664ZM11.7945 30.6434C12.2681 30.3348 12.5695 29.7679 12.914 29.079C12.7131 29.1651 12.426 29.2512 12.1318 29.3086C11.8519 29.854 11.45 29.6459 11.4357 29.567C11.5218 29.4737 11.6223 29.3302 11.694 29.2082C11.572 28.9857 11.4285 28.6484 11.3496 28.4403C10.9477 29.2943 10.2013 30.1626 9.577 30.4999C9.943 31.0094 11.0769 31.1099 11.7873 30.6506L11.7945 30.6434ZM13.2656 29.2082C12.9284 29.9186 13.0073 31.0238 14.0838 31.0525C13.9976 30.2774 14.3421 29.5383 14.7225 29.2082C14.3995 29.2871 13.8756 29.7105 13.8756 29.7105C13.8756 29.7105 13.7967 29.8899 13.7823 30.1267C13.5599 30.1698 13.4307 29.9904 13.524 29.6316C13.524 29.6316 13.3589 29.445 13.2656 29.2082ZM7.94079 30.0263C8.09867 30.0263 8.25655 30.0047 8.41443 29.9689C9.455 29.7105 10.4453 28.8206 11.0338 28.0743C10.6965 28.1819 10.3592 28.2465 9.97888 28.2896C9.97888 28.2896 9.71335 28.5982 9.51241 28.713C9.41194 28.7704 9.3043 28.7991 9.21101 28.7991C8.91678 28.7991 8.79478 28.5551 8.79478 28.5551C8.79478 28.5551 9.26842 28.3255 9.56983 28.0025C9.51241 27.7657 9.46936 27.4356 9.46218 27.1055C8.64407 27.9308 7.10833 28.7273 6.03188 28.878C6.24717 29.323 7.00069 30.0191 7.94079 30.0191V30.0263ZM5.85965 28.2824C5.91706 28.2824 5.96729 28.2824 6.0247 28.2752C7.09398 28.1676 8.37855 27.4858 9.21101 26.8902C8.94548 26.9404 8.24937 26.962 7.91926 26.9117C7.80444 26.9907 7.3021 27.3064 6.88587 27.3567C6.12517 27.45 6.03906 26.9835 6.03906 26.9835C6.52705 26.9261 7.09398 26.761 7.63221 26.5098C7.68962 26.1008 7.78291 25.742 7.86185 25.4765C6.68493 26.1295 4.76166 26.596 3.62062 26.6103C3.85027 27.1485 4.73296 28.2824 5.85247 28.2824H5.85965ZM6.0247 24.4359C6.18976 24.1488 6.44811 23.8044 6.68493 23.5245C5.74483 23.7828 4.53202 23.8402 3.89333 23.8402C3.13981 23.8402 2.40064 23.79 1.97724 23.7039C2.01312 24.4646 2.73793 25.7779 4.16603 25.8999C4.23779 25.8999 4.32391 25.907 4.41002 25.907C5.29989 25.907 6.71363 25.5482 7.68962 25.2038C6.99351 25.1176 6.32611 24.9526 6.17541 24.888C5.81659 24.9885 4.94825 25.1392 4.66837 25.1248C4.02968 25.0889 3.96509 24.6009 3.96509 24.6009C3.96509 24.6009 5.11331 24.6512 6.03188 24.4431L6.0247 24.4359ZM2.60158 23.0437C3.13263 23.2159 3.97944 23.3164 4.91954 23.3164C5.49365 23.3164 6.10364 23.2661 6.59881 23.1944C6.06776 23.015 5.40754 22.7351 4.97695 22.4696C4.43873 22.4624 3.71392 22.4409 3.24745 22.3045C2.55852 22.0964 2.57288 21.6227 2.58723 21.5223C3.18287 21.7591 4.18756 21.9887 4.9339 22.0318C5.2066 21.7663 5.63 21.4505 6.08211 21.1778C4.31673 21.1922 2.05618 20.4961 0.785962 19.8215C0.498907 22.1825 2.09924 22.893 2.60158 23.058V23.0437ZM6.49117 18.1494C6.21847 17.6255 5.95294 16.9222 5.91706 16.3122C5.09178 15.6592 4.1445 14.8339 3.59909 13.8938C3.28333 13.3484 3.39816 12.8676 3.62062 12.7025C3.79286 13.2982 4.89802 14.9559 5.90988 15.7884C5.91706 15.2573 6.01035 14.6401 6.1467 14.1809C4.97696 12.9106 3.66368 10.8008 3.34792 9.96834C2.9891 10.2626 2.37911 11.0089 2.22841 12.0495C2.07771 13.1044 2.415 14.1809 3.24028 15.2645C3.8718 16.097 5.27119 17.3313 6.49117 18.1422V18.1494ZM6.15388 20.8262C5.35013 20.2951 4.79037 19.8 4.49614 19.355C3.82156 19.0967 2.95322 18.6948 2.52982 18.336C1.94136 17.8408 2.12794 17.3959 2.1997 17.3098C2.7164 17.8408 3.84309 18.6015 4.63967 18.9388C5.13484 18.745 5.83094 18.6015 6.49834 18.5226C4.50332 17.7332 2.35758 16.2548 1.23807 14.8554C1.00843 15.2932 0.089855 17.3672 1.81936 19.068C2.73075 19.965 4.60378 20.5822 6.16105 20.8262H6.15388ZM32.0964 28.4403C32.0175 28.6484 31.8739 28.9857 31.752 29.2082C31.8237 29.3302 31.9242 29.4737 32.0103 29.567C32.0031 29.6459 31.6012 29.854 31.3142 29.3086C31.0271 29.2512 30.7329 29.1579 30.532 29.079C30.8764 29.7679 31.1778 30.3348 31.6515 30.6434C32.3619 31.1027 33.4958 31.0022 33.8618 30.4927C33.2375 30.1554 32.4911 29.2871 32.0892 28.4331L32.0964 28.4403ZM30.1875 29.2082C30.0942 29.445 29.9292 29.6316 29.9292 29.6316C30.0224 29.9904 29.9004 30.1698 29.6708 30.1267C29.6565 29.8899 29.5775 29.7105 29.5775 29.7105C29.5775 29.7105 29.0536 29.2871 28.7307 29.2082C29.1039 29.5383 29.4555 30.2703 29.3694 31.0525C30.4459 31.0238 30.5248 29.9186 30.1875 29.2082ZM33.8905 28.0025C34.1919 28.3255 34.6656 28.5551 34.6656 28.5551C34.6656 28.5551 34.5436 28.7991 34.2493 28.7991C34.1489 28.7991 34.0484 28.7704 33.9479 28.713C33.747 28.5982 33.4815 28.2896 33.4815 28.2896C33.1083 28.2537 32.7638 28.1819 32.4265 28.0743C33.015 28.8206 34.0053 29.7105 35.0459 29.9689C35.1966 30.0047 35.3545 30.0263 35.5195 30.0263C36.4668 30.0263 37.2203 29.3302 37.4285 28.8852C36.352 28.7273 34.8163 27.9308 33.9982 27.1127C33.9982 27.4428 33.9551 27.7729 33.8905 28.0097V28.0025ZM35.8209 26.5027C36.3592 26.7538 36.9261 26.9189 37.4141 26.9763C37.4141 26.9763 37.3352 27.45 36.5673 27.3495C36.1511 27.2992 35.6487 26.9763 35.5339 26.9045C35.2038 26.9476 34.5077 26.9333 34.2421 26.883C35.0746 27.4787 36.3592 28.1604 37.4285 28.2681C37.4787 28.2681 37.5361 28.2752 37.5935 28.2752C38.713 28.2752 39.5957 27.1414 39.8254 26.6031C38.6843 26.5888 36.7682 26.1295 35.5841 25.4693C35.6631 25.7348 35.7564 26.1008 35.8138 26.5027H35.8209ZM36.7682 23.5101C37.005 23.79 37.2634 24.1345 37.4285 24.4215C38.347 24.6225 39.4952 24.5794 39.4952 24.5794C39.4952 24.5794 39.4235 25.0674 38.792 25.1033C38.5121 25.1176 37.6437 24.9741 37.2849 24.8665C37.1342 24.931 36.4596 25.0961 35.7707 25.1822C36.7467 25.5267 38.1604 25.8855 39.0503 25.8855C39.1364 25.8855 39.2225 25.8855 39.2943 25.8783C40.7224 25.7492 41.44 24.4431 41.4831 23.6824C41.0597 23.7685 40.3277 23.8187 39.567 23.8187C38.9283 23.8187 37.7155 23.7613 36.7754 23.503L36.7682 23.5101ZM42.6672 19.8C41.397 20.4745 39.1436 21.1706 37.371 21.1563C37.816 21.429 38.2394 21.7447 38.5193 22.0103C39.2656 21.9672 40.2703 21.7376 40.8659 21.5007C40.8803 21.6084 40.8875 22.0749 40.2057 22.283C39.7392 22.4265 39.0144 22.4409 38.4762 22.448C38.0456 22.7207 37.3926 22.9934 36.8543 23.1728C37.3495 23.2446 37.9523 23.2948 38.5336 23.2948C39.4737 23.2948 40.3205 23.1944 40.8516 23.0221C41.3539 22.8571 42.9542 22.1466 42.6672 19.7856V19.8ZM39.8325 12.6954C40.055 12.8604 40.1698 13.3412 39.8541 13.8866C39.3087 14.8339 38.3614 15.6592 37.5361 16.3051C37.5002 16.9151 37.2347 17.6183 36.962 18.1422C38.182 17.3385 39.5742 16.097 40.2129 15.2645C41.0382 14.1809 41.3755 13.1044 41.2247 12.0495C41.074 11.0017 40.4569 10.2626 40.1052 9.96834C39.7895 10.7936 38.4762 12.9035 37.3064 14.1809C37.4428 14.6401 37.5361 15.2573 37.5433 15.7884C38.548 14.9559 39.6603 13.291 39.8325 12.7025V12.6954ZM38.8278 18.9316C39.6244 18.5943 40.7439 17.8265 41.2678 17.3026C41.3396 17.3887 41.5261 17.8336 40.9377 18.3288C40.5071 18.6876 39.6388 19.0895 38.9714 19.3478C38.6771 19.7928 38.1174 20.2879 37.3136 20.819C38.8709 20.575 40.7439 19.9578 41.6553 19.0608C43.3848 17.36 42.4591 15.286 42.2366 14.8483C41.1171 16.2405 38.9714 17.726 36.9763 18.5154C37.6509 18.6015 38.3398 18.7379 38.835 18.9316H38.8278ZM34.1776 16.5419C33.5317 18.0489 31.8883 19.3909 30.8262 20.0583C30.3382 20.3669 30.5176 20.9482 30.6755 21.2065C32.1251 23.6178 29.4914 25.4119 27.1088 24.2134C27.6255 24.2134 28.1494 23.7757 28.2212 23.381C28.0561 23.5245 27.3815 23.4455 27.1806 23.259C27.4892 23.1011 27.561 22.936 27.5753 22.7853C27.195 23.015 26.4271 23.0508 26.2046 22.6561C24.9488 22.6203 24.1091 21.6371 24.0158 21.3572C23.9225 21.6586 23.7718 22.1825 23.7216 22.7064C23.3771 22.4767 22.7959 21.9529 22.4944 21.2424C22.15 21.7304 21.8916 22.283 21.7266 22.8714C21.5615 22.2901 21.3032 21.7376 20.9587 21.2424C20.6573 21.9529 20.076 22.4767 19.7315 22.7064C19.6813 22.1897 19.5306 21.6586 19.4373 21.3572C19.344 21.6371 18.5116 22.6203 17.2485 22.6561C17.0261 23.0508 16.2582 23.015 15.8778 22.7853C15.8922 22.936 15.964 23.1011 16.2725 23.259C16.0716 23.4455 15.397 23.5245 15.232 23.381C15.3037 23.7757 15.8276 24.2134 16.3443 24.2134C13.9689 25.4047 11.3352 23.6106 12.7777 21.2065C12.9355 20.9482 13.1078 20.3669 12.627 20.0583C11.5649 19.3837 9.92147 18.0417 9.27559 16.5419C9.19665 17.1591 9.25406 18.6804 9.91429 19.6277C9.43347 19.8143 8.81631 20.1085 8.40008 20.3884C8.6656 20.6898 9.27559 21.1993 9.68465 21.4792C9.34736 21.7806 8.83066 22.3476 8.55796 22.7207C8.90242 22.9288 9.59853 23.18 10.1296 23.3451C9.88558 23.7541 9.50524 24.4861 9.41195 24.9239C10.0076 25.01 10.6176 25.0028 11.1558 24.9885C11.084 25.498 11.1343 26.1367 11.1845 26.6031C11.7371 26.5242 12.3471 26.3017 12.749 26.0864C12.8279 26.4381 13.036 27.084 13.2226 27.4356C13.7465 26.9404 14.4426 26.7108 15.0813 26.84C16.3945 27.1127 16.7821 28.4403 16.7821 28.4403V24.4V23.9479C16.7821 23.6967 16.9184 23.5604 17.1624 23.5604H26.2692C26.5132 23.5604 26.6496 23.6967 26.6496 23.9479V28.4403C26.6496 28.4403 27.0443 27.1127 28.3504 26.84C28.9891 26.7108 29.6852 26.9333 30.209 27.4356C30.3956 27.0911 30.6109 26.4381 30.6827 26.0864C31.0845 26.3017 31.6945 26.5242 32.2471 26.6031C32.2974 26.1367 32.3476 25.498 32.2758 24.9885C32.8069 25.0459 33.4169 25.0459 34.0197 24.9239C33.9264 24.4861 33.546 23.7541 33.302 23.3451C33.8546 23.1944 34.5292 22.9288 34.8737 22.7207C34.601 22.3476 34.0843 21.7735 33.747 21.4792C34.156 21.1993 34.766 20.6826 35.0315 20.3884C34.6153 20.1085 33.9981 19.8143 33.5173 19.6277C34.1776 18.6804 34.235 17.1591 34.156 16.5419H34.1776ZM17.6289 11.8127L17.5715 11.9562C19.1646 11.9562 20.6932 11.4108 21.1022 9.51623H19.8823C19.667 10.8869 18.8632 11.8198 17.6289 11.8198V11.8127ZM10.7539 8.72683C10.7539 8.72683 11.6223 8.92777 11.9667 10.1549C12.304 11.3821 13.1652 11.9705 14.0407 11.9705L13.9833 11.8055C13.4738 11.7409 12.749 11.0161 12.6198 9.66693C12.4834 8.3106 12.1533 8.13119 12.1533 8.13119C11.8088 7.89437 10.9477 8.51872 10.7539 8.73401V8.72683ZM8.20632 9.27223C8.93113 9.2507 9.41912 9.48035 10.3305 8.64789C11.407 7.66473 11.9165 7.82979 11.9165 7.82979C11.3639 7.47097 10.6032 7.31309 10.3377 7.5212C10.0722 7.72932 9.72053 8.2819 9.11771 8.6766C8.2709 9.23635 7.40974 9.08565 7.36668 9.60235H7.38821C7.38821 9.60235 7.47433 9.28659 8.19914 9.26506L8.20632 9.27223ZM8.87372 12.5303C9.31148 12.9681 9.35453 13.8579 9.35453 13.8579C9.35453 13.8579 9.88558 12.9106 9.44783 11.8988C9.01007 10.8869 8.1202 10.119 8.99572 9.53058C8.46467 9.53058 7.88338 9.41576 7.63221 9.77458C7.55327 9.8894 7.4815 10.1693 7.74703 10.564C8.08432 11.0663 8.92395 12.2432 8.23502 13.0255C8.73737 12.9322 8.87372 12.5303 8.87372 12.5303ZM14.3206 11.9634H17.3131C17.3131 11.9634 17.3849 11.784 17.4782 11.5184H14.1555C14.2488 11.784 14.3206 11.9634 14.3206 11.9634ZM16.1075 7.71496C16.1075 7.54991 15.9783 7.42073 15.8204 7.42073C15.6626 7.42073 15.5334 7.54991 15.5334 7.71496C15.5334 7.88002 15.6626 8.00919 15.8204 8.00919C15.9783 8.00919 16.1075 7.88002 16.1075 7.71496ZM17.6002 11.1883C17.7293 10.7864 17.8729 10.1765 17.8729 9.88222C17.8729 9.344 17.5858 8.74836 16.5381 8.56177C16.5381 9.21482 16.2223 10.808 15.842 10.808H15.7989C15.4186 10.808 15.1028 9.222 15.1028 8.56177C14.055 8.74836 13.7536 9.344 13.7536 9.88222C13.7536 10.1765 13.8972 10.7864 14.0263 11.1883H17.6002ZM15.8204 10.363C16.0214 10.363 16.1793 9.32247 16.1793 8.80577C16.1793 8.52589 16.0214 8.33931 15.8204 8.33931C15.6195 8.33931 15.4616 8.52589 15.4616 8.80577C15.4616 9.32247 15.6195 10.363 15.8204 10.363ZM15.6267 7.02603H16.0142L15.964 6.53086L16.4448 6.5811V6.1864L15.964 6.23663L16.0142 5.74147H15.6267L15.6769 6.23663L15.1961 6.1864V6.5811L15.6769 6.53086L15.6267 7.02603ZM23.5709 9.51623H22.3509C22.76 11.4108 24.2885 11.9562 25.8817 11.9562L25.8243 11.8127C24.5899 11.8127 23.7862 10.8797 23.5709 9.50905V9.51623ZM29.4196 11.9705C30.2952 11.9705 31.1563 11.3821 31.4936 10.1549C31.8309 8.92777 32.7064 8.72683 32.7064 8.72683C32.5198 8.51872 31.6515 7.8872 31.307 8.12402C31.307 8.12402 30.9769 8.29625 30.8406 9.65976C30.7042 11.0089 29.9866 11.7409 29.477 11.7983L29.4196 11.9634V11.9705ZM33.1226 8.65507C34.034 9.48752 34.522 9.25788 35.2468 9.27941C35.9716 9.30094 36.0578 9.6167 36.0578 9.6167H36.0793C36.0434 9.1 35.1751 9.24353 34.3283 8.69095C33.7326 8.29625 33.3738 7.74367 33.1083 7.53555C32.8428 7.32744 32.0821 7.48532 31.5295 7.84414C31.5295 7.84414 32.039 7.67908 33.1155 8.66224L33.1226 8.65507ZM35.8209 9.78176C35.5698 9.42294 34.9885 9.54494 34.4574 9.53776C35.333 10.1262 34.4431 10.9013 34.0053 11.906C33.5676 12.9178 34.0986 13.8651 34.0986 13.8651C34.0986 13.8651 34.1417 12.9681 34.5794 12.5375C34.5794 12.5375 34.7158 12.9394 35.2181 13.0326C34.5292 12.2504 35.3688 11.0807 35.7061 10.5712C35.9716 10.1765 35.8999 9.89658 35.8209 9.78176ZM29.1326 11.9634C29.1326 11.9634 29.2043 11.784 29.2976 11.5184H25.975C26.0683 11.784 26.14 11.9634 26.14 11.9634H29.1326ZM27.9198 7.71496C27.9198 7.54991 27.7906 7.42073 27.6327 7.42073C27.4748 7.42073 27.3457 7.54991 27.3457 7.71496C27.3457 7.88002 27.4748 8.00919 27.6327 8.00919C27.7906 8.00919 27.9198 7.88002 27.9198 7.71496ZM29.4268 11.1883C29.556 10.7864 29.6995 10.1765 29.6995 9.88222C29.6995 9.344 29.3981 8.74836 28.3504 8.56177C28.3504 9.222 28.0346 10.808 27.6543 10.808H27.6112C27.2308 10.808 26.9151 9.21482 26.9151 8.56177C25.8673 8.74836 25.5803 9.344 25.5803 9.88222C25.5803 10.1765 25.7238 10.7864 25.853 11.1883H29.4268ZM27.6327 10.363C27.8337 10.363 27.9915 9.32247 27.9915 8.80577C27.9915 8.52589 27.8337 8.33931 27.6327 8.33931C27.4318 8.33931 27.2739 8.52589 27.2739 8.80577C27.2739 9.32247 27.4318 10.363 27.6327 10.363ZM27.439 7.02603H27.8265L27.7762 6.53086L28.2571 6.5811V6.1864L27.7762 6.23663L27.8265 5.74147H27.439L27.4892 6.23663L27.0084 6.1864V6.5811L27.4892 6.53086L27.439 7.02603ZM7.89056 18.8814C7.11551 18.9029 5.74483 19.0536 5.04872 19.2761C5.52236 19.843 6.75669 20.6611 7.48868 21.0056C6.91457 21.2209 5.88118 21.7806 5.45777 22.1753C6.01035 22.5198 7.23033 22.9073 7.80444 23.0365C7.46715 23.3092 6.77822 24.0986 6.52705 24.522C7.00069 24.6727 7.98385 24.8019 8.60102 24.8378C8.40008 25.254 8.17761 25.986 8.11302 26.4668C8.42161 26.4955 9.44783 26.4453 9.95735 26.3304C9.91429 26.7467 9.92864 27.5074 10.0004 27.8375C10.5028 27.7657 11.2204 27.5648 11.5577 27.4356C11.651 27.8088 12.0026 28.6053 12.1246 28.7991C12.5265 28.7202 13.0073 28.5551 13.3589 28.3685C13.4738 28.6699 13.7249 29.1149 13.7967 29.2225C14.9736 28.0312 16.6529 29 16.6529 30.2703C16.5309 31.1099 15.354 31.0597 14.7368 31.4544C13.9187 31.9711 14.0622 33.1695 13.2226 33.3561C14.012 33.8584 14.2488 32.9183 15.0669 32.8896C14.9593 33.3992 14.9664 34.3034 15.0526 34.6837C15.3899 34.4182 15.8635 34.2244 16.1793 34.2029C16.1003 34.4971 16.0429 35.1932 16.1505 35.631C16.3658 35.4659 17.1839 34.7555 19.1216 35.2076C19.3584 35.265 17.8083 35.2076 18.002 35.7028C18.1528 36.0975 18.1958 36.3702 18.0164 36.9299C18.0953 36.9586 18.1958 36.973 18.2963 36.973C18.734 36.973 19.2938 36.7218 19.5163 36.3199C19.6885 36.4491 19.6885 37.3677 19.1072 37.5973C19.7244 37.6404 20.198 37.138 20.2913 36.8295C20.2913 36.8295 20.5927 37.5471 20.9515 37.7839C21.174 37.705 21.5759 37.3318 21.7338 36.9443C21.8916 37.3318 22.2935 37.705 22.516 37.7839C22.8748 37.5471 23.1762 36.8295 23.1762 36.8295C23.2695 37.138 23.736 37.6404 24.3603 37.5973C23.779 37.3677 23.779 36.4491 23.9513 36.3199C24.1737 36.7146 24.7406 36.973 25.1712 36.973C25.2717 36.973 25.3722 36.9586 25.4511 36.9299C25.2717 36.3702 25.3148 36.0975 25.4655 35.7028C25.6592 35.2004 24.1091 35.265 24.3459 35.2076C26.2836 34.7483 27.1017 35.4588 27.317 35.631C27.4246 35.2004 27.3672 34.5043 27.2883 34.2029C27.5968 34.2244 28.0777 34.4254 28.4149 34.6837C28.4939 34.3034 28.5082 33.3992 28.4006 32.8896C29.2259 32.9183 29.4555 33.8584 30.2449 33.3561C29.4053 33.1695 29.5488 31.9711 28.7307 31.4544C28.1135 31.0597 26.9294 31.1099 26.8146 30.2703C26.8146 29 28.4939 28.0312 29.6708 29.2225C29.7426 29.1077 29.9937 28.6628 30.1086 28.3685C30.4602 28.5551 30.941 28.7202 31.3429 28.7991C31.4649 28.6053 31.8094 27.8088 31.9098 27.4356C32.2471 27.5648 32.9648 27.7657 33.4671 27.8375C33.5389 27.5074 33.5532 26.7538 33.5102 26.3304C34.0197 26.4453 35.0459 26.4955 35.3545 26.4668C35.2971 25.986 35.0674 25.254 34.8665 24.8378C35.4908 24.8019 36.4668 24.6727 36.9405 24.522C36.6893 24.0986 36.0004 23.3092 35.6631 23.0365C36.2372 22.9073 37.45 22.5126 38.0097 22.1753C37.5792 21.7735 36.5529 21.2209 35.9788 21.0056C36.718 20.6611 37.9523 19.843 38.4188 19.2761C37.7227 19.0536 36.3592 18.9029 35.577 18.8814C37.1845 17.7834 37.2347 15.3937 36.7682 14.1019C36.4596 14.8913 35.4262 16.1759 34.7588 16.872C34.8163 17.5322 34.601 18.7091 34.235 19.4268C34.766 19.6277 35.3904 19.9291 35.8281 20.2664C35.5339 20.6396 34.9024 21.2137 34.5077 21.5223C34.845 21.8739 35.4047 22.5198 35.6631 22.893C35.2899 23.1728 34.479 23.4886 34.0699 23.6393C34.2709 24.0555 34.5723 24.8234 34.644 25.3473C34.1704 25.4262 33.5245 25.4764 32.8428 25.4693C32.8786 25.9716 32.8069 26.7538 32.7136 27.2203C32.0821 27.1701 31.3429 26.9117 31.0056 26.7467C30.8334 27.4428 30.3956 28.1245 30.3741 28.1604C28.4006 26.0147 26.6567 28.0384 26.6567 29.933V32.5165C26.6567 33.7364 26.2692 34.2962 25.1641 34.2962H23.7288C22.8389 34.2962 22.0926 34.6765 21.7194 35.4014C21.3462 34.6765 20.5999 34.2962 19.71 34.2962H18.2747C17.1696 34.2962 16.7821 33.7364 16.7821 32.5165V29.933C16.7821 28.0384 15.0382 26.0147 13.0647 28.1604C13.0432 28.1245 12.6126 27.45 12.4332 26.7467C12.1031 26.9117 11.3567 27.1701 10.7252 27.2203C10.6391 26.7538 10.5673 25.9716 10.596 25.4693C9.91429 25.4764 9.26842 25.4262 8.79478 25.3473C8.87372 24.8234 9.16795 24.0555 9.36889 23.6393C8.95266 23.4958 8.14173 23.1728 7.77574 22.893C8.02691 22.5198 8.59384 21.8739 8.93113 21.5223C8.53643 21.2137 7.90491 20.6396 7.61068 20.2664C8.05561 19.9291 8.67996 19.6277 9.20383 19.4268C8.83784 18.7091 8.62255 17.5322 8.67996 16.872C8.01255 16.1759 6.97916 14.8841 6.67058 14.1019C6.20411 15.4008 6.25435 17.7834 7.86185 18.8814H7.89056ZM3.45557 31.2032L3.31204 31.3611C3.31204 31.3611 3.61345 31.7558 3.85744 31.6051C3.99379 31.3467 3.60627 31.0525 3.60627 31.0525L3.46274 31.2032H3.45557Z" fill="#051945"/>
<path d="M57.1271 21.7093C57.1271 19.9439 58.426 18.7383 60.0765 18.7383C61.0956 18.7383 61.7989 19.2263 62.251 19.8721L61.6482 20.2094C61.318 19.7286 60.7296 19.377 60.0765 19.377C58.8207 19.377 57.8662 20.3386 57.8662 21.7093C57.8662 23.08 58.8207 24.0416 60.0765 24.0416C60.7296 24.0416 61.3252 23.6971 61.6482 23.2092L62.2581 23.5464C61.7773 24.1995 61.0884 24.6803 60.0694 24.6803C58.4188 24.6803 57.1199 23.4747 57.1199 21.7093H57.1271Z" fill="black"/>
<path d="M63.1044 22.4908C63.1044 21.2852 63.8938 20.3164 65.164 20.3164C66.4342 20.3164 67.2236 21.2924 67.2236 22.4908C67.2236 23.6893 66.4342 24.6796 65.164 24.6796C63.8938 24.6796 63.1044 23.6965 63.1044 22.4908ZM66.5418 22.4908C66.5418 21.644 66.0539 20.8905 65.164 20.8905C64.2741 20.8905 63.7789 21.644 63.7789 22.4908C63.7789 23.3377 64.2813 24.0983 65.164 24.0983C66.0467 24.0983 66.5418 23.3377 66.5418 22.4908Z" fill="black"/>
<path d="M68.4585 24.5731V20.418H70.7478C71.4797 20.418 71.9175 20.8557 71.9175 21.4872C71.9175 21.9896 71.6017 22.3197 71.2429 22.4345C71.6663 22.535 72.0036 22.9799 72.0036 23.4536C72.0036 24.1281 71.5587 24.5803 70.7908 24.5803H68.4585V24.5731ZM71.2573 21.5805C71.2573 21.2217 71.0348 20.9849 70.6401 20.9849H69.1115V22.1546H70.6401C71.042 22.1546 71.2573 21.9035 71.2573 21.5805ZM71.3362 23.3746C71.3362 23.0373 71.1066 22.7288 70.6616 22.7288H69.1044V24.0133H70.6616C71.0779 24.0133 71.3362 23.7765 71.3362 23.3746Z" fill="black"/>
<path d="M73.1733 22.4908C73.1733 21.2852 74.0345 20.3164 75.2186 20.3164C76.4745 20.3164 77.2136 21.2996 77.2136 22.5483V22.7133H73.8479C73.8981 23.4955 74.4507 24.1486 75.3478 24.1486C75.8214 24.1486 76.3022 23.962 76.6323 23.6247L76.9409 24.0481C76.5247 24.4643 75.9649 24.6868 75.2904 24.6868C74.056 24.6868 73.1733 23.7969 73.1733 22.498V22.4908ZM75.2114 20.8475C74.3216 20.8475 73.8838 21.5938 73.8479 22.2325H76.5749C76.5678 21.6153 76.1515 20.8475 75.2043 20.8475H75.2114Z" fill="black"/>
<path d="M79.2158 24.5731V20.9849H78.0101V20.418H81.0744V20.9849H79.8616V24.5731H79.2158Z" fill="black"/>
<path d="M87.3323 24.5731V20.9849H85.165V24.5731H84.5192V20.418H87.9782V24.5731H87.3323Z" fill="black"/>
<path d="M90.1097 23.947V26.1573H89.4639V20.4162H90.1097V21.0334C90.4111 20.61 90.9278 20.3086 91.5163 20.3086C92.6071 20.3086 93.3678 21.1339 93.3678 22.483C93.3678 23.8322 92.6071 24.6718 91.5163 24.6718C90.9494 24.6718 90.447 24.4063 90.1097 23.9398V23.947ZM92.6861 22.4902C92.6861 21.5716 92.1837 20.8899 91.3513 20.8899C90.8417 20.8899 90.3322 21.1913 90.1097 21.5501V23.4303C90.3322 23.7891 90.8417 24.1049 91.3513 24.1049C92.1837 24.1049 92.6861 23.416 92.6861 22.4974V22.4902Z" fill="black"/>
<path d="M94.573 24.5731V20.418H95.2189V23.5971L97.3933 20.418H98.032V24.5731H97.3861V21.3365L95.1902 24.5731H94.573Z" fill="black"/>
<path d="M106.026 24.5731V19.4707H102.668V24.5731H101.95V18.832H106.737V24.5731H106.019H106.026Z" fill="black"/>
<path d="M108.897 23.947V26.1573H108.251V20.4162H108.897V21.0334C109.199 20.61 109.715 20.3086 110.304 20.3086C111.395 20.3086 112.155 21.1339 112.155 22.483C112.155 23.8322 111.395 24.6718 110.304 24.6718C109.737 24.6718 109.235 24.4063 108.897 23.9398V23.947ZM111.474 22.4902C111.474 21.5716 110.971 20.8899 110.139 20.8899C109.629 20.8899 109.12 21.1913 108.897 21.5501V23.4303C109.12 23.7891 109.629 24.1049 110.139 24.1049C110.971 24.1049 111.474 23.416 111.474 22.4974V22.4902Z" fill="black"/>
<path d="M113.124 22.4908C113.124 21.2852 113.985 20.3164 115.169 20.3164C116.425 20.3164 117.164 21.2996 117.164 22.5483V22.7133H113.798C113.848 23.4955 114.401 24.1486 115.298 24.1486C115.772 24.1486 116.253 23.962 116.583 23.6247L116.891 24.0481C116.475 24.4643 115.915 24.6868 115.241 24.6868C114.006 24.6868 113.124 23.7969 113.124 22.498V22.4908ZM115.162 20.8475C114.272 20.8475 113.834 21.5938 113.798 22.2325H116.525C116.518 21.6153 116.102 20.8475 115.155 20.8475H115.162Z" fill="black"/>
<path d="M117.997 23.9986L118.313 23.5824C118.7 23.9555 119.253 24.1421 119.87 24.1421C120.609 24.1421 121.09 23.8551 121.09 23.4173C121.09 22.9006 120.516 22.7284 119.784 22.7284H118.851V22.2045H119.784C120.473 22.2045 121.011 21.9821 121.011 21.5084C121.011 21.1137 120.487 20.8482 119.798 20.8482C119.21 20.8482 118.758 21.0204 118.406 21.3792L118.069 20.9845C118.456 20.5898 119.016 20.3243 119.769 20.3243C120.889 20.3171 121.678 20.7262 121.678 21.4366C121.678 22.0538 121.047 22.3911 120.559 22.4557C121.04 22.4916 121.765 22.7858 121.765 23.4747C121.765 24.1637 121.061 24.6875 119.863 24.6875C119.03 24.6875 118.399 24.422 117.99 24.0058L117.997 23.9986Z" fill="black"/>
<path d="M123.02 24.5731V20.418H123.666V23.5971L125.841 20.418H126.479V24.5731H125.833V21.3365L123.637 24.5731H123.02Z" fill="black"/>
<path d="M127.47 24.042C127.857 23.9703 128.101 23.6976 128.259 22.4632L128.525 20.418H131.417V24.0061H131.898V25.6352H131.252V24.5731H128.109V25.6352H127.463V24.042H127.47ZM128.905 22.5422C128.805 23.3244 128.604 23.7622 128.302 24.0061H130.771V20.9849H129.092L128.905 22.5422Z" fill="black"/>
<path d="M132.744 22.4908C132.744 21.2852 133.606 20.3164 134.79 20.3164C136.046 20.3164 136.785 21.2996 136.785 22.5483V22.7133H133.419C133.469 23.4955 134.022 24.1486 134.919 24.1486C135.392 24.1486 135.873 23.962 136.203 23.6247L136.512 24.0481C136.096 24.4643 135.536 24.6868 134.861 24.6868C133.627 24.6868 132.744 23.7969 132.744 22.498V22.4908ZM134.782 20.8475C133.893 20.8475 133.455 21.5938 133.419 22.2325H136.146C136.139 21.6153 135.723 20.8475 134.775 20.8475H134.782Z" fill="black"/>
<path d="M138.019 24.5731V20.418H138.665V22.1475H140.832V20.418H141.478V24.5731H140.832V22.7144H138.665V24.5731H138.019Z" fill="black"/>
<path d="M143.724 24.5731V20.9849H142.519V20.418H145.583V20.9849H144.37V24.5731H143.724Z" fill="black"/>
<path d="M146.372 22.4908C146.372 21.2852 147.234 20.3164 148.418 20.3164C149.674 20.3164 150.413 21.2996 150.413 22.5483V22.7133H147.047C147.097 23.4955 147.65 24.1486 148.547 24.1486C149.021 24.1486 149.501 23.962 149.831 23.6247L150.14 24.0481C149.724 24.4643 149.164 24.6868 148.489 24.6868C147.255 24.6868 146.372 23.7969 146.372 22.498V22.4908ZM148.411 20.8475C147.521 20.8475 147.083 21.5938 147.047 22.2325H149.774C149.767 21.6153 149.351 20.8475 148.403 20.8475H148.411Z" fill="black"/>
<path d="M154.087 24.5731V18.832H156.39C157.546 18.832 158.192 19.6214 158.192 20.5615C158.192 21.5016 157.531 22.291 156.39 22.291H154.797V24.5731H154.079H154.087ZM157.452 20.5615C157.452 19.9157 156.986 19.4707 156.304 19.4707H154.797V21.6595H156.304C156.986 21.6595 157.452 21.2146 157.452 20.5687V20.5615Z" fill="black"/>
<path d="M158.96 22.4908C158.96 21.2852 159.749 20.3164 161.019 20.3164C162.29 20.3164 163.079 21.2924 163.079 22.4908C163.079 23.6893 162.29 24.6796 161.019 24.6796C159.749 24.6796 158.96 23.6965 158.96 22.4908ZM162.397 22.4908C162.397 21.644 161.909 20.8905 161.019 20.8905C160.129 20.8905 159.634 21.644 159.634 22.4908C159.634 23.3377 160.137 24.0983 161.019 24.0983C161.902 24.0983 162.397 23.3377 162.397 22.4908Z" fill="black"/>
<path d="M164.069 22.4908C164.069 21.2637 164.901 20.3164 166.143 20.3164C166.904 20.3164 167.348 20.625 167.664 21.0412L167.234 21.4359C166.961 21.0556 166.602 20.8977 166.172 20.8977C165.282 20.8977 164.736 21.5794 164.736 22.498C164.736 23.4166 165.289 24.1055 166.172 24.1055C166.602 24.1055 166.954 23.9333 167.234 23.5601L167.664 23.9548C167.348 24.371 166.896 24.6796 166.143 24.6796C164.901 24.6796 164.069 23.7324 164.069 22.4908Z" fill="black"/>
<path d="M168.525 22.4908C168.525 21.2637 169.358 20.3164 170.599 20.3164C171.36 20.3164 171.805 20.625 172.121 21.0412L171.69 21.4359C171.417 21.0556 171.059 20.8977 170.628 20.8977C169.738 20.8977 169.193 21.5794 169.193 22.498C169.193 23.4166 169.745 24.1055 170.628 24.1055C171.059 24.1055 171.41 23.9333 171.69 23.5601L172.121 23.9548C171.805 24.371 171.353 24.6796 170.599 24.6796C169.358 24.6796 168.525 23.7324 168.525 22.4908Z" fill="black"/>
<path d="M173.219 24.5731V20.418H173.865V23.5971L176.039 20.418H176.678V24.5731H176.032V21.3365L173.836 24.5731H173.219Z" fill="black"/>
<path d="M178.157 24.5723V20.4172H178.803V23.5963L180.977 20.4172H181.616V24.5723H180.97V21.3358L178.774 24.5723H178.157ZM179.886 19.9436C179.276 19.9436 178.724 19.6493 178.372 19.1829L178.688 18.9102C178.96 19.2905 179.377 19.5273 179.886 19.5273C180.396 19.5273 180.805 19.2977 181.078 18.9102L181.393 19.1829C181.049 19.6493 180.503 19.9436 179.886 19.9436Z" fill="black"/>
<path d="M182.865 22.4908C182.865 21.2637 183.697 20.3164 184.938 20.3164C185.699 20.3164 186.144 20.625 186.46 21.0412L186.029 21.4359C185.757 21.0556 185.398 20.8977 184.967 20.8977C184.077 20.8977 183.532 21.5794 183.532 22.498C183.532 23.4166 184.084 24.1055 184.967 24.1055C185.398 24.1055 185.749 23.9333 186.029 23.5601L186.46 23.9548C186.144 24.371 185.692 24.6796 184.938 24.6796C183.697 24.6796 182.865 23.7324 182.865 22.4908Z" fill="black"/>
<path d="M190.385 24.5737L188.885 22.7079L188.196 23.3896V24.5809H187.55V20.4258H188.196V22.6361L190.385 20.4258H191.203L189.358 22.3132L191.21 24.5881H190.385V24.5737Z" fill="black"/>
<path d="M191.907 22.4908C191.907 21.2852 192.696 20.3164 193.966 20.3164C195.237 20.3164 196.026 21.2924 196.026 22.4908C196.026 23.6893 195.237 24.6796 193.966 24.6796C192.696 24.6796 191.907 23.6965 191.907 22.4908ZM195.344 22.4908C195.344 21.644 194.856 20.8905 193.966 20.8905C193.077 20.8905 192.581 21.644 192.581 22.4908C192.581 23.3377 193.084 24.0983 193.966 24.0983C194.849 24.0983 195.344 23.3377 195.344 22.4908Z" fill="black"/>
<path d="M197.259 24.5723V20.4172H197.905V23.5963L200.079 20.4172H200.718V24.5723H200.072V21.3358L197.876 24.5723H197.259ZM198.989 19.9436C198.379 19.9436 197.826 19.6493 197.474 19.1829L197.79 18.9102C198.063 19.2905 198.479 19.5273 198.989 19.5273C199.498 19.5273 199.907 19.2977 200.18 18.9102L200.496 19.1829C200.151 19.6493 199.606 19.9436 198.989 19.9436Z" fill="black"/>
<path d="M207.077 24.5738V24.014C205.419 23.8992 204.407 23.0093 204.407 21.7104C204.407 20.4115 205.412 19.5216 207.077 19.414V18.8398H207.795V19.414C209.445 19.5288 210.471 20.433 210.471 21.7104C210.471 22.9878 209.445 23.9064 207.795 24.014V24.5738H207.077ZM207.077 23.3681V20.0455C205.857 20.1459 205.147 20.7918 205.147 21.7032C205.147 22.6146 205.85 23.2605 207.077 23.3681ZM207.795 20.0455V23.3681C209.007 23.2677 209.732 22.6218 209.732 21.7032C209.732 20.7846 209.007 20.1459 207.795 20.0455Z" fill="black"/>
<path d="M211.504 22.4908C211.504 21.2852 212.365 20.3164 213.55 20.3164C214.805 20.3164 215.545 21.2996 215.545 22.5483V22.7133H212.179C212.229 23.4955 212.782 24.1486 213.679 24.1486C214.152 24.1486 214.633 23.962 214.963 23.6247L215.272 24.0481C214.856 24.4643 214.296 24.6868 213.621 24.6868C212.387 24.6868 211.504 23.7969 211.504 22.498V22.4908ZM213.542 20.8475C212.652 20.8475 212.215 21.5938 212.179 22.2325H214.906C214.899 21.6153 214.482 20.8475 213.535 20.8475H213.542Z" fill="black"/>
<path d="M216.292 24.042C216.679 23.9703 216.923 23.6976 217.081 22.4632L217.347 20.418H220.239V24.0061H220.72V25.6352H220.074V24.5731H216.931V25.6352H216.285V24.042H216.292ZM217.727 22.5422C217.627 23.3244 217.426 23.7622 217.124 24.0061H219.593V20.9849H217.914L217.727 22.5422Z" fill="black"/>
<path d="M221.559 22.4908C221.559 21.2852 222.42 20.3164 223.604 20.3164C224.86 20.3164 225.599 21.2996 225.599 22.5483V22.7133H222.234C222.284 23.4955 222.837 24.1486 223.734 24.1486C224.207 24.1486 224.688 23.962 225.018 23.6247L225.327 24.0481C224.911 24.4643 224.351 24.6868 223.676 24.6868C222.442 24.6868 221.559 23.7969 221.559 22.498V22.4908ZM223.597 20.8475C222.707 20.8475 222.27 21.5938 222.234 22.2325H224.961C224.954 21.6153 224.537 20.8475 223.59 20.8475H223.597Z" fill="black"/>
<path d="M227.487 23.947V26.1573H226.841V20.4162H227.487V21.0334C227.788 20.61 228.305 20.3086 228.893 20.3086C229.984 20.3086 230.745 21.1339 230.745 22.483C230.745 23.8322 229.984 24.6718 228.893 24.6718C228.326 24.6718 227.824 24.4063 227.487 23.9398V23.947ZM230.063 22.4902C230.063 21.5716 229.561 20.8899 228.728 20.8899C228.219 20.8899 227.709 21.1913 227.487 21.5501V23.4303C227.709 23.7891 228.219 24.1049 228.728 24.1049C229.561 24.1049 230.063 23.416 230.063 22.4974V22.4902Z" fill="black"/>
<path d="M234.556 24.5714V24.0977C234.211 24.4781 233.738 24.6718 233.178 24.6718C232.474 24.6718 231.721 24.1982 231.721 23.294C231.721 22.3897 232.467 21.9233 233.178 21.9233C233.745 21.9233 234.218 22.1027 234.556 22.4902V21.7439C234.556 21.1841 234.111 20.8683 233.508 20.8683C233.006 20.8683 232.604 21.0478 232.238 21.4425L231.936 20.9975C232.381 20.5311 232.919 20.3086 233.594 20.3086C234.47 20.3086 235.201 20.7033 235.201 21.7152V24.5714H234.556ZM234.556 23.6958V22.9136C234.304 22.5691 233.867 22.3969 233.407 22.3969C232.805 22.3969 232.381 22.7773 232.381 23.3083C232.381 23.8394 232.805 24.2125 233.407 24.2125C233.867 24.2125 234.304 24.0403 234.556 23.6958Z" fill="black"/>
<path d="M239.981 24.5731H236.687V20.418H237.333V24.0061H239.5V20.418H240.146V24.0061H240.627V25.6352H239.981V24.5731Z" fill="black"/>
<path d="M241.703 24.5731V20.418H242.349V23.5971L244.524 20.418H245.162V24.5731H244.516V21.3365L242.32 24.5731H241.703Z" fill="black"/>
<path d="M246.647 24.5731V20.418H247.293V23.5971L249.467 20.418H250.106V24.5731H249.46V21.3365L247.264 24.5731H246.647Z" fill="black"/>
<path d="M60.1477 34.9051V31.3169H57.9805V34.9051H57.3346V30.75H60.7936V34.9051H60.1477Z" fill="black"/>
<path d="M62.0353 32.8268C62.0353 31.6212 62.8247 30.6523 64.0949 30.6523C65.3651 30.6523 66.1545 31.6283 66.1545 32.8268C66.1545 34.0252 65.3651 35.0156 64.0949 35.0156C62.8247 35.0156 62.0353 34.0324 62.0353 32.8268ZM65.4728 32.8268C65.4728 31.98 64.9848 31.2265 64.0949 31.2265C63.205 31.2265 62.7099 31.98 62.7099 32.8268C62.7099 33.6736 63.2122 34.4343 64.0949 34.4343C64.9776 34.4343 65.4728 33.6736 65.4728 32.8268Z" fill="black"/>
<path d="M73.3964 34.9051V31.6399L72.0472 34.9051H71.8032L70.4397 31.6399V34.9051H69.7938V30.75H70.6478L71.918 33.8287L73.1739 30.75H74.035V34.9051H73.3892H73.3964Z" fill="black"/>
<path d="M75.2832 32.8268C75.2832 31.6212 76.1444 30.6523 77.3285 30.6523C78.5843 30.6523 79.3235 31.6355 79.3235 32.8842V33.0492H75.9578C76.008 33.8315 76.5606 34.4845 77.4576 34.4845C77.9313 34.4845 78.4121 34.2979 78.7422 33.9606L79.0508 34.3841C78.6346 34.8003 78.0748 35.0227 77.4002 35.0227C76.1659 35.0227 75.2832 34.1329 75.2832 32.834V32.8268ZM77.3213 31.1834C76.4314 31.1834 75.9937 31.9297 75.9578 32.5684H78.6848C78.6776 31.9513 78.2614 31.1834 77.3141 31.1834H77.3213Z" fill="black"/>
<path d="M80.0416 34.9084L81.8931 32.6335L80.0488 30.7461H80.8669L82.6538 32.5761V30.7461H83.2996V32.5689L85.0866 30.7461H85.9047L84.0532 32.6335L85.9118 34.9084H85.0866L83.5867 33.0425L83.2925 33.3368V34.9084H82.6466V33.3368L82.3524 33.0425L80.8525 34.9084H80.0272H80.0416Z" fill="black"/>
<path d="M86.8801 34.9051V30.75H87.526V32.4795H89.6933V30.75H90.3391V34.9051H89.6933V33.0464H87.526V34.9051H86.8801Z" fill="black"/>
<path d="M94.4226 34.9073V34.4336C94.0781 34.814 93.6044 35.0078 93.0447 35.0078C92.3414 35.0078 91.5879 34.5341 91.5879 33.6299C91.5879 32.7257 92.3342 32.2592 93.0447 32.2592C93.6116 32.2592 94.0853 32.4386 94.4226 32.8261V32.0798C94.4226 31.52 93.9776 31.2043 93.3748 31.2043C92.8725 31.2043 92.4706 31.3837 92.1046 31.7784L91.8032 31.3335C92.2481 30.867 92.7863 30.6445 93.4609 30.6445C94.3364 30.6445 95.0684 31.0392 95.0684 32.0511V34.9073H94.4226ZM94.4226 34.0318V33.2495C94.1714 32.9051 93.7336 32.7329 93.2743 32.7329C92.6715 32.7329 92.2481 33.1132 92.2481 33.6442C92.2481 34.1753 92.6715 34.5485 93.2743 34.5485C93.7336 34.5485 94.1714 34.3762 94.4226 34.0318Z" fill="black"/>
<path d="M99.8477 34.9051H96.5537V30.75H97.1996V34.3382H99.3668V30.75H100.013V34.3382H100.494V35.9672H99.8477V34.9051Z" fill="black"/>
<path d="M101.57 34.9051V30.75H102.216V33.9291L104.39 30.75H105.029V34.9051H104.383V31.6686L102.187 34.9051H101.57Z" fill="black"/>
<path d="M106.271 32.8268C106.271 31.6212 107.06 30.6523 108.33 30.6523C109.601 30.6523 110.39 31.6283 110.39 32.8268C110.39 34.0252 109.601 35.0156 108.33 35.0156C107.06 35.0156 106.271 34.0324 106.271 32.8268ZM109.708 32.8268C109.708 31.98 109.22 31.2265 108.33 31.2265C107.44 31.2265 106.945 31.98 106.945 32.8268C106.945 33.6736 107.448 34.4343 108.33 34.4343C109.213 34.4343 109.708 33.6736 109.708 32.8268Z" fill="black"/>
<path d="M111.624 34.9051V30.75H112.27V32.4795H114.437V30.75H115.083V34.9051H114.437V33.0464H112.27V34.9051H111.624Z" fill="black"/>
<path d="M119.166 34.9073V34.4336C118.822 34.814 118.348 35.0078 117.789 35.0078C117.085 35.0078 116.332 34.5341 116.332 33.6299C116.332 32.7257 117.078 32.2592 117.789 32.2592C118.356 32.2592 118.829 32.4386 119.166 32.8261V32.0798C119.166 31.52 118.722 31.2043 118.119 31.2043C117.616 31.2043 117.214 31.3837 116.848 31.7784L116.547 31.3335C116.992 30.867 117.53 30.6445 118.205 30.6445C119.08 30.6445 119.812 31.0392 119.812 32.0511V34.9073H119.166ZM119.166 34.0318V33.2495C118.915 32.9051 118.478 32.7329 118.018 32.7329C117.415 32.7329 116.992 33.1132 116.992 33.6442C116.992 34.1753 117.415 34.5485 118.018 34.5485C118.478 34.5485 118.915 34.3762 119.166 34.0318Z" fill="black"/>
<path d="M120.811 34.4745C121.198 34.4745 121.442 34.0296 121.6 32.7953L121.865 30.75H124.758V34.9051H124.112V31.3169H122.432L122.246 32.8742C122.059 34.4243 121.607 35.0056 120.811 35.0056V34.4745Z" fill="black"/>
<path d="M126.888 30.75V32.3575H128.446C129.307 32.3575 129.752 32.9531 129.752 33.6277C129.752 34.3023 129.292 34.9051 128.446 34.9051H126.242V30.75H126.888ZM126.888 32.9244V34.3382H128.381C128.847 34.3382 129.099 34.0439 129.099 33.6349C129.099 33.2258 128.855 32.9316 128.381 32.9316H126.888V32.9244Z" fill="black"/>
<path d="M130.929 34.9051V30.75H131.575V32.4795H133.742V30.75H134.388V34.9051H133.742V33.0464H131.575V34.9051H130.929Z" fill="black"/>
<path d="M136.512 30.75V32.3575H138.069C138.93 32.3575 139.375 32.9531 139.375 33.6277C139.375 34.3023 138.916 34.9051 138.069 34.9051H135.866V30.75H136.512ZM136.512 32.9244V34.3382H138.004C138.471 34.3382 138.722 34.0439 138.722 33.6349C138.722 33.2258 138.478 32.9316 138.004 32.9316H136.512V32.9244ZM140.057 34.9051V30.75H140.703V34.9051H140.057Z" fill="black"/>
<path d="M145.784 34.9051V31.6399L144.434 34.9051H144.19L142.827 31.6399V34.9051H142.181V30.75H143.035L144.305 33.8287L145.561 30.75H146.422V34.9051H145.776H145.784Z" fill="black"/>
<path d="M150.09 32.8268C150.09 31.6212 150.879 30.6523 152.149 30.6523C153.42 30.6523 154.209 31.6283 154.209 32.8268C154.209 34.0252 153.42 35.0156 152.149 35.0156C150.879 35.0156 150.09 34.0324 150.09 32.8268ZM153.527 32.8268C153.527 31.98 153.039 31.2265 152.149 31.2265C151.259 31.2265 150.764 31.98 150.764 32.8268C150.764 33.6736 151.267 34.4343 152.149 34.4343C153.032 34.4343 153.527 33.6736 153.527 32.8268Z" fill="black"/>
<path d="M156.197 34.9051V31.3169H154.991V30.75H158.056V31.3169H156.843V34.9051H156.197Z" fill="black"/>
<path d="M159.096 34.9051V30.75H159.742V32.4795H161.909V30.75H162.555V34.9051H161.909V33.0464H159.742V34.9051H159.096Z" fill="black"/>
<path d="M163.797 32.8268C163.797 31.6212 164.586 30.6523 165.856 30.6523C167.126 30.6523 167.916 31.6283 167.916 32.8268C167.916 34.0252 167.126 35.0156 165.856 35.0156C164.586 35.0156 163.797 34.0324 163.797 32.8268ZM167.234 32.8268C167.234 31.98 166.746 31.2265 165.856 31.2265C164.966 31.2265 164.471 31.98 164.471 32.8268C164.471 33.6736 164.973 34.4343 165.856 34.4343C166.739 34.4343 167.234 33.6736 167.234 32.8268Z" fill="black"/>
<path d="M174.597 30.75V34.9051H169.15V30.75H169.796V34.3382H171.554V30.75H172.2V34.3382H173.958V30.75H174.604H174.597Z" fill="black"/>
<path d="M175.845 32.8268C175.845 31.6212 176.706 30.6523 177.89 30.6523C179.146 30.6523 179.886 31.6355 179.886 32.8842V33.0492H176.52C176.57 33.8315 177.123 34.4845 178.02 34.4845C178.493 34.4845 178.974 34.2979 179.304 33.9606L179.613 34.3841C179.197 34.8003 178.637 35.0227 177.962 35.0227C176.728 35.0227 175.845 34.1329 175.845 32.834V32.8268ZM177.883 31.1834C176.993 31.1834 176.556 31.9297 176.52 32.5684H179.247C179.24 31.9513 178.823 31.1834 177.876 31.1834H177.883Z" fill="black"/>
<path d="M181.121 34.9051V30.75H181.767V32.4795H183.934V30.75H184.58V34.9051H183.934V33.0464H181.767V34.9051H181.121Z" fill="black"/>
<path d="M186.064 34.9051V30.75H186.71V33.9291L188.885 30.75H189.523V34.9051H188.878V31.6686L186.682 34.9051H186.064Z" fill="black"/>
<path d="M190.873 34.9084L191.986 33.2722C191.368 33.1932 190.916 32.7196 190.916 32.0235C190.916 31.3274 191.39 30.7461 192.23 30.7461H194.426V34.9012H193.78V33.2937H192.646L191.627 34.9012H190.866L190.873 34.9084ZM193.78 32.7339V31.3202H192.301C191.842 31.3202 191.577 31.6144 191.577 32.0235C191.577 32.4325 191.828 32.7268 192.301 32.7268H193.78V32.7339Z" fill="black"/>
<path d="M199.506 34.9051V31.6399L198.157 34.9051H197.913L196.549 31.6399V34.9051H195.904V30.75H196.758L198.028 33.8287L199.284 30.75H200.145V34.9051H199.499H199.506Z" fill="black"/>
</svg>
