<svg width="402" height="458" viewBox="0 0 402 458" fill="none" xmlns="http://www.w3.org/2000/svg">
<path d="M179.463 455.072C165.827 440.634 152.575 425.809 140.09 410.317C127.698 394.758 116.008 378.625 105.204 361.919C102.563 357.699 99.8289 353.559 97.267 349.299L89.6609 336.478L82.4122 323.458C80.0092 319.118 77.7916 314.684 75.4681 310.304C66.3857 292.664 58.0582 274.703 50.1147 256.609L44.2299 243.001L38.4908 229.354L32.8311 215.68L30.0145 208.843C29.0313 206.413 28.247 204.103 27.4228 201.739C25.7212 196.678 24.099 191.604 22.543 186.517C10.736 149.942 -7.64092 80.2409 5.4896 47.3875C8.67313 39.4044 13.5951 33.9187 20.0701 31.0104C20.2157 30.9037 20.3746 30.8103 20.56 30.7302C31.9479 25.9278 48.3337 35.3732 61.7664 45.9124C67.6269 49.9734 73.2095 54.4215 78.6202 59.0564C86.8424 66.1757 94.6809 73.7622 102.109 81.7491C109.564 89.7227 116.622 98.0966 123.296 106.871C123.468 107.098 123.628 107.338 123.787 107.592C125.898 111.158 124.75 115.75 121.216 117.872C117.681 119.993 113.122 118.83 111.011 115.265C105.675 106.264 99.8489 97.463 93.5858 88.9692C87.336 80.462 80.6228 72.2618 73.4994 64.4619C69.0026 59.6137 64.3338 54.8856 59.4003 50.4911C44.3629 38.5228 30.8289 32.029 22.6717 35.2839C22.6055 35.3105 22.5526 35.3506 22.4864 35.3906C17.0175 37.6984 12.8365 42.37 10.0889 49.2717C-1.89236 79.2282 14.4651 144.016 25.9942 180.843C28.1081 187.213 30.3279 193.556 32.6669 199.832C33.5307 202.102 34.421 204.425 35.3509 206.535L38.3793 213.265L44.4626 226.726L50.6122 240.146L56.8941 253.487C73.8004 288.941 92.1632 323.675 114.471 355.673C125.565 371.699 137.493 387.111 150.083 401.936C162.779 416.694 176.202 430.798 190.01 444.528L190.102 444.622C190.102 444.622 190.195 444.715 190.248 444.769C193.087 447.761 192.973 452.5 189.996 455.356C187.031 458.213 182.328 458.091 179.489 455.086L179.463 455.072Z" fill="#D1D3D4"/>
<path d="M335.635 262.694L335.635 262.68C329.504 256.132 323.319 249.183 317.86 241.702C312.401 234.22 307.549 226.379 303.224 218.378C298.873 210.377 294.944 202.242 291.266 194.028C290.313 191.988 289.426 189.921 288.54 187.854C287.653 185.787 286.727 183.76 285.867 181.64C284.093 177.44 282.518 173.173 281.048 168.879C278.108 160.278 275.736 151.505 273.957 142.624C273.293 139.278 272.709 135.904 272.23 132.518C269.002 114.384 268.875 96.7584 274.099 83.9077C277.56 75.3895 283.083 69.6852 290.496 66.9547C305.561 61.4139 322.329 68.353 336.236 77.6777C342.985 81.6666 349.338 86.3353 355.375 91.3373C359.919 95.1521 364.331 99.1935 368.454 103.595C372.51 107.889 376.461 112.304 380.281 116.878C384.087 121.466 387.761 126.214 391.185 131.255C394.609 136.296 397.822 141.577 400.455 147.617L400.455 147.631C400.574 147.871 400.667 148.137 400.746 148.391C401.978 152.338 399.806 156.537 395.901 157.775C391.996 159.014 387.836 156.812 386.604 152.865C385.094 148.012 382.766 142.971 380.147 138.077C377.528 133.17 374.553 128.342 371.407 123.608C368.261 118.874 364.916 114.22 361.44 109.659C358.07 105.164 354.317 100.91 350.366 96.8151C345.002 91.2801 339.255 86.065 333.047 81.4763C319.668 72.6985 304.71 67 292.191 71.6084C286.123 73.8327 281.576 78.6041 278.655 85.776C274.18 96.8004 273.791 113.213 276.979 131.533C277.669 134.813 278.465 138.08 279.34 141.306C281.659 149.787 284.546 158.107 287.947 166.188C289.641 170.229 291.454 174.216 293.411 178.11C294.35 180.057 295.422 182.03 296.44 183.99C297.459 185.951 298.477 187.924 299.535 189.858C303.701 197.646 308.065 205.287 312.759 212.648C317.426 220.023 322.488 227.024 327.986 233.559C333.497 240.094 339.588 246.056 346.035 252.072C346.154 252.178 346.286 252.312 346.405 252.432C349.219 255.446 349.079 260.179 346.1 263.004C343.121 265.83 338.436 265.695 335.635 262.68L335.635 262.694Z" fill="#CD242B"/>
<path d="M301.555 369.971C297.971 369.81 294.439 369.368 290.895 368.887C290.005 368.766 289.089 368.472 288.253 368.018C284.573 366.002 283.227 361.372 285.227 357.677C287.227 353.982 291.832 352.636 295.511 354.652L295.537 354.652C298.326 356.201 301.155 357.736 304.064 359.031C306.972 360.34 309.947 361.515 313.001 362.464C315.032 363.092 317.104 363.586 319.214 363.96C323.754 363.869 327.801 363.096 331.317 361.657C338.945 358.524 346.184 351.242 349.71 335.966C350.857 329.188 351.061 322.21 350.774 315.286C350.445 306.066 349.279 296.846 347.756 287.679C346.205 278.512 344.243 269.399 342.029 260.352C339.815 251.278 337.309 242.311 334.684 233.277C332.059 224.39 329.168 215.596 325.866 206.936C322.591 198.275 319.037 189.722 315.111 181.341C313.169 177.138 311.159 172.974 309.057 168.77L305.917 162.418L302.764 156.226C298.534 147.966 293.998 139.852 289.263 131.845C284.569 123.811 279.569 115.95 274.476 108.156C264.211 92.6087 253.216 77.541 241.373 63.1935C229.49 48.8994 216.797 35.2188 202.475 23.5255C196.629 18.7335 190.439 14.3682 183.838 10.7767C172.722 5.58235 162.3 3.67055 153.171 6.0955C147.704 7.54781 143.287 10.2147 139.721 13.6157C138.038 15.8299 136.633 18.2177 135.521 20.7123C134.873 22.1797 134.317 23.7005 133.828 25.2214C134.385 25.1816 134.943 25.1418 135.513 25.142C147.234 25.1463 156.735 34.6896 156.749 46.471C156.763 58.2523 147.284 67.7887 135.563 67.7844C123.843 67.78 114.341 58.2367 114.328 46.4553C114.321 40.9449 116.412 35.9423 119.819 32.1676C120.375 30.887 120.958 29.6197 121.58 28.379C123.699 24.177 126.229 20.1618 129.291 16.6139C131.412 14.1463 133.799 11.9057 136.398 10.0253C140.787 5.82409 145.986 2.86399 151.878 1.29175C163.011 -1.66616 175.584 0.993616 188.825 7.72308C195.08 10.4873 201.017 13.9318 206.729 17.6164C222.829 28.2829 236.98 41.4705 250.097 55.4315C263.161 69.4725 275.098 84.5005 286.094 100.182C297.063 115.89 307.103 132.265 315.976 149.346C317.081 151.482 318.158 153.643 319.223 155.805L322.323 162.184C324.412 166.454 326.501 170.818 328.484 175.209C332.383 184.029 336.004 192.983 339.147 202.111C342.277 211.238 345.102 220.486 347.369 229.866C348.503 234.47 349.623 239.127 350.651 243.797C351.665 248.48 352.613 253.177 353.495 257.887C355.231 267.321 356.609 276.835 357.483 286.428C358.331 296.022 358.701 305.695 358.101 315.395C357.775 320.238 357.223 325.081 356.3 329.871C355.917 331.859 355.455 333.833 354.94 335.794C351.666 351.457 344.444 361.661 333.234 366.274C329.187 367.94 324.582 368.806 319.446 368.924C317.097 369.403 314.708 369.723 312.306 369.909C308.749 370.174 305.165 370.146 301.594 369.971L301.555 369.971Z" fill="#0095DA"/>
</svg>
