<svg width="613" height="594" viewBox="0 0 613 594" fill="none" xmlns="http://www.w3.org/2000/svg">
<g opacity="0.4">
<path d="M607.338 230.12C586.222 215.329 564.685 201.108 542.442 188.006C520.132 175.037 497.222 163.083 473.75 152.385C467.837 149.796 462.01 147.072 456.062 144.593L438.182 137.266L420.115 130.439C414.095 128.18 407.991 126.178 401.936 124.03C377.6 115.733 353 108.471 328.304 101.731L309.749 96.7767L291.171 92.0181L272.574 87.3671L263.278 85.0587C259.977 84.2614 256.869 83.6973 253.684 83.0922C246.877 81.8777 240.068 80.7684 233.255 79.7471C184.158 71.6035 91.3852 61.4037 51.8677 84.7045C42.264 90.3572 36.1928 97.7685 33.7209 106.684C33.6124 106.892 33.5235 107.115 33.4569 107.37C29.5095 122.989 44.7658 142.294 60.8516 157.578C67.1821 164.35 73.9544 170.689 80.9327 176.77C91.6343 185.996 102.86 194.637 114.519 202.671C126.165 210.741 138.248 218.222 150.769 225.131C151.093 225.309 151.431 225.468 151.787 225.625C156.759 227.656 162.416 225.287 164.449 220.316C166.482 215.346 164.112 209.691 159.14 207.66C146.588 202.521 134.197 196.711 122.114 190.278C110.017 183.865 98.2232 176.795 86.8628 169.118C79.788 164.257 72.8338 159.151 66.2556 153.639C48.0302 136.562 37.1033 120.363 39.6938 109.211C39.7151 109.121 39.7562 109.045 39.7946 108.952C41.6922 101.451 46.8643 95.1528 55.1682 90.2718C91.1996 69.0145 177.291 77.5616 226.66 85.2976C235.222 86.7902 243.77 88.4246 252.255 90.2256C255.328 90.9 258.474 91.5983 261.355 92.3888L270.555 94.9911L288.96 100.23L307.327 105.562L325.618 111.08C374.267 126.018 422.276 142.974 467.546 165.547C490.203 176.752 512.235 189.152 533.644 202.519C554.988 216.035 575.635 230.617 595.878 245.766L596.016 245.868C596.016 245.868 596.154 245.969 596.232 246.027C600.61 249.109 606.656 248.044 609.736 243.65C612.82 239.274 611.755 233.231 607.36 230.152L607.338 230.12Z" fill="#D1D3D4"/>
<path d="M342.971 508.439H342.954C334.478 500.451 325.484 492.394 315.8 485.284C306.116 478.174 295.966 471.855 285.608 466.226C275.251 460.562 264.721 455.449 254.088 450.663C251.446 449.423 248.771 448.27 246.095 447.116C243.419 445.963 240.796 444.758 238.051 443.639C232.613 441.332 227.089 439.283 221.531 437.372C210.397 433.55 199.038 430.469 187.542 428.162C183.209 427.301 178.841 426.544 174.457 425.924C150.98 421.74 128.159 421.603 111.519 428.437C100.488 432.965 93.0999 440.178 89.5611 449.854C82.38 469.514 91.3564 491.378 103.423 509.506C108.584 518.304 114.626 526.584 121.099 534.452C126.036 540.374 131.267 546.124 136.963 551.496C142.522 556.781 148.235 561.928 154.156 566.904C160.095 571.862 166.24 576.648 172.765 581.107C179.29 585.566 186.126 589.749 193.946 593.175H193.963C194.274 593.33 194.619 593.45 194.947 593.554C200.057 595.155 205.494 592.314 207.1 587.218C208.705 582.122 205.857 576.699 200.747 575.098C194.464 573.136 187.939 570.106 181.603 566.697C175.251 563.288 169.002 559.415 162.874 555.317C156.746 551.22 150.721 546.865 144.818 542.337C139 537.947 133.493 533.058 128.194 527.91C121.03 520.92 114.281 513.432 108.342 505.34C96.9839 487.901 89.6129 468.395 95.5856 452.057C98.4684 444.138 104.648 438.199 113.935 434.377C128.211 428.523 149.461 427.99 173.179 432.121C177.426 433.017 181.655 434.05 185.833 435.186C196.811 438.199 207.583 441.952 218.044 446.376C223.274 448.58 228.436 450.938 233.476 453.486C235.997 454.709 238.551 456.103 241.089 457.429C243.627 458.754 246.181 460.08 248.684 461.457C258.766 466.88 268.657 472.561 278.186 478.673C287.732 484.75 296.794 491.344 305.253 498.505C313.711 505.684 321.428 513.621 329.213 522.022C329.351 522.177 329.523 522.349 329.679 522.504C333.58 526.171 339.708 525.982 343.368 522.091C347.027 518.2 346.855 512.089 342.954 508.439H342.971Z" fill="#CD242B"/>
<path d="M478.829 473.75C478.622 469.075 478.052 464.469 477.43 459.846C477.274 458.686 476.894 457.491 476.307 456.4C473.698 451.604 467.704 449.855 462.919 452.47C458.134 455.084 456.389 461.093 458.997 465.889V465.924C461.001 469.56 462.988 473.248 464.664 477.04C466.357 480.832 467.877 484.711 469.103 488.694C469.915 491.343 470.554 494.044 471.038 496.797C470.917 502.719 469.915 508 468.049 512.589C463.99 522.545 454.558 532 434.778 536.623C426.002 538.129 416.967 538.406 408.002 538.043C396.065 537.627 384.128 536.121 372.26 534.147C360.392 532.138 348.593 529.593 336.881 526.718C325.134 523.844 313.525 520.589 301.83 517.178C290.324 513.766 278.94 510.009 267.729 505.715C256.517 501.455 245.444 496.832 234.595 491.724C229.154 489.196 223.764 486.581 218.322 483.845L210.099 479.759L202.084 475.655C191.391 470.149 180.887 464.244 170.522 458.08C160.123 451.967 149.948 445.457 139.859 438.825C119.734 425.457 100.23 411.138 81.6598 395.709C63.1583 380.229 45.4515 363.693 30.3186 345.027C24.1169 337.408 18.4679 329.339 13.821 320.733C7.10099 306.24 4.63067 292.648 7.77472 280.735C9.65769 273.601 13.1127 267.835 17.5178 263.177C20.3855 260.978 23.4777 259.142 26.7081 257.688C28.6084 256.839 30.5777 256.112 32.547 255.471C32.4952 256.199 32.4434 256.926 32.4434 257.67C32.4434 272.96 44.795 285.341 60.0488 285.341C75.3026 285.341 87.6543 272.96 87.6543 257.67C87.6543 242.381 75.3026 230 60.0488 230C52.9143 230 46.4361 232.736 41.5473 237.186C39.8889 237.913 38.2478 238.675 36.6412 239.489C31.1996 242.26 25.9998 245.567 21.4047 249.567C18.2088 252.337 15.3066 255.454 12.8708 258.848C7.42922 264.579 3.59417 271.367 1.55572 279.055C-2.27933 293.583 1.1584 309.98 9.86499 327.244C13.4409 335.4 17.8979 343.14 22.6658 350.585C36.4685 371.572 53.5362 390.013 71.6058 407.103C89.7791 424.124 109.231 439.673 129.529 453.993C149.861 468.279 171.058 481.352 193.17 492.901C195.934 494.338 198.732 495.741 201.531 497.126L209.788 501.161C215.316 503.879 220.965 506.598 226.649 509.178C238.068 514.251 249.659 518.961 261.475 523.048C273.291 527.117 285.263 530.788 297.407 533.731C303.367 535.203 309.396 536.657 315.442 537.991C321.506 539.307 327.587 540.536 333.685 541.679C345.898 543.93 358.215 545.714 370.636 546.839C383.057 547.93 395.581 548.397 408.14 547.601C414.411 547.168 420.681 546.441 426.883 545.229C429.457 544.727 432.014 544.12 434.553 543.445C454.834 539.151 468.05 529.714 474.027 515.082C476.186 509.801 477.309 503.793 477.464 497.092C478.086 494.027 478.501 490.91 478.743 487.776C479.088 483.135 479.054 478.46 478.829 473.802V473.75Z" fill="#0095DA"/>
</g>
</svg>
