<svg width="335" height="221" viewBox="0 0 335 221" fill="none" xmlns="http://www.w3.org/2000/svg">
<path d="M331.082 110.421H331.059C320.096 100.097 308.464 89.6841 295.938 80.495C283.412 71.306 270.283 63.1403 256.887 55.8647C243.49 48.5446 229.871 41.9365 216.117 35.7511C212.701 34.1491 209.24 32.6584 205.779 31.1677C202.318 29.6769 198.924 28.1194 195.374 26.6732C188.341 23.6918 181.196 21.0441 174.007 18.5744C159.606 13.635 144.914 9.65226 130.044 6.67081C124.44 5.55833 118.791 4.57934 113.119 3.77835C82.7539 -1.6283 53.2368 -1.80628 31.713 7.02681C17.4457 12.8785 7.88946 22.2011 3.3123 34.7053C-5.97598 60.1144 5.63438 88.3714 21.2414 111.8C27.9173 123.17 35.732 133.872 44.1048 144.04C50.4905 151.694 57.2558 159.125 64.6239 166.067C71.8134 172.898 79.2038 179.55 86.8622 185.98C94.5429 192.388 102.492 198.574 110.931 204.336C119.371 210.099 128.213 215.506 138.327 219.933H138.35C138.752 220.134 139.198 220.289 139.622 220.423C146.231 222.492 153.265 218.821 155.341 212.235C157.417 205.649 153.733 198.64 147.124 196.571C138.997 194.035 130.557 190.119 122.363 185.713C114.147 181.308 106.064 176.302 98.1377 171.006C90.2114 165.711 82.419 160.082 74.783 154.23C67.2586 148.557 60.1361 142.238 53.2815 135.585C44.0155 126.552 35.2854 116.873 27.6047 106.416C12.9132 83.877 3.37929 58.6682 11.1046 37.5533C14.8333 27.3185 22.8266 19.6423 34.8389 14.7029C53.3038 7.13805 80.7891 6.44832 111.467 11.7882C116.96 12.9452 122.43 14.2802 127.833 15.7487C142.034 19.6423 155.966 24.4928 169.497 30.2109C176.262 33.0589 182.938 36.1071 189.458 39.4C192.717 40.9797 196.022 42.7819 199.304 44.4952C202.586 46.2084 205.891 47.9216 209.128 49.7016C222.168 56.7102 234.961 64.0526 247.286 71.9512C259.633 79.8053 271.355 88.3269 282.296 97.5827C293.236 106.861 303.217 117.118 313.286 127.976C313.465 128.176 313.688 128.398 313.889 128.599C318.935 133.338 326.862 133.093 331.595 128.065C336.329 123.036 336.105 115.138 331.059 110.421H331.082Z" fill="#CD242B"/>
</svg>
