<svg width="472" height="202" viewBox="0 0 472 202" fill="none" xmlns="http://www.w3.org/2000/svg">
<path d="M464.766 100.476C463.339 96.4954 461.616 92.6714 459.844 88.8464C459.4 87.8864 458.753 86.9565 457.954 86.1717C454.42 82.728 448.774 82.82 445.338 86.3559C441.902 89.8918 441.999 95.5452 445.534 98.9889L445.543 99.0188C448.245 101.622 450.946 104.276 453.406 107.102C455.882 109.923 458.231 112.865 460.354 115.976C461.763 118.046 463.036 120.207 464.189 122.455C465.666 127.599 466.21 132.426 465.824 136.886C464.975 146.566 459.351 157.249 443.497 166.526C436.317 170.171 428.586 172.824 420.743 174.906C410.319 177.737 399.604 179.627 388.824 181.094C378.034 182.531 367.161 183.487 356.275 184.135C345.358 184.792 334.46 185.084 323.445 185.265C312.594 185.394 301.756 185.192 290.923 184.481C280.1 183.8 269.299 182.767 258.562 181.256C253.186 180.528 247.831 179.711 242.399 178.803L234.204 177.473L226.183 176.072C215.475 174.176 204.824 171.885 194.223 169.333C183.606 166.835 173.077 163.933 162.591 160.904C141.634 154.741 120.961 147.591 100.797 139.234C80.6793 130.814 60.9661 121.27 42.9079 109.199C35.5156 104.279 28.4807 98.8223 22.1681 92.6347C12.4925 81.9184 6.72872 70.8439 6.26395 59.7192C5.9858 53.0573 7.43105 47.1562 9.99306 41.9579C11.8833 39.2931 14.0647 36.8823 16.4672 34.7634C17.8824 33.5231 19.3896 32.369 20.9199 31.2897C21.0693 31.9314 21.2188 32.5731 21.4176 33.2159C25.5002 46.4154 39.4772 53.803 52.6555 49.7269C65.8339 45.6508 73.1991 31.6621 69.1164 18.4625C65.0338 5.26297 51.0569 -2.12465 37.8785 1.95145C31.7147 3.85794 26.8485 7.95087 23.8131 13.099C22.5745 14.17 21.3601 15.2663 20.1895 16.3982C16.228 20.244 12.6188 24.4887 9.71693 29.1697C7.69566 32.4155 6.02059 35.8817 4.82245 39.4625C1.65163 45.8646 0.150832 52.7492 0.442615 59.931C1.00857 73.4976 8.35711 86.7353 20.4888 99.3124C25.7559 105.398 31.6732 110.889 37.7805 116.042C55.3091 130.472 74.9787 141.831 95.1532 151.757C115.399 161.595 136.356 169.821 157.716 176.759C179.097 183.659 200.9 189.281 223.087 193.343C225.859 193.845 228.651 194.308 231.439 194.756L239.65 196.032C245.152 196.902 250.758 197.739 256.357 198.448C267.577 199.777 278.849 200.745 290.149 201.115C301.444 201.471 312.767 201.441 324.045 200.737C329.587 200.415 335.184 200.06 340.763 199.595C346.353 199.111 351.935 198.547 357.508 197.904C368.661 196.584 379.779 194.832 390.81 192.485C401.832 190.108 412.777 187.165 423.414 183.121C428.716 181.072 433.94 178.768 438.974 176.065C441.064 174.943 443.111 173.737 445.124 172.475C461.499 163.349 470.397 151.67 471.654 137.442C472.109 132.305 471.475 126.818 469.82 120.991C469.539 118.179 469.064 115.378 468.437 112.608C467.496 108.509 466.218 104.482 464.78 100.521L464.766 100.476Z" fill="#0095DA"/>
</svg>
