<svg width="380" height="278" viewBox="0 0 380 278" fill="none" xmlns="http://www.w3.org/2000/svg">
<path d="M291.077 119.764C281.442 110.604 271.549 101.703 261.21 93.318C250.827 84.9958 240.06 77.1459 228.911 69.8929C226.103 68.1198 223.331 66.2843 220.488 64.5646L211.932 59.459L203.242 54.594C200.345 52.9812 197.386 51.4932 194.463 49.9339C182.689 43.8393 170.702 38.2526 158.625 32.9242L149.543 28.977L140.434 25.1278L131.307 21.332L126.744 19.443C125.122 18.7837 123.58 18.2579 122.003 17.7055C118.625 16.565 115.238 15.4779 111.842 14.4354C87.4301 6.52313 40.9057 -5.78194 18.9715 3.07486C13.6417 5.22223 9.97859 8.53685 8.03562 12.894C7.96432 12.992 7.90193 13.0989 7.84845 13.2236C4.63988 20.8865 10.9412 31.8996 17.9733 40.9346C20.6828 44.864 23.6507 48.6241 26.7434 52.2595C31.4939 57.7839 36.5563 63.0498 41.8861 68.0396C47.207 73.0472 52.7953 77.7874 58.6509 82.2693C58.8025 82.3851 58.9629 82.492 59.1322 82.599C61.5119 84.0157 64.5779 83.2405 65.995 80.8615C67.4122 78.4824 66.6367 75.4173 64.257 74.0006C58.2499 70.4186 52.3764 66.507 46.7079 62.3014C41.0305 58.1046 35.5581 53.5961 30.3531 48.8112C27.1178 45.7907 23.9626 42.6543 21.0304 39.3396C13.0446 29.2354 8.71299 20.138 10.8877 14.6493C10.9055 14.6047 10.9323 14.5691 10.959 14.5245C12.5009 10.8446 15.6203 8.02896 20.2282 6.17563C40.2284 -1.90598 83.4729 9.04473 108.054 16.7699C112.306 18.1867 116.539 19.6747 120.728 21.2429C122.243 21.8221 123.794 22.419 125.202 23.0428L129.694 25.0743L138.678 29.1552L147.636 33.2807L156.539 37.4952C180.203 48.838 203.385 61.1609 224.739 76.139C235.435 83.588 245.72 91.5983 255.613 100.054C265.462 108.581 274.873 117.598 284.036 126.874L284.098 126.936C284.098 126.936 284.161 126.999 284.196 127.034C286.193 128.941 289.357 128.861 291.264 126.856C293.171 124.86 293.091 121.697 291.086 119.79L291.077 119.764Z" fill="#D1D3D4"/>
<path d="M158.295 234.084H158.286C153.913 230.004 149.272 225.888 144.274 222.255C139.277 218.623 134.039 215.395 128.695 212.52C123.35 209.626 117.916 207.014 112.429 204.569C111.066 203.936 109.685 203.347 108.305 202.757C106.924 202.168 105.57 201.552 104.154 200.981C101.348 199.802 98.4971 198.756 95.6287 197.78C89.8832 195.827 84.0218 194.253 78.0892 193.074C75.8534 192.635 73.5997 192.248 71.3371 191.931C59.2225 189.794 47.4463 189.724 38.8591 193.215C33.167 195.528 29.3545 199.213 27.5284 204.156C23.8227 214.199 28.4548 225.369 34.6814 234.63C37.3448 239.124 40.4626 243.354 43.803 247.373C46.3506 250.399 49.0497 253.336 51.9893 256.08C54.8576 258.78 57.8061 261.41 60.8615 263.951C63.9258 266.484 67.097 268.929 70.4641 271.207C73.8313 273.485 77.3588 275.622 81.394 277.372H81.4029C81.5633 277.451 81.7414 277.513 81.9107 277.566C84.5474 278.384 87.3534 276.932 88.1818 274.329C89.0102 271.726 87.5404 268.956 84.9037 268.138C81.6613 267.135 78.2941 265.587 75.0249 263.846C71.7469 262.104 68.5222 260.126 65.3599 258.033C62.1977 255.939 59.0888 253.714 56.0424 251.401C53.0404 249.159 50.1988 246.661 47.4641 244.031C43.7674 240.461 40.2844 236.635 37.2201 232.501C31.3588 223.592 27.5551 213.628 30.6372 205.281C32.1248 201.236 35.3138 198.202 40.1062 196.249C47.473 193.259 58.4386 192.986 70.6779 195.097C72.8692 195.554 75.0428 196.082 77.2074 196.663C82.8727 198.202 88.4312 200.119 93.8294 202.379C96.5284 203.505 99.1919 204.71 101.793 206.011C103.094 206.636 104.412 207.348 105.721 208.025C107.031 208.703 108.349 209.38 109.641 210.083C114.843 212.854 119.947 215.756 124.864 218.878C129.79 221.983 134.467 225.351 138.832 229.01C143.197 232.677 147.178 236.732 151.196 241.023C151.267 241.103 151.356 241.191 151.436 241.27C153.449 243.143 156.612 243.046 158.5 241.059C160.398 239.071 160.3 235.949 158.286 234.084H158.295Z" fill="#CD242B"/>
<path d="M247.13 216.937C247.023 214.535 246.729 212.169 246.408 209.794C246.328 209.198 246.132 208.585 245.828 208.024C244.482 205.56 241.388 204.662 238.919 206.005C236.449 207.348 235.548 210.435 236.895 212.899V212.916C237.929 214.784 238.954 216.679 239.819 218.627C240.693 220.575 241.486 222.567 242.111 224.613C242.53 225.974 242.859 227.362 243.109 228.776C243.047 231.818 242.53 234.531 241.567 236.888C239.471 242.003 234.603 246.859 224.395 249.234C219.865 250.008 215.202 250.151 210.575 249.964C204.414 249.75 198.253 248.976 192.128 247.962C186.003 246.931 179.922 245.623 173.869 244.147C167.806 242.67 161.814 240.998 155.778 239.245C149.84 237.493 143.965 235.563 138.178 233.357C132.392 231.169 126.677 228.794 121.078 226.17C118.269 224.871 115.488 223.528 112.679 222.123L108.435 220.023L104.298 217.915C98.7792 215.087 93.3584 212.054 88.0088 208.887C82.6415 205.747 77.3901 202.403 72.1832 198.996C61.7962 192.129 51.7302 184.773 42.1457 176.847C32.5968 168.895 23.4581 160.401 15.6478 150.812C12.447 146.898 9.53149 142.753 7.13312 138.332C3.66486 130.887 2.38989 123.905 4.01257 117.785C4.9844 114.12 6.76757 111.158 9.04112 108.765C10.5211 107.636 12.1171 106.693 13.7844 105.946C14.7651 105.51 15.7815 105.136 16.7979 104.807C16.7712 105.181 16.7444 105.554 16.7444 105.937C16.7444 113.791 23.1193 120.151 30.992 120.151C38.8647 120.151 45.2395 113.791 45.2395 105.937C45.2395 98.0825 38.8647 91.7227 30.992 91.7227C27.3097 91.7227 23.9663 93.1281 21.4431 95.4141C20.5872 95.7876 19.7401 96.179 18.911 96.5971C16.1025 98.0203 13.4188 99.7192 11.0472 101.774C9.39775 103.197 7.89989 104.798 6.64275 106.542C3.83426 109.486 1.85494 112.973 0.802866 116.922C-1.17645 124.385 0.597801 132.808 5.09139 141.677C6.93697 145.866 9.23726 149.842 11.698 153.667C18.8218 164.448 27.6307 173.921 36.9567 182.7C46.3361 191.444 56.3754 199.432 66.8515 206.788C77.3455 214.126 88.2852 220.842 99.6975 226.775C101.124 227.513 102.568 228.233 104.013 228.945L108.275 231.018C111.128 232.414 114.043 233.811 116.976 235.136C122.87 237.742 128.852 240.162 134.951 242.261C141.049 244.351 147.228 246.237 153.496 247.749C156.572 248.505 159.683 249.252 162.804 249.937C165.933 250.613 169.072 251.245 172.219 251.832C178.523 252.988 184.88 253.904 191.29 254.482C197.701 255.043 204.165 255.283 210.646 254.874C213.883 254.651 217.119 254.278 220.32 253.655C221.649 253.397 222.968 253.086 224.279 252.739C234.746 250.533 241.567 245.685 244.652 238.169C245.766 235.456 246.346 232.37 246.426 228.927C246.747 227.353 246.961 225.752 247.086 224.142C247.264 221.758 247.246 219.356 247.13 216.964V216.937Z" fill="#0095DA"/>
<path d="M79.571 132.299V112.594H90.0916C94.7061 112.594 97.1826 115.667 97.1826 119.364C97.1826 123.061 94.6972 125.983 90.0916 125.983H85.5395V132.308H79.571V132.299ZM89.3255 117.556H85.5395V121.012H89.3255C90.3322 121.012 91.125 120.335 91.125 119.302C91.125 118.268 90.3232 117.556 89.3255 117.556Z" fill="#012B6B"/>
<path d="M109.707 112.266C115.792 112.266 120.495 116.399 120.495 122.457C120.495 128.514 115.801 132.648 109.707 132.648C103.614 132.648 98.9196 128.514 98.9196 122.457C98.9196 116.399 103.614 112.266 109.707 112.266ZM109.707 117.521C106.839 117.521 104.977 119.704 104.977 122.457C104.977 125.209 106.839 127.392 109.707 127.392C112.576 127.392 114.438 125.209 114.438 122.457C114.438 119.704 112.576 117.521 109.707 117.521Z" fill="#012B6B"/>
<path d="M122.419 122.464C122.419 116.38 127.087 112.273 133.118 112.273C138.436 112.273 141.038 115.284 142.222 118.01L137.082 120.407C136.583 118.866 135.042 117.538 133.127 117.538C130.41 117.538 128.486 119.721 128.486 122.473C128.486 125.226 130.41 127.408 133.127 127.408C135.051 127.408 136.583 126.081 137.082 124.54L142.222 126.901C141.073 129.529 138.436 132.664 133.118 132.664C127.087 132.664 122.419 128.531 122.419 122.473V122.464Z" fill="#012B6B"/>
<path d="M143.87 122.464C143.87 116.38 148.538 112.273 154.569 112.273C159.887 112.273 162.489 115.284 163.673 118.01L158.533 120.407C158.034 118.866 156.493 117.538 154.578 117.538C151.861 117.538 149.937 119.721 149.937 122.473C149.937 125.226 151.861 127.408 154.578 127.408C156.502 127.408 158.034 126.081 158.533 124.54L163.673 126.901C162.524 129.529 159.887 132.664 154.569 132.664C148.538 132.664 143.87 128.531 143.87 122.473V122.464Z" fill="#012B6B"/>
<path d="M166.39 112.594H172.359V123.702L179.218 112.594H185.365V132.299H179.396V120.54L172.127 132.299H166.39V112.594Z" fill="#012B6B"/>
<path d="M188.607 132.3L192.18 125.325C190.612 124.559 188.634 122.75 188.634 119.356C188.634 115.659 191.12 112.586 195.725 112.586H206.246V132.291H200.277V126.082H198.121L195.404 132.291H188.607V132.3ZM200.277 120.897V117.797H196.643C195.636 117.797 194.692 118.269 194.692 119.338C194.692 120.407 195.636 120.906 196.643 120.906H200.277V120.897Z" fill="#012B6B"/>
<path d="M212.873 117.824C214.584 117.824 216.036 119.276 216.036 120.987C216.036 122.697 214.584 124.149 212.873 124.149C211.163 124.149 209.711 122.697 209.711 120.987C209.711 119.276 211.154 117.824 212.873 117.824ZM212.873 126.332C214.584 126.332 216.036 127.784 216.036 129.494C216.036 131.204 214.584 132.656 212.873 132.656C211.163 132.656 209.711 131.204 209.711 129.494C209.711 127.784 211.154 126.332 212.873 126.332Z" fill="#012B6B"/>
<path d="M79.571 157.385V137.68H94.519V142.642H85.5395V144.949H94.3141V149.911H85.5395V152.423H94.519V157.385H79.571Z" fill="#012B6B"/>
<path d="M96.8263 152.182H98.3941C99.1602 151.532 100.167 149.581 100.79 142.642L101.236 137.68H116.246V152.191H118.553V161.028H113.351V157.394H102.038V161.028H96.8352V152.191L96.8263 152.182ZM105.841 144.824C105.458 148.957 104.897 151.211 104.389 152.182H110.269V142.873H106.011L105.832 144.824H105.841Z" fill="#012B6B"/>
<path d="M121.386 137.672H127.355V148.78L134.214 137.672H140.361V157.377H134.392V145.618L127.123 157.377H121.386V137.672Z" fill="#012B6B"/>
<path d="M157.438 157.385V149.848H150.373V157.385H144.405V137.68H150.373V144.655H157.438V137.68H163.406V157.385H157.438Z" fill="#012B6B"/>
<path d="M166.39 147.543C166.39 141.458 171.058 137.352 177.089 137.352C182.407 137.352 185.009 140.363 186.193 143.088L181.053 145.485C180.554 143.944 179.013 142.616 177.098 142.616C174.381 142.616 172.457 144.799 172.457 147.551C172.457 150.304 174.381 152.487 177.098 152.487C179.022 152.487 180.554 151.159 181.053 149.618L186.193 151.979C185.044 154.607 182.407 157.742 177.089 157.742C171.058 157.742 166.39 153.609 166.39 147.551V147.543Z" fill="#012B6B"/>
<path d="M193.133 157.386V142.874H187.841V137.672H204.357V142.874H199.101V157.386H193.133Z" fill="#012B6B"/>
<path d="M207.341 157.385V137.68H219.305C223.385 137.68 225.158 140.397 225.158 142.704C225.158 145.154 223.706 146.811 221.791 147.229C223.92 147.55 225.541 149.501 225.541 152.049C225.541 154.801 223.679 157.394 219.724 157.394H207.341V157.385ZM213.31 145.002H217.915C218.539 145.002 219.1 144.441 219.1 143.728C219.1 143.016 218.539 142.517 217.915 142.517H213.31V145.002ZM213.31 152.539H218.094C218.949 152.539 219.483 151.951 219.483 151.211C219.483 150.472 218.949 149.848 218.094 149.848H213.31V152.539Z" fill="#012B6B"/>
<path d="M238.52 137.352C244.604 137.352 249.308 141.485 249.308 147.543C249.308 153.6 244.613 157.734 238.52 157.734C232.427 157.734 227.732 153.6 227.732 147.543C227.732 141.485 232.427 137.352 238.52 137.352ZM238.52 142.607C235.651 142.607 233.79 144.79 233.79 147.543C233.79 150.295 235.651 152.478 238.52 152.478C241.388 152.478 243.25 150.295 243.25 147.543C243.25 144.79 241.388 142.607 238.52 142.607Z" fill="#012B6B"/>
<path d="M79.571 162.758H85.5395V173.866L92.3989 162.758H98.5455V182.463H92.577V170.704L85.3079 182.463H79.571V162.758Z" fill="#012B6B"/>
<path d="M128.415 182.471V170.026L124.014 182.471H121.35L116.95 170.026V182.471H110.981V162.766H119.221L122.678 172.814L126.134 162.766H134.374V182.471H128.406H128.415Z" fill="#012B6B"/>
<path d="M151.469 182.471V174.934H144.405V182.471H138.437V162.766H144.405V169.741H151.469V162.766H157.438V182.471H151.469Z" fill="#012B6B"/>
<path d="M171.201 162.438C177.285 162.438 181.989 166.571 181.989 172.628C181.989 178.686 177.294 182.819 171.201 182.819C165.108 182.819 160.413 178.686 160.413 172.628C160.413 166.571 165.108 162.438 171.201 162.438ZM171.201 167.693C168.332 167.693 166.471 169.876 166.471 172.628C166.471 175.381 168.332 177.564 171.201 177.564C174.069 177.564 175.931 175.381 175.931 172.628C175.931 169.876 174.069 167.693 171.201 167.693Z" fill="#012B6B"/>
<path d="M184.973 182.471V162.766H199.921V167.968H190.941V182.479H184.973V182.471Z" fill="#012B6B"/>
<path d="M213.052 162.438C219.136 162.438 223.839 166.571 223.839 172.628C223.839 178.686 219.145 182.819 213.052 182.819C206.958 182.819 202.264 178.686 202.264 172.628C202.264 166.571 206.958 162.438 213.052 162.438ZM213.052 167.693C210.183 167.693 208.321 169.876 208.321 172.628C208.321 175.381 210.183 177.564 213.052 177.564C215.92 177.564 217.782 175.381 217.782 172.628C217.782 169.876 215.92 167.693 213.052 167.693Z" fill="#012B6B"/>
<path d="M236.542 162.438C242.627 162.438 247.33 166.571 247.33 172.628C247.33 178.686 242.636 182.819 236.542 182.819C230.449 182.819 225.755 178.686 225.755 172.628C225.755 166.571 230.449 162.438 236.542 162.438ZM236.542 167.693C233.674 167.693 231.812 169.876 231.812 172.628C231.812 175.381 233.674 177.564 236.542 177.564C239.411 177.564 241.273 175.381 241.273 172.628C241.273 169.876 239.411 167.693 236.542 167.693Z" fill="#012B6B"/>
<path d="M266.741 162.758V167.72H256.283V169.644H261.129C265.565 169.644 267.926 172.539 267.926 176.058C267.926 179.576 265.565 182.472 261.129 182.472H250.315V162.767H266.741V162.758ZM256.283 174.606V177.501H260.39C261.218 177.501 261.869 176.913 261.869 176.058C261.869 175.203 261.218 174.606 260.39 174.606H256.283Z" fill="#012B6B"/>
<path d="M270.732 182.471V162.766H281.253C285.867 162.766 288.344 165.839 288.344 169.536C288.344 173.233 285.858 176.155 281.253 176.155H276.701V182.479H270.732V182.471ZM280.487 167.727H276.701V171.184H280.487C281.493 171.184 282.286 170.507 282.286 169.473C282.286 168.44 281.485 167.727 280.487 167.727Z" fill="#012B6B"/>
<path d="M304.601 182.471L303.835 179.932H296.272L295.506 182.471H289.039L296.308 162.766H303.817L311.086 182.471H304.619H304.601ZM300.049 168.021L297.804 174.97H302.294L300.049 168.021Z" fill="#012B6B"/>
<path d="M314.676 175.905C316.217 177.232 318.81 177.793 320.324 177.793C322.426 177.793 323.486 177.116 323.486 176.341C323.486 175.566 322.925 175.04 320.146 175.04H316.396V170.079H320.146C322.631 170.079 323.157 169.491 323.157 168.867C323.157 167.949 321.794 167.477 319.932 167.477C318.248 167.477 316.182 168.128 314.819 169.25L312.013 165.705C313.759 163.78 316.743 162.453 320.582 162.453C326.016 162.453 329.09 164.671 329.09 167.923C329.09 170.025 327.255 171.878 324.743 172.297C326.925 172.537 329.41 174.185 329.41 176.902C329.41 180.421 325.66 182.808 320.547 182.808C316.645 182.808 313.393 181.508 311.737 179.735L314.658 175.896L314.676 175.905Z" fill="#012B6B"/>
<path d="M332.671 162.758H338.639V173.866L345.499 162.758H351.645V182.463H345.677V170.704L338.408 182.463H332.671V162.758Z" fill="#012B6B"/>
<path d="M355.69 182.471V162.766H370.638V167.727H361.658V170.035H370.433V174.997H361.658V177.509H370.638V182.471H355.69Z" fill="#012B6B"/>
<path d="M78.7603 78.751V71.375H82.3859C83.731 71.375 84.4882 72.2124 84.4882 73.2546C84.4882 74.1811 83.8914 74.8047 83.2054 74.9472C83.9894 75.0719 84.6308 75.8558 84.6308 76.7645C84.6308 77.9047 83.8647 78.751 82.4839 78.751H78.7603ZM80.0519 74.4305H82.1186C82.7778 74.4305 83.1609 74.0296 83.1609 73.4773C83.1609 72.925 82.7868 72.5152 82.1186 72.5152H80.0519V74.4305ZM80.0519 77.6107H82.1721C82.8758 77.6107 83.3034 77.2277 83.3034 76.5863C83.3034 76.034 82.9204 75.5708 82.1721 75.5708H80.0519V77.6197V77.6107Z" fill="#012B6B"/>
<path d="M88.3188 73.2734C89.3611 73.2734 89.9846 73.7188 90.3677 74.2266L89.6016 74.9304C89.3076 74.5117 88.8978 74.2979 88.3722 74.2979C87.4013 74.2979 86.7599 75.0284 86.7599 76.0706C86.7599 77.1129 87.4013 77.8523 88.3722 77.8523C88.8889 77.8523 89.2987 77.6295 89.6016 77.2198L90.3677 77.9235C89.9935 78.4313 89.3611 78.8767 88.3188 78.8767C86.6975 78.8767 85.5573 77.6919 85.5573 76.0706C85.5573 74.4493 86.6975 73.2734 88.3188 73.2734Z" fill="#012B6B"/>
<path d="M93.7528 73.2734C95.3562 73.2734 96.3807 74.5028 96.3807 76.1775V76.4537H92.2562C92.3453 77.2643 92.951 77.9235 93.9577 77.9235C94.4743 77.9235 95.0979 77.7097 95.472 77.3356L96.0065 78.1017C95.4721 78.6094 94.6881 78.8767 93.8419 78.8767C92.2384 78.8767 91.0447 77.7632 91.0447 76.0706C91.0447 74.5206 92.176 73.2734 93.7528 73.2734ZM92.2473 75.643H95.2493C95.2226 75.0105 94.795 74.2266 93.7439 74.2266C92.7461 74.2266 92.2918 74.9927 92.2384 75.643H92.2473Z" fill="#012B6B"/>
<path d="M98.6877 80.7831H97.5297V73.4071H98.6877V74.1375C99.0886 73.603 99.7033 73.2734 100.398 73.2734C101.779 73.2734 102.768 74.3157 102.768 76.0706C102.768 77.8255 101.788 78.8767 100.398 78.8767C99.7211 78.8767 99.1153 78.5738 98.6877 78.0037V80.7741V80.7831ZM100.06 74.3068C99.5162 74.3068 98.9461 74.6275 98.6877 75.0283V77.1396C98.9461 77.5226 99.5162 77.8612 100.06 77.8612C100.977 77.8612 101.565 77.1218 101.565 76.0795C101.565 75.0373 100.977 74.3068 100.06 74.3068Z" fill="#012B6B"/>
<path d="M103.605 76.0706C103.605 74.5473 104.656 73.2734 106.349 73.2734C108.041 73.2734 109.101 74.5473 109.101 76.0706C109.101 77.5939 108.059 78.8767 106.349 78.8767C104.638 78.8767 103.605 77.6028 103.605 76.0706ZM107.89 76.0706C107.89 75.1353 107.338 74.2979 106.34 74.2979C105.342 74.2979 104.808 75.1263 104.808 76.0706C104.808 77.0149 105.36 77.8523 106.34 77.8523C107.32 77.8523 107.89 77.0238 107.89 76.0706Z" fill="#012B6B"/>
<path d="M112.7 73.2734C113.743 73.2734 114.366 73.7188 114.749 74.2266L113.983 74.9304C113.689 74.5117 113.279 74.2979 112.754 74.2979C111.783 74.2979 111.141 75.0284 111.141 76.0706C111.141 77.1129 111.783 77.8523 112.754 77.8523C113.271 77.8523 113.68 77.6295 113.983 77.2198L114.749 77.9235C114.375 78.4313 113.743 78.8767 112.7 78.8767C111.079 78.8767 109.939 77.6919 109.939 76.0706C109.939 74.4493 111.079 73.2734 112.7 73.2734Z" fill="#012B6B"/>
<path d="M118.197 73.2734C119.239 73.2734 119.863 73.7188 120.246 74.2266L119.48 74.9304C119.186 74.5117 118.776 74.2979 118.25 74.2979C117.279 74.2979 116.638 75.0284 116.638 76.0706C116.638 77.1129 117.279 77.8523 118.25 77.8523C118.767 77.8523 119.177 77.6295 119.48 77.2198L120.246 77.9235C119.872 78.4313 119.239 78.8767 118.197 78.8767C116.576 78.8767 115.435 77.6919 115.435 76.0706C115.435 74.4493 116.576 73.2734 118.197 73.2734Z" fill="#012B6B"/>
<path d="M121.252 78.7501V73.4141H122.41V77.0041L124.869 73.4141H126.027V78.7501H124.869V75.0621L122.375 78.7501H121.261H121.252Z" fill="#012B6B"/>
<path d="M127.533 78.7515V73.4155H128.691V77.0055L131.149 73.4155H132.308V78.7515H131.149V75.0635L128.655 78.7515H127.542H127.533ZM127.978 71.6517L128.62 71.1172C128.931 71.5359 129.368 71.8031 129.92 71.8031C130.472 71.8031 130.918 71.5359 131.212 71.1172L131.853 71.6517C131.408 72.2485 130.713 72.6227 129.92 72.6227C129.127 72.6227 128.424 72.2485 127.978 71.6517Z" fill="#012B6B"/>
<path d="M136.236 73.2734C137.278 73.2734 137.902 73.7188 138.285 74.2266L137.519 74.9304C137.225 74.5117 136.815 74.2979 136.289 74.2979C135.318 74.2979 134.677 75.0284 134.677 76.0706C134.677 77.1129 135.318 77.8523 136.289 77.8523C136.806 77.8523 137.216 77.6295 137.519 77.2198L138.285 77.9235C137.911 78.4313 137.278 78.8767 136.236 78.8767C134.615 78.8767 133.474 77.6919 133.474 76.0706C133.474 74.4493 134.615 73.2734 136.236 73.2734Z" fill="#012B6B"/>
<path d="M142.837 78.7501L141.198 76.5498L140.458 77.3159V78.7501H139.3V73.4141H140.458V75.9885L142.81 73.4141H144.244L142.026 75.8371L144.289 78.759H142.828L142.837 78.7501Z" fill="#012B6B"/>
<path d="M148.369 78.752V78.1819C147.968 78.6362 147.353 78.8856 146.641 78.8856C145.768 78.8856 144.788 78.2977 144.788 77.1129C144.788 75.9281 145.768 75.3758 146.641 75.3758C147.362 75.3758 147.977 75.6074 148.369 76.0617V75.2689C148.369 74.6542 147.861 74.2712 147.122 74.2712C146.525 74.2712 146.008 74.4939 145.545 74.9482L145.073 74.1375C145.687 73.5496 146.462 73.2734 147.318 73.2734C148.502 73.2734 149.536 73.7723 149.536 75.2065V78.7431H148.378L148.369 78.752ZM148.369 76.7298C148.102 76.3646 147.603 76.1775 147.095 76.1775C146.445 76.1775 145.955 76.5517 145.955 77.1396C145.955 77.7275 146.445 78.0928 147.095 78.0928C147.603 78.0928 148.102 77.9057 148.369 77.5405V76.7298Z" fill="#012B6B"/>
<path d="M150.845 78.7501L152.164 76.7635C151.469 76.6121 150.917 76.0331 150.917 75.1155C150.917 74.198 151.531 73.4141 152.689 73.4141H155.736V78.7501H154.578V76.817H153.349L152.173 78.7501H150.845ZM154.569 75.8015V74.4296H152.823C152.378 74.4296 152.092 74.7147 152.092 75.1155C152.092 75.5164 152.36 75.8015 152.823 75.8015H154.569Z" fill="#012B6B"/>
<path d="M78.7246 89.8165V84.4805H79.8827V86.5828H82.3413V84.4805H83.4994V89.8165H82.3413V87.5983H79.8827V89.8165H78.7246Z" fill="#012B6B"/>
<path d="M88.2653 89.8145V89.2444C87.8644 89.6987 87.2498 89.9481 86.5371 89.9481C85.6641 89.9481 84.6842 89.3602 84.6842 88.1754C84.6842 86.9906 85.6641 86.4383 86.5371 86.4383C87.2587 86.4383 87.8733 86.6699 88.2653 87.1242V86.3314C88.2653 85.7167 87.7575 85.3337 87.0181 85.3337C86.4213 85.3337 85.9046 85.5564 85.4414 86.0107L84.9693 85.2C85.5839 84.6121 86.3589 84.3359 87.2141 84.3359C88.3989 84.3359 89.4323 84.8348 89.4323 86.269V89.8056H88.2742L88.2653 89.8145ZM88.2653 87.7923C87.9981 87.4271 87.4992 87.24 86.9914 87.24C86.3411 87.24 85.8512 87.6142 85.8512 88.2021C85.8512 88.79 86.3411 89.1553 86.9914 89.1553C87.4992 89.1553 87.9981 88.9682 88.2653 88.603V87.7923Z" fill="#012B6B"/>
<path d="M90.8665 90.8677C90.9912 90.9211 91.1782 90.9567 91.3119 90.9567C91.6771 90.9567 91.9176 90.8498 92.078 90.4935L92.3452 89.8877L90.1538 84.4805H91.392L92.951 88.4803L94.5099 84.4805H95.7571L93.1826 90.7786C92.8174 91.6872 92.176 91.9723 91.3475 91.9812C91.1782 91.9812 90.8576 91.9455 90.6972 91.901L90.8754 90.8587L90.8665 90.8677Z" fill="#012B6B"/>
<path d="M97.4585 84.4805V85.9325C97.4585 86.761 97.8772 87.0193 98.7324 87.0193C99.2401 87.0193 99.6321 86.9391 99.9082 86.8233V84.4894H101.066V89.8254H99.9082V87.7587C99.5519 87.9101 99.0085 88.0437 98.3671 88.0437C96.8616 88.0437 96.3004 87.4469 96.3004 86.3512V84.4805H97.4585Z" fill="#012B6B"/>
<path d="M102.554 89.8165V84.4805H103.712V86.5828H106.171V84.4805H107.329V89.8165H106.171V87.5983H103.712V89.8165H102.554Z" fill="#012B6B"/>
<path d="M108.505 87.1448C108.505 85.6215 109.556 84.3477 111.248 84.3477C112.941 84.3477 114.001 85.6215 114.001 87.1448C114.001 88.6681 112.959 89.9509 111.248 89.9509C109.538 89.9509 108.505 88.677 108.505 87.1448ZM112.79 87.1448C112.79 86.2095 112.237 85.3721 111.24 85.3721C110.242 85.3721 109.707 86.2006 109.707 87.1448C109.707 88.0891 110.26 88.9265 111.24 88.9265C112.219 88.9265 112.79 88.098 112.79 87.1448Z" fill="#012B6B"/>
<path d="M114.749 87.6423V86.6445H117.404V87.6423H114.749Z" fill="#012B6B"/>
<path d="M122.099 89.8165V85.496H119.64V89.8165H118.482V84.4805H123.257V89.8165H122.099Z" fill="#012B6B"/>
<path d="M125.92 91.8456H124.762V84.4696H125.92V85.2C126.321 84.6655 126.936 84.3359 127.631 84.3359C129.011 84.3359 130 85.3782 130 87.1331C130 88.888 129.02 89.9392 127.631 89.9392C126.954 89.9392 126.348 89.6363 125.92 89.0662V91.8366V91.8456ZM127.292 85.3693C126.749 85.3693 126.178 85.69 125.92 86.0909V88.2021C126.178 88.5851 126.749 88.9237 127.292 88.9237C128.21 88.9237 128.797 88.1843 128.797 87.142C128.797 86.0998 128.21 85.3693 127.292 85.3693Z" fill="#012B6B"/>
<path d="M134.428 89.8145V89.2444C134.027 89.6987 133.412 89.9481 132.699 89.9481C131.826 89.9481 130.846 89.3602 130.846 88.1754C130.846 86.9906 131.826 86.4383 132.699 86.4383C133.421 86.4383 134.036 86.6699 134.428 87.1242V86.3314C134.428 85.7167 133.92 85.3337 133.18 85.3337C132.584 85.3337 132.067 85.5564 131.604 86.0107L131.131 85.2C131.746 84.6121 132.521 84.3359 133.376 84.3359C134.561 84.3359 135.595 84.8348 135.595 86.269V89.8056H134.436L134.428 89.8145ZM134.428 87.7923C134.16 87.4271 133.661 87.24 133.154 87.24C132.503 87.24 132.013 87.6142 132.013 88.2021C132.013 88.79 132.503 89.1553 133.154 89.1553C133.661 89.1553 134.16 88.9682 134.428 88.603V87.7923Z" fill="#012B6B"/>
<path d="M140.628 89.8165L138.989 87.6162L138.249 88.3823V89.8165H137.091V84.4805H138.249V87.0549L140.601 84.4805H142.035L139.817 86.9035L142.08 89.8254H140.619L140.628 89.8165Z" fill="#012B6B"/>
<path d="M143.87 89.8165V85.496H142.347V84.4805H146.569V85.496H145.028V89.8165H143.87Z" fill="#012B6B"/>
<path d="M147.523 89.8165V84.4805H148.681V88.0705L151.139 84.4805H152.298V89.8165H151.139V86.1285L148.645 89.8165H147.532H147.523Z" fill="#012B6B"/>
<path d="M154.765 84.4805V85.9325C154.765 86.761 155.184 87.0193 156.039 87.0193C156.547 87.0193 156.939 86.9391 157.215 86.8233V84.4894H158.373V89.8254H157.215V87.7587C156.858 87.9101 156.315 88.0437 155.674 88.0437C154.168 88.0437 153.607 87.4469 153.607 86.3512V84.4805H154.765Z" fill="#012B6B"/>
<path d="M162.248 84.3477C163.851 84.3477 164.876 85.577 164.876 87.2517V87.5279H160.751C160.84 88.3385 161.446 88.9977 162.453 88.9977C162.969 88.9977 163.593 88.7839 163.967 88.4098L164.502 89.1759C163.967 89.6837 163.183 89.9509 162.337 89.9509C160.733 89.9509 159.54 88.8374 159.54 87.1448C159.54 85.5948 160.671 84.3477 162.248 84.3477ZM160.742 86.7172H163.744C163.718 86.0848 163.29 85.3008 162.239 85.3008C161.241 85.3008 160.787 86.0669 160.733 86.7172H160.742Z" fill="#012B6B"/>
<path d="M168.457 84.3477C169.499 84.3477 170.123 84.7931 170.506 85.3008L169.74 86.0046C169.446 85.5859 169.036 85.3721 168.51 85.3721C167.539 85.3721 166.898 86.1026 166.898 87.1448C166.898 88.1871 167.539 88.9265 168.51 88.9265C169.027 88.9265 169.437 88.7038 169.74 88.294L170.506 88.9977C170.132 89.5055 169.499 89.9509 168.457 89.9509C166.836 89.9509 165.695 88.7661 165.695 87.1448C165.695 85.5235 166.836 84.3477 168.457 84.3477Z" fill="#012B6B"/>
<path d="M175.058 89.8165L173.419 87.6162L172.679 88.3823V89.8165H171.521V84.4805H172.679V87.0549L175.031 84.4805H176.465L174.247 86.9035L176.51 89.8254H175.049L175.058 89.8165Z" fill="#012B6B"/>
<path d="M180.59 89.8145V89.2444C180.189 89.6987 179.574 89.9481 178.862 89.9481C177.989 89.9481 177.009 89.3602 177.009 88.1754C177.009 86.9906 177.989 86.4383 178.862 86.4383C179.583 86.4383 180.198 86.6699 180.59 87.1242V86.3314C180.59 85.7167 180.082 85.3337 179.343 85.3337C178.746 85.3337 178.229 85.5564 177.766 86.0107L177.294 85.2C177.909 84.6121 178.684 84.3359 179.539 84.3359C180.724 84.3359 181.757 84.8348 181.757 86.269V89.8056H180.599L180.59 89.8145ZM180.59 87.7923C180.323 87.4271 179.824 87.24 179.316 87.24C178.666 87.24 178.176 87.6142 178.176 88.2021C178.176 88.79 178.666 89.1553 179.316 89.1553C179.824 89.1553 180.323 88.9682 180.59 88.603V87.7923Z" fill="#012B6B"/>
<path d="M183.066 89.8165L184.385 87.83C183.69 87.6785 183.138 87.0995 183.138 86.1819C183.138 85.2644 183.752 84.4805 184.91 84.4805H187.957V89.8165H186.799V87.8834H185.57L184.394 89.8165H183.066ZM186.79 86.8679V85.496H185.044C184.599 85.496 184.314 85.7811 184.314 86.1819C184.314 86.5828 184.581 86.8679 185.044 86.8679H186.79Z" fill="#012B6B"/>
<path d="M82.2612 100.879L80.6221 98.6787L79.8827 99.4448V100.879H78.7246V95.543H79.8827V98.1174L82.2344 95.543H83.6687L81.4505 97.966L83.7132 100.888H82.2523L82.2612 100.879Z" fill="#012B6B"/>
<path d="M84.2031 98.2073C84.2031 96.684 85.2543 95.4102 86.9468 95.4102C88.6394 95.4102 89.6995 96.684 89.6995 98.2073C89.6995 99.7306 88.6572 101.013 86.9468 101.013C85.2365 101.013 84.2031 99.7395 84.2031 98.2073ZM88.488 98.2073C88.488 97.272 87.9357 96.4346 86.9379 96.4346C85.9402 96.4346 85.4057 97.2631 85.4057 98.2073C85.4057 99.1516 85.958 99.989 86.9379 99.989C87.9178 99.989 88.488 99.1605 88.488 98.2073Z" fill="#012B6B"/>
<path d="M90.8663 100.879V95.543H92.0244V97.6453H94.4831V95.543H95.6411V100.879H94.4831V98.6608H92.0244V100.879H90.8663Z" fill="#012B6B"/>
<path d="M100.763 95.4092C102.474 95.5161 103.552 96.5227 103.552 98.2063C103.552 99.89 102.483 100.906 100.763 101.012V102.91H99.6054V101.012C97.895 100.906 96.8171 99.8811 96.8171 98.2063C96.8171 96.5316 97.8861 95.5161 99.6054 95.4092V93.5117H100.763V95.4092ZM99.6054 99.988V96.4425C98.7235 96.4425 98.0287 97.0483 98.0287 98.2153C98.0287 99.3822 98.7235 99.9969 99.6054 99.9969V99.988ZM100.763 99.988C101.645 99.988 102.34 99.3822 102.34 98.2063C102.34 97.0305 101.645 96.4336 100.763 96.4336V99.9791V99.988Z" fill="#012B6B"/>
<path d="M107.088 95.4102C108.692 95.4102 109.716 96.6395 109.716 98.3142V98.5904H105.592C105.681 99.401 106.286 100.06 107.293 100.06C107.81 100.06 108.433 99.8464 108.808 99.4723L109.342 100.238C108.808 100.746 108.024 101.013 107.177 101.013C105.574 101.013 104.38 99.8999 104.38 98.2073C104.38 96.6573 105.511 95.4102 107.088 95.4102ZM105.583 97.7797H108.585C108.558 97.1473 108.13 96.3633 107.079 96.3633C106.082 96.3633 105.627 97.1294 105.574 97.7797H105.583Z" fill="#012B6B"/>
<path d="M112.023 102.92H110.865V95.5438H112.023V96.2743C112.424 95.7398 113.039 95.4102 113.734 95.4102C115.115 95.4102 116.103 96.4524 116.103 98.2073C116.103 99.9622 115.123 101.013 113.734 101.013C113.057 101.013 112.451 100.711 112.023 100.14V102.911V102.92ZM113.395 96.4435C112.852 96.4435 112.282 96.7642 112.023 97.1651V99.2763C112.282 99.6594 112.852 99.9979 113.395 99.9979C114.313 99.9979 114.901 99.2585 114.901 98.2162C114.901 97.174 114.313 96.4435 113.395 96.4435Z" fill="#012B6B"/>
<path d="M119.649 95.4102C121.252 95.4102 122.277 96.6395 122.277 98.3142V98.5904H118.152C118.241 99.401 118.847 100.06 119.854 100.06C120.37 100.06 120.994 99.8464 121.368 99.4723L121.903 100.238C121.368 100.746 120.584 101.013 119.738 101.013C118.134 101.013 116.941 99.8999 116.941 98.2073C116.941 96.6573 118.072 95.4102 119.649 95.4102ZM118.143 97.7797H121.145C121.119 97.1473 120.691 96.3633 119.64 96.3633C118.642 96.3633 118.188 97.1294 118.134 97.7797H118.143Z" fill="#012B6B"/>
<path d="M123.435 100.879V95.543H124.593V97.6453H127.052V95.543H128.21V100.879H127.052V98.6608H124.593V100.879H123.435Z" fill="#012B6B"/>
<path d="M133.938 100.879H129.706V95.543H130.864V99.8634H133.207V95.543H134.365V99.8634H134.953V102.242H133.938V100.879Z" fill="#012B6B"/>
<path d="M135.906 100.879V95.543H137.064V99.133L139.523 95.543H140.681V100.879H139.523V97.191L137.029 100.879H135.915H135.906Z" fill="#012B6B"/>
<path d="M141.991 100.879L143.309 98.8924C142.614 98.741 142.062 98.162 142.062 97.2444C142.062 96.3269 142.677 95.543 143.835 95.543H146.881V100.879H145.723V98.9459H144.494L143.318 100.879H141.991ZM145.714 97.9304V96.5585H143.968C143.523 96.5585 143.238 96.8436 143.238 97.2444C143.238 97.6453 143.505 97.9304 143.968 97.9304H145.714Z" fill="#012B6B"/>
<path d="M259.579 199.575V193.883L258.376 195.13L257.628 194.346L259.748 192.199H260.88V199.575H259.588H259.579Z" fill="#012B6B"/>
<path d="M265.058 192.094C267.124 192.094 268.006 194.036 268.006 195.898C268.006 197.759 267.124 199.71 265.058 199.71C262.991 199.71 262.109 197.75 262.109 195.898C262.109 194.045 262.991 192.094 265.058 192.094ZM265.058 193.243C263.855 193.243 263.419 194.49 263.419 195.898C263.419 197.305 263.846 198.561 265.058 198.561C266.269 198.561 266.697 197.305 266.697 195.898C266.697 194.49 266.269 193.243 265.058 193.243Z" fill="#012B6B"/>
<path d="M268.79 197.392V196.395H271.445V197.392H268.79Z" fill="#012B6B"/>
<path d="M271.97 198.551C272.531 198.551 272.932 197.874 273.084 195.558L273.173 194.23H277.297V199.566H276.139V195.246H274.206L274.179 195.611C273.983 198.907 273.137 199.7 271.97 199.7V198.551Z" fill="#012B6B"/>
<path d="M281.181 194.098C282.785 194.098 283.809 195.327 283.809 197.002V197.278H279.685C279.774 198.089 280.38 198.748 281.386 198.748C281.903 198.748 282.526 198.534 282.901 198.16L283.435 198.926C282.901 199.434 282.117 199.701 281.27 199.701C279.667 199.701 278.473 198.587 278.473 196.895C278.473 195.345 279.604 194.098 281.181 194.098ZM279.676 196.467H282.678C282.651 195.835 282.223 195.051 281.172 195.051C280.175 195.051 279.72 195.817 279.667 196.467H279.676Z" fill="#012B6B"/>
<path d="M285.929 199.574V195.254H284.406V194.238H288.629V195.254H287.088V199.574H285.929Z" fill="#012B6B"/>
<path d="M289.573 199.574V194.238H290.731V197.828L293.19 194.238H294.348V199.574H293.19V195.886L290.695 199.574H289.582H289.573Z" fill="#012B6B"/>
<path d="M298.232 194.098C299.835 194.098 300.86 195.327 300.86 197.002V197.278H296.735C296.824 198.089 297.43 198.748 298.437 198.748C298.953 198.748 299.577 198.534 299.951 198.16L300.485 198.926C299.951 199.434 299.167 199.701 298.321 199.701C296.717 199.701 295.524 198.587 295.524 196.895C295.524 195.345 296.655 194.098 298.232 194.098ZM296.726 196.467H299.728C299.702 195.835 299.274 195.051 298.223 195.051C297.225 195.051 296.771 195.817 296.717 196.467H296.726Z" fill="#012B6B"/>
<path d="M304.512 196.895C304.512 195.372 305.563 194.098 307.256 194.098C308.948 194.098 310.008 195.372 310.008 196.895C310.008 198.418 308.966 199.701 307.256 199.701C305.545 199.701 304.512 198.427 304.512 196.895ZM308.797 196.895C308.797 195.959 308.244 195.122 307.247 195.122C306.249 195.122 305.714 195.951 305.714 196.895C305.714 197.839 306.267 198.676 307.247 198.676C308.227 198.676 308.797 197.848 308.797 196.895Z" fill="#012B6B"/>
<path d="M314.293 192.288L315.71 192.074V193.099L314.293 193.321C312.592 193.589 311.915 194.275 311.728 195.37C312.2 194.649 313.028 194.319 313.803 194.319C315.318 194.319 316.324 195.513 316.324 196.885C316.324 198.39 315.318 199.7 313.581 199.7C311.843 199.7 310.846 198.381 310.846 196.35C310.846 194.052 311.683 192.671 314.284 192.279L314.293 192.288ZM313.589 195.13C312.61 195.13 312.057 195.958 312.057 196.876C312.057 197.847 312.61 198.675 313.589 198.675C314.569 198.675 315.139 197.847 315.139 196.876C315.139 195.958 314.587 195.13 313.589 195.13Z" fill="#012B6B"/>
<path d="M318.658 201.607H317.5V194.231H318.658V194.962C319.059 194.427 319.674 194.098 320.369 194.098C321.749 194.098 322.738 195.14 322.738 196.895C322.738 198.65 321.758 199.701 320.369 199.701C319.692 199.701 319.086 199.398 318.658 198.828V201.598V201.607ZM320.03 195.131C319.487 195.131 318.917 195.452 318.658 195.853V197.964C318.917 198.347 319.487 198.685 320.03 198.685C320.948 198.685 321.536 197.946 321.536 196.904C321.536 195.861 320.948 195.131 320.03 195.131Z" fill="#012B6B"/>
<path d="M327.165 199.576V199.006C326.765 199.46 326.15 199.71 325.437 199.71C324.564 199.71 323.584 199.122 323.584 197.937C323.584 196.752 324.564 196.2 325.437 196.2C326.159 196.2 326.773 196.432 327.165 196.886V196.093C327.165 195.478 326.658 195.095 325.918 195.095C325.321 195.095 324.805 195.318 324.342 195.772L323.869 194.962C324.484 194.374 325.259 194.098 326.114 194.098C327.299 194.098 328.332 194.597 328.332 196.031V199.567H327.174L327.165 199.576ZM327.165 197.554C326.898 197.189 326.399 197.002 325.892 197.002C325.241 197.002 324.751 197.376 324.751 197.964C324.751 198.552 325.241 198.917 325.892 198.917C326.399 198.917 326.898 198.73 327.165 198.365V197.554Z" fill="#012B6B"/>
<path d="M329.927 198.045C330.399 198.49 330.987 198.766 331.629 198.766C332.395 198.766 332.804 198.472 332.804 198.036C332.804 197.528 332.332 197.341 331.531 197.341H330.622V196.415H331.531C332.27 196.415 332.706 196.183 332.706 195.72C332.706 195.337 332.243 195.06 331.557 195.06C330.871 195.06 330.372 195.274 329.963 195.702L329.393 194.998C329.883 194.481 330.595 194.125 331.504 194.125C333.018 194.116 333.918 194.669 333.918 195.577C333.918 196.308 333.179 196.762 332.546 196.86C333.143 196.904 334.025 197.305 334.025 198.143C334.025 199.06 333.152 199.719 331.637 199.719C330.622 199.719 329.811 199.381 329.303 198.855L329.936 198.063L329.927 198.045Z" fill="#012B6B"/>
<path d="M334.844 196.895C334.844 195.372 335.896 194.098 337.588 194.098C339.281 194.098 340.341 195.372 340.341 196.895C340.341 198.418 339.298 199.701 337.588 199.701C335.878 199.701 334.844 198.427 334.844 196.895ZM339.129 196.895C339.129 195.959 338.577 195.122 337.579 195.122C336.581 195.122 336.047 195.951 336.047 196.895C336.047 197.839 336.599 198.676 337.579 198.676C338.559 198.676 339.129 197.848 339.129 196.895Z" fill="#012B6B"/>
<path d="M341.508 199.574V194.238H344.501C345.712 194.238 346.283 194.844 346.283 195.61C346.283 196.252 345.873 196.679 345.383 196.831C345.962 196.964 346.389 197.508 346.389 198.131C346.389 198.96 345.81 199.583 344.536 199.583H341.508V199.574ZM344.501 195.254H342.666V196.341H344.501C344.875 196.341 345.098 196.109 345.098 195.806C345.098 195.477 344.875 195.254 344.501 195.254ZM344.536 197.356H342.666V198.559H344.536C344.946 198.559 345.196 198.336 345.196 197.962C345.196 197.641 344.964 197.356 344.536 197.356Z" fill="#012B6B"/>
<path d="M350.826 199.576V199.006C350.425 199.46 349.81 199.71 349.097 199.71C348.224 199.71 347.245 199.122 347.245 197.937C347.245 196.752 348.224 196.2 349.097 196.2C349.819 196.2 350.434 196.432 350.826 196.886V196.093C350.826 195.478 350.318 195.095 349.578 195.095C348.982 195.095 348.465 195.318 348.002 195.772L347.53 194.962C348.144 194.374 348.919 194.098 349.774 194.098C350.959 194.098 351.993 194.597 351.993 196.031V199.567H350.835L350.826 199.576ZM350.826 197.554C350.558 197.189 350.059 197.002 349.552 197.002C348.901 197.002 348.411 197.376 348.411 197.964C348.411 198.552 348.901 198.917 349.552 198.917C350.059 198.917 350.558 198.73 350.826 198.365V197.554Z" fill="#012B6B"/>
<path d="M353.48 199.574V194.238H354.638V196.341H357.097V194.238H358.255V199.574H357.097V197.356H354.638V199.574H353.48Z" fill="#012B6B"/>
<path d="M359.761 199.574V194.238H360.919V197.828L363.377 194.238H364.535V199.574H363.377V195.886L360.883 199.574H359.77H359.761Z" fill="#012B6B"/>
<path d="M365.854 199.574L367.172 197.588C366.477 197.436 365.925 196.857 365.925 195.94C365.925 195.022 366.54 194.238 367.698 194.238H370.745V199.574H369.586V197.641H368.357L367.181 199.574H365.854ZM369.578 196.626V195.254H367.832C367.386 195.254 367.101 195.539 367.101 195.94C367.101 196.341 367.368 196.626 367.832 196.626H369.578Z" fill="#012B6B"/>
<path d="M257.904 206.961C257.904 204.698 259.597 203.148 261.717 203.148C263.267 203.148 264.184 203.923 264.737 204.805L263.632 205.367C263.276 204.761 262.572 204.298 261.717 204.298C260.309 204.298 259.232 205.411 259.232 206.961C259.232 208.511 260.318 209.625 261.717 209.625C262.572 209.625 263.276 209.17 263.632 208.556L264.737 209.117C264.176 209.999 263.267 210.774 261.717 210.774C259.597 210.774 257.904 209.224 257.904 206.961Z" fill="#012B6B"/>
<path d="M265.414 207.969C265.414 206.446 266.465 205.172 268.158 205.172C269.85 205.172 270.91 206.446 270.91 207.969C270.91 209.492 269.868 210.775 268.158 210.775C266.447 210.775 265.414 209.501 265.414 207.969ZM269.699 207.969C269.699 207.034 269.146 206.196 268.149 206.196C267.151 206.196 266.616 207.025 266.616 207.969C266.616 208.913 267.169 209.751 268.149 209.751C269.129 209.751 269.699 208.922 269.699 207.969Z" fill="#012B6B"/>
<path d="M272.068 210.641V205.305H275.061C276.273 205.305 276.843 205.91 276.843 206.677C276.843 207.318 276.433 207.746 275.943 207.897C276.522 208.031 276.95 208.574 276.95 209.198C276.95 210.026 276.371 210.65 275.097 210.65H272.068V210.641ZM275.061 206.32H273.226V207.407H275.061C275.436 207.407 275.658 207.175 275.658 206.873C275.658 206.543 275.436 206.32 275.061 206.32ZM275.097 208.423H273.226V209.625H275.097C275.507 209.625 275.756 209.402 275.756 209.028C275.756 208.708 275.525 208.423 275.097 208.423Z" fill="#012B6B"/>
<path d="M280.504 205.172C282.108 205.172 283.132 206.401 283.132 208.076V208.352H279.008C279.097 209.163 279.703 209.822 280.709 209.822C281.226 209.822 281.849 209.608 282.224 209.234L282.758 210C282.224 210.508 281.44 210.775 280.593 210.775C278.99 210.775 277.796 209.662 277.796 207.969C277.796 206.419 278.928 205.172 280.504 205.172ZM278.999 207.541H282.001C281.974 206.909 281.547 206.125 280.495 206.125C279.498 206.125 279.043 206.891 278.99 207.541H278.999Z" fill="#012B6B"/>
<path d="M285.252 210.641V206.32H283.729V205.305H287.952V206.32H286.41V210.641H285.252Z" fill="#012B6B"/>
<path d="M292.165 210.639V210.069C291.764 210.523 291.15 210.772 290.437 210.772C289.564 210.772 288.584 210.184 288.584 209C288.584 207.815 289.564 207.262 290.437 207.262C291.158 207.262 291.773 207.494 292.165 207.948V207.156C292.165 206.541 291.657 206.158 290.918 206.158C290.321 206.158 289.804 206.381 289.341 206.835L288.869 206.024C289.484 205.436 290.259 205.16 291.114 205.16C292.299 205.16 293.332 205.659 293.332 207.093V210.63H292.174L292.165 210.639ZM292.165 208.617C291.898 208.251 291.399 208.064 290.891 208.064C290.241 208.064 289.751 208.438 289.751 209.026C289.751 209.614 290.241 209.979 290.891 209.979C291.399 209.979 291.898 209.792 292.165 209.427V208.617Z" fill="#012B6B"/>
<path d="M301.278 210.641V206.32H298.82V210.641H297.661V205.305H302.436V210.641H301.278Z" fill="#012B6B"/>
<path d="M305.1 212.67H303.942V205.294H305.1V206.024C305.501 205.49 306.115 205.16 306.81 205.16C308.191 205.16 309.18 206.202 309.18 207.957C309.18 209.712 308.2 210.763 306.81 210.763C306.133 210.763 305.528 210.461 305.1 209.89V212.661V212.67ZM306.472 206.194C305.928 206.194 305.358 206.514 305.1 206.915V209.026C305.358 209.409 305.928 209.748 306.472 209.748C307.389 209.748 307.977 209.009 307.977 207.966C307.977 206.924 307.389 206.194 306.472 206.194Z" fill="#012B6B"/>
<path d="M310.347 210.641V205.305H311.505V208.895L313.964 205.305H315.122V210.641H313.964V206.953L311.469 210.641H310.356H310.347Z" fill="#012B6B"/>
<path d="M324.627 210.638V204.402H320.787V210.638H319.496V203.262H325.918V210.638H324.627Z" fill="#012B6B"/>
<path d="M328.618 212.67H327.459V205.294H328.618V206.024C329.018 205.49 329.633 205.16 330.328 205.16C331.709 205.16 332.697 206.202 332.697 207.957C332.697 209.712 331.718 210.763 330.328 210.763C329.651 210.763 329.045 210.461 328.618 209.89V212.661V212.67ZM329.989 206.194C329.446 206.194 328.876 206.514 328.618 206.915V209.026C328.876 209.409 329.446 209.748 329.989 209.748C330.907 209.748 331.495 209.009 331.495 207.966C331.495 206.924 330.907 206.194 329.989 206.194Z" fill="#012B6B"/>
<path d="M336.234 205.172C337.838 205.172 338.862 206.401 338.862 208.076V208.352H334.738C334.827 209.163 335.432 209.822 336.439 209.822C336.956 209.822 337.579 209.608 337.953 209.234L338.488 210C337.953 210.508 337.169 210.775 336.323 210.775C334.72 210.775 333.526 209.662 333.526 207.969C333.526 206.419 334.657 205.172 336.234 205.172ZM334.729 207.541H337.731C337.704 206.909 337.276 206.125 336.225 206.125C335.227 206.125 334.773 206.891 334.72 207.541H334.729Z" fill="#012B6B"/>
<path d="M340.118 209.119C340.59 209.564 341.178 209.84 341.819 209.84C342.586 209.84 342.995 209.547 342.995 209.11C342.995 208.602 342.523 208.415 341.721 208.415H340.813V207.489H341.721C342.461 207.489 342.897 207.257 342.897 206.794C342.897 206.411 342.434 206.135 341.748 206.135C341.062 206.135 340.563 206.348 340.154 206.776L339.575 206.072C340.064 205.556 340.777 205.199 341.686 205.199C343.2 205.19 344.1 205.743 344.1 206.651C344.1 207.382 343.361 207.836 342.728 207.934C343.325 207.979 344.207 208.38 344.207 209.217C344.207 210.134 343.334 210.794 341.819 210.794C340.804 210.794 339.993 210.455 339.485 209.93L340.118 209.137V209.119Z" fill="#012B6B"/>
<path d="M345.365 210.641V205.305H346.523V208.895L348.982 205.305H350.14V210.641H348.982V206.953L346.487 210.641H345.374H345.365Z" fill="#012B6B"/>
<path d="M351.084 209.625H351.574C351.877 209.135 352.117 208.369 352.26 206.561L352.358 205.305H356.411V209.625H356.999V212.004H355.983V210.641H352.1V212.004H351.084V209.625ZM353.284 206.873C353.186 208.61 352.901 209.296 352.679 209.625H355.253V206.32H353.32L353.284 206.873Z" fill="#012B6B"/>
<path d="M360.322 205.172C361.925 205.172 362.95 206.401 362.95 208.076V208.352H358.825C358.914 209.163 359.52 209.822 360.527 209.822C361.043 209.822 361.667 209.608 362.041 209.234L362.576 210C362.041 210.508 361.257 210.775 360.411 210.775C358.807 210.775 357.614 209.662 357.614 207.969C357.614 206.419 358.745 205.172 360.322 205.172ZM358.816 207.541H361.818C361.792 206.909 361.364 206.125 360.313 206.125C359.315 206.125 358.861 206.891 358.807 207.541H358.816Z" fill="#012B6B"/>
<path d="M364.108 210.641V205.305H365.266V207.407H367.725V205.305H368.883V210.641H367.725V208.423H365.266V210.641H364.108Z" fill="#012B6B"/>
<path d="M371.35 210.641V206.32H369.827V205.305H374.049V206.32H372.508V210.641H371.35Z" fill="#012B6B"/>
<path d="M377.372 205.172C378.976 205.172 380 206.401 380 208.076V208.352H375.876C375.965 209.163 376.57 209.822 377.577 209.822C378.094 209.822 378.717 209.608 379.091 209.234L379.626 210C379.091 210.508 378.308 210.775 377.461 210.775C375.858 210.775 374.664 209.662 374.664 207.969C374.664 206.419 375.795 205.172 377.372 205.172ZM375.867 207.541H378.869C378.842 206.909 378.414 206.125 377.363 206.125C376.366 206.125 375.911 206.891 375.858 207.541H375.867Z" fill="#012B6B"/>
<path d="M258.243 221.7V214.324H261.485C263.035 214.324 263.899 215.384 263.899 216.631C263.899 217.879 263.026 218.939 261.485 218.939H259.543V221.691H258.252L258.243 221.7ZM261.307 215.464H259.534V217.807H261.307C262.038 217.807 262.563 217.344 262.563 216.631C262.563 215.919 262.029 215.456 261.307 215.456V215.464Z" fill="#012B6B"/>
<path d="M264.594 219.032C264.594 217.508 265.645 216.234 267.338 216.234C269.031 216.234 270.091 217.508 270.091 219.032C270.091 220.555 269.048 221.838 267.338 221.838C265.628 221.838 264.594 220.564 264.594 219.032ZM268.879 219.032C268.879 218.096 268.327 217.259 267.329 217.259C266.331 217.259 265.797 218.087 265.797 219.032C265.797 219.976 266.349 220.813 267.329 220.813C268.309 220.813 268.879 219.985 268.879 219.032Z" fill="#012B6B"/>
<path d="M273.689 216.234C274.732 216.234 275.355 216.68 275.738 217.188L274.972 217.891C274.678 217.473 274.268 217.259 273.743 217.259C272.772 217.259 272.13 217.989 272.13 219.032C272.13 220.074 272.772 220.813 273.743 220.813C274.26 220.813 274.669 220.59 274.972 220.181L275.738 220.884C275.364 221.392 274.732 221.838 273.689 221.838C272.068 221.838 270.928 220.653 270.928 219.032C270.928 217.41 272.068 216.234 273.689 216.234Z" fill="#012B6B"/>
<path d="M279.177 216.234C280.219 216.234 280.843 216.68 281.226 217.188L280.46 217.891C280.166 217.473 279.756 217.259 279.23 217.259C278.259 217.259 277.618 217.989 277.618 219.032C277.618 220.074 278.259 220.813 279.23 220.813C279.747 220.813 280.157 220.59 280.46 220.181L281.226 220.884C280.852 221.392 280.219 221.838 279.177 221.838C277.556 221.838 276.415 220.653 276.415 219.032C276.415 217.41 277.556 216.234 279.177 216.234Z" fill="#012B6B"/>
<path d="M282.241 221.703V216.367H283.399V219.957L285.858 216.367H287.016V221.703H285.858V218.015L283.364 221.703H282.25H282.241Z" fill="#012B6B"/>
<path d="M288.513 221.705V216.369H289.671V219.959L292.129 216.369H293.287V221.705H292.129V218.017L289.635 221.705H288.522H288.513ZM288.958 214.605L289.599 214.07C289.911 214.489 290.348 214.756 290.9 214.756C291.452 214.756 291.898 214.489 292.192 214.07L292.833 214.605C292.388 215.202 291.693 215.576 290.9 215.576C290.107 215.576 289.404 215.202 288.958 214.605Z" fill="#012B6B"/>
<path d="M297.225 216.234C298.267 216.234 298.891 216.68 299.274 217.188L298.508 217.891C298.214 217.473 297.804 217.259 297.278 217.259C296.308 217.259 295.666 217.989 295.666 219.032C295.666 220.074 296.308 220.813 297.278 220.813C297.795 220.813 298.205 220.59 298.508 220.181L299.274 220.884C298.9 221.392 298.267 221.838 297.225 221.838C295.604 221.838 294.464 220.653 294.464 219.032C294.464 217.41 295.604 216.234 297.225 216.234Z" fill="#012B6B"/>
<path d="M303.817 221.703L302.178 219.503L301.439 220.269V221.703H300.281V216.367H301.439V218.942L303.79 216.367H305.225L303.007 218.79L305.269 221.712H303.808L303.817 221.703Z" fill="#012B6B"/>
<path d="M305.759 219.032C305.759 217.508 306.81 216.234 308.503 216.234C310.195 216.234 311.256 217.508 311.256 219.032C311.256 220.555 310.213 221.838 308.503 221.838C306.793 221.838 305.759 220.564 305.759 219.032ZM310.044 219.032C310.044 218.096 309.492 217.259 308.494 217.259C307.496 217.259 306.962 218.087 306.962 219.032C306.962 219.976 307.514 220.813 308.494 220.813C309.474 220.813 310.044 219.985 310.044 219.032Z" fill="#012B6B"/>
<path d="M312.422 221.705V216.369H313.58V219.959L316.039 216.369H317.197V221.705H316.039V218.017L313.545 221.705H312.431H312.422ZM312.868 214.605L313.509 214.07C313.821 214.489 314.257 214.756 314.81 214.756C315.362 214.756 315.807 214.489 316.101 214.07L316.743 214.605C316.297 215.202 315.603 215.576 314.81 215.576C314.017 215.576 313.313 215.202 312.868 214.605Z" fill="#012B6B"/>
<path d="M326.043 220.973V221.703H324.751V220.973C322.56 220.794 321.25 219.699 321.25 218.024C321.25 216.349 322.569 215.253 324.751 215.075V214.336H326.043V215.075C328.235 215.253 329.544 216.349 329.544 218.024C329.544 219.699 328.226 220.794 326.043 220.973ZM324.751 219.814V216.233C323.344 216.385 322.578 217.053 322.578 218.024C322.578 218.995 323.353 219.663 324.751 219.814ZM326.043 219.814C327.451 219.663 328.217 218.995 328.217 218.024C328.217 217.053 327.442 216.385 326.043 216.233V219.814Z" fill="#012B6B"/>
<path d="M333.134 216.234C334.737 216.234 335.762 217.464 335.762 219.138V219.415H331.637C331.726 220.225 332.332 220.884 333.339 220.884C333.855 220.884 334.479 220.671 334.853 220.297L335.388 221.063C334.853 221.57 334.069 221.838 333.223 221.838C331.619 221.838 330.426 220.724 330.426 219.032C330.426 217.482 331.557 216.234 333.134 216.234ZM331.628 218.604H334.63C334.604 217.971 334.176 217.188 333.125 217.188C332.127 217.188 331.673 217.954 331.619 218.604H331.628Z" fill="#012B6B"/>
<path d="M336.359 220.688H336.849C337.151 220.198 337.392 219.432 337.535 217.623L337.633 216.367H341.686V220.688H342.274V223.066H341.258V221.703H337.374V223.066H336.359V220.688ZM338.559 217.935C338.461 219.672 338.176 220.358 337.953 220.688H340.528V217.383H338.595L338.559 217.935Z" fill="#012B6B"/>
<path d="M345.597 216.234C347.2 216.234 348.224 217.464 348.224 219.138V219.415H344.1C344.189 220.225 344.795 220.884 345.801 220.884C346.318 220.884 346.942 220.671 347.316 220.297L347.85 221.063C347.316 221.57 346.532 221.838 345.686 221.838C344.082 221.838 342.888 220.724 342.888 219.032C342.888 217.482 344.02 216.234 345.597 216.234ZM344.091 218.604H347.093C347.066 217.971 346.639 217.188 345.588 217.188C344.59 217.188 344.136 217.954 344.082 218.604H344.091Z" fill="#012B6B"/>
<path d="M350.532 223.744H349.374V216.368H350.532V217.098C350.933 216.564 351.547 216.234 352.242 216.234C353.623 216.234 354.612 217.277 354.612 219.032C354.612 220.786 353.632 221.838 352.242 221.838C351.565 221.838 350.959 221.544 350.532 220.965V223.744ZM351.904 217.268C351.36 217.268 350.79 217.588 350.532 217.989V220.101C350.79 220.484 351.36 220.822 351.904 220.822C352.821 220.822 353.409 220.083 353.409 219.04C353.409 217.998 352.821 217.268 351.904 217.268Z" fill="#012B6B"/>
<path d="M359.048 221.705V221.135C358.647 221.589 358.032 221.839 357.32 221.839C356.447 221.839 355.467 221.251 355.467 220.066C355.467 218.881 356.447 218.329 357.32 218.329C358.041 218.329 358.656 218.561 359.048 219.015V218.222C359.048 217.607 358.54 217.224 357.801 217.224C357.204 217.224 356.687 217.447 356.224 217.901L355.752 217.091C356.367 216.503 357.142 216.227 357.997 216.227C359.182 216.227 360.215 216.725 360.215 218.16V221.696H359.057L359.048 221.705ZM359.048 219.683C358.781 219.318 358.282 219.131 357.774 219.131C357.124 219.131 356.634 219.505 356.634 220.093C356.634 220.681 357.124 221.046 357.774 221.046C358.282 221.046 358.781 220.859 359.048 220.494V219.683Z" fill="#012B6B"/>
<path d="M365.943 221.703H361.711V216.367H362.87V220.688H365.212V216.367H366.37V220.688H366.958V223.066H365.943V221.703Z" fill="#012B6B"/>
<path d="M367.903 221.703V216.367H369.061V219.957L371.519 216.367H372.677V221.703H371.519V218.015L369.025 221.703H367.912H367.903Z" fill="#012B6B"/>
<path d="M374.183 221.703V216.367H375.341V219.957L377.8 216.367H378.958V221.703H377.8V218.015L375.305 221.703H374.192H374.183Z" fill="#012B6B"/>
<path d="M261.824 232.766V228.445H259.365V232.766H258.207V227.43H262.982V232.766H261.824Z" fill="#012B6B"/>
<path d="M264.149 230.094C264.149 228.571 265.2 227.297 266.893 227.297C268.585 227.297 269.645 228.571 269.645 230.094C269.645 231.617 268.603 232.9 266.893 232.9C265.182 232.9 264.149 231.626 264.149 230.094ZM268.434 230.094C268.434 229.159 267.881 228.321 266.884 228.321C265.886 228.321 265.351 229.15 265.351 230.094C265.351 231.038 265.904 231.876 266.884 231.876C267.864 231.876 268.434 231.047 268.434 230.094Z" fill="#012B6B"/>
<path d="M278.696 232.766V228.944L276.994 232.766H276.531L274.821 228.944V232.766H273.663V227.43H275.177L276.772 230.993L278.34 227.43H279.863V232.766H278.705H278.696Z" fill="#012B6B"/>
<path d="M283.729 227.297C285.333 227.297 286.357 228.526 286.357 230.201V230.477H282.232C282.322 231.288 282.927 231.947 283.934 231.947C284.451 231.947 285.074 231.733 285.448 231.359L285.983 232.125C285.448 232.633 284.664 232.9 283.818 232.9C282.215 232.9 281.021 231.787 281.021 230.094C281.021 228.544 282.152 227.297 283.729 227.297ZM282.224 229.666H285.226C285.199 229.034 284.771 228.25 283.72 228.25C282.722 228.25 282.268 229.016 282.215 229.666H282.224Z" fill="#012B6B"/>
<path d="M293.332 232.766L291.648 230.476H291.354V232.766H290.196V230.476H289.902L288.219 232.766H286.802L288.86 230.004L286.847 227.43H288.228L289.893 229.666H290.187V227.43H291.345V229.666H291.639L293.305 227.43H294.686L292.673 230.004L294.731 232.766H293.314H293.332Z" fill="#012B6B"/>
<path d="M295.541 232.766V227.43H296.699V229.532H299.158V227.43H300.316V232.766H299.158V230.548H296.699V232.766H295.541Z" fill="#012B6B"/>
<path d="M305.082 232.768V232.189C304.681 232.643 304.066 232.892 303.354 232.892C302.481 232.892 301.501 232.304 301.501 231.129C301.501 229.953 302.481 229.391 303.354 229.391C304.075 229.391 304.69 229.623 305.082 230.077V229.285C305.082 228.67 304.574 228.287 303.835 228.287C303.238 228.287 302.721 228.51 302.258 228.964L301.786 228.153C302.401 227.565 303.176 227.289 304.031 227.289C305.216 227.289 306.249 227.788 306.249 229.222V232.759H305.091L305.082 232.768ZM305.082 230.745C304.815 230.38 304.316 230.193 303.808 230.193C303.158 230.193 302.668 230.567 302.668 231.155C302.668 231.743 303.158 232.108 303.808 232.108C304.316 232.108 304.815 231.921 305.082 231.556V230.745Z" fill="#012B6B"/>
<path d="M311.977 232.766H307.746V227.43H308.904V231.75H311.247V227.43H312.405V231.75H312.993V234.129H311.977V232.766Z" fill="#012B6B"/>
<path d="M313.937 232.766V227.43H315.095V231.02L317.554 227.43H318.712V232.766H317.554V229.078L315.059 232.766H313.946H313.937Z" fill="#012B6B"/>
<path d="M319.887 230.094C319.887 228.571 320.939 227.297 322.631 227.297C324.324 227.297 325.384 228.571 325.384 230.094C325.384 231.617 324.342 232.9 322.631 232.9C320.921 232.9 319.887 231.626 319.887 230.094ZM324.172 230.094C324.172 229.159 323.62 228.321 322.622 228.321C321.625 228.321 321.09 229.15 321.09 230.094C321.09 231.038 321.642 231.876 322.622 231.876C323.602 231.876 324.172 231.047 324.172 230.094Z" fill="#012B6B"/>
<path d="M326.551 232.766V227.43H327.709V229.532H330.168V227.43H331.326V232.766H330.168V230.548H327.709V232.766H326.551Z" fill="#012B6B"/>
<path d="M336.083 232.768V232.189C335.682 232.643 335.067 232.892 334.354 232.892C333.481 232.892 332.501 232.304 332.501 231.129C332.501 229.953 333.481 229.391 334.354 229.391C335.076 229.391 335.691 229.623 336.083 230.077V229.285C336.083 228.67 335.575 228.287 334.835 228.287C334.239 228.287 333.722 228.51 333.259 228.964L332.787 228.153C333.401 227.565 334.176 227.289 335.031 227.289C336.216 227.289 337.25 227.788 337.25 229.222V232.759H336.091L336.083 232.768ZM336.083 230.745C335.815 230.38 335.316 230.193 334.809 230.193C334.158 230.193 333.668 230.567 333.668 231.155C333.668 231.743 334.158 232.108 334.809 232.108C335.316 232.108 335.815 231.921 336.083 231.556V230.745Z" fill="#012B6B"/>
<path d="M338.194 231.75C338.755 231.75 339.156 231.073 339.307 228.757L339.396 227.43H343.521V232.766H342.363V228.445H340.43L340.403 228.81C340.207 232.106 339.361 232.899 338.194 232.899V231.75Z" fill="#012B6B"/>
<path d="M346.184 227.43V229.256H348.02C349.276 229.256 349.846 230.138 349.846 231.011C349.846 231.884 349.258 232.766 348.02 232.766H345.026V227.43H346.184ZM346.184 230.271V231.75H347.913C348.429 231.75 348.661 231.412 348.661 231.011C348.661 230.61 348.429 230.271 347.913 230.271H346.184Z" fill="#012B6B"/>
<path d="M350.986 232.766V227.43H352.144V229.532H354.603V227.43H355.761V232.766H354.603V230.548H352.144V232.766H350.986Z" fill="#012B6B"/>
<path d="M358.424 227.43V229.256H360.26C361.516 229.256 362.086 230.138 362.086 231.011C362.086 231.884 361.498 232.766 360.26 232.766H357.266V227.43H358.424ZM358.424 230.271V231.75H360.153C360.669 231.75 360.901 231.412 360.901 231.011C360.901 230.61 360.669 230.271 360.153 230.271H358.424ZM362.887 232.766V227.43H364.045V232.766H362.887Z" fill="#012B6B"/>
<path d="M370.593 232.766V228.944L368.891 232.766H368.428L366.718 228.944V232.766H365.56V227.43H367.074L368.669 230.993L370.237 227.43H371.76V232.766H370.602H370.593Z" fill="#012B6B"/>
<path d="M257.877 241.16C257.877 239.637 258.929 238.363 260.621 238.363C262.314 238.363 263.374 239.637 263.374 241.16C263.374 242.684 262.332 243.967 260.621 243.967C258.911 243.967 257.877 242.693 257.877 241.16ZM262.162 241.16C262.162 240.225 261.61 239.388 260.612 239.388C259.615 239.388 259.08 240.216 259.08 241.16C259.08 242.105 259.632 242.942 260.612 242.942C261.592 242.942 262.162 242.114 262.162 241.16Z" fill="#012B6B"/>
<path d="M265.512 243.84V239.519H263.989V238.504H268.211V239.519H266.679V243.84H265.521H265.512Z" fill="#012B6B"/>
<path d="M269.155 243.84V238.504H270.313V240.606H272.772V238.504H273.93V243.84H272.772V241.622H270.313V243.84H269.155Z" fill="#012B6B"/>
<path d="M275.097 241.16C275.097 239.637 276.148 238.363 277.841 238.363C279.533 238.363 280.593 239.637 280.593 241.16C280.593 242.684 279.551 243.967 277.841 243.967C276.13 243.967 275.097 242.693 275.097 241.16ZM279.382 241.16C279.382 240.225 278.83 239.388 277.832 239.388C276.834 239.388 276.3 240.216 276.3 241.16C276.3 242.105 276.852 242.942 277.832 242.942C278.812 242.942 279.382 242.114 279.382 241.16Z" fill="#012B6B"/>
<path d="M289.003 238.496V243.832H281.76V238.496H282.918V242.817H284.798V238.496H285.956V242.817H287.836V238.496H288.994H289.003Z" fill="#012B6B"/>
<path d="M292.878 238.363C294.481 238.363 295.506 239.593 295.506 241.267V241.544H291.381C291.47 242.354 292.076 243.013 293.083 243.013C293.599 243.013 294.223 242.8 294.597 242.425L295.132 243.192C294.597 243.699 293.813 243.967 292.967 243.967C291.363 243.967 290.17 242.853 290.17 241.16C290.17 239.61 291.301 238.363 292.878 238.363ZM291.372 240.733H294.374C294.348 240.1 293.92 239.316 292.869 239.316C291.871 239.316 291.417 240.083 291.363 240.733H291.372Z" fill="#012B6B"/>
<path d="M296.655 243.84V238.504H297.813V240.606H300.272V238.504H301.43V243.84H300.272V241.622H297.813V243.84H296.655Z" fill="#012B6B"/>
<path d="M302.935 243.84V238.504H304.093V242.094L306.552 238.504H307.71V243.84H306.552V240.152L304.058 243.84H302.944H302.935Z" fill="#012B6B"/>
<path d="M309.02 243.84L310.338 241.853C309.643 241.702 309.091 241.123 309.091 240.205C309.091 239.288 309.705 238.504 310.864 238.504H313.91V243.84H312.752V241.907H311.523L310.347 243.84H309.02ZM312.743 240.891V239.519H310.997C310.552 239.519 310.267 239.805 310.267 240.205C310.267 240.606 310.534 240.891 310.997 240.891H312.743Z" fill="#012B6B"/>
<path d="M320.449 243.84V240.018L318.747 243.84H318.284L316.574 240.018V243.84H315.416V238.504H316.93L318.525 242.067L320.092 238.504H321.616V243.84H320.458H320.449Z" fill="#012B6B"/>
</svg>
