<svg width="758" height="523" viewBox="0 0 758 523" fill="none" xmlns="http://www.w3.org/2000/svg">
<path d="M588.961 232.743C570.276 214.981 551.089 197.719 531.038 181.46C510.901 165.322 490.02 150.1 468.396 136.035C462.934 132.596 457.575 129.037 452.061 125.702L435.467 115.802L418.614 106.368C412.996 103.24 407.258 100.355 401.588 97.3308C378.754 85.5123 355.505 74.6786 332.084 64.346L314.47 56.6916L296.804 49.2272L279.104 41.8665L270.254 38.2035C267.108 36.9249 264.118 35.9054 261.058 34.8341C254.507 32.6225 247.939 30.5145 241.353 28.4929C194.009 13.1495 103.779 -10.7122 61.2398 6.4627C50.9032 10.6268 43.7989 17.0545 40.0307 25.5037C39.8925 25.6938 39.7715 25.9011 39.6677 26.143C33.445 41.0026 45.6658 62.3589 59.3039 79.8622C64.5586 87.4993 70.3147 94.7736 76.3127 101.823C85.5257 112.536 95.3438 122.748 105.68 132.424C116 142.134 126.838 151.326 138.194 160.018C138.488 160.242 138.799 160.45 139.128 160.657C143.743 163.404 149.689 161.901 152.437 157.288C155.186 152.674 153.682 146.73 149.067 143.983C137.416 137.037 126.025 129.452 115.032 121.296C104.021 113.158 93.4079 104.415 83.3132 95.1364C77.0386 89.279 70.9196 83.1969 65.2328 76.7693C49.7451 57.1754 41.3444 39.5339 45.562 28.8903C45.5966 28.8039 45.6485 28.7348 45.7003 28.6484C48.6907 21.5124 54.7406 16.0523 63.6771 12.4584C102.465 -3.21331 186.334 18.0221 234.007 33.0026C242.252 35.7499 250.462 38.6354 258.587 41.6765C261.525 42.7996 264.533 43.9572 267.264 45.1667L275.976 49.1063L293.399 57.0199L310.771 65.0198L328.039 73.1926C373.932 95.1883 418.891 119.085 460.306 148.13C481.049 162.575 500.996 178.108 520.183 194.506C539.283 211.041 557.536 228.527 575.306 246.514L575.427 246.635C575.427 246.635 575.548 246.756 575.617 246.825C579.489 250.523 585.625 250.367 589.324 246.48C593.023 242.609 592.868 236.475 588.978 232.778L588.961 232.743Z" fill="#D1D3D4"/>
<path d="M339.971 436.939H339.953C331.478 428.951 322.484 420.894 312.8 413.783C303.116 406.673 292.965 400.355 282.608 394.726C272.251 389.062 261.721 383.949 251.087 379.163C248.446 377.923 245.77 376.77 243.095 375.616C240.419 374.463 237.795 373.258 235.051 372.139C229.613 369.832 224.089 367.783 218.531 365.872C207.397 362.05 196.038 358.968 184.541 356.662C180.209 355.801 175.841 355.043 171.457 354.424C147.98 350.24 125.159 350.102 108.518 356.937C97.4879 361.465 90.0996 368.678 86.5609 378.353C79.3798 398.014 88.3561 419.878 100.422 438.006C105.584 446.803 111.626 455.084 118.099 462.952C123.036 468.874 128.266 474.624 133.963 479.995C139.521 485.281 145.235 490.428 151.156 495.403C157.094 500.362 163.24 505.148 169.765 509.606C176.29 514.065 183.126 518.249 190.946 521.675H190.963C191.274 521.83 191.619 521.95 191.947 522.053C197.056 523.654 202.494 520.814 204.099 515.718C205.705 510.622 202.857 505.199 197.747 503.598C191.463 501.636 184.938 498.606 178.603 495.197C172.251 491.788 166.002 487.915 159.874 483.817C153.745 479.72 147.721 475.364 141.817 470.837C136 466.446 130.493 461.557 125.194 456.41C118.03 449.42 111.28 441.931 105.342 433.84C93.9836 416.4 86.6126 396.895 92.5854 380.557C95.4682 372.638 101.648 366.698 110.935 362.876C125.211 357.023 146.461 356.489 170.179 360.621C174.426 361.516 178.655 362.549 182.832 363.686C193.811 366.698 204.583 370.451 215.044 374.876C220.274 377.079 225.436 379.438 230.476 381.986C232.996 383.208 235.551 384.603 238.089 385.928C240.626 387.254 243.181 388.58 245.684 389.957C255.765 395.38 265.657 401.061 275.185 407.173C284.731 413.25 293.794 419.843 302.253 427.005C310.711 434.184 318.427 442.121 326.213 450.522C326.351 450.677 326.523 450.849 326.679 451.004C330.58 454.671 336.708 454.482 340.368 450.591C344.027 446.7 343.855 440.588 339.953 436.939H339.971Z" fill="#CD242B"/>
<path d="M478.829 392.25C478.622 387.575 478.052 382.969 477.43 378.346C477.274 377.186 476.894 375.991 476.307 374.9C473.698 370.104 467.704 368.355 462.919 370.969C458.134 373.584 456.389 379.592 458.997 384.389V384.423C461.001 388.06 462.988 391.748 464.663 395.54C466.356 399.332 467.877 403.211 469.103 407.193C469.915 409.843 470.554 412.544 471.038 415.297C470.917 421.219 469.915 426.5 468.049 431.089C463.99 441.045 454.558 450.499 434.778 455.123C426.002 456.629 416.967 456.906 408.002 456.542C396.065 456.127 384.127 454.62 372.26 452.646C360.392 450.638 348.593 448.093 336.88 445.218C325.133 442.344 313.525 439.089 301.829 435.677C290.324 432.266 278.94 428.509 267.729 424.215C256.517 419.955 245.444 415.332 234.595 410.224C229.154 407.695 223.764 405.081 218.322 402.345L210.099 398.259L202.084 394.155C191.39 388.648 180.887 382.744 170.522 376.58C160.123 370.467 149.948 363.957 139.859 357.325C119.734 343.957 100.23 329.637 81.6597 314.209C63.1582 298.729 45.4513 282.193 30.3185 263.527C24.1167 255.908 18.4678 247.839 13.8208 239.233C7.10087 224.74 4.63055 211.147 7.77459 199.234C9.65757 192.1 13.1126 186.334 17.5177 181.676C20.3853 179.477 23.4776 177.642 26.708 176.187C28.6082 175.339 30.5776 174.612 32.5469 173.971C32.4951 174.698 32.4433 175.426 32.4433 176.17C32.4433 191.46 44.7949 203.84 60.0487 203.84C75.3025 203.84 87.6541 191.46 87.6541 176.17C87.6541 160.881 75.3025 148.5 60.0487 148.5C52.9141 148.5 46.436 151.236 41.5472 155.686C39.8888 156.413 38.2477 157.175 36.6411 157.989C31.1995 160.759 25.9997 164.067 21.4046 168.066C18.2087 170.837 15.3065 173.954 12.8707 177.348C7.4291 183.079 3.59405 189.867 1.5556 197.555C-2.27945 212.082 1.15827 228.48 9.86487 245.744C13.4408 253.899 17.8977 261.639 22.6656 269.085C36.4683 290.071 53.536 308.512 71.6057 325.603C89.779 342.624 109.231 358.173 129.529 372.493C149.861 386.778 171.058 399.852 193.17 411.401C195.934 412.838 198.732 414.241 201.531 415.626L209.788 419.661C215.316 422.379 220.965 425.098 226.649 427.678C238.067 432.751 249.659 437.461 261.475 441.547C273.291 445.616 285.263 449.287 297.407 452.231C303.367 453.703 309.396 455.157 315.442 456.491C321.506 457.807 327.586 459.036 333.685 460.179C345.898 462.43 358.215 464.213 370.636 465.339C383.056 466.43 395.581 466.897 408.14 466.101C414.411 465.668 420.681 464.941 426.883 463.728C429.457 463.226 432.014 462.62 434.553 461.945C454.834 457.651 468.049 448.214 474.027 433.582C476.186 428.301 477.309 422.292 477.464 415.591C478.086 412.527 478.501 409.41 478.743 406.276C479.088 401.635 479.054 396.96 478.829 392.302V392.25Z" fill="#0095DA"/>
<path d="M142 205.444V173.042H159.3C166.887 173.042 170.96 178.096 170.96 184.175C170.96 190.254 166.873 195.058 159.3 195.058H151.814V205.459H142V205.444ZM158.04 181.201H151.814V186.885H158.04C159.695 186.885 160.999 185.771 160.999 184.072C160.999 182.373 159.681 181.201 158.04 181.201Z" fill="white"/>
<path d="M191.556 172.5C201.56 172.5 209.295 179.297 209.295 189.258C209.295 199.219 201.575 206.015 191.556 206.015C181.536 206.015 173.816 199.219 173.816 189.258C173.816 179.297 181.536 172.5 191.556 172.5ZM191.556 181.142C186.839 181.142 183.777 184.731 183.777 189.258C183.777 193.784 186.839 197.373 191.556 197.373C196.272 197.373 199.334 193.784 199.334 189.258C199.334 184.731 196.272 181.142 191.556 181.142Z" fill="white"/>
<path d="M212.458 189.258C212.458 179.253 220.134 172.5 230.051 172.5C238.796 172.5 243.073 177.451 245.021 181.933L236.569 185.874C235.749 183.34 233.215 181.157 230.065 181.157C225.598 181.157 222.434 184.746 222.434 189.272C222.434 193.799 225.598 197.387 230.065 197.387C233.229 197.387 235.749 195.205 236.569 192.671L245.021 196.553C243.132 200.874 238.796 206.03 230.051 206.03C220.134 206.03 212.458 199.233 212.458 189.272V189.258Z" fill="white"/>
<path d="M247.731 189.258C247.731 179.253 255.407 172.5 265.324 172.5C274.069 172.5 278.346 177.451 280.295 181.933L271.843 185.874C271.022 183.34 268.488 181.157 265.339 181.157C260.871 181.157 257.707 184.746 257.707 189.272C257.707 193.799 260.871 197.387 265.339 197.387C268.503 197.387 271.022 195.205 271.843 192.671L280.295 196.553C278.405 200.874 274.069 206.03 265.324 206.03C255.407 206.03 247.731 199.233 247.731 189.272V189.258Z" fill="white"/>
<path d="M284.763 173.027H294.577V191.294L305.856 173.027H315.964V205.429H306.149V186.094L294.196 205.429H284.763V173.027Z" fill="white"/>
<path d="M321.295 205.444L327.169 193.974C324.591 192.715 321.339 189.741 321.339 184.16C321.339 178.081 325.426 173.027 332.999 173.027H350.299V205.429H340.484V195.22H336.939L332.472 205.429H321.295V205.444ZM340.484 186.694V181.597H334.508C332.852 181.597 331.3 182.373 331.3 184.131C331.3 185.889 332.852 186.709 334.508 186.709H340.484V186.694Z" fill="white"/>
<path d="M361.197 181.626C364.01 181.626 366.397 184.014 366.397 186.826C366.397 189.639 364.01 192.026 361.197 192.026C358.385 192.026 355.997 189.639 355.997 186.826C355.997 184.014 358.37 181.626 361.197 181.626ZM361.197 195.615C364.01 195.615 366.397 198.003 366.397 200.815C366.397 203.628 364.01 206.015 361.197 206.015C358.385 206.015 355.997 203.628 355.997 200.815C355.997 198.003 358.37 195.615 361.197 195.615Z" fill="white"/>
<path d="M142 246.694V214.292H166.58V222.451H151.814V226.245H166.243V234.404H151.814V238.534H166.58V246.694H142Z" fill="white"/>
<path d="M170.374 238.139H172.952C174.212 237.07 175.867 233.862 176.893 222.451L177.625 214.292H202.307V238.154H206.101V252.685H197.547V246.708H178.943V252.685H170.389V238.154L170.374 238.139ZM185.198 226.039C184.568 232.836 183.645 236.542 182.81 238.139H192.478V222.831H185.476L185.183 226.039H185.198Z" fill="white"/>
<path d="M210.759 214.277H220.573V232.543L231.852 214.277H241.96V246.679H232.145V227.343L220.192 246.679H210.759V214.277Z" fill="white"/>
<path d="M270.041 246.694V234.301H258.425V246.694H248.61V214.292H258.425V225.761H270.041V214.292H279.855V246.694H270.041Z" fill="white"/>
<path d="M284.763 230.507C284.763 220.502 292.438 213.75 302.355 213.75C311.1 213.75 315.378 218.701 317.326 223.183L308.874 227.123C308.054 224.589 305.519 222.407 302.37 222.407C297.902 222.407 294.738 225.996 294.738 230.522C294.738 235.048 297.902 238.637 302.37 238.637C305.534 238.637 308.054 236.454 308.874 233.92L317.326 237.802C315.436 242.123 311.1 247.28 302.355 247.28C292.438 247.28 284.763 240.483 284.763 230.522V230.507Z" fill="white"/>
<path d="M328.737 246.694V222.831H320.036V214.277H347.194V222.831H338.552V246.694H328.737Z" fill="white"/>
<path d="M352.101 246.694V214.292H371.773C378.482 214.292 381.397 218.759 381.397 222.553C381.397 226.581 379.01 229.306 375.86 229.994C379.361 230.522 382.027 233.73 382.027 237.919C382.027 242.446 378.966 246.708 372.462 246.708H352.101V246.694ZM361.915 226.332H369.488C370.514 226.332 371.436 225.41 371.436 224.238C371.436 223.066 370.514 222.246 369.488 222.246H361.915V226.332ZM361.915 238.725H369.781C371.187 238.725 372.066 237.758 372.066 236.542C372.066 235.326 371.187 234.301 369.781 234.301H361.915V238.725Z" fill="white"/>
<path d="M403.37 213.735C413.375 213.735 421.109 220.532 421.109 230.493C421.109 240.453 413.389 247.25 403.37 247.25C393.351 247.25 385.631 240.453 385.631 230.493C385.631 220.532 393.351 213.735 403.37 213.735ZM403.37 222.377C398.653 222.377 395.592 225.966 395.592 230.493C395.592 235.019 398.653 238.608 403.37 238.608C408.087 238.608 411.148 235.019 411.148 230.493C411.148 225.966 408.087 222.377 403.37 222.377Z" fill="white"/>
<path d="M142 255.527H151.814V273.793L163.094 255.527H173.201V287.929H163.387V268.593L151.434 287.929H142V255.527Z" fill="white"/>
<path d="M222.317 287.929V267.465L215.081 287.929H210.701L203.465 267.465V287.929H193.65V255.527H207.2L212.884 272.05L218.567 255.527H232.117V287.929H222.302H222.317Z" fill="white"/>
<path d="M260.212 287.929V275.536H248.596V287.929H238.781V255.527H248.596V266.996H260.212V255.527H270.026V287.929H260.212Z" fill="white"/>
<path d="M292.673 254.985C302.678 254.985 310.412 261.781 310.412 271.742C310.412 281.703 302.692 288.5 292.673 288.5C282.653 288.5 274.934 281.703 274.934 271.742C274.934 261.781 282.653 254.985 292.673 254.985ZM292.673 263.627C287.956 263.627 284.894 267.216 284.894 271.742C284.894 276.269 287.956 279.857 292.673 279.857C297.389 279.857 300.451 276.269 300.451 271.742C300.451 267.216 297.389 263.627 292.673 263.627Z" fill="white"/>
<path d="M315.318 287.929V255.527H339.898V264.081H325.133V287.943H315.318V287.929Z" fill="white"/>
<path d="M361.49 254.985C371.495 254.985 379.229 261.781 379.229 271.742C379.229 281.703 371.51 288.5 361.49 288.5C351.471 288.5 343.751 281.703 343.751 271.742C343.751 261.781 351.471 254.985 361.49 254.985ZM361.49 263.627C356.773 263.627 353.712 267.216 353.712 271.742C353.712 276.269 356.773 279.857 361.49 279.857C366.207 279.857 369.268 276.269 369.268 271.742C369.268 267.216 366.207 263.627 361.49 263.627Z" fill="white"/>
<path d="M400.118 254.985C410.123 254.985 417.857 261.781 417.857 271.742C417.857 281.703 410.137 288.5 400.118 288.5C390.099 288.5 382.379 281.703 382.379 271.742C382.379 261.781 390.099 254.985 400.118 254.985ZM400.118 263.627C395.401 263.627 392.34 267.216 392.34 271.742C392.34 276.269 395.401 279.857 400.118 279.857C404.835 279.857 407.896 276.269 407.896 271.742C407.896 267.216 404.835 263.627 400.118 263.627Z" fill="white"/>
<path d="M449.776 255.527V263.686H432.579V266.85H440.548C447.843 266.85 451.724 271.61 451.724 277.397C451.724 283.183 447.843 287.943 440.548 287.943H422.765V255.541H449.776V255.527ZM432.579 275.009V279.77H439.332C440.694 279.77 441.764 278.803 441.764 277.397C441.764 275.99 440.694 275.009 439.332 275.009H432.579Z" fill="white"/>
<path d="M456.338 287.929V255.527H473.638C481.225 255.527 485.298 260.58 485.298 266.659C485.298 272.738 481.211 277.543 473.638 277.543H466.152V287.943H456.338V287.929ZM472.378 263.686H466.152V269.369H472.378C474.033 269.369 475.337 268.256 475.337 266.557C475.337 264.858 474.018 263.686 472.378 263.686Z" fill="white"/>
<path d="M512.016 287.929L510.757 283.754H498.32L497.06 287.929H486.426L498.379 255.527H510.727L522.68 287.929H512.046H512.016ZM504.531 264.169L500.84 275.595H508.222L504.531 264.169Z" fill="white"/>
<path d="M528.599 277.148C531.133 279.33 535.395 280.253 537.886 280.253C541.343 280.253 543.086 279.14 543.086 277.865C543.086 276.591 542.163 275.727 537.593 275.727H531.426V267.568H537.593C541.68 267.568 542.544 266.601 542.544 265.575C542.544 264.067 540.303 263.29 537.241 263.29C534.473 263.29 531.074 264.36 528.833 266.205L524.219 260.375C527.09 257.211 531.997 255.029 538.31 255.029C547.246 255.029 552.3 258.676 552.3 264.023C552.3 267.48 549.282 270.526 545.151 271.215C548.74 271.61 552.827 274.32 552.827 278.788C552.827 284.574 546.66 288.5 538.252 288.5C531.836 288.5 526.489 286.361 523.765 283.446L528.569 277.133L528.599 277.148Z" fill="white"/>
<path d="M558.188 255.527H568.002V273.793L579.282 255.527H589.389V287.929H579.575V268.593L567.622 287.929H558.188V255.527Z" fill="white"/>
<path d="M596.039 287.929V255.527H620.619V263.686H605.853V267.48H620.282V275.639H605.853V279.77H620.619V287.929H596.039Z" fill="white"/>
<path d="M392.359 301.57H394.276L399.167 313.742L404.048 301.57H405.976L399.906 316.5H398.409L392.359 301.57ZM391.733 301.57H393.425L393.702 310.676V316.5H391.733V301.57ZM404.899 301.57H406.591V316.5H404.623V310.676L404.899 301.57Z" fill="white"/>
<path d="M414.384 316.705C413.612 316.705 412.911 316.575 412.282 316.315C411.66 316.049 411.124 315.676 410.672 315.198C410.228 314.719 409.886 314.152 409.647 313.496C409.408 312.839 409.288 312.122 409.288 311.342V310.912C409.288 310.009 409.421 309.206 409.688 308.502C409.955 307.791 410.317 307.189 410.775 306.697C411.233 306.205 411.752 305.833 412.333 305.58C412.915 305.327 413.516 305.2 414.138 305.2C414.931 305.2 415.615 305.337 416.189 305.61C416.77 305.884 417.245 306.267 417.614 306.759C417.983 307.244 418.257 307.818 418.435 308.481C418.612 309.138 418.701 309.855 418.701 310.635V311.486H410.416V309.938H416.804V309.794C416.777 309.302 416.674 308.823 416.497 308.358C416.326 307.894 416.052 307.511 415.676 307.21C415.3 306.909 414.788 306.759 414.138 306.759C413.708 306.759 413.311 306.851 412.949 307.036C412.586 307.213 412.275 307.48 412.016 307.835C411.756 308.191 411.554 308.625 411.411 309.138C411.267 309.65 411.195 310.242 411.195 310.912V311.342C411.195 311.869 411.267 312.364 411.411 312.829C411.561 313.287 411.776 313.69 412.057 314.039C412.344 314.388 412.689 314.661 413.092 314.859C413.502 315.058 413.967 315.157 414.487 315.157C415.157 315.157 415.724 315.02 416.189 314.747C416.654 314.473 417.061 314.107 417.409 313.649L418.558 314.562C418.318 314.924 418.014 315.27 417.645 315.598C417.276 315.926 416.821 316.192 416.281 316.397C415.748 316.603 415.116 316.705 414.384 316.705Z" fill="white"/>
<path d="M422.916 305.405H424.812L424.648 309.558C424.607 310.611 424.488 311.52 424.29 312.286C424.091 313.051 423.838 313.704 423.531 314.244C423.223 314.777 422.878 315.225 422.495 315.587C422.119 315.95 421.729 316.254 421.326 316.5H420.383L420.434 314.952L420.824 314.941C421.049 314.675 421.268 314.401 421.48 314.121C421.692 313.834 421.887 313.496 422.064 313.106C422.242 312.709 422.389 312.228 422.505 311.66C422.628 311.086 422.707 310.385 422.741 309.558L422.916 305.405ZM423.387 305.405H430.062V316.5H428.166V307.159H423.387V305.405ZM419.952 314.941H431.488V319.771H429.591V316.5H421.849V319.771H419.942L419.952 314.941Z" fill="white"/>
<path d="M435.641 313.496L440.757 305.405H442.665V316.5H440.757V308.41L435.641 316.5H433.754V305.405H435.641V313.496Z" fill="white"/>
<path d="M452.252 314.603V308.892C452.252 308.454 452.163 308.075 451.985 307.753C451.814 307.425 451.555 307.172 451.206 306.995C450.857 306.817 450.427 306.728 449.914 306.728C449.436 306.728 449.015 306.81 448.653 306.974C448.297 307.138 448.017 307.354 447.812 307.62C447.614 307.887 447.515 308.174 447.515 308.481H445.618C445.618 308.085 445.72 307.692 445.925 307.302C446.13 306.913 446.424 306.561 446.807 306.246C447.197 305.925 447.662 305.672 448.202 305.487C448.749 305.296 449.357 305.2 450.027 305.2C450.833 305.2 451.544 305.337 452.16 305.61C452.782 305.884 453.267 306.297 453.616 306.851C453.971 307.398 454.149 308.085 454.149 308.912V314.08C454.149 314.449 454.18 314.842 454.241 315.259C454.31 315.676 454.409 316.035 454.539 316.336V316.5H452.56C452.464 316.281 452.389 315.991 452.334 315.628C452.279 315.259 452.252 314.917 452.252 314.603ZM452.58 309.773L452.601 311.106H450.683C450.143 311.106 449.661 311.151 449.237 311.24C448.813 311.322 448.458 311.448 448.171 311.619C447.884 311.79 447.665 312.005 447.515 312.265C447.364 312.518 447.289 312.815 447.289 313.157C447.289 313.506 447.368 313.824 447.525 314.111C447.682 314.398 447.918 314.627 448.232 314.798C448.554 314.962 448.947 315.044 449.412 315.044C449.993 315.044 450.505 314.921 450.95 314.675C451.394 314.429 451.746 314.128 452.006 313.772C452.272 313.417 452.416 313.072 452.437 312.737L453.247 313.649C453.199 313.937 453.069 314.254 452.857 314.603C452.645 314.952 452.361 315.287 452.006 315.608C451.657 315.922 451.24 316.186 450.755 316.397C450.276 316.603 449.736 316.705 449.135 316.705C448.383 316.705 447.723 316.558 447.156 316.264C446.595 315.97 446.158 315.577 445.843 315.085C445.536 314.586 445.382 314.029 445.382 313.414C445.382 312.819 445.498 312.296 445.73 311.845C445.963 311.387 446.298 311.007 446.735 310.707C447.173 310.399 447.699 310.167 448.314 310.009C448.93 309.852 449.617 309.773 450.375 309.773H452.58Z" fill="white"/>
<path d="M468.884 314.603V308.892C468.884 308.454 468.795 308.075 468.617 307.753C468.446 307.425 468.187 307.172 467.838 306.995C467.489 306.817 467.059 306.728 466.546 306.728C466.067 306.728 465.647 306.81 465.285 306.974C464.929 307.138 464.649 307.354 464.444 307.62C464.246 307.887 464.146 308.174 464.146 308.481H462.25C462.25 308.085 462.352 307.692 462.557 307.302C462.762 306.913 463.056 306.561 463.439 306.246C463.829 305.925 464.293 305.672 464.833 305.487C465.38 305.296 465.989 305.2 466.659 305.2C467.465 305.2 468.176 305.337 468.792 305.61C469.414 305.884 469.899 306.297 470.248 306.851C470.603 307.398 470.781 308.085 470.781 308.912V314.08C470.781 314.449 470.812 314.842 470.873 315.259C470.941 315.676 471.041 316.035 471.17 316.336V316.5H469.191C469.096 316.281 469.021 315.991 468.966 315.628C468.911 315.259 468.884 314.917 468.884 314.603ZM469.212 309.773L469.232 311.106H467.315C466.775 311.106 466.293 311.151 465.869 311.24C465.445 311.322 465.09 311.448 464.803 311.619C464.516 311.79 464.297 312.005 464.146 312.265C463.996 312.518 463.921 312.815 463.921 313.157C463.921 313.506 464 313.824 464.157 314.111C464.314 314.398 464.55 314.627 464.864 314.798C465.186 314.962 465.579 315.044 466.043 315.044C466.625 315.044 467.137 314.921 467.582 314.675C468.026 314.429 468.378 314.128 468.638 313.772C468.904 313.417 469.048 313.072 469.068 312.737L469.878 313.649C469.831 313.937 469.701 314.254 469.489 314.603C469.277 314.952 468.993 315.287 468.638 315.608C468.289 315.922 467.872 316.186 467.387 316.397C466.908 316.603 466.368 316.705 465.767 316.705C465.015 316.705 464.355 316.558 463.788 316.264C463.227 315.97 462.79 315.577 462.475 315.085C462.167 314.586 462.014 314.029 462.014 313.414C462.014 312.819 462.13 312.296 462.362 311.845C462.595 311.387 462.93 311.007 463.367 310.707C463.805 310.399 464.331 310.167 464.946 310.009C465.562 309.852 466.249 309.773 467.007 309.773H469.212Z" fill="white"/>
<path d="M478.123 305.405V316.5H476.215V305.405H478.123ZM481.845 305.405V306.943H472.565V305.405H481.845Z" fill="white"/>
<path d="M490.284 305.405V306.974H484.921V305.405H490.284ZM491.955 305.405V316.5H490.058V305.405H491.955ZM484.459 305.405H486.367L486.08 310.758C486.032 311.585 485.953 312.316 485.844 312.952C485.741 313.581 485.598 314.121 485.413 314.572C485.235 315.023 485.01 315.393 484.736 315.68C484.47 315.96 484.148 316.168 483.772 316.305C483.396 316.435 482.962 316.5 482.47 316.5H481.875V314.829L482.286 314.798C482.58 314.777 482.829 314.709 483.034 314.593C483.246 314.477 483.424 314.306 483.567 314.08C483.711 313.848 483.827 313.55 483.916 313.188C484.012 312.826 484.083 312.395 484.131 311.896C484.186 311.397 484.227 310.816 484.254 310.153L484.459 305.405Z" fill="white"/>
<path d="M501.553 314.603V308.892C501.553 308.454 501.464 308.075 501.286 307.753C501.115 307.425 500.855 307.172 500.507 306.995C500.158 306.817 499.728 306.728 499.215 306.728C498.736 306.728 498.316 306.81 497.954 306.974C497.598 307.138 497.318 307.354 497.113 307.62C496.915 307.887 496.815 308.174 496.815 308.481H494.918C494.918 308.085 495.021 307.692 495.226 307.302C495.431 306.913 495.725 306.561 496.108 306.246C496.498 305.925 496.962 305.672 497.502 305.487C498.049 305.296 498.658 305.2 499.328 305.2C500.134 305.2 500.845 305.337 501.46 305.61C502.083 305.884 502.568 306.297 502.917 306.851C503.272 307.398 503.45 308.085 503.45 308.912V314.08C503.45 314.449 503.48 314.842 503.542 315.259C503.61 315.676 503.709 316.035 503.839 316.336V316.5H501.86C501.765 316.281 501.689 315.991 501.635 315.628C501.58 315.259 501.553 314.917 501.553 314.603ZM501.881 309.773L501.901 311.106H499.984C499.444 311.106 498.962 311.151 498.538 311.24C498.114 311.322 497.759 311.448 497.472 311.619C497.185 311.79 496.966 312.005 496.815 312.265C496.665 312.518 496.59 312.815 496.59 313.157C496.59 313.506 496.668 313.824 496.826 314.111C496.983 314.398 497.219 314.627 497.533 314.798C497.854 314.962 498.248 315.044 498.712 315.044C499.293 315.044 499.806 314.921 500.25 314.675C500.695 314.429 501.047 314.128 501.307 313.772C501.573 313.417 501.717 313.072 501.737 312.737L502.547 313.649C502.5 313.937 502.37 314.254 502.158 314.603C501.946 314.952 501.662 315.287 501.307 315.608C500.958 315.922 500.541 316.186 500.056 316.397C499.577 316.603 499.037 316.705 498.436 316.705C497.684 316.705 497.024 316.558 496.457 316.264C495.896 315.97 495.458 315.577 495.144 315.085C494.836 314.586 494.683 314.029 494.683 313.414C494.683 312.819 494.799 312.296 495.031 311.845C495.264 311.387 495.599 311.007 496.036 310.707C496.474 310.399 497 310.167 497.615 310.009C498.23 309.852 498.917 309.773 499.676 309.773H501.881Z" fill="white"/>
<path d="M510.874 315.146C511.325 315.146 511.742 315.054 512.125 314.87C512.507 314.685 512.822 314.432 513.068 314.111C513.314 313.783 513.454 313.41 513.488 312.993H515.293C515.259 313.649 515.037 314.261 514.626 314.829C514.223 315.389 513.693 315.844 513.037 316.192C512.381 316.534 511.66 316.705 510.874 316.705C510.04 316.705 509.312 316.558 508.689 316.264C508.074 315.97 507.562 315.567 507.151 315.054C506.748 314.542 506.444 313.954 506.239 313.291C506.041 312.621 505.941 311.913 505.941 311.168V310.737C505.941 309.992 506.041 309.288 506.239 308.625C506.444 307.955 506.748 307.364 507.151 306.851C507.562 306.338 508.074 305.935 508.689 305.641C509.312 305.347 510.04 305.2 510.874 305.2C511.742 305.2 512.5 305.378 513.15 305.733C513.799 306.082 514.309 306.561 514.678 307.169C515.054 307.771 515.259 308.454 515.293 309.22H513.488C513.454 308.762 513.324 308.348 513.099 307.979C512.88 307.61 512.579 307.316 512.196 307.097C511.82 306.872 511.379 306.759 510.874 306.759C510.292 306.759 509.804 306.875 509.407 307.107C509.018 307.333 508.707 307.641 508.474 308.03C508.249 308.413 508.084 308.84 507.982 309.312C507.886 309.777 507.838 310.252 507.838 310.737V311.168C507.838 311.653 507.886 312.132 507.982 312.604C508.078 313.075 508.238 313.502 508.464 313.885C508.696 314.268 509.007 314.576 509.397 314.808C509.793 315.034 510.286 315.146 510.874 315.146Z" fill="white"/>
<path d="M530.028 305.405V306.974H524.419V305.405H530.028ZM524.696 305.405V316.5H522.799V305.405H524.696ZM531.709 305.405V316.5H529.802V305.405H531.709Z" fill="white"/>
<path d="M534.252 311.076V310.84C534.252 310.04 534.369 309.298 534.601 308.615C534.833 307.924 535.168 307.326 535.606 306.82C536.043 306.308 536.573 305.911 537.195 305.631C537.817 305.344 538.515 305.2 539.287 305.2C540.066 305.2 540.767 305.344 541.389 305.631C542.018 305.911 542.551 306.308 542.989 306.82C543.433 307.326 543.771 307.924 544.004 308.615C544.236 309.298 544.353 310.04 544.353 310.84V311.076C544.353 311.875 544.236 312.617 544.004 313.301C543.771 313.984 543.433 314.583 542.989 315.095C542.551 315.601 542.021 315.998 541.399 316.285C540.784 316.565 540.087 316.705 539.308 316.705C538.528 316.705 537.828 316.565 537.206 316.285C536.583 315.998 536.05 315.601 535.606 315.095C535.168 314.583 534.833 313.984 534.601 313.301C534.369 312.617 534.252 311.875 534.252 311.076ZM536.149 310.84V311.076C536.149 311.629 536.214 312.152 536.344 312.645C536.474 313.13 536.669 313.561 536.929 313.937C537.195 314.312 537.527 314.61 537.923 314.829C538.32 315.041 538.781 315.146 539.308 315.146C539.827 315.146 540.282 315.041 540.671 314.829C541.068 314.61 541.396 314.312 541.656 313.937C541.916 313.561 542.11 313.13 542.24 312.645C542.377 312.152 542.445 311.629 542.445 311.076V310.84C542.445 310.293 542.377 309.777 542.24 309.292C542.11 308.799 541.912 308.365 541.646 307.989C541.386 307.606 541.058 307.306 540.661 307.087C540.271 306.868 539.813 306.759 539.287 306.759C538.768 306.759 538.31 306.868 537.913 307.087C537.523 307.306 537.195 307.606 536.929 307.989C536.669 308.365 536.474 308.799 536.344 309.292C536.214 309.777 536.149 310.293 536.149 310.84Z" fill="white"/>
<path d="M553.991 313.496L559.108 305.405H561.015V316.5H559.108V308.41L553.991 316.5H552.104V305.405H553.991V313.496Z" fill="white"/>
<path d="M568.583 305.405V316.5H566.675V305.405H568.583ZM572.305 305.405V306.943H563.025V305.405H572.305Z" fill="white"/>
<path d="M573.238 311.076V310.84C573.238 310.04 573.354 309.298 573.586 308.615C573.819 307.924 574.154 307.326 574.591 306.82C575.029 306.308 575.559 305.911 576.181 305.631C576.803 305.344 577.5 305.2 578.272 305.2C579.052 305.2 579.752 305.344 580.375 305.631C581.003 305.911 581.537 306.308 581.974 306.82C582.418 307.326 582.757 307.924 582.989 308.615C583.222 309.298 583.338 310.04 583.338 310.84V311.076C583.338 311.875 583.222 312.617 582.989 313.301C582.757 313.984 582.418 314.583 581.974 315.095C581.537 315.601 581.007 315.998 580.385 316.285C579.77 316.565 579.072 316.705 578.293 316.705C577.514 316.705 576.813 316.565 576.191 316.285C575.569 315.998 575.036 315.601 574.591 315.095C574.154 314.583 573.819 313.984 573.586 313.301C573.354 312.617 573.238 311.875 573.238 311.076ZM575.135 310.84V311.076C575.135 311.629 575.2 312.152 575.33 312.645C575.459 313.13 575.654 313.561 575.914 313.937C576.181 314.312 576.512 314.61 576.909 314.829C577.305 315.041 577.767 315.146 578.293 315.146C578.812 315.146 579.267 315.041 579.657 314.829C580.053 314.61 580.381 314.312 580.641 313.937C580.901 313.561 581.096 313.13 581.226 312.645C581.362 312.152 581.431 311.629 581.431 311.076V310.84C581.431 310.293 581.362 309.777 581.226 309.292C581.096 308.799 580.897 308.365 580.631 307.989C580.371 307.606 580.043 307.306 579.646 307.087C579.257 306.868 578.799 306.759 578.272 306.759C577.753 306.759 577.295 306.868 576.898 307.087C576.509 307.306 576.181 307.606 575.914 307.989C575.654 308.365 575.459 308.799 575.33 309.292C575.2 309.777 575.135 310.293 575.135 310.84Z" fill="white"/>
<path d="M592.884 305.405V306.974H587.757V316.5H585.86V305.405H592.884Z" fill="white"/>
<path d="M601.077 314.603V308.892C601.077 308.454 600.988 308.075 600.811 307.753C600.64 307.425 600.38 307.172 600.031 306.995C599.683 306.817 599.252 306.728 598.739 306.728C598.261 306.728 597.84 306.81 597.478 306.974C597.123 307.138 596.842 307.354 596.637 307.62C596.439 307.887 596.34 308.174 596.34 308.481H594.443C594.443 308.085 594.545 307.692 594.75 307.302C594.956 306.913 595.25 306.561 595.632 306.246C596.022 305.925 596.487 305.672 597.027 305.487C597.574 305.296 598.182 305.2 598.852 305.2C599.659 305.2 600.37 305.337 600.985 305.61C601.607 305.884 602.092 306.297 602.441 306.851C602.796 307.398 602.974 308.085 602.974 308.912V314.08C602.974 314.449 603.005 314.842 603.066 315.259C603.135 315.676 603.234 316.035 603.364 316.336V316.5H601.385C601.289 316.281 601.214 315.991 601.159 315.628C601.104 315.259 601.077 314.917 601.077 314.603ZM601.405 309.773L601.426 311.106H599.508C598.968 311.106 598.486 311.151 598.062 311.24C597.639 311.322 597.283 311.448 596.996 311.619C596.709 311.79 596.49 312.005 596.34 312.265C596.189 312.518 596.114 312.815 596.114 313.157C596.114 313.506 596.193 313.824 596.35 314.111C596.507 314.398 596.743 314.627 597.058 314.798C597.379 314.962 597.772 315.044 598.237 315.044C598.818 315.044 599.331 314.921 599.775 314.675C600.219 314.429 600.571 314.128 600.831 313.772C601.098 313.417 601.241 313.072 601.262 312.737L602.072 313.649C602.024 313.937 601.894 314.254 601.682 314.603C601.47 314.952 601.187 315.287 600.831 315.608C600.482 315.922 600.065 316.186 599.58 316.397C599.102 316.603 598.562 316.705 597.96 316.705C597.208 316.705 596.548 316.558 595.981 316.264C595.42 315.97 594.983 315.577 594.668 315.085C594.361 314.586 594.207 314.029 594.207 313.414C594.207 312.819 594.323 312.296 594.556 311.845C594.788 311.387 595.123 311.007 595.561 310.707C595.998 310.399 596.524 310.167 597.14 310.009C597.755 309.852 598.442 309.773 599.201 309.773H601.405Z" fill="white"/>
<path d="M612.336 313.978L616.109 305.405H617.935L612.992 316.5H611.68L606.758 305.405H608.583L612.336 313.978ZM608.029 305.405V316.5H606.132V305.405H608.029ZM616.581 316.5V305.405H618.488V316.5H616.581Z" fill="white"/>
<path d="M397.055 334.517H393.271L393.251 332.928H396.686C397.253 332.928 397.749 332.832 398.173 332.641C398.597 332.449 398.925 332.176 399.157 331.82C399.396 331.458 399.516 331.027 399.516 330.528C399.516 329.981 399.41 329.537 399.198 329.195C398.993 328.847 398.675 328.594 398.245 328.437C397.821 328.272 397.281 328.19 396.625 328.19H393.712V341.5H391.733V326.57H396.625C397.39 326.57 398.074 326.649 398.675 326.806C399.277 326.957 399.786 327.196 400.203 327.524C400.627 327.845 400.948 328.255 401.167 328.754C401.386 329.253 401.495 329.852 401.495 330.549C401.495 331.164 401.338 331.721 401.023 332.22C400.709 332.712 400.271 333.116 399.711 333.43C399.157 333.745 398.508 333.946 397.763 334.035L397.055 334.517ZM396.963 341.5H392.492L393.61 339.89H396.963C397.592 339.89 398.125 339.781 398.562 339.562C399.007 339.343 399.345 339.036 399.578 338.639C399.81 338.236 399.926 337.761 399.926 337.214C399.926 336.66 399.827 336.182 399.629 335.778C399.431 335.375 399.12 335.064 398.696 334.845C398.272 334.626 397.725 334.517 397.055 334.517H394.235L394.256 332.928H398.111L398.532 333.502C399.25 333.563 399.858 333.769 400.357 334.117C400.856 334.459 401.235 334.896 401.495 335.43C401.762 335.963 401.895 336.551 401.895 337.193C401.895 338.123 401.69 338.909 401.28 339.552C400.876 340.188 400.306 340.673 399.567 341.008C398.829 341.336 397.961 341.5 396.963 341.5Z" fill="white"/>
<path d="M408.97 340.146C409.421 340.146 409.838 340.054 410.221 339.87C410.604 339.685 410.918 339.432 411.165 339.111C411.411 338.783 411.551 338.41 411.585 337.993H413.39C413.355 338.649 413.133 339.261 412.723 339.829C412.32 340.389 411.79 340.844 411.134 341.192C410.478 341.534 409.756 341.705 408.97 341.705C408.136 341.705 407.408 341.558 406.786 341.264C406.171 340.97 405.658 340.567 405.248 340.054C404.845 339.542 404.541 338.954 404.335 338.291C404.137 337.621 404.038 336.913 404.038 336.168V335.737C404.038 334.992 404.137 334.288 404.335 333.625C404.541 332.955 404.845 332.364 405.248 331.851C405.658 331.338 406.171 330.935 406.786 330.641C407.408 330.347 408.136 330.2 408.97 330.2C409.838 330.2 410.597 330.378 411.247 330.733C411.896 331.082 412.405 331.561 412.774 332.169C413.15 332.771 413.355 333.454 413.39 334.22H411.585C411.551 333.762 411.421 333.348 411.195 332.979C410.977 332.61 410.676 332.316 410.293 332.097C409.917 331.872 409.476 331.759 408.97 331.759C408.389 331.759 407.9 331.875 407.504 332.107C407.114 332.333 406.803 332.641 406.571 333.03C406.345 333.413 406.181 333.84 406.079 334.312C405.983 334.777 405.935 335.252 405.935 335.737V336.168C405.935 336.653 405.983 337.132 406.079 337.604C406.174 338.075 406.335 338.502 406.561 338.885C406.793 339.268 407.104 339.576 407.494 339.808C407.89 340.034 408.382 340.146 408.97 340.146Z" fill="white"/>
<path d="M420.126 341.705C419.354 341.705 418.653 341.575 418.024 341.315C417.402 341.049 416.866 340.676 416.415 340.198C415.97 339.719 415.628 339.152 415.389 338.496C415.15 337.839 415.03 337.122 415.03 336.342V335.912C415.03 335.009 415.164 334.206 415.43 333.502C415.697 332.791 416.059 332.189 416.517 331.697C416.975 331.205 417.495 330.833 418.076 330.58C418.657 330.327 419.258 330.2 419.88 330.2C420.673 330.2 421.357 330.337 421.931 330.61C422.512 330.884 422.987 331.267 423.356 331.759C423.726 332.244 423.999 332.818 424.177 333.481C424.354 334.138 424.443 334.855 424.443 335.635V336.486H416.158V334.938H422.546V334.794C422.519 334.302 422.417 333.823 422.239 333.358C422.068 332.894 421.794 332.511 421.418 332.21C421.042 331.909 420.53 331.759 419.88 331.759C419.45 331.759 419.053 331.851 418.691 332.036C418.329 332.213 418.018 332.48 417.758 332.835C417.498 333.191 417.296 333.625 417.153 334.138C417.009 334.65 416.938 335.242 416.938 335.912V336.342C416.938 336.869 417.009 337.364 417.153 337.829C417.303 338.287 417.519 338.69 417.799 339.039C418.086 339.388 418.431 339.661 418.834 339.859C419.245 340.058 419.709 340.157 420.229 340.157C420.899 340.157 421.466 340.02 421.931 339.747C422.396 339.473 422.803 339.107 423.151 338.649L424.3 339.562C424.061 339.924 423.756 340.27 423.387 340.598C423.018 340.926 422.563 341.192 422.023 341.397C421.49 341.603 420.858 341.705 420.126 341.705Z" fill="white"/>
<path d="M428.555 332.538V345.766H426.648V330.405H428.391L428.555 332.538ZM436.03 335.86V336.076C436.03 336.882 435.935 337.631 435.743 338.321C435.552 339.005 435.271 339.6 434.902 340.105C434.54 340.611 434.092 341.004 433.559 341.285C433.026 341.565 432.414 341.705 431.724 341.705C431.02 341.705 430.397 341.589 429.857 341.356C429.317 341.124 428.859 340.786 428.483 340.341C428.107 339.897 427.807 339.364 427.581 338.742C427.362 338.12 427.212 337.419 427.13 336.64V335.491C427.212 334.671 427.366 333.936 427.591 333.287C427.817 332.637 428.114 332.083 428.483 331.625C428.859 331.161 429.314 330.809 429.847 330.569C430.38 330.323 430.996 330.2 431.693 330.2C432.39 330.2 433.009 330.337 433.549 330.61C434.089 330.877 434.543 331.26 434.913 331.759C435.282 332.258 435.559 332.856 435.743 333.553C435.935 334.244 436.03 335.013 436.03 335.86ZM434.123 336.076V335.86C434.123 335.307 434.065 334.787 433.949 334.302C433.833 333.81 433.651 333.379 433.405 333.01C433.166 332.634 432.858 332.34 432.482 332.128C432.106 331.909 431.659 331.8 431.139 331.8C430.661 331.8 430.244 331.882 429.888 332.046C429.54 332.21 429.242 332.432 428.996 332.712C428.75 332.986 428.548 333.3 428.391 333.656C428.241 334.004 428.128 334.367 428.053 334.743V337.398C428.189 337.877 428.381 338.328 428.627 338.752C428.873 339.169 429.201 339.507 429.611 339.767C430.021 340.02 430.538 340.146 431.16 340.146C431.672 340.146 432.113 340.041 432.482 339.829C432.858 339.61 433.166 339.312 433.405 338.937C433.651 338.561 433.833 338.13 433.949 337.645C434.065 337.152 434.123 336.629 434.123 336.076Z" fill="white"/>
<path d="M437.948 336.076V335.84C437.948 335.04 438.064 334.298 438.296 333.615C438.529 332.924 438.864 332.326 439.301 331.82C439.739 331.308 440.269 330.911 440.891 330.631C441.513 330.344 442.21 330.2 442.982 330.2C443.762 330.2 444.462 330.344 445.084 330.631C445.713 330.911 446.247 331.308 446.684 331.82C447.128 332.326 447.467 332.924 447.699 333.615C447.932 334.298 448.048 335.04 448.048 335.84V336.076C448.048 336.875 447.932 337.617 447.699 338.301C447.467 338.984 447.128 339.583 446.684 340.095C446.247 340.601 445.717 340.998 445.095 341.285C444.479 341.565 443.782 341.705 443.003 341.705C442.224 341.705 441.523 341.565 440.901 341.285C440.279 340.998 439.746 340.601 439.301 340.095C438.864 339.583 438.529 338.984 438.296 338.301C438.064 337.617 437.948 336.875 437.948 336.076ZM439.845 335.84V336.076C439.845 336.629 439.91 337.152 440.04 337.645C440.169 338.13 440.364 338.561 440.624 338.937C440.891 339.312 441.222 339.61 441.619 339.829C442.015 340.041 442.477 340.146 443.003 340.146C443.522 340.146 443.977 340.041 444.367 339.829C444.763 339.61 445.091 339.312 445.351 338.937C445.611 338.561 445.806 338.13 445.936 337.645C446.072 337.152 446.141 336.629 446.141 336.076V335.84C446.141 335.293 446.072 334.777 445.936 334.292C445.806 333.799 445.607 333.365 445.341 332.989C445.081 332.606 444.753 332.306 444.356 332.087C443.967 331.868 443.509 331.759 442.982 331.759C442.463 331.759 442.005 331.868 441.608 332.087C441.219 332.306 440.891 332.606 440.624 332.989C440.364 333.365 440.169 333.799 440.04 334.292C439.91 334.777 439.845 335.293 439.845 335.84Z" fill="white"/>
<path d="M454.867 340.146C455.318 340.146 455.735 340.054 456.118 339.87C456.5 339.685 456.815 339.432 457.061 339.111C457.307 338.783 457.447 338.41 457.481 337.993H459.286C459.252 338.649 459.03 339.261 458.62 339.829C458.216 340.389 457.687 340.844 457.03 341.192C456.374 341.534 455.653 341.705 454.867 341.705C454.033 341.705 453.305 341.558 452.683 341.264C452.067 340.97 451.555 340.567 451.145 340.054C450.741 339.542 450.437 338.954 450.232 338.291C450.034 337.621 449.935 336.913 449.935 336.168V335.737C449.935 334.992 450.034 334.288 450.232 333.625C450.437 332.955 450.741 332.364 451.145 331.851C451.555 331.338 452.067 330.935 452.683 330.641C453.305 330.347 454.033 330.2 454.867 330.2C455.735 330.2 456.494 330.378 457.143 330.733C457.792 331.082 458.302 331.561 458.671 332.169C459.047 332.771 459.252 333.454 459.286 334.22H457.481C457.447 333.762 457.317 333.348 457.092 332.979C456.873 332.61 456.572 332.316 456.189 332.097C455.813 331.872 455.373 331.759 454.867 331.759C454.286 331.759 453.797 331.875 453.4 332.107C453.011 332.333 452.7 332.641 452.467 333.03C452.242 333.413 452.078 333.84 451.975 334.312C451.879 334.777 451.832 335.252 451.832 335.737V336.168C451.832 336.653 451.879 337.132 451.975 337.604C452.071 338.075 452.231 338.502 452.457 338.885C452.689 339.268 453 339.576 453.39 339.808C453.787 340.034 454.279 340.146 454.867 340.146Z" fill="white"/>
<path d="M465.859 340.146C466.31 340.146 466.727 340.054 467.11 339.87C467.493 339.685 467.807 339.432 468.053 339.111C468.299 338.783 468.439 338.41 468.474 337.993H470.278C470.244 338.649 470.022 339.261 469.612 339.829C469.208 340.389 468.679 340.844 468.022 341.192C467.366 341.534 466.645 341.705 465.859 341.705C465.025 341.705 464.297 341.558 463.675 341.264C463.06 340.97 462.547 340.567 462.137 340.054C461.733 339.542 461.429 338.954 461.224 338.291C461.026 337.621 460.927 336.913 460.927 336.168V335.737C460.927 334.992 461.026 334.288 461.224 333.625C461.429 332.955 461.733 332.364 462.137 331.851C462.547 331.338 463.06 330.935 463.675 330.641C464.297 330.347 465.025 330.2 465.859 330.2C466.727 330.2 467.486 330.378 468.135 330.733C468.785 331.082 469.294 331.561 469.663 332.169C470.039 332.771 470.244 333.454 470.278 334.22H468.474C468.439 333.762 468.31 333.348 468.084 332.979C467.865 332.61 467.564 332.316 467.182 332.097C466.806 331.872 466.365 331.759 465.859 331.759C465.278 331.759 464.789 331.875 464.393 332.107C464.003 332.333 463.692 332.641 463.459 333.03C463.234 333.413 463.07 333.84 462.967 334.312C462.872 334.777 462.824 335.252 462.824 335.737V336.168C462.824 336.653 462.872 337.132 462.967 337.604C463.063 338.075 463.224 338.502 463.449 338.885C463.682 339.268 463.993 339.576 464.382 339.808C464.779 340.034 465.271 340.146 465.859 340.146Z" fill="white"/>
<path d="M474.462 338.496L479.579 330.405H481.486V341.5H479.579V333.41L474.462 341.5H472.575V330.405H474.462V338.496Z" fill="white"/>
<path d="M486.582 338.496L491.699 330.405H493.606V341.5H491.699V333.41L486.582 341.5H484.695V330.405H486.582V338.496ZM490.663 326.386H492.201C492.201 326.919 492.078 327.394 491.832 327.811C491.586 328.221 491.234 328.542 490.776 328.775C490.318 329.007 489.774 329.124 489.146 329.124C488.195 329.124 487.443 328.871 486.89 328.365C486.343 327.852 486.069 327.192 486.069 326.386H487.607C487.607 326.789 487.724 327.145 487.956 327.452C488.188 327.76 488.585 327.914 489.146 327.914C489.692 327.914 490.082 327.76 490.314 327.452C490.547 327.145 490.663 326.789 490.663 326.386Z" fill="white"/>
<path d="M501.091 340.146C501.542 340.146 501.959 340.054 502.342 339.87C502.725 339.685 503.04 339.432 503.286 339.111C503.532 338.783 503.672 338.41 503.706 337.993H505.511C505.477 338.649 505.254 339.261 504.844 339.829C504.441 340.389 503.911 340.844 503.255 341.192C502.599 341.534 501.877 341.705 501.091 341.705C500.257 341.705 499.529 341.558 498.907 341.264C498.292 340.97 497.779 340.567 497.369 340.054C496.966 339.542 496.662 338.954 496.457 338.291C496.258 337.621 496.159 336.913 496.159 336.168V335.737C496.159 334.992 496.258 334.288 496.457 333.625C496.662 332.955 496.966 332.364 497.369 331.851C497.779 331.338 498.292 330.935 498.907 330.641C499.529 330.347 500.257 330.2 501.091 330.2C501.959 330.2 502.718 330.378 503.368 330.733C504.017 331.082 504.526 331.561 504.896 332.169C505.271 332.771 505.477 333.454 505.511 334.22H503.706C503.672 333.762 503.542 333.348 503.316 332.979C503.098 332.61 502.797 332.316 502.414 332.097C502.038 331.872 501.597 331.759 501.091 331.759C500.51 331.759 500.021 331.875 499.625 332.107C499.235 332.333 498.924 332.641 498.692 333.03C498.466 333.413 498.302 333.84 498.2 334.312C498.104 334.777 498.056 335.252 498.056 335.737V336.168C498.056 336.653 498.104 337.132 498.2 337.604C498.295 338.075 498.456 338.502 498.682 338.885C498.914 339.268 499.225 339.576 499.615 339.808C500.011 340.034 500.503 340.146 501.091 340.146Z" fill="white"/>
<path d="M509.705 330.405V341.5H507.808V330.405H509.705ZM516.985 330.405L511.725 336.763H509.069L508.782 335.102H510.956L514.678 330.405H516.985ZM514.944 341.5L510.863 336.476L512.083 335.102L517.354 341.5H514.944Z" fill="white"/>
<path d="M518.277 336.076V335.84C518.277 335.04 518.393 334.298 518.625 333.615C518.858 332.924 519.193 332.326 519.63 331.82C520.068 331.308 520.598 330.911 521.22 330.631C521.842 330.344 522.539 330.2 523.312 330.2C524.091 330.2 524.792 330.344 525.414 330.631C526.042 330.911 526.576 331.308 527.013 331.82C527.458 332.326 527.796 332.924 528.028 333.615C528.261 334.298 528.377 335.04 528.377 335.84V336.076C528.377 336.875 528.261 337.617 528.028 338.301C527.796 338.984 527.458 339.583 527.013 340.095C526.576 340.601 526.046 340.998 525.424 341.285C524.809 341.565 524.111 341.705 523.332 341.705C522.553 341.705 521.852 341.565 521.23 341.285C520.608 340.998 520.075 340.601 519.63 340.095C519.193 339.583 518.858 338.984 518.625 338.301C518.393 337.617 518.277 336.875 518.277 336.076ZM520.174 335.84V336.076C520.174 336.629 520.239 337.152 520.369 337.645C520.499 338.13 520.693 338.561 520.953 338.937C521.22 339.312 521.551 339.61 521.948 339.829C522.344 340.041 522.806 340.146 523.332 340.146C523.852 340.146 524.306 340.041 524.696 339.829C525.092 339.61 525.42 339.312 525.68 338.937C525.94 338.561 526.135 338.13 526.265 337.645C526.401 337.152 526.47 336.629 526.47 336.076V335.84C526.47 335.293 526.401 334.777 526.265 334.292C526.135 333.799 525.937 333.365 525.67 332.989C525.41 332.606 525.082 332.306 524.686 332.087C524.296 331.868 523.838 331.759 523.312 331.759C522.792 331.759 522.334 331.868 521.938 332.087C521.548 332.306 521.22 332.606 520.953 332.989C520.693 333.365 520.499 333.799 520.369 334.292C520.239 334.777 520.174 335.293 520.174 335.84Z" fill="white"/>
<path d="M532.807 338.496L537.923 330.405H539.831V341.5H537.923V333.41L532.807 341.5H530.92V330.405H532.807V338.496ZM536.888 326.386H538.426C538.426 326.919 538.303 327.394 538.057 327.811C537.811 328.221 537.458 328.542 537 328.775C536.542 329.007 535.999 329.124 535.37 329.124C534.42 329.124 533.668 328.871 533.114 328.365C532.567 327.852 532.294 327.192 532.294 326.386H533.832C533.832 326.789 533.948 327.145 534.181 327.452C534.413 327.76 534.81 327.914 535.37 327.914C535.917 327.914 536.307 327.76 536.539 327.452C536.771 327.145 536.888 326.789 536.888 326.386Z" fill="white"/>
<path d="M555.611 335.214V336.752H549.746V335.214H555.611ZM550.146 330.405V341.5H548.249V330.405H550.146ZM557.149 330.405V341.5H555.242V330.405H557.149Z" fill="white"/>
<path d="M566.747 339.603V333.892C566.747 333.454 566.658 333.075 566.48 332.753C566.31 332.425 566.05 332.172 565.701 331.995C565.353 331.817 564.922 331.728 564.409 331.728C563.931 331.728 563.51 331.81 563.148 331.974C562.792 332.138 562.512 332.354 562.307 332.62C562.109 332.887 562.01 333.174 562.01 333.481H560.113C560.113 333.085 560.215 332.692 560.42 332.302C560.625 331.913 560.919 331.561 561.302 331.246C561.692 330.925 562.157 330.672 562.697 330.487C563.244 330.296 563.852 330.2 564.522 330.2C565.329 330.2 566.04 330.337 566.655 330.61C567.277 330.884 567.762 331.297 568.111 331.851C568.466 332.398 568.644 333.085 568.644 333.912V339.08C568.644 339.449 568.675 339.842 568.736 340.259C568.805 340.676 568.904 341.035 569.034 341.336V341.5H567.055C566.959 341.281 566.884 340.991 566.829 340.628C566.774 340.259 566.747 339.917 566.747 339.603ZM567.075 334.773L567.096 336.106H565.178C564.638 336.106 564.156 336.151 563.732 336.24C563.309 336.322 562.953 336.448 562.666 336.619C562.379 336.79 562.16 337.005 562.01 337.265C561.859 337.518 561.784 337.815 561.784 338.157C561.784 338.506 561.863 338.824 562.02 339.111C562.177 339.398 562.413 339.627 562.728 339.798C563.049 339.962 563.442 340.044 563.907 340.044C564.488 340.044 565 339.921 565.445 339.675C565.889 339.429 566.241 339.128 566.501 338.772C566.768 338.417 566.911 338.072 566.932 337.737L567.742 338.649C567.694 338.937 567.564 339.254 567.352 339.603C567.14 339.952 566.856 340.287 566.501 340.608C566.152 340.922 565.735 341.186 565.25 341.397C564.771 341.603 564.231 341.705 563.63 341.705C562.878 341.705 562.218 341.558 561.651 341.264C561.09 340.97 560.653 340.577 560.338 340.085C560.031 339.586 559.877 339.029 559.877 338.414C559.877 337.819 559.993 337.296 560.226 336.845C560.458 336.387 560.793 336.007 561.23 335.707C561.668 335.399 562.194 335.167 562.81 335.009C563.425 334.852 564.112 334.773 564.871 334.773H567.075Z" fill="white"/>
<path d="M574.581 340.352L577.667 330.405H579.698L575.248 343.212C575.145 343.486 575.008 343.78 574.837 344.094C574.673 344.416 574.461 344.72 574.202 345.007C573.942 345.294 573.627 345.526 573.258 345.704C572.896 345.889 572.462 345.981 571.956 345.981C571.806 345.981 571.614 345.96 571.382 345.919C571.149 345.878 570.985 345.844 570.89 345.817L570.879 344.279C570.934 344.286 571.02 344.292 571.136 344.299C571.259 344.313 571.344 344.32 571.392 344.32C571.823 344.32 572.188 344.262 572.489 344.146C572.79 344.036 573.043 343.848 573.248 343.582C573.46 343.322 573.641 342.963 573.792 342.505L574.581 340.352ZM572.315 330.405L575.196 339.019L575.688 341.018L574.325 341.715L570.244 330.405H572.315Z" fill="white"/>
<path d="M589.777 330.405V341.5H587.88V330.405H589.777ZM589.131 335.501V337.06C588.749 337.204 588.359 337.333 587.962 337.45C587.573 337.559 587.159 337.648 586.722 337.716C586.291 337.778 585.823 337.809 585.317 337.809C584.442 337.809 583.683 337.658 583.041 337.357C582.398 337.05 581.902 336.588 581.554 335.973C581.205 335.351 581.031 334.568 581.031 333.625V330.385H582.928V333.625C582.928 334.24 583.02 334.739 583.205 335.122C583.389 335.505 583.659 335.789 584.015 335.973C584.37 336.151 584.804 336.24 585.317 336.24C585.809 336.24 586.271 336.209 586.701 336.147C587.139 336.079 587.556 335.99 587.952 335.881C588.355 335.771 588.749 335.645 589.131 335.501Z" fill="white"/>
<path d="M600.359 335.214V336.752H594.494V335.214H600.359ZM594.894 330.405V341.5H592.997V330.405H594.894ZM601.897 330.405V341.5H599.99V330.405H601.897Z" fill="white"/>
<path d="M604.451 336.076V335.84C604.451 335.04 604.567 334.298 604.799 333.615C605.032 332.924 605.367 332.326 605.804 331.82C606.242 331.308 606.771 330.911 607.394 330.631C608.016 330.344 608.713 330.2 609.485 330.2C610.265 330.2 610.965 330.344 611.587 330.631C612.216 330.911 612.75 331.308 613.187 331.82C613.631 332.326 613.97 332.924 614.202 333.615C614.435 334.298 614.551 335.04 614.551 335.84V336.076C614.551 336.875 614.435 337.617 614.202 338.301C613.97 338.984 613.631 339.583 613.187 340.095C612.75 340.601 612.22 340.998 611.598 341.285C610.982 341.565 610.285 341.705 609.506 341.705C608.727 341.705 608.026 341.565 607.404 341.285C606.782 340.998 606.249 340.601 605.804 340.095C605.367 339.583 605.032 338.984 604.799 338.301C604.567 337.617 604.451 336.875 604.451 336.076ZM606.348 335.84V336.076C606.348 336.629 606.413 337.152 606.542 337.645C606.672 338.13 606.867 338.561 607.127 338.937C607.394 339.312 607.725 339.61 608.122 339.829C608.518 340.041 608.979 340.146 609.506 340.146C610.025 340.146 610.48 340.041 610.87 339.829C611.266 339.61 611.594 339.312 611.854 338.937C612.114 338.561 612.309 338.13 612.438 337.645C612.575 337.152 612.644 336.629 612.644 336.076V335.84C612.644 335.293 612.575 334.777 612.438 334.292C612.309 333.799 612.11 333.365 611.844 332.989C611.584 332.606 611.256 332.306 610.859 332.087C610.47 331.868 610.012 331.759 609.485 331.759C608.966 331.759 608.508 331.868 608.111 332.087C607.722 332.306 607.394 332.606 607.127 332.989C606.867 333.365 606.672 333.799 606.542 334.292C606.413 334.777 606.348 335.293 606.348 335.84Z" fill="white"/>
<path d="M620.877 334.374V335.932H615.874V334.374H620.877Z" fill="white"/>
<path d="M630.126 330.405V331.974H624.518V330.405H630.126ZM624.794 330.405V341.5H622.897V330.405H624.794ZM631.808 330.405V341.5H629.901V330.405H631.808Z" fill="white"/>
<path d="M636.75 332.538V345.766H634.843V330.405H636.586L636.75 332.538ZM644.226 335.86V336.076C644.226 336.882 644.13 337.631 643.938 338.321C643.747 339.005 643.467 339.6 643.098 340.105C642.735 340.611 642.288 341.004 641.754 341.285C641.221 341.565 640.609 341.705 639.919 341.705C639.215 341.705 638.593 341.589 638.053 341.356C637.513 341.124 637.055 340.786 636.679 340.341C636.303 339.897 636.002 339.364 635.776 338.742C635.558 338.12 635.407 337.419 635.325 336.64V335.491C635.407 334.671 635.561 333.936 635.787 333.287C636.012 332.637 636.31 332.083 636.679 331.625C637.055 331.161 637.509 330.809 638.042 330.569C638.576 330.323 639.191 330.2 639.888 330.2C640.585 330.2 641.204 330.337 641.744 330.61C642.284 330.877 642.739 331.26 643.108 331.759C643.477 332.258 643.754 332.856 643.938 333.553C644.13 334.244 644.226 335.013 644.226 335.86ZM642.318 336.076V335.86C642.318 335.307 642.26 334.787 642.144 334.302C642.028 333.81 641.847 333.379 641.601 333.01C641.361 332.634 641.054 332.34 640.678 332.128C640.302 331.909 639.854 331.8 639.334 331.8C638.856 331.8 638.439 331.882 638.083 332.046C637.735 332.21 637.438 332.432 637.191 332.712C636.945 332.986 636.744 333.3 636.586 333.656C636.436 334.004 636.323 334.367 636.248 334.743V337.398C636.385 337.877 636.576 338.328 636.822 338.752C637.068 339.169 637.396 339.507 637.807 339.767C638.217 340.02 638.733 340.146 639.355 340.146C639.868 340.146 640.309 340.041 640.678 339.829C641.054 339.61 641.361 339.312 641.601 338.937C641.847 338.561 642.028 338.13 642.144 337.645C642.26 337.152 642.318 336.629 642.318 336.076Z" fill="white"/>
<path d="M653.188 339.603V333.892C653.188 333.454 653.099 333.075 652.921 332.753C652.75 332.425 652.49 332.172 652.142 331.995C651.793 331.817 651.362 331.728 650.85 331.728C650.371 331.728 649.951 331.81 649.588 331.974C649.233 332.138 648.953 332.354 648.748 332.62C648.549 332.887 648.45 333.174 648.45 333.481H646.553C646.553 333.085 646.656 332.692 646.861 332.302C647.066 331.913 647.36 331.561 647.743 331.246C648.132 330.925 648.597 330.672 649.137 330.487C649.684 330.296 650.292 330.2 650.962 330.2C651.769 330.2 652.48 330.337 653.095 330.61C653.717 330.884 654.203 331.297 654.551 331.851C654.907 332.398 655.084 333.085 655.084 333.912V339.08C655.084 339.449 655.115 339.842 655.177 340.259C655.245 340.676 655.344 341.035 655.474 341.336V341.5H653.495C653.399 341.281 653.324 340.991 653.27 340.628C653.215 340.259 653.188 339.917 653.188 339.603ZM653.516 334.773L653.536 336.106H651.619C651.079 336.106 650.597 336.151 650.173 336.24C649.749 336.322 649.394 336.448 649.106 336.619C648.819 336.79 648.601 337.005 648.45 337.265C648.3 337.518 648.225 337.815 648.225 338.157C648.225 338.506 648.303 338.824 648.46 339.111C648.618 339.398 648.854 339.627 649.168 339.798C649.489 339.962 649.882 340.044 650.347 340.044C650.928 340.044 651.441 339.921 651.885 339.675C652.33 339.429 652.682 339.128 652.941 338.772C653.208 338.417 653.352 338.072 653.372 337.737L654.182 338.649C654.134 338.937 654.004 339.254 653.792 339.603C653.581 339.952 653.297 340.287 652.941 340.608C652.593 340.922 652.176 341.186 651.69 341.397C651.212 341.603 650.672 341.705 650.07 341.705C649.318 341.705 648.659 341.558 648.091 341.264C647.531 340.97 647.093 340.577 646.779 340.085C646.471 339.586 646.317 339.029 646.317 338.414C646.317 337.819 646.434 337.296 646.666 336.845C646.898 336.387 647.233 336.007 647.671 335.707C648.108 335.399 648.635 335.167 649.25 335.009C649.865 334.852 650.552 334.773 651.311 334.773H653.516Z" fill="white"/>
<path d="M660.129 330.405V341.5H658.232V330.405H660.129ZM667.41 330.405L662.149 336.763H659.494L659.207 335.102H661.38L665.103 330.405H667.41ZM665.369 341.5L661.288 336.476L662.508 335.102L667.779 341.5H665.369Z" fill="white"/>
<path d="M673.952 330.405V341.5H672.044V330.405H673.952ZM677.674 330.405V331.943H668.394V330.405H677.674Z" fill="white"/>
<path d="M681.591 338.496L686.708 330.405H688.615V341.5H686.708V333.41L681.591 341.5H679.704V330.405H681.591V338.496Z" fill="white"/>
<path d="M700.027 330.405V341.5H698.13V330.405H700.027ZM699.381 335.501V337.06C698.999 337.204 698.609 337.333 698.212 337.45C697.823 337.559 697.409 337.648 696.972 337.716C696.541 337.778 696.073 337.809 695.567 337.809C694.692 337.809 693.933 337.658 693.291 337.357C692.648 337.05 692.152 336.588 691.804 335.973C691.455 335.351 691.281 334.568 691.281 333.625V330.385H693.178V333.625C693.178 334.24 693.27 334.739 693.455 335.122C693.639 335.505 693.909 335.789 694.265 335.973C694.62 336.151 695.054 336.24 695.567 336.24C696.059 336.24 696.521 336.209 696.951 336.147C697.389 336.079 697.806 335.99 698.202 335.881C698.605 335.771 698.999 335.645 699.381 335.501Z" fill="white"/>
<path d="M707.687 341.705C706.915 341.705 706.214 341.575 705.585 341.315C704.963 341.049 704.426 340.676 703.975 340.198C703.531 339.719 703.189 339.152 702.95 338.496C702.71 337.839 702.591 337.122 702.591 336.342V335.912C702.591 335.009 702.724 334.206 702.991 333.502C703.257 332.791 703.62 332.189 704.078 331.697C704.536 331.205 705.055 330.833 705.636 330.58C706.217 330.327 706.819 330.2 707.441 330.2C708.234 330.2 708.917 330.337 709.492 330.61C710.073 330.884 710.548 331.267 710.917 331.759C711.286 332.244 711.56 332.818 711.737 333.481C711.915 334.138 712.004 334.855 712.004 335.635V336.486H703.719V334.938H710.107V334.794C710.08 334.302 709.977 333.823 709.799 333.358C709.628 332.894 709.355 332.511 708.979 332.21C708.603 331.909 708.09 331.759 707.441 331.759C707.01 331.759 706.614 331.851 706.251 332.036C705.889 332.213 705.578 332.48 705.318 332.835C705.059 333.191 704.857 333.625 704.713 334.138C704.57 334.65 704.498 335.242 704.498 335.912V336.342C704.498 336.869 704.57 337.364 704.713 337.829C704.864 338.287 705.079 338.69 705.359 339.039C705.646 339.388 705.992 339.661 706.395 339.859C706.805 340.058 707.27 340.157 707.79 340.157C708.459 340.157 709.027 340.02 709.492 339.747C709.957 339.473 710.363 339.107 710.712 338.649L711.86 339.562C711.621 339.924 711.317 340.27 710.948 340.598C710.579 340.926 710.124 341.192 709.584 341.397C709.051 341.603 708.418 341.705 707.687 341.705Z" fill="white"/>
<path d="M718.659 340.146C719.11 340.146 719.527 340.054 719.91 339.87C720.292 339.685 720.607 339.432 720.853 339.111C721.099 338.783 721.239 338.41 721.273 337.993H723.078C723.044 338.649 722.822 339.261 722.412 339.829C722.008 340.389 721.479 340.844 720.822 341.192C720.166 341.534 719.445 341.705 718.659 341.705C717.825 341.705 717.097 341.558 716.475 341.264C715.859 340.97 715.347 340.567 714.937 340.054C714.533 339.542 714.229 338.954 714.024 338.291C713.826 337.621 713.727 336.913 713.727 336.168V335.737C713.727 334.992 713.826 334.288 714.024 333.625C714.229 332.955 714.533 332.364 714.937 331.851C715.347 331.338 715.859 330.935 716.475 330.641C717.097 330.347 717.825 330.2 718.659 330.2C719.527 330.2 720.286 330.378 720.935 330.733C721.584 331.082 722.094 331.561 722.463 332.169C722.839 332.771 723.044 333.454 723.078 334.22H721.273C721.239 333.762 721.109 333.348 720.884 332.979C720.665 332.61 720.364 332.316 719.981 332.097C719.605 331.872 719.165 331.759 718.659 331.759C718.078 331.759 717.589 331.875 717.192 332.107C716.803 332.333 716.492 332.641 716.259 333.03C716.034 333.413 715.87 333.84 715.767 334.312C715.671 334.777 715.624 335.252 715.624 335.737V336.168C715.624 336.653 715.671 337.132 715.767 337.604C715.863 338.075 716.023 338.502 716.249 338.885C716.481 339.268 716.792 339.576 717.182 339.808C717.579 340.034 718.071 340.146 718.659 340.146Z" fill="white"/>
<path d="M727.272 330.405V341.5H725.375V330.405H727.272ZM734.552 330.405L729.292 336.763H726.636L726.349 335.102H728.523L732.245 330.405H734.552ZM732.512 341.5L728.431 336.476L729.651 335.102L734.921 341.5H732.512Z" fill="white"/>
<path d="M735.844 336.076V335.84C735.844 335.04 735.96 334.298 736.193 333.615C736.425 332.924 736.76 332.326 737.198 331.82C737.635 331.308 738.165 330.911 738.787 330.631C739.409 330.344 740.106 330.2 740.879 330.2C741.658 330.2 742.359 330.344 742.981 330.631C743.61 330.911 744.143 331.308 744.581 331.82C745.025 332.326 745.363 332.924 745.596 333.615C745.828 334.298 745.944 335.04 745.944 335.84V336.076C745.944 336.875 745.828 337.617 745.596 338.301C745.363 338.984 745.025 339.583 744.581 340.095C744.143 340.601 743.613 340.998 742.991 341.285C742.376 341.565 741.679 341.705 740.899 341.705C740.12 341.705 739.419 341.565 738.797 341.285C738.175 340.998 737.642 340.601 737.198 340.095C736.76 339.583 736.425 338.984 736.193 338.301C735.96 337.617 735.844 336.875 735.844 336.076ZM737.741 335.84V336.076C737.741 336.629 737.806 337.152 737.936 337.645C738.066 338.13 738.261 338.561 738.521 338.937C738.787 339.312 739.119 339.61 739.515 339.829C739.912 340.041 740.373 340.146 740.899 340.146C741.419 340.146 741.874 340.041 742.263 339.829C742.66 339.61 742.988 339.312 743.248 338.937C743.507 338.561 743.702 338.13 743.832 337.645C743.969 337.152 744.037 336.629 744.037 336.076V335.84C744.037 335.293 743.969 334.777 743.832 334.292C743.702 333.799 743.504 333.365 743.237 332.989C742.978 332.606 742.649 332.306 742.253 332.087C741.863 331.868 741.405 331.759 740.879 331.759C740.359 331.759 739.901 331.868 739.505 332.087C739.115 332.306 738.787 332.606 738.521 332.989C738.261 333.365 738.066 333.799 737.936 334.292C737.806 334.777 737.741 335.293 737.741 335.84Z" fill="white"/>
<path d="M750.374 338.496L755.491 330.405H757.398V341.5H755.491V333.41L750.374 341.5H748.487V330.405H750.374V338.496ZM754.455 326.386H755.993C755.993 326.919 755.87 327.394 755.624 327.811C755.378 328.221 755.026 328.542 754.568 328.775C754.11 329.007 753.566 329.124 752.938 329.124C751.987 329.124 751.235 328.871 750.682 328.365C750.135 327.852 749.861 327.192 749.861 326.386H751.399C751.399 326.789 751.516 327.145 751.748 327.452C751.98 327.76 752.377 327.914 752.938 327.914C753.484 327.914 753.874 327.76 754.106 327.452C754.339 327.145 754.455 326.789 754.455 326.386Z" fill="white"/>
<path d="M393.507 355.405V366.5H391.61V355.405H393.507ZM400.788 355.405L395.527 361.763H392.872L392.584 360.102H394.758L398.48 355.405H400.788ZM398.747 366.5L394.666 361.476L395.886 360.102L401.157 366.5H398.747Z" fill="white"/>
<path d="M402.08 361.076V360.84C402.08 360.04 402.196 359.298 402.428 358.615C402.661 357.924 402.996 357.326 403.433 356.82C403.871 356.308 404.4 355.911 405.022 355.631C405.645 355.344 406.342 355.2 407.114 355.2C407.894 355.2 408.594 355.344 409.216 355.631C409.845 355.911 410.378 356.308 410.816 356.82C411.26 357.326 411.599 357.924 411.831 358.615C412.063 359.298 412.18 360.04 412.18 360.84V361.076C412.18 361.875 412.063 362.617 411.831 363.301C411.599 363.984 411.26 364.583 410.816 365.095C410.378 365.601 409.849 365.998 409.227 366.285C408.611 366.565 407.914 366.705 407.135 366.705C406.355 366.705 405.655 366.565 405.033 366.285C404.411 365.998 403.877 365.601 403.433 365.095C402.996 364.583 402.661 363.984 402.428 363.301C402.196 362.617 402.08 361.875 402.08 361.076ZM403.977 360.84V361.076C403.977 361.629 404.042 362.152 404.171 362.645C404.301 363.13 404.496 363.561 404.756 363.937C405.022 364.312 405.354 364.61 405.75 364.829C406.147 365.041 406.608 365.146 407.135 365.146C407.654 365.146 408.109 365.041 408.499 364.829C408.895 364.61 409.223 364.312 409.483 363.937C409.743 363.561 409.938 363.13 410.067 362.645C410.204 362.152 410.272 361.629 410.272 361.076V360.84C410.272 360.293 410.204 359.777 410.067 359.292C409.938 358.799 409.739 358.365 409.473 357.989C409.213 357.606 408.885 357.306 408.488 357.087C408.099 356.868 407.641 356.759 407.114 356.759C406.595 356.759 406.137 356.868 405.74 357.087C405.351 357.306 405.022 357.606 404.756 357.989C404.496 358.365 404.301 358.799 404.171 359.292C404.042 359.777 403.977 360.293 403.977 360.84Z" fill="white"/>
<path d="M422.085 360.214V361.752H416.22V360.214H422.085ZM416.62 355.405V366.5H414.723V355.405H416.62ZM423.623 355.405V366.5H421.716V355.405H423.623Z" fill="white"/>
<path d="M439.435 361.147V361.363C439.435 362.142 439.349 362.86 439.178 363.516C439.007 364.166 438.751 364.729 438.409 365.208C438.074 365.687 437.657 366.059 437.158 366.326C436.659 366.585 436.082 366.715 435.425 366.715C434.885 366.715 434.41 366.644 434 366.5C433.59 366.35 433.241 366.134 432.954 365.854C432.674 365.574 432.448 365.239 432.277 364.849C432.113 364.453 432 364.008 431.939 363.516V358.594C432 358.068 432.113 357.596 432.277 357.179C432.448 356.762 432.674 356.407 432.954 356.113C433.241 355.819 433.586 355.593 433.99 355.436C434.393 355.279 434.865 355.2 435.405 355.2C435.938 355.2 436.417 355.296 436.84 355.487C437.271 355.672 437.647 355.938 437.968 356.287C438.296 356.636 438.566 357.056 438.778 357.548C438.997 358.034 439.161 358.581 439.271 359.189C439.38 359.797 439.435 360.45 439.435 361.147ZM437.538 361.363V361.147C437.538 360.669 437.503 360.214 437.435 359.784C437.374 359.346 437.274 358.946 437.138 358.584C437.008 358.215 436.837 357.894 436.625 357.62C436.413 357.347 436.157 357.135 435.856 356.984C435.562 356.834 435.224 356.759 434.841 356.759C434.431 356.759 434.089 356.81 433.815 356.913C433.549 357.015 433.34 357.152 433.19 357.323C433.04 357.487 432.93 357.661 432.862 357.846V364.275C432.944 364.425 433.063 364.569 433.221 364.706C433.378 364.835 433.59 364.945 433.856 365.034C434.123 365.116 434.458 365.157 434.861 365.157C435.34 365.157 435.747 365.061 436.082 364.87C436.423 364.671 436.7 364.398 436.912 364.049C437.131 363.701 437.288 363.297 437.384 362.839C437.486 362.381 437.538 361.889 437.538 361.363ZM426.258 361.363V361.147C426.258 360.45 426.313 359.797 426.422 359.189C426.532 358.581 426.696 358.034 426.915 357.548C427.133 357.056 427.403 356.636 427.725 356.287C428.053 355.938 428.429 355.672 428.853 355.487C429.283 355.296 429.765 355.2 430.298 355.2C430.825 355.2 431.283 355.279 431.672 355.436C432.069 355.593 432.404 355.819 432.677 356.113C432.951 356.407 433.169 356.762 433.333 357.179C433.498 357.596 433.614 358.068 433.682 358.594V363.321C433.621 363.841 433.508 364.309 433.344 364.726C433.18 365.143 432.961 365.502 432.688 365.803C432.414 366.097 432.076 366.322 431.672 366.479C431.276 366.637 430.811 366.715 430.278 366.715C429.622 366.715 429.044 366.585 428.545 366.326C428.046 366.059 427.625 365.687 427.284 365.208C426.949 364.729 426.692 364.166 426.515 363.516C426.344 362.86 426.258 362.142 426.258 361.363ZM428.166 361.147V361.363C428.166 361.889 428.21 362.381 428.299 362.839C428.395 363.297 428.542 363.701 428.74 364.049C428.945 364.398 429.211 364.671 429.54 364.87C429.868 365.061 430.271 365.157 430.75 365.157C431.16 365.157 431.498 365.105 431.765 365.003C432.031 364.9 432.243 364.767 432.4 364.603C432.558 364.439 432.677 364.268 432.759 364.09V357.846C432.691 357.661 432.578 357.487 432.421 357.323C432.271 357.152 432.062 357.015 431.795 356.913C431.529 356.81 431.187 356.759 430.77 356.759C430.292 356.759 429.885 356.875 429.55 357.107C429.215 357.34 428.945 357.658 428.74 358.061C428.542 358.464 428.395 358.933 428.299 359.466C428.21 359.992 428.166 360.553 428.166 361.147ZM431.816 370.766V350.75H433.723V370.766H431.816Z" fill="white"/>
<path d="M446.52 366.705C445.748 366.705 445.047 366.575 444.418 366.315C443.796 366.049 443.259 365.676 442.808 365.198C442.364 364.719 442.022 364.152 441.783 363.496C441.543 362.839 441.424 362.122 441.424 361.342V360.912C441.424 360.009 441.557 359.206 441.824 358.502C442.09 357.791 442.453 357.189 442.911 356.697C443.369 356.205 443.888 355.833 444.469 355.58C445.05 355.327 445.652 355.2 446.274 355.2C447.067 355.2 447.75 355.337 448.325 355.61C448.906 355.884 449.381 356.267 449.75 356.759C450.119 357.244 450.393 357.818 450.57 358.481C450.748 359.138 450.837 359.855 450.837 360.635V361.486H442.552V359.938H448.94V359.794C448.913 359.302 448.81 358.823 448.632 358.358C448.461 357.894 448.188 357.511 447.812 357.21C447.436 356.909 446.923 356.759 446.274 356.759C445.843 356.759 445.447 356.851 445.084 357.036C444.722 357.213 444.411 357.48 444.151 357.835C443.892 358.191 443.69 358.625 443.546 359.138C443.403 359.65 443.331 360.242 443.331 360.912V361.342C443.331 361.869 443.403 362.364 443.546 362.829C443.697 363.287 443.912 363.69 444.192 364.039C444.479 364.388 444.825 364.661 445.228 364.859C445.638 365.058 446.103 365.157 446.623 365.157C447.292 365.157 447.86 365.02 448.325 364.747C448.79 364.473 449.196 364.107 449.545 363.649L450.693 364.562C450.454 364.924 450.15 365.27 449.781 365.598C449.412 365.926 448.957 366.192 448.417 366.397C447.884 366.603 447.251 366.705 446.52 366.705Z" fill="white"/>
<path d="M454.949 357.538V370.766H453.042V355.405H454.785L454.949 357.538ZM462.424 360.86V361.076C462.424 361.882 462.328 362.631 462.137 363.321C461.945 364.005 461.665 364.6 461.296 365.105C460.934 365.611 460.486 366.004 459.953 366.285C459.419 366.565 458.808 366.705 458.117 366.705C457.413 366.705 456.791 366.589 456.251 366.356C455.711 366.124 455.253 365.786 454.877 365.341C454.501 364.897 454.2 364.364 453.975 363.742C453.756 363.12 453.605 362.419 453.523 361.64V360.491C453.605 359.671 453.759 358.936 453.985 358.287C454.21 357.637 454.508 357.083 454.877 356.625C455.253 356.161 455.708 355.809 456.241 355.569C456.774 355.323 457.389 355.2 458.086 355.2C458.784 355.2 459.402 355.337 459.942 355.61C460.482 355.877 460.937 356.26 461.306 356.759C461.675 357.258 461.952 357.856 462.137 358.553C462.328 359.244 462.424 360.013 462.424 360.86ZM460.517 361.076V360.86C460.517 360.307 460.458 359.787 460.342 359.302C460.226 358.81 460.045 358.379 459.799 358.01C459.56 357.634 459.252 357.34 458.876 357.128C458.5 356.909 458.052 356.8 457.533 356.8C457.054 356.8 456.637 356.882 456.282 357.046C455.933 357.21 455.636 357.432 455.39 357.712C455.144 357.986 454.942 358.3 454.785 358.656C454.634 359.004 454.521 359.367 454.446 359.743V362.398C454.583 362.877 454.774 363.328 455.021 363.752C455.267 364.169 455.595 364.507 456.005 364.767C456.415 365.02 456.931 365.146 457.553 365.146C458.066 365.146 458.507 365.041 458.876 364.829C459.252 364.61 459.56 364.312 459.799 363.937C460.045 363.561 460.226 363.13 460.342 362.645C460.458 362.152 460.517 361.629 460.517 361.076Z" fill="white"/>
<path d="M469.448 366.705C468.675 366.705 467.975 366.575 467.346 366.315C466.724 366.049 466.187 365.676 465.736 365.198C465.292 364.719 464.95 364.152 464.71 363.496C464.471 362.839 464.352 362.122 464.352 361.342V360.912C464.352 360.009 464.485 359.206 464.751 358.502C465.018 357.791 465.38 357.189 465.838 356.697C466.296 356.205 466.816 355.833 467.397 355.58C467.978 355.327 468.58 355.2 469.202 355.2C469.995 355.2 470.678 355.337 471.252 355.61C471.833 355.884 472.309 356.267 472.678 356.759C473.047 357.244 473.32 357.818 473.498 358.481C473.676 359.138 473.765 359.855 473.765 360.635V361.486H465.479V359.938H471.868V359.794C471.84 359.302 471.738 358.823 471.56 358.358C471.389 357.894 471.116 357.511 470.74 357.21C470.364 356.909 469.851 356.759 469.202 356.759C468.771 356.759 468.375 356.851 468.012 357.036C467.65 357.213 467.339 357.48 467.079 357.835C466.819 358.191 466.618 358.625 466.474 359.138C466.331 359.65 466.259 360.242 466.259 360.912V361.342C466.259 361.869 466.331 362.364 466.474 362.829C466.625 363.287 466.84 363.69 467.12 364.039C467.407 364.388 467.752 364.661 468.156 364.859C468.566 365.058 469.031 365.157 469.55 365.157C470.22 365.157 470.788 365.02 471.252 364.747C471.717 364.473 472.124 364.107 472.473 363.649L473.621 364.562C473.382 364.924 473.078 365.27 472.708 365.598C472.339 365.926 471.885 366.192 471.345 366.397C470.812 366.603 470.179 366.705 469.448 366.705Z" fill="white"/>
<path d="M483.506 360.214V361.752H477.641V360.214H483.506ZM478.041 355.405V366.5H476.144V355.405H478.041ZM485.044 355.405V366.5H483.137V355.405H485.044Z" fill="white"/>
<path d="M488.264 366.5V355.405H490.161V364.941H495.267V355.405H497.174V366.5H488.264ZM498.487 364.941L498.302 369.792H496.61V366.5H495.165V364.941H498.487Z" fill="white"/>
<path d="M502.599 363.496L507.715 355.405H509.623V366.5H507.715V358.41L502.599 366.5H500.712V355.405H502.599V363.496Z" fill="white"/>
<path d="M514.719 363.496L519.835 355.405H521.743V366.5H519.835V358.41L514.719 366.5H512.832V355.405H514.719V363.496Z" fill="white"/>
</svg>
