<svg width="670" height="564" viewBox="0 0 670 564" fill="none" xmlns="http://www.w3.org/2000/svg">
<path d="M607.338 199.62C586.222 184.829 564.685 170.608 542.442 157.506C520.132 144.537 497.222 132.583 473.75 121.885C467.837 119.296 462.01 116.572 456.062 114.093L438.182 106.766L420.115 99.9385C414.095 97.6799 407.991 95.6785 401.935 93.53C377.6 85.2329 353 77.9713 328.304 71.2309L309.749 66.2767L291.171 61.5181L272.574 56.8671L263.278 54.5587C259.977 53.7614 256.868 53.1973 253.684 52.5922C246.877 51.3777 240.068 50.2684 233.255 49.2471C184.157 41.1035 91.3852 30.9037 51.8676 54.2045C42.2639 59.8572 36.1928 67.2685 33.7209 76.1836C33.6123 76.3921 33.5235 76.6151 33.4568 76.8697C29.5095 92.4885 44.7657 111.794 60.8516 127.078C67.1821 133.85 73.9544 140.189 80.9326 146.27C91.6342 155.496 102.86 164.137 114.518 172.171C126.165 180.241 138.248 187.722 150.769 194.631C151.093 194.809 151.431 194.968 151.787 195.125C156.759 197.156 162.416 194.787 164.449 189.816C166.482 184.846 164.112 179.191 159.14 177.16C146.588 172.021 134.197 166.211 122.114 159.778C110.017 153.365 98.2232 146.295 86.8627 138.618C79.788 133.757 72.8337 128.651 66.2555 123.139C48.0302 106.062 37.1032 89.8632 39.6937 78.7113C39.7151 78.6208 39.7561 78.5447 39.7945 78.4516C41.6922 70.9506 46.8643 64.6528 55.1681 59.7718C91.1995 38.5145 177.291 47.0616 226.66 54.7976C235.222 56.2902 243.77 57.9246 252.255 59.7256C255.328 60.4 258.474 61.0983 261.355 61.8888L270.555 64.4911L288.96 69.7299L307.327 75.0619L325.618 80.5801C374.267 95.5177 422.276 112.474 467.546 135.047C490.203 146.252 512.235 158.652 533.644 172.019C554.988 185.535 575.635 200.117 595.878 215.266L596.016 215.368C596.016 215.368 596.154 215.469 596.232 215.527C600.61 218.609 606.655 217.544 609.736 213.15C612.82 208.774 611.755 202.731 607.36 199.652L607.338 199.62Z" fill="#D1D3D4"/>
<path d="M342.971 477.939H342.953C334.478 469.951 325.484 461.894 315.8 454.784C306.116 447.674 295.965 441.355 285.608 435.726C275.251 430.062 264.721 424.949 254.087 420.163C251.446 418.923 248.77 417.77 246.095 416.616C243.419 415.463 240.795 414.258 238.051 413.139C232.613 410.832 227.089 408.783 221.531 406.872C210.397 403.05 199.038 399.969 187.541 397.662C183.209 396.801 178.841 396.044 174.457 395.424C150.98 391.24 128.159 391.103 111.518 397.937C100.488 402.465 93.0996 409.678 89.5609 419.354C82.3798 439.014 91.3561 460.878 103.422 479.006C108.584 487.804 114.626 496.084 121.099 503.952C126.036 509.874 131.266 515.624 136.963 520.996C142.521 526.281 148.235 531.428 154.156 536.404C160.094 541.362 166.24 546.148 172.765 550.607C179.29 555.066 186.126 559.249 193.946 562.675H193.963C194.274 562.83 194.619 562.95 194.947 563.054C200.056 564.655 205.494 561.814 207.099 556.718C208.705 551.622 205.857 546.199 200.747 544.598C194.463 542.636 187.938 539.606 181.603 536.197C175.251 532.788 169.002 528.915 162.874 524.817C156.746 520.72 150.721 516.365 144.817 511.837C139 507.447 133.493 502.558 128.194 497.41C121.03 490.42 114.28 482.932 108.342 474.84C96.9836 457.401 89.6126 437.895 95.5854 421.557C98.4682 413.638 104.648 407.699 113.935 403.877C128.211 398.023 149.461 397.49 173.179 401.621C177.426 402.517 181.655 403.55 185.832 404.686C196.811 407.699 207.583 411.452 218.044 415.876C223.274 418.08 228.436 420.438 233.476 422.986C235.996 424.209 238.551 425.603 241.089 426.929C243.626 428.254 246.181 429.58 248.684 430.957C258.765 436.38 268.657 442.061 278.185 448.173C287.731 454.25 296.794 460.844 305.253 468.005C313.711 475.184 321.427 483.121 329.213 491.522C329.351 491.677 329.523 491.849 329.679 492.004C333.58 495.671 339.708 495.482 343.368 491.591C347.027 487.7 346.855 481.589 342.953 477.939H342.971Z" fill="#CD242B"/>
<path d="M478.829 443.25C478.622 438.575 478.052 433.969 477.43 429.346C477.274 428.186 476.894 426.991 476.307 425.9C473.698 421.104 467.704 419.355 462.919 421.97C458.134 424.584 456.389 430.593 458.997 435.389V435.424C461.001 439.06 462.988 442.748 464.663 446.54C466.356 450.332 467.877 454.211 469.103 458.194C469.915 460.843 470.554 463.544 471.038 466.297C470.917 472.219 469.915 477.5 468.049 482.089C463.99 492.045 454.558 501.5 434.778 506.123C426.002 507.629 416.967 507.906 408.002 507.543C396.065 507.127 384.127 505.621 372.26 503.647C360.392 501.638 348.593 499.093 336.88 496.218C325.133 493.344 313.525 490.089 301.829 486.678C290.324 483.266 278.94 479.509 267.729 475.215C256.517 470.955 245.444 466.332 234.595 461.224C229.154 458.696 223.764 456.081 218.322 453.345L210.099 449.259L202.084 445.155C191.39 439.649 180.887 433.744 170.522 427.58C160.123 421.467 149.948 414.957 139.859 408.325C119.734 394.957 100.23 380.638 81.6597 365.209C63.1582 349.729 45.4513 333.193 30.3185 314.527C24.1167 306.908 18.4678 298.839 13.8208 290.233C7.10087 275.74 4.63055 262.148 7.77459 250.235C9.65757 243.101 13.1126 237.335 17.5177 232.677C20.3853 230.478 23.4776 228.642 26.708 227.188C28.6082 226.339 30.5776 225.612 32.5469 224.971C32.4951 225.699 32.4433 226.426 32.4433 227.17C32.4433 242.46 44.7949 254.841 60.0487 254.841C75.3025 254.841 87.6541 242.46 87.6541 227.17C87.6541 211.881 75.3025 199.5 60.0487 199.5C52.9141 199.5 46.436 202.236 41.5472 206.686C39.8888 207.413 38.2477 208.175 36.6411 208.989C31.1995 211.76 25.9997 215.067 21.4046 219.067C18.2087 221.837 15.3065 224.954 12.8707 228.348C7.4291 234.079 3.59405 240.867 1.5556 248.555C-2.27945 263.083 1.15827 279.48 9.86487 296.744C13.4408 304.9 17.8977 312.64 22.6656 320.085C36.4683 341.072 53.536 359.513 71.6057 376.603C89.779 393.624 109.231 409.173 129.529 423.493C149.861 437.779 171.058 450.852 193.17 462.401C195.934 463.838 198.732 465.241 201.531 466.626L209.788 470.661C215.316 473.379 220.965 476.098 226.649 478.678C238.067 483.751 249.659 488.461 261.475 492.548C273.291 496.617 285.263 500.288 297.407 503.231C303.367 504.703 309.396 506.157 315.442 507.491C321.506 508.807 327.586 510.036 333.685 511.179C345.898 513.43 358.215 515.214 370.636 516.339C383.056 517.43 395.581 517.897 408.14 517.101C414.411 516.668 420.681 515.941 426.883 514.729C429.457 514.227 432.014 513.62 434.553 512.945C454.834 508.651 468.049 499.214 474.027 484.582C476.186 479.301 477.309 473.293 477.464 466.592C478.086 463.527 478.501 460.41 478.743 457.276C479.088 452.635 479.054 447.96 478.829 443.302V443.25Z" fill="#0095DA"/>
<path d="M168.055 235.517H164.271L164.25 233.928H167.686C168.253 233.928 168.749 233.832 169.172 233.641C169.596 233.449 169.924 233.176 170.157 232.82C170.396 232.458 170.516 232.027 170.516 231.528C170.516 230.981 170.41 230.537 170.198 230.195C169.993 229.847 169.675 229.594 169.244 229.437C168.82 229.272 168.28 229.19 167.624 229.19H164.712V242.5H162.733V227.57H167.624C168.39 227.57 169.073 227.649 169.675 227.806C170.276 227.957 170.786 228.196 171.203 228.524C171.626 228.845 171.948 229.255 172.167 229.754C172.385 230.253 172.495 230.852 172.495 231.549C172.495 232.164 172.337 232.721 172.023 233.22C171.708 233.712 171.271 234.116 170.71 234.43C170.157 234.745 169.507 234.946 168.762 235.035L168.055 235.517ZM167.962 242.5H163.492L164.609 240.89H167.962C168.591 240.89 169.125 240.781 169.562 240.562C170.006 240.343 170.345 240.036 170.577 239.639C170.81 239.236 170.926 238.761 170.926 238.214C170.926 237.66 170.827 237.182 170.628 236.778C170.43 236.375 170.119 236.064 169.695 235.845C169.271 235.626 168.725 235.517 168.055 235.517H165.235L165.255 233.928H169.111L169.531 234.502C170.249 234.563 170.857 234.769 171.356 235.117C171.855 235.459 172.235 235.896 172.495 236.43C172.761 236.963 172.895 237.551 172.895 238.193C172.895 239.123 172.689 239.909 172.279 240.552C171.876 241.188 171.305 241.673 170.567 242.008C169.829 242.336 168.96 242.5 167.962 242.5ZM179.97 241.146C180.421 241.146 180.838 241.054 181.221 240.87C181.604 240.685 181.918 240.432 182.164 240.111C182.41 239.783 182.55 239.41 182.584 238.993H184.389C184.355 239.649 184.133 240.261 183.723 240.829C183.319 241.389 182.79 241.844 182.133 242.192C181.477 242.534 180.756 242.705 179.97 242.705C179.136 242.705 178.408 242.558 177.786 242.264C177.17 241.97 176.658 241.567 176.248 241.054C175.844 240.542 175.54 239.954 175.335 239.291C175.137 238.621 175.038 237.913 175.038 237.168V236.737C175.038 235.992 175.137 235.288 175.335 234.625C175.54 233.955 175.844 233.364 176.248 232.851C176.658 232.338 177.17 231.935 177.786 231.641C178.408 231.347 179.136 231.2 179.97 231.2C180.838 231.2 181.597 231.378 182.246 231.733C182.896 232.082 183.405 232.561 183.774 233.169C184.15 233.771 184.355 234.454 184.389 235.22H182.584C182.55 234.762 182.42 234.348 182.195 233.979C181.976 233.61 181.675 233.316 181.292 233.097C180.917 232.872 180.476 232.759 179.97 232.759C179.389 232.759 178.9 232.875 178.503 233.107C178.114 233.333 177.803 233.641 177.57 234.03C177.345 234.413 177.181 234.84 177.078 235.312C176.982 235.777 176.935 236.252 176.935 236.737V237.168C176.935 237.653 176.982 238.132 177.078 238.604C177.174 239.075 177.334 239.502 177.56 239.885C177.792 240.268 178.104 240.576 178.493 240.808C178.89 241.034 179.382 241.146 179.97 241.146ZM191.126 242.705C190.354 242.705 189.653 242.575 189.024 242.315C188.402 242.049 187.865 241.676 187.414 241.198C186.97 240.719 186.628 240.152 186.389 239.496C186.149 238.839 186.03 238.122 186.03 237.342V236.912C186.03 236.009 186.163 235.206 186.43 234.502C186.696 233.791 187.059 233.189 187.517 232.697C187.975 232.205 188.494 231.833 189.075 231.58C189.656 231.327 190.258 231.2 190.88 231.2C191.673 231.2 192.356 231.337 192.931 231.61C193.512 231.884 193.987 232.267 194.356 232.759C194.725 233.244 194.999 233.818 195.176 234.481C195.354 235.138 195.443 235.855 195.443 236.635V237.486H187.158V235.938H193.546V235.794C193.519 235.302 193.416 234.823 193.238 234.358C193.067 233.894 192.794 233.511 192.418 233.21C192.042 232.909 191.529 232.759 190.88 232.759C190.449 232.759 190.053 232.851 189.69 233.036C189.328 233.213 189.017 233.48 188.757 233.835C188.498 234.191 188.296 234.625 188.152 235.138C188.009 235.65 187.937 236.242 187.937 236.912V237.342C187.937 237.869 188.009 238.364 188.152 238.829C188.303 239.287 188.518 239.69 188.798 240.039C189.085 240.388 189.431 240.661 189.834 240.859C190.244 241.058 190.709 241.157 191.229 241.157C191.898 241.157 192.466 241.02 192.931 240.747C193.396 240.473 193.802 240.107 194.151 239.649L195.299 240.562C195.06 240.924 194.756 241.27 194.387 241.598C194.018 241.926 193.563 242.192 193.023 242.397C192.49 242.603 191.857 242.705 191.126 242.705ZM199.555 233.538V246.766H197.647V231.405H199.391L199.555 233.538ZM207.03 236.86V237.076C207.03 237.882 206.934 238.631 206.743 239.321C206.551 240.005 206.271 240.6 205.902 241.105C205.54 241.611 205.092 242.004 204.559 242.285C204.025 242.565 203.414 242.705 202.723 242.705C202.019 242.705 201.397 242.589 200.857 242.356C200.317 242.124 199.859 241.786 199.483 241.341C199.107 240.897 198.806 240.364 198.581 239.742C198.362 239.12 198.211 238.419 198.129 237.64V236.491C198.211 235.671 198.365 234.936 198.591 234.287C198.816 233.637 199.114 233.083 199.483 232.625C199.859 232.161 200.313 231.809 200.847 231.569C201.38 231.323 201.995 231.2 202.692 231.2C203.39 231.2 204.008 231.337 204.548 231.61C205.088 231.877 205.543 232.26 205.912 232.759C206.281 233.258 206.558 233.856 206.743 234.553C206.934 235.244 207.03 236.013 207.03 236.86ZM205.123 237.076V236.86C205.123 236.307 205.064 235.787 204.948 235.302C204.832 234.81 204.651 234.379 204.405 234.01C204.166 233.634 203.858 233.34 203.482 233.128C203.106 232.909 202.658 232.8 202.139 232.8C201.66 232.8 201.243 232.882 200.888 233.046C200.539 233.21 200.242 233.432 199.996 233.712C199.75 233.986 199.548 234.3 199.391 234.656C199.24 235.004 199.127 235.367 199.052 235.743V238.398C199.189 238.877 199.38 239.328 199.626 239.752C199.873 240.169 200.201 240.507 200.611 240.767C201.021 241.02 201.537 241.146 202.159 241.146C202.672 241.146 203.113 241.041 203.482 240.829C203.858 240.61 204.166 240.312 204.405 239.937C204.651 239.561 204.832 239.13 204.948 238.645C205.064 238.152 205.123 237.629 205.123 237.076ZM208.947 237.076V236.84C208.947 236.04 209.063 235.298 209.296 234.615C209.528 233.924 209.863 233.326 210.301 232.82C210.738 232.308 211.268 231.911 211.89 231.631C212.512 231.344 213.209 231.2 213.982 231.2C214.761 231.2 215.462 231.344 216.084 231.631C216.713 231.911 217.246 232.308 217.684 232.82C218.128 233.326 218.466 233.924 218.699 234.615C218.931 235.298 219.047 236.04 219.047 236.84V237.076C219.047 237.875 218.931 238.617 218.699 239.301C218.466 239.984 218.128 240.583 217.684 241.095C217.246 241.601 216.716 241.998 216.094 242.285C215.479 242.565 214.782 242.705 214.002 242.705C213.223 242.705 212.522 242.565 211.9 242.285C211.278 241.998 210.745 241.601 210.301 241.095C209.863 240.583 209.528 239.984 209.296 239.301C209.063 238.617 208.947 237.875 208.947 237.076ZM210.844 236.84V237.076C210.844 237.629 210.909 238.152 211.039 238.645C211.169 239.13 211.364 239.561 211.624 239.937C211.89 240.312 212.222 240.61 212.618 240.829C213.015 241.041 213.476 241.146 214.002 241.146C214.522 241.146 214.977 241.041 215.366 240.829C215.763 240.61 216.091 240.312 216.351 239.937C216.61 239.561 216.805 239.13 216.935 238.645C217.072 238.152 217.14 237.629 217.14 237.076V236.84C217.14 236.293 217.072 235.777 216.935 235.292C216.805 234.799 216.607 234.365 216.34 233.989C216.081 233.606 215.752 233.306 215.356 233.087C214.966 232.868 214.508 232.759 213.982 232.759C213.462 232.759 213.004 232.868 212.608 233.087C212.218 233.306 211.89 233.606 211.624 233.989C211.364 234.365 211.169 234.799 211.039 235.292C210.909 235.777 210.844 236.293 210.844 236.84ZM225.866 241.146C226.317 241.146 226.734 241.054 227.117 240.87C227.5 240.685 227.814 240.432 228.061 240.111C228.307 239.783 228.447 239.41 228.481 238.993H230.286C230.251 239.649 230.029 240.261 229.619 240.829C229.216 241.389 228.686 241.844 228.03 242.192C227.374 242.534 226.652 242.705 225.866 242.705C225.032 242.705 224.304 242.558 223.682 242.264C223.067 241.97 222.554 241.567 222.144 241.054C221.741 240.542 221.437 239.954 221.231 239.291C221.033 238.621 220.934 237.913 220.934 237.168V236.737C220.934 235.992 221.033 235.288 221.231 234.625C221.437 233.955 221.741 233.364 222.144 232.851C222.554 232.338 223.067 231.935 223.682 231.641C224.304 231.347 225.032 231.2 225.866 231.2C226.734 231.2 227.493 231.378 228.143 231.733C228.792 232.082 229.301 232.561 229.67 233.169C230.046 233.771 230.251 234.454 230.286 235.22H228.481C228.447 234.762 228.317 234.348 228.091 233.979C227.873 233.61 227.572 233.316 227.189 233.097C226.813 232.872 226.372 232.759 225.866 232.759C225.285 232.759 224.796 232.875 224.4 233.107C224.01 233.333 223.699 233.641 223.467 234.03C223.241 234.413 223.077 234.84 222.975 235.312C222.879 235.777 222.831 236.252 222.831 236.737V237.168C222.831 237.653 222.879 238.132 222.975 238.604C223.07 239.075 223.231 239.502 223.457 239.885C223.689 240.268 224 240.576 224.39 240.808C224.786 241.034 225.278 241.146 225.866 241.146ZM236.858 241.146C237.31 241.146 237.727 241.054 238.109 240.87C238.492 240.685 238.807 240.432 239.053 240.111C239.299 239.783 239.439 239.41 239.473 238.993H241.278C241.244 239.649 241.021 240.261 240.611 240.829C240.208 241.389 239.678 241.844 239.022 242.192C238.366 242.534 237.645 242.705 236.858 242.705C236.024 242.705 235.296 242.558 234.674 242.264C234.059 241.97 233.546 241.567 233.136 241.054C232.733 240.542 232.429 239.954 232.224 239.291C232.025 238.621 231.926 237.913 231.926 237.168V236.737C231.926 235.992 232.025 235.288 232.224 234.625C232.429 233.955 232.733 233.364 233.136 232.851C233.546 232.338 234.059 231.935 234.674 231.641C235.296 231.347 236.024 231.2 236.858 231.2C237.727 231.2 238.485 231.378 239.135 231.733C239.784 232.082 240.293 232.561 240.663 233.169C241.039 233.771 241.244 234.454 241.278 235.22H239.473C239.439 234.762 239.309 234.348 239.083 233.979C238.865 233.61 238.564 233.316 238.181 233.097C237.805 232.872 237.364 232.759 236.858 232.759C236.277 232.759 235.789 232.875 235.392 233.107C235.002 233.333 234.691 233.641 234.459 234.03C234.233 234.413 234.069 234.84 233.967 235.312C233.871 235.777 233.823 236.252 233.823 236.737V237.168C233.823 237.653 233.871 238.132 233.967 238.604C234.062 239.075 234.223 239.502 234.449 239.885C234.681 240.268 234.992 240.576 235.382 240.808C235.778 241.034 236.271 241.146 236.858 241.146ZM245.461 239.496L250.578 231.405H252.485V242.5H250.578V234.41L245.461 242.5H243.575V231.405H245.461V239.496ZM257.582 239.496L262.698 231.405H264.605V242.5H262.698V234.41L257.582 242.5H255.695V231.405H257.582V239.496ZM261.663 227.386H263.201C263.201 227.919 263.078 228.394 262.832 228.811C262.585 229.221 262.233 229.542 261.775 229.775C261.317 230.007 260.774 230.124 260.145 230.124C259.195 230.124 258.443 229.871 257.889 229.365C257.342 228.852 257.069 228.192 257.069 227.386H258.607C258.607 227.789 258.723 228.145 258.956 228.452C259.188 228.76 259.584 228.914 260.145 228.914C260.692 228.914 261.082 228.76 261.314 228.452C261.546 228.145 261.663 227.789 261.663 227.386ZM272.091 241.146C272.542 241.146 272.959 241.054 273.342 240.87C273.725 240.685 274.039 240.432 274.285 240.111C274.531 239.783 274.671 239.41 274.706 238.993H276.51C276.476 239.649 276.254 240.261 275.844 240.829C275.44 241.389 274.911 241.844 274.254 242.192C273.598 242.534 272.877 242.705 272.091 242.705C271.257 242.705 270.529 242.558 269.907 242.264C269.292 241.97 268.779 241.567 268.369 241.054C267.965 240.542 267.661 239.954 267.456 239.291C267.258 238.621 267.159 237.913 267.159 237.168V236.737C267.159 235.992 267.258 235.288 267.456 234.625C267.661 233.955 267.965 233.364 268.369 232.851C268.779 232.338 269.292 231.935 269.907 231.641C270.529 231.347 271.257 231.2 272.091 231.2C272.959 231.2 273.718 231.378 274.367 231.733C275.017 232.082 275.526 232.561 275.895 233.169C276.271 233.771 276.476 234.454 276.51 235.22H274.706C274.671 234.762 274.542 234.348 274.316 233.979C274.097 233.61 273.796 233.316 273.414 233.097C273.038 232.872 272.597 232.759 272.091 232.759C271.51 232.759 271.021 232.875 270.625 233.107C270.235 233.333 269.924 233.641 269.691 234.03C269.466 234.413 269.302 234.84 269.199 235.312C269.104 235.777 269.056 236.252 269.056 236.737V237.168C269.056 237.653 269.104 238.132 269.199 238.604C269.295 239.075 269.456 239.502 269.681 239.885C269.914 240.268 270.225 240.576 270.614 240.808C271.011 241.034 271.503 241.146 272.091 241.146ZM280.704 231.405V242.5H278.807V231.405H280.704ZM287.984 231.405L282.724 237.763H280.068L279.781 236.102H281.955L285.677 231.405H287.984ZM285.944 242.5L281.863 237.476L283.083 236.102L288.354 242.5H285.944ZM296.546 240.603V234.892C296.546 234.454 296.458 234.075 296.28 233.753C296.109 233.425 295.849 233.172 295.5 232.995C295.152 232.817 294.721 232.728 294.208 232.728C293.73 232.728 293.31 232.81 292.947 232.974C292.592 233.138 292.312 233.354 292.106 233.62C291.908 233.887 291.809 234.174 291.809 234.481H289.912C289.912 234.085 290.015 233.692 290.22 233.302C290.425 232.913 290.719 232.561 291.102 232.246C291.491 231.925 291.956 231.672 292.496 231.487C293.043 231.296 293.651 231.2 294.321 231.2C295.128 231.2 295.839 231.337 296.454 231.61C297.076 231.884 297.562 232.297 297.91 232.851C298.266 233.398 298.443 234.085 298.443 234.912V240.08C298.443 240.449 298.474 240.842 298.536 241.259C298.604 241.676 298.703 242.035 298.833 242.336V242.5H296.854C296.758 242.281 296.683 241.991 296.628 241.628C296.574 241.259 296.546 240.917 296.546 240.603ZM296.875 235.773L296.895 237.106H294.978C294.438 237.106 293.956 237.151 293.532 237.24C293.108 237.322 292.752 237.448 292.465 237.619C292.178 237.79 291.959 238.005 291.809 238.265C291.659 238.518 291.583 238.815 291.583 239.157C291.583 239.506 291.662 239.824 291.819 240.111C291.977 240.398 292.212 240.627 292.527 240.798C292.848 240.962 293.241 241.044 293.706 241.044C294.287 241.044 294.8 240.921 295.244 240.675C295.688 240.429 296.041 240.128 296.3 239.772C296.567 239.417 296.71 239.072 296.731 238.737L297.541 239.649C297.493 239.937 297.363 240.254 297.151 240.603C296.939 240.952 296.656 241.287 296.3 241.608C295.952 241.922 295.535 242.186 295.049 242.397C294.571 242.603 294.031 242.705 293.429 242.705C292.677 242.705 292.018 242.558 291.45 242.264C290.89 241.97 290.452 241.577 290.138 241.085C289.83 240.586 289.676 240.029 289.676 239.414C289.676 238.819 289.792 238.296 290.025 237.845C290.257 237.387 290.592 237.007 291.03 236.707C291.467 236.399 291.994 236.167 292.609 236.009C293.224 235.852 293.911 235.773 294.67 235.773H296.875ZM303.673 237.209H305.724L302.514 242.5H300.463L303.673 237.209ZM305.262 231.405H309.897V242.5H308V232.943H305.262C304.722 232.943 304.281 233.036 303.939 233.22C303.598 233.398 303.348 233.63 303.191 233.917C303.034 234.205 302.955 234.502 302.955 234.81C302.955 235.11 303.027 235.401 303.17 235.681C303.314 235.955 303.54 236.18 303.847 236.358C304.155 236.536 304.551 236.625 305.037 236.625H308.513V238.183H305.037C304.401 238.183 303.837 238.098 303.345 237.927C302.853 237.756 302.436 237.52 302.094 237.219C301.752 236.912 301.492 236.553 301.314 236.143C301.137 235.726 301.048 235.274 301.048 234.789C301.048 234.304 301.14 233.856 301.325 233.446C301.516 233.036 301.79 232.677 302.145 232.369C302.507 232.062 302.948 231.826 303.468 231.662C303.994 231.491 304.592 231.405 305.262 231.405ZM325.688 236.214V237.752H319.823V236.214H325.688ZM320.223 231.405V242.5H318.326V231.405H320.223ZM327.226 231.405V242.5H325.319V231.405H327.226ZM336.824 240.603V234.892C336.824 234.454 336.735 234.075 336.557 233.753C336.386 233.425 336.126 233.172 335.778 232.995C335.429 232.817 334.999 232.728 334.486 232.728C334.007 232.728 333.587 232.81 333.225 232.974C332.869 233.138 332.589 233.354 332.384 233.62C332.186 233.887 332.086 234.174 332.086 234.481H330.189C330.189 234.085 330.292 233.692 330.497 233.302C330.702 232.913 330.996 232.561 331.379 232.246C331.769 231.925 332.233 231.672 332.773 231.487C333.32 231.296 333.929 231.2 334.599 231.2C335.405 231.2 336.116 231.337 336.731 231.61C337.354 231.884 337.839 232.297 338.188 232.851C338.543 233.398 338.721 234.085 338.721 234.912V240.08C338.721 240.449 338.751 240.842 338.813 241.259C338.881 241.676 338.98 242.035 339.11 242.336V242.5H337.131C337.036 242.281 336.96 241.991 336.906 241.628C336.851 241.259 336.824 240.917 336.824 240.603ZM337.152 235.773L337.172 237.106H335.255C334.715 237.106 334.233 237.151 333.809 237.24C333.385 237.322 333.03 237.448 332.743 237.619C332.456 237.79 332.237 238.005 332.086 238.265C331.936 238.518 331.861 238.815 331.861 239.157C331.861 239.506 331.939 239.824 332.097 240.111C332.254 240.398 332.49 240.627 332.804 240.798C333.125 240.962 333.519 241.044 333.983 241.044C334.564 241.044 335.077 240.921 335.521 240.675C335.966 240.429 336.318 240.128 336.578 239.772C336.844 239.417 336.988 239.072 337.008 238.737L337.818 239.649C337.771 239.937 337.641 240.254 337.429 240.603C337.217 240.952 336.933 241.287 336.578 241.608C336.229 241.922 335.812 242.186 335.327 242.397C334.848 242.603 334.308 242.705 333.707 242.705C332.955 242.705 332.295 242.558 331.728 242.264C331.167 241.97 330.729 241.577 330.415 241.085C330.107 240.586 329.954 240.029 329.954 239.414C329.954 238.819 330.07 238.296 330.302 237.845C330.535 237.387 330.87 237.007 331.307 236.707C331.745 236.399 332.271 236.167 332.886 236.009C333.501 235.852 334.188 235.773 334.947 235.773H337.152ZM344.658 241.352L347.744 231.405H349.774L345.324 244.212C345.222 244.486 345.085 244.78 344.914 245.094C344.75 245.416 344.538 245.72 344.278 246.007C344.019 246.294 343.704 246.526 343.335 246.704C342.973 246.889 342.539 246.981 342.033 246.981C341.882 246.981 341.691 246.96 341.458 246.919C341.226 246.878 341.062 246.844 340.966 246.817L340.956 245.279C341.011 245.286 341.096 245.292 341.212 245.299C341.335 245.313 341.421 245.32 341.469 245.32C341.899 245.32 342.265 245.262 342.566 245.146C342.867 245.036 343.12 244.848 343.325 244.582C343.537 244.322 343.718 243.963 343.868 243.505L344.658 241.352ZM342.392 231.405L345.273 240.019L345.765 242.018L344.401 242.715L340.32 231.405H342.392ZM359.854 231.405V242.5H357.957V231.405H359.854ZM359.208 236.501V238.06C358.825 238.204 358.436 238.333 358.039 238.45C357.649 238.559 357.236 238.648 356.798 238.716C356.368 238.778 355.899 238.809 355.394 238.809C354.519 238.809 353.76 238.658 353.117 238.357C352.475 238.05 351.979 237.588 351.63 236.973C351.282 236.351 351.107 235.568 351.107 234.625V231.385H353.004V234.625C353.004 235.24 353.097 235.739 353.281 236.122C353.466 236.505 353.736 236.789 354.091 236.973C354.447 237.151 354.881 237.24 355.394 237.24C355.886 237.24 356.347 237.209 356.778 237.147C357.215 237.079 357.632 236.99 358.029 236.881C358.432 236.771 358.825 236.645 359.208 236.501ZM370.436 236.214V237.752H364.571V236.214H370.436ZM364.971 231.405V242.5H363.074V231.405H364.971ZM371.974 231.405V242.5H370.067V231.405H371.974ZM374.527 237.076V236.84C374.527 236.04 374.644 235.298 374.876 234.615C375.108 233.924 375.443 233.326 375.881 232.82C376.318 232.308 376.848 231.911 377.47 231.631C378.092 231.344 378.79 231.2 379.562 231.2C380.341 231.2 381.042 231.344 381.664 231.631C382.293 231.911 382.826 232.308 383.264 232.82C383.708 233.326 384.046 233.924 384.279 234.615C384.511 235.298 384.627 236.04 384.627 236.84V237.076C384.627 237.875 384.511 238.617 384.279 239.301C384.046 239.984 383.708 240.583 383.264 241.095C382.826 241.601 382.296 241.998 381.674 242.285C381.059 242.565 380.362 242.705 379.583 242.705C378.803 242.705 378.103 242.565 377.48 242.285C376.858 241.998 376.325 241.601 375.881 241.095C375.443 240.583 375.108 239.984 374.876 239.301C374.644 238.617 374.527 237.875 374.527 237.076ZM376.424 236.84V237.076C376.424 237.629 376.489 238.152 376.619 238.645C376.749 239.13 376.944 239.561 377.204 239.937C377.47 240.312 377.802 240.61 378.198 240.829C378.595 241.041 379.056 241.146 379.583 241.146C380.102 241.146 380.557 241.041 380.946 240.829C381.343 240.61 381.671 240.312 381.931 239.937C382.19 239.561 382.385 239.13 382.515 238.645C382.652 238.152 382.72 237.629 382.72 237.076V236.84C382.72 236.293 382.652 235.777 382.515 235.292C382.385 234.799 382.187 234.365 381.92 233.989C381.661 233.606 381.333 233.306 380.936 233.087C380.546 232.868 380.088 232.759 379.562 232.759C379.042 232.759 378.584 232.868 378.188 233.087C377.798 233.306 377.47 233.606 377.204 233.989C376.944 234.365 376.749 234.799 376.619 235.292C376.489 235.777 376.424 236.293 376.424 236.84ZM390.954 235.374V236.932H385.95V235.374H390.954ZM400.203 231.405V232.974H394.594V231.405H400.203ZM394.871 231.405V242.5H392.974V231.405H394.871ZM401.885 231.405V242.5H399.978V231.405H401.885ZM406.827 233.538V246.766H404.92V231.405H406.663L406.827 233.538ZM414.302 236.86V237.076C414.302 237.882 414.207 238.631 414.015 239.321C413.824 240.005 413.543 240.6 413.174 241.105C412.812 241.611 412.364 242.004 411.831 242.285C411.298 242.565 410.686 242.705 409.996 242.705C409.292 242.705 408.669 242.589 408.129 242.356C407.589 242.124 407.131 241.786 406.755 241.341C406.379 240.897 406.079 240.364 405.853 239.742C405.634 239.12 405.484 238.419 405.402 237.64V236.491C405.484 235.671 405.638 234.936 405.863 234.287C406.089 233.637 406.386 233.083 406.755 232.625C407.131 232.161 407.586 231.809 408.119 231.569C408.652 231.323 409.268 231.2 409.965 231.2C410.662 231.2 411.281 231.337 411.821 231.61C412.361 231.877 412.815 232.26 413.185 232.759C413.554 233.258 413.831 233.856 414.015 234.553C414.207 235.244 414.302 236.013 414.302 236.86ZM412.395 237.076V236.86C412.395 236.307 412.337 235.787 412.221 235.302C412.104 234.81 411.923 234.379 411.677 234.01C411.438 233.634 411.13 233.34 410.754 233.128C410.378 232.909 409.931 232.8 409.411 232.8C408.933 232.8 408.516 232.882 408.16 233.046C407.812 233.21 407.514 233.432 407.268 233.712C407.022 233.986 406.82 234.3 406.663 234.656C406.513 235.004 406.4 235.367 406.325 235.743V238.398C406.461 238.877 406.653 239.328 406.899 239.752C407.145 240.169 407.473 240.507 407.883 240.767C408.293 241.02 408.81 241.146 409.432 241.146C409.944 241.146 410.385 241.041 410.754 240.829C411.13 240.61 411.438 240.312 411.677 239.937C411.923 239.561 412.104 239.13 412.221 238.645C412.337 238.152 412.395 237.629 412.395 237.076ZM423.264 240.603V234.892C423.264 234.454 423.175 234.075 422.998 233.753C422.827 233.425 422.567 233.172 422.218 232.995C421.87 232.817 421.439 232.728 420.926 232.728C420.448 232.728 420.027 232.81 419.665 232.974C419.31 233.138 419.029 233.354 418.824 233.62C418.626 233.887 418.527 234.174 418.527 234.481H416.63C416.63 234.085 416.732 233.692 416.938 233.302C417.143 232.913 417.437 232.561 417.819 232.246C418.209 231.925 418.674 231.672 419.214 231.487C419.761 231.296 420.369 231.2 421.039 231.2C421.846 231.2 422.557 231.337 423.172 231.61C423.794 231.884 424.279 232.297 424.628 232.851C424.983 233.398 425.161 234.085 425.161 234.912V240.08C425.161 240.449 425.192 240.842 425.253 241.259C425.322 241.676 425.421 242.035 425.551 242.336V242.5H423.572C423.476 242.281 423.401 241.991 423.346 241.628C423.292 241.259 423.264 240.917 423.264 240.603ZM423.592 235.773L423.613 237.106H421.695C421.155 237.106 420.673 237.151 420.25 237.24C419.826 237.322 419.47 237.448 419.183 237.619C418.896 237.79 418.677 238.005 418.527 238.265C418.376 238.518 418.301 238.815 418.301 239.157C418.301 239.506 418.38 239.824 418.537 240.111C418.694 240.398 418.93 240.627 419.245 240.798C419.566 240.962 419.959 241.044 420.424 241.044C421.005 241.044 421.518 240.921 421.962 240.675C422.406 240.429 422.758 240.128 423.018 239.772C423.285 239.417 423.428 239.072 423.449 238.737L424.259 239.649C424.211 239.937 424.081 240.254 423.869 240.603C423.657 240.952 423.374 241.287 423.018 241.608C422.669 241.922 422.252 242.186 421.767 242.397C421.289 242.603 420.749 242.705 420.147 242.705C419.395 242.705 418.735 242.558 418.168 242.264C417.607 241.97 417.17 241.577 416.855 241.085C416.548 240.586 416.394 240.029 416.394 239.414C416.394 238.819 416.51 238.296 416.743 237.845C416.975 237.387 417.31 237.007 417.748 236.707C418.185 236.399 418.711 236.167 419.327 236.009C419.942 235.852 420.629 235.773 421.388 235.773H423.592ZM430.206 231.405V242.5H428.309V231.405H430.206ZM437.486 231.405L432.226 237.763H429.57L429.283 236.102H431.457L435.179 231.405H437.486ZM435.446 242.5L431.365 237.476L432.585 236.102L437.855 242.5H435.446ZM444.028 231.405V242.5H442.121V231.405H444.028ZM447.75 231.405V232.943H438.471V231.405H447.75ZM451.667 239.496L456.784 231.405H458.691V242.5H456.784V234.41L451.667 242.5H449.781V231.405H451.667V239.496ZM470.104 231.405V242.5H468.207V231.405H470.104ZM469.458 236.501V238.06C469.075 238.204 468.686 238.333 468.289 238.45C467.899 238.559 467.486 238.648 467.048 238.716C466.618 238.778 466.149 238.809 465.644 238.809C464.769 238.809 464.01 238.658 463.367 238.357C462.725 238.05 462.229 237.588 461.88 236.973C461.532 236.351 461.357 235.568 461.357 234.625V231.385H463.254V234.625C463.254 235.24 463.347 235.739 463.531 236.122C463.716 236.505 463.986 236.789 464.341 236.973C464.697 237.151 465.131 237.24 465.644 237.24C466.136 237.24 466.597 237.209 467.028 237.147C467.465 237.079 467.882 236.99 468.279 236.881C468.682 236.771 469.075 236.645 469.458 236.501ZM477.764 242.705C476.991 242.705 476.291 242.575 475.662 242.315C475.04 242.049 474.503 241.676 474.052 241.198C473.607 240.719 473.266 240.152 473.026 239.496C472.787 238.839 472.667 238.122 472.667 237.342V236.912C472.667 236.009 472.801 235.206 473.067 234.502C473.334 233.791 473.696 233.189 474.154 232.697C474.612 232.205 475.132 231.833 475.713 231.58C476.294 231.327 476.896 231.2 477.518 231.2C478.311 231.2 478.994 231.337 479.568 231.61C480.149 231.884 480.625 232.267 480.994 232.759C481.363 233.244 481.636 233.818 481.814 234.481C481.992 235.138 482.081 235.855 482.081 236.635V237.486H473.795V235.938H480.184V235.794C480.156 235.302 480.054 234.823 479.876 234.358C479.705 233.894 479.432 233.511 479.056 233.21C478.68 232.909 478.167 232.759 477.518 232.759C477.087 232.759 476.69 232.851 476.328 233.036C475.966 233.213 475.655 233.48 475.395 233.835C475.135 234.191 474.934 234.625 474.79 235.138C474.646 235.65 474.575 236.242 474.575 236.912V237.342C474.575 237.869 474.646 238.364 474.79 238.829C474.94 239.287 475.156 239.69 475.436 240.039C475.723 240.388 476.068 240.661 476.472 240.859C476.882 241.058 477.347 241.157 477.866 241.157C478.536 241.157 479.104 241.02 479.568 240.747C480.033 240.473 480.44 240.107 480.789 239.649L481.937 240.562C481.698 240.924 481.394 241.27 481.024 241.598C480.655 241.926 480.201 242.192 479.661 242.397C479.127 242.603 478.495 242.705 477.764 242.705ZM488.735 241.146C489.187 241.146 489.604 241.054 489.986 240.87C490.369 240.685 490.684 240.432 490.93 240.111C491.176 239.783 491.316 239.41 491.35 238.993H493.155C493.121 239.649 492.898 240.261 492.488 240.829C492.085 241.389 491.555 241.844 490.899 242.192C490.243 242.534 489.521 242.705 488.735 242.705C487.901 242.705 487.173 242.558 486.551 242.264C485.936 241.97 485.423 241.567 485.013 241.054C484.61 240.542 484.306 239.954 484.101 239.291C483.902 238.621 483.803 237.913 483.803 237.168V236.737C483.803 235.992 483.902 235.288 484.101 234.625C484.306 233.955 484.61 233.364 485.013 232.851C485.423 232.338 485.936 231.935 486.551 231.641C487.173 231.347 487.901 231.2 488.735 231.2C489.604 231.2 490.362 231.378 491.012 231.733C491.661 232.082 492.17 232.561 492.54 233.169C492.916 233.771 493.121 234.454 493.155 235.22H491.35C491.316 234.762 491.186 234.348 490.96 233.979C490.742 233.61 490.441 233.316 490.058 233.097C489.682 232.872 489.241 232.759 488.735 232.759C488.154 232.759 487.666 232.875 487.269 233.107C486.879 233.333 486.568 233.641 486.336 234.03C486.11 234.413 485.946 234.84 485.844 235.312C485.748 235.777 485.7 236.252 485.7 236.737V237.168C485.7 237.653 485.748 238.132 485.844 238.604C485.939 239.075 486.1 239.502 486.326 239.885C486.558 240.268 486.869 240.576 487.259 240.808C487.655 241.034 488.147 241.146 488.735 241.146ZM497.349 231.405V242.5H495.452V231.405H497.349ZM504.629 231.405L499.369 237.763H496.713L496.426 236.102H498.6L502.322 231.405H504.629ZM502.588 242.5L498.507 237.476L499.728 236.102L504.998 242.5H502.588ZM513.191 240.603V234.892C513.191 234.454 513.102 234.075 512.924 233.753C512.753 233.425 512.494 233.172 512.145 232.995C511.796 232.817 511.366 232.728 510.853 232.728C510.375 232.728 509.954 232.81 509.592 232.974C509.236 233.138 508.956 233.354 508.751 233.62C508.553 233.887 508.454 234.174 508.454 234.481H506.557C506.557 234.085 506.659 233.692 506.864 233.302C507.069 232.913 507.363 232.561 507.746 232.246C508.136 231.925 508.601 231.672 509.141 231.487C509.688 231.296 510.296 231.2 510.966 231.2C511.772 231.2 512.483 231.337 513.099 231.61C513.721 231.884 514.206 232.297 514.555 232.851C514.91 233.398 515.088 234.085 515.088 234.912V240.08C515.088 240.449 515.119 240.842 515.18 241.259C515.249 241.676 515.348 242.035 515.478 242.336V242.5H513.499C513.403 242.281 513.328 241.991 513.273 241.628C513.218 241.259 513.191 240.917 513.191 240.603ZM513.519 235.773L513.54 237.106H511.622C511.082 237.106 510.6 237.151 510.176 237.24C509.752 237.322 509.397 237.448 509.11 237.619C508.823 237.79 508.604 238.005 508.454 238.265C508.303 238.518 508.228 238.815 508.228 239.157C508.228 239.506 508.307 239.824 508.464 240.111C508.621 240.398 508.857 240.627 509.171 240.798C509.493 240.962 509.886 241.044 510.351 241.044C510.932 241.044 511.444 240.921 511.889 240.675C512.333 240.429 512.685 240.128 512.945 239.772C513.211 239.417 513.355 239.072 513.375 238.737L514.186 239.649C514.138 239.937 514.008 240.254 513.796 240.603C513.584 240.952 513.3 241.287 512.945 241.608C512.596 241.922 512.179 242.186 511.694 242.397C511.215 242.603 510.675 242.705 510.074 242.705C509.322 242.705 508.662 242.558 508.095 242.264C507.534 241.97 507.097 241.577 506.782 241.085C506.475 240.586 506.321 240.029 506.321 239.414C506.321 238.819 506.437 238.296 506.669 237.845C506.902 237.387 507.237 237.007 507.674 236.707C508.112 236.399 508.638 236.167 509.253 236.009C509.869 235.852 510.556 235.773 511.314 235.773H513.519ZM520.317 237.209H522.368L519.159 242.5H517.108L520.317 237.209ZM521.907 231.405H526.542V242.5H524.645V232.943H521.907C521.367 232.943 520.926 233.036 520.584 233.22C520.242 233.398 519.993 233.63 519.835 233.917C519.678 234.205 519.6 234.502 519.6 234.81C519.6 235.11 519.671 235.401 519.815 235.681C519.958 235.955 520.184 236.18 520.492 236.358C520.799 236.536 521.196 236.625 521.681 236.625H525.157V238.183H521.681C521.045 238.183 520.481 238.098 519.989 237.927C519.497 237.756 519.08 237.52 518.738 237.219C518.396 236.912 518.137 236.553 517.959 236.143C517.781 235.726 517.692 235.274 517.692 234.789C517.692 234.304 517.785 233.856 517.969 233.446C518.161 233.036 518.434 232.677 518.79 232.369C519.152 232.062 519.593 231.826 520.112 231.662C520.639 231.491 521.237 231.405 521.907 231.405ZM536.867 231.405V242.5H534.97V231.405H536.867ZM544.147 231.405L538.887 237.763H536.231L535.944 236.102H538.118L541.84 231.405H544.147ZM542.107 242.5L538.026 237.476L539.246 236.102L544.517 242.5H542.107ZM545.439 237.076V236.84C545.439 236.04 545.556 235.298 545.788 234.615C546.021 233.924 546.355 233.326 546.793 232.82C547.23 232.308 547.76 231.911 548.382 231.631C549.004 231.344 549.702 231.2 550.474 231.2C551.253 231.2 551.954 231.344 552.576 231.631C553.205 231.911 553.738 232.308 554.176 232.82C554.62 233.326 554.958 233.924 555.191 234.615C555.423 235.298 555.54 236.04 555.54 236.84V237.076C555.54 237.875 555.423 238.617 555.191 239.301C554.958 239.984 554.62 240.583 554.176 241.095C553.738 241.601 553.208 241.998 552.586 242.285C551.971 242.565 551.274 242.705 550.495 242.705C549.715 242.705 549.015 242.565 548.393 242.285C547.771 241.998 547.237 241.601 546.793 241.095C546.355 240.583 546.021 239.984 545.788 239.301C545.556 238.617 545.439 237.875 545.439 237.076ZM547.336 236.84V237.076C547.336 237.629 547.401 238.152 547.531 238.645C547.661 239.13 547.856 239.561 548.116 239.937C548.382 240.312 548.714 240.61 549.11 240.829C549.507 241.041 549.968 241.146 550.495 241.146C551.014 241.146 551.469 241.041 551.858 240.829C552.255 240.61 552.583 240.312 552.843 239.937C553.103 239.561 553.297 239.13 553.427 238.645C553.564 238.152 553.632 237.629 553.632 237.076V236.84C553.632 236.293 553.564 235.777 553.427 235.292C553.297 234.799 553.099 234.365 552.833 233.989C552.573 233.606 552.245 233.306 551.848 233.087C551.458 232.868 551 232.759 550.474 232.759C549.955 232.759 549.497 232.868 549.1 233.087C548.71 233.306 548.382 233.606 548.116 233.989C547.856 234.365 547.661 234.799 547.531 235.292C547.401 235.777 547.336 236.293 547.336 236.84ZM565.445 236.214V237.752H559.58V236.214H565.445ZM559.979 231.405V242.5H558.083V231.405H559.979ZM566.983 231.405V242.5H565.076V231.405H566.983ZM582.794 237.147V237.363C582.794 238.142 582.709 238.86 582.538 239.516C582.367 240.166 582.111 240.729 581.769 241.208C581.434 241.687 581.017 242.059 580.518 242.326C580.019 242.585 579.441 242.715 578.785 242.715C578.245 242.715 577.77 242.644 577.36 242.5C576.95 242.35 576.601 242.134 576.314 241.854C576.034 241.574 575.808 241.239 575.637 240.849C575.473 240.453 575.36 240.008 575.299 239.516V234.594C575.36 234.068 575.473 233.596 575.637 233.179C575.808 232.762 576.034 232.407 576.314 232.113C576.601 231.819 576.946 231.593 577.35 231.436C577.753 231.279 578.225 231.2 578.765 231.2C579.298 231.2 579.776 231.296 580.2 231.487C580.631 231.672 581.007 231.938 581.328 232.287C581.656 232.636 581.926 233.056 582.138 233.548C582.357 234.034 582.521 234.581 582.63 235.189C582.74 235.797 582.794 236.45 582.794 237.147ZM580.897 237.363V237.147C580.897 236.669 580.863 236.214 580.795 235.784C580.733 235.346 580.634 234.946 580.498 234.584C580.368 234.215 580.197 233.894 579.985 233.62C579.773 233.347 579.517 233.135 579.216 232.984C578.922 232.834 578.583 232.759 578.201 232.759C577.791 232.759 577.449 232.81 577.175 232.913C576.909 233.015 576.7 233.152 576.55 233.323C576.399 233.487 576.29 233.661 576.222 233.846V240.275C576.304 240.425 576.423 240.569 576.581 240.706C576.738 240.835 576.95 240.945 577.216 241.034C577.483 241.116 577.818 241.157 578.221 241.157C578.7 241.157 579.106 241.061 579.441 240.87C579.783 240.671 580.06 240.398 580.272 240.049C580.491 239.701 580.648 239.297 580.744 238.839C580.846 238.381 580.897 237.889 580.897 237.363ZM569.618 237.363V237.147C569.618 236.45 569.673 235.797 569.782 235.189C569.892 234.581 570.056 234.034 570.274 233.548C570.493 233.056 570.763 232.636 571.084 232.287C571.413 231.938 571.789 231.672 572.212 231.487C572.643 231.296 573.125 231.2 573.658 231.2C574.185 231.2 574.643 231.279 575.032 231.436C575.429 231.593 575.764 231.819 576.037 232.113C576.311 232.407 576.529 232.762 576.693 233.179C576.857 233.596 576.974 234.068 577.042 234.594V239.321C576.98 239.841 576.868 240.309 576.704 240.726C576.54 241.143 576.321 241.502 576.047 241.803C575.774 242.097 575.436 242.322 575.032 242.479C574.636 242.637 574.171 242.715 573.638 242.715C572.981 242.715 572.404 242.585 571.905 242.326C571.406 242.059 570.985 241.687 570.644 241.208C570.309 240.729 570.052 240.166 569.875 239.516C569.704 238.86 569.618 238.142 569.618 237.363ZM571.525 237.147V237.363C571.525 237.889 571.57 238.381 571.659 238.839C571.754 239.297 571.901 239.701 572.1 240.049C572.305 240.398 572.571 240.671 572.899 240.87C573.228 241.061 573.631 241.157 574.109 241.157C574.52 241.157 574.858 241.105 575.125 241.003C575.391 240.9 575.603 240.767 575.76 240.603C575.917 240.439 576.037 240.268 576.119 240.09V233.846C576.051 233.661 575.938 233.487 575.781 233.323C575.63 233.152 575.422 233.015 575.155 232.913C574.889 232.81 574.547 232.759 574.13 232.759C573.651 232.759 573.245 232.875 572.91 233.107C572.575 233.34 572.305 233.658 572.1 234.061C571.901 234.464 571.754 234.933 571.659 235.466C571.57 235.992 571.525 236.553 571.525 237.147ZM575.176 246.766V226.75H577.083V246.766H575.176ZM589.88 242.705C589.107 242.705 588.407 242.575 587.778 242.315C587.156 242.049 586.619 241.676 586.168 241.198C585.724 240.719 585.382 240.152 585.143 239.496C584.903 238.839 584.784 238.122 584.784 237.342V236.912C584.784 236.009 584.917 235.206 585.184 234.502C585.45 233.791 585.812 233.189 586.271 232.697C586.729 232.205 587.248 231.833 587.829 231.58C588.41 231.327 589.012 231.2 589.634 231.2C590.427 231.2 591.11 231.337 591.685 231.61C592.266 231.884 592.741 232.267 593.11 232.759C593.479 233.244 593.752 233.818 593.93 234.481C594.108 235.138 594.197 235.855 594.197 236.635V237.486H585.912V235.938H592.3V235.794C592.272 235.302 592.17 234.823 591.992 234.358C591.821 233.894 591.548 233.511 591.172 233.21C590.796 232.909 590.283 232.759 589.634 232.759C589.203 232.759 588.807 232.851 588.444 233.036C588.082 233.213 587.771 233.48 587.511 233.835C587.251 234.191 587.05 234.625 586.906 235.138C586.763 235.65 586.691 236.242 586.691 236.912V237.342C586.691 237.869 586.763 238.364 586.906 238.829C587.057 239.287 587.272 239.69 587.552 240.039C587.839 240.388 588.185 240.661 588.588 240.859C588.998 241.058 589.463 241.157 589.982 241.157C590.652 241.157 591.22 241.02 591.685 240.747C592.149 240.473 592.556 240.107 592.905 239.649L594.053 240.562C593.814 240.924 593.51 241.27 593.141 241.598C592.771 241.926 592.317 242.192 591.777 242.397C591.244 242.603 590.611 242.705 589.88 242.705ZM598.309 233.538V246.766H596.401V231.405H598.145L598.309 233.538ZM605.784 236.86V237.076C605.784 237.882 605.688 238.631 605.497 239.321C605.305 240.005 605.025 240.6 604.656 241.105C604.293 241.611 603.846 242.004 603.312 242.285C602.779 242.565 602.167 242.705 601.477 242.705C600.773 242.705 600.151 242.589 599.611 242.356C599.071 242.124 598.613 241.786 598.237 241.341C597.861 240.897 597.56 240.364 597.334 239.742C597.116 239.12 596.965 238.419 596.883 237.64V236.491C596.965 235.671 597.119 234.936 597.345 234.287C597.57 233.637 597.868 233.083 598.237 232.625C598.613 232.161 599.067 231.809 599.601 231.569C600.134 231.323 600.749 231.2 601.446 231.2C602.144 231.2 602.762 231.337 603.302 231.61C603.842 231.877 604.297 232.26 604.666 232.759C605.035 233.258 605.312 233.856 605.497 234.553C605.688 235.244 605.784 236.013 605.784 236.86ZM603.876 237.076V236.86C603.876 236.307 603.818 235.787 603.702 235.302C603.586 234.81 603.405 234.379 603.159 234.01C602.919 233.634 602.612 233.34 602.236 233.128C601.86 232.909 601.412 232.8 600.893 232.8C600.414 232.8 599.997 232.882 599.642 233.046C599.293 233.21 598.996 233.432 598.75 233.712C598.503 233.986 598.302 234.3 598.145 234.656C597.994 235.004 597.881 235.367 597.806 235.743V238.398C597.943 238.877 598.134 239.328 598.38 239.752C598.626 240.169 598.955 240.507 599.365 240.767C599.775 241.02 600.291 241.146 600.913 241.146C601.426 241.146 601.867 241.041 602.236 240.829C602.612 240.61 602.919 240.312 603.159 239.937C603.405 239.561 603.586 239.13 603.702 238.645C603.818 238.152 603.876 237.629 603.876 237.076ZM612.808 242.705C612.035 242.705 611.334 242.575 610.706 242.315C610.083 242.049 609.547 241.676 609.096 241.198C608.651 240.719 608.31 240.152 608.07 239.496C607.831 238.839 607.711 238.122 607.711 237.342V236.912C607.711 236.009 607.845 235.206 608.111 234.502C608.378 233.791 608.74 233.189 609.198 232.697C609.656 232.205 610.176 231.833 610.757 231.58C611.338 231.327 611.939 231.2 612.562 231.2C613.354 231.2 614.038 231.337 614.612 231.61C615.193 231.884 615.668 232.267 616.038 232.759C616.407 233.244 616.68 233.818 616.858 234.481C617.036 235.138 617.125 235.855 617.125 236.635V237.486H608.839V235.938H615.228V235.794C615.2 235.302 615.098 234.823 614.92 234.358C614.749 233.894 614.476 233.511 614.1 233.21C613.724 232.909 613.211 232.759 612.562 232.759C612.131 232.759 611.734 232.851 611.372 233.036C611.01 233.213 610.699 233.48 610.439 233.835C610.179 234.191 609.978 234.625 609.834 235.138C609.69 235.65 609.619 236.242 609.619 236.912V237.342C609.619 237.869 609.69 238.364 609.834 238.829C609.984 239.287 610.2 239.69 610.48 240.039C610.767 240.388 611.112 240.661 611.516 240.859C611.926 241.058 612.391 241.157 612.91 241.157C613.58 241.157 614.147 241.02 614.612 240.747C615.077 240.473 615.484 240.107 615.833 239.649L616.981 240.562C616.742 240.924 616.438 241.27 616.068 241.598C615.699 241.926 615.245 242.192 614.705 242.397C614.171 242.603 613.539 242.705 612.808 242.705ZM626.866 236.214V237.752H621V236.214H626.866ZM621.4 231.405V242.5H619.503V231.405H621.4ZM628.404 231.405V242.5H626.497V231.405H628.404ZM631.624 242.5V231.405H633.521V240.941H638.627V231.405H640.534V242.5H631.624ZM641.847 240.941L641.662 245.792H639.97V242.5H638.524V240.941H641.847ZM645.958 239.496L651.075 231.405H652.982V242.5H651.075V234.41L645.958 242.5H644.072V231.405H645.958V239.496ZM658.273 237.209H660.324L657.115 242.5H655.064L658.273 237.209ZM659.863 231.405H664.498V242.5H662.601V232.943H659.863C659.323 232.943 658.882 233.036 658.54 233.22C658.198 233.398 657.949 233.63 657.792 233.917C657.634 234.205 657.556 234.502 657.556 234.81C657.556 235.11 657.627 235.401 657.771 235.681C657.915 235.955 658.14 236.18 658.448 236.358C658.755 236.536 659.152 236.625 659.637 236.625H663.113V238.183H659.637C659.001 238.183 658.438 238.098 657.945 237.927C657.453 237.756 657.036 237.52 656.694 237.219C656.353 236.912 656.093 236.553 655.915 236.143C655.737 235.726 655.648 235.274 655.648 234.789C655.648 234.304 655.741 233.856 655.925 233.446C656.117 233.036 656.39 232.677 656.746 232.369C657.108 232.062 657.549 231.826 658.068 231.662C658.595 231.491 659.193 231.405 659.863 231.405Z" fill="white"/>
<path d="M176.205 278.646H168.251V272.691H176.205C177.289 272.691 178.168 272.508 178.842 272.142C179.516 271.775 180.006 271.27 180.314 270.625C180.636 269.966 180.797 269.227 180.797 268.406C180.797 267.527 180.636 266.714 180.314 265.967C180.006 265.22 179.516 264.62 178.842 264.166C178.168 263.697 177.289 263.462 176.205 263.462H171.151V289.5H163.439V257.508H176.205C178.769 257.508 180.973 257.977 182.819 258.914C184.679 259.852 186.107 261.141 187.104 262.781C188.1 264.407 188.598 266.268 188.598 268.362C188.598 270.428 188.1 272.229 187.104 273.768C186.107 275.306 184.679 276.507 182.819 277.371C180.973 278.221 178.769 278.646 176.205 278.646ZM219.821 272.867V274.163C219.821 276.609 219.477 278.807 218.788 280.755C218.114 282.688 217.155 284.344 215.91 285.721C214.665 287.083 213.192 288.13 211.493 288.863C209.794 289.581 207.919 289.939 205.868 289.939C203.803 289.939 201.913 289.581 200.199 288.863C198.5 288.13 197.021 287.083 195.761 285.721C194.516 284.344 193.549 282.688 192.86 280.755C192.187 278.807 191.85 276.609 191.85 274.163V272.867C191.85 270.42 192.187 268.223 192.86 266.275C193.549 264.327 194.508 262.671 195.739 261.309C196.984 259.932 198.456 258.885 200.155 258.167C201.869 257.435 203.759 257.068 205.824 257.068C207.875 257.068 209.75 257.435 211.449 258.167C213.163 258.885 214.643 259.932 215.888 261.309C217.133 262.671 218.1 264.327 218.788 266.275C219.477 268.223 219.821 270.42 219.821 272.867ZM211.999 274.163V272.823C211.999 271.241 211.859 269.849 211.581 268.648C211.317 267.432 210.922 266.414 210.395 265.594C209.867 264.773 209.215 264.158 208.439 263.748C207.677 263.323 206.806 263.111 205.824 263.111C204.799 263.111 203.905 263.323 203.144 263.748C202.382 264.158 201.745 264.773 201.232 265.594C200.719 266.414 200.331 267.432 200.067 268.648C199.818 269.849 199.694 271.241 199.694 272.823V274.163C199.694 275.73 199.818 277.122 200.067 278.338C200.331 279.539 200.719 280.557 201.232 281.392C201.759 282.227 202.404 282.857 203.166 283.282C203.942 283.707 204.843 283.919 205.868 283.919C206.85 283.919 207.721 283.707 208.483 283.282C209.245 282.857 209.882 282.227 210.395 281.392C210.922 280.557 211.317 279.539 211.581 278.338C211.859 277.122 211.999 275.73 211.999 274.163ZM242.013 278.667H249.704C249.601 280.894 249 282.857 247.902 284.556C246.803 286.255 245.28 287.581 243.332 288.533C241.398 289.471 239.113 289.939 236.476 289.939C234.337 289.939 232.426 289.581 230.741 288.863C229.071 288.145 227.65 287.112 226.479 285.765C225.321 284.417 224.435 282.784 223.82 280.865C223.219 278.946 222.919 276.785 222.919 274.383V272.647C222.919 270.245 223.234 268.084 223.864 266.165C224.508 264.231 225.417 262.591 226.588 261.243C227.775 259.881 229.196 258.841 230.851 258.123C232.506 257.405 234.345 257.046 236.366 257.046C239.149 257.046 241.5 257.544 243.419 258.541C245.338 259.537 246.825 260.906 247.88 262.649C248.935 264.378 249.557 266.348 249.748 268.56H242.057C242.028 267.359 241.823 266.355 241.442 265.55C241.061 264.729 240.46 264.114 239.64 263.704C238.82 263.294 237.729 263.089 236.366 263.089C235.414 263.089 234.586 263.265 233.883 263.616C233.18 263.968 232.594 264.524 232.125 265.286C231.657 266.048 231.305 267.037 231.071 268.252C230.851 269.454 230.741 270.904 230.741 272.603V274.383C230.741 276.082 230.844 277.532 231.049 278.733C231.254 279.935 231.583 280.916 232.038 281.678C232.492 282.439 233.078 283.003 233.795 283.37C234.528 283.721 235.421 283.897 236.476 283.897C237.648 283.897 238.637 283.714 239.442 283.348C240.248 282.967 240.871 282.396 241.31 281.634C241.75 280.857 241.984 279.869 242.013 278.667ZM271.544 278.667H279.235C279.132 280.894 278.532 282.857 277.433 284.556C276.334 286.255 274.811 287.581 272.863 288.533C270.929 289.471 268.644 289.939 266.007 289.939C263.869 289.939 261.957 289.581 260.272 288.863C258.603 288.145 257.182 287.112 256.01 285.765C254.853 284.417 253.966 282.784 253.351 280.865C252.75 278.946 252.45 276.785 252.45 274.383V272.647C252.45 270.245 252.765 268.084 253.395 266.165C254.04 264.231 254.948 262.591 256.12 261.243C257.306 259.881 258.727 258.841 260.382 258.123C262.038 257.405 263.876 257.046 265.897 257.046C268.681 257.046 271.032 257.544 272.951 258.541C274.87 259.537 276.356 260.906 277.411 262.649C278.466 264.378 279.088 266.348 279.279 268.56H271.588C271.559 267.359 271.354 266.355 270.973 265.55C270.592 264.729 269.992 264.114 269.171 263.704C268.351 263.294 267.26 263.089 265.897 263.089C264.945 263.089 264.118 263.265 263.415 263.616C262.711 263.968 262.125 264.524 261.657 265.286C261.188 266.048 260.836 267.037 260.602 268.252C260.382 269.454 260.272 270.904 260.272 272.603V274.383C260.272 276.082 260.375 277.532 260.58 278.733C260.785 279.935 261.115 280.916 261.569 281.678C262.023 282.439 262.609 283.003 263.327 283.37C264.059 283.721 264.953 283.897 266.007 283.897C267.179 283.897 268.168 283.714 268.974 283.348C269.779 282.967 270.402 282.396 270.841 281.634C271.281 280.857 271.515 279.869 271.544 278.667ZM290.155 277.701L301.647 257.508H309.359V289.5H301.647V269.329L290.155 289.5H282.443V257.508H290.155V277.701ZM330.739 278.272H322.191L319.906 277.327C317.299 276.507 315.314 275.291 313.952 273.68C312.589 272.054 311.908 269.981 311.908 267.461C311.908 265.264 312.399 263.433 313.38 261.968C314.362 260.489 315.753 259.375 317.555 258.628C319.357 257.881 321.496 257.508 323.971 257.508H335.573V289.5H327.838V263.462H323.971C322.433 263.462 321.32 263.865 320.631 264.671C319.943 265.462 319.599 266.619 319.599 268.143C319.599 269.314 319.76 270.237 320.082 270.911C320.419 271.585 320.91 272.068 321.554 272.361C322.199 272.64 323.004 272.779 323.971 272.779H330.695L330.739 278.272ZM324.806 275.394L318.017 289.5H309.623L316.325 275.394H324.806ZM339.989 286.028C339.989 284.974 340.37 284.095 341.132 283.392C341.894 282.674 342.875 282.315 344.076 282.315C345.292 282.315 346.273 282.674 347.021 283.392C347.782 284.095 348.163 284.974 348.163 286.028C348.163 287.083 347.782 287.969 347.021 288.687C346.273 289.39 345.292 289.742 344.076 289.742C342.875 289.742 341.894 289.39 341.132 288.687C340.37 287.969 339.989 287.083 339.989 286.028ZM339.989 268.494C339.989 267.439 340.37 266.561 341.132 265.857C341.894 265.14 342.875 264.781 344.076 264.781C345.292 264.781 346.273 265.14 347.021 265.857C347.782 266.561 348.163 267.439 348.163 268.494C348.163 269.549 347.782 270.435 347.021 271.153C346.273 271.856 345.292 272.208 344.076 272.208C342.875 272.208 341.894 271.856 341.132 271.153C340.37 270.435 339.989 269.549 339.989 268.494ZM386.593 283.567V289.5H369.542V283.567H386.593ZM372.289 257.508V289.5H364.577V257.508H372.289ZM384.396 270.208V275.943H369.542V270.208H384.396ZM386.659 257.508V263.462H369.542V257.508H386.659ZM415.246 283.567V289.5H392.768V283.567H415.246ZM395.316 283.567V297.344H388.175L387.648 283.567H395.316ZM420.497 283.567L419.684 297.366H412.763V283.567H420.497ZM411.884 257.508V263.462H395.822V257.508H411.884ZM417.069 257.508V289.5H409.401V257.508H417.069ZM395.316 257.508H403.007L402.062 270.625C401.901 272.867 401.645 274.815 401.293 276.47C400.941 278.125 400.524 279.554 400.041 280.755C399.557 281.956 399.03 282.989 398.458 283.853C397.887 284.717 397.287 285.472 396.657 286.116C396.042 286.761 395.426 287.347 394.811 287.874C394.196 288.401 393.603 288.943 393.031 289.5H388.351V283.567H389.889C390.343 283.245 390.797 282.813 391.251 282.271C391.72 281.714 392.16 280.96 392.57 280.008C392.98 279.056 393.339 277.818 393.646 276.294C393.954 274.771 394.188 272.881 394.35 270.625L395.316 257.508ZM430.429 277.701L441.92 257.508H449.633V289.5H441.92V269.329L430.429 289.5H422.716V257.508H430.429V277.701ZM475.912 270.208V276.141H459.499V270.208H475.912ZM462.069 257.508V289.5H454.357V257.508H462.069ZM481.098 257.508V289.5H473.407V257.508H481.098ZM504.191 278.667H511.881C511.779 280.894 511.178 282.857 510.08 284.556C508.981 286.255 507.458 287.581 505.509 288.533C503.576 289.471 501.291 289.939 498.654 289.939C496.515 289.939 494.604 289.581 492.919 288.863C491.249 288.145 489.828 287.112 488.656 285.765C487.499 284.417 486.613 282.784 485.998 280.865C485.397 278.946 485.097 276.785 485.097 274.383V272.647C485.097 270.245 485.412 268.084 486.042 266.165C486.686 264.231 487.594 262.591 488.766 261.243C489.953 259.881 491.374 258.841 493.029 258.123C494.684 257.405 496.522 257.046 498.544 257.046C501.327 257.046 503.678 257.544 505.597 258.541C507.516 259.537 509.003 260.906 510.058 262.649C511.112 264.378 511.735 266.348 511.925 268.56H504.235C504.206 267.359 504 266.355 503.62 265.55C503.239 264.729 502.638 264.114 501.818 263.704C500.998 263.294 499.906 263.089 498.544 263.089C497.592 263.089 496.764 263.265 496.061 263.616C495.358 263.968 494.772 264.524 494.303 265.286C493.834 266.048 493.483 267.037 493.249 268.252C493.029 269.454 492.919 270.904 492.919 272.603V274.383C492.919 276.082 493.021 277.532 493.227 278.733C493.432 279.935 493.761 280.916 494.215 281.678C494.669 282.439 495.255 283.003 495.973 283.37C496.706 283.721 497.599 283.897 498.654 283.897C499.826 283.897 500.814 283.714 501.62 283.348C502.426 282.967 503.048 282.396 503.488 281.634C503.927 280.857 504.162 279.869 504.191 278.667ZM530.36 257.508V289.5H522.648V257.508H530.36ZM539.984 257.508V263.462H513.244V257.508H539.984ZM556.31 275.899H548.07L548.026 270.845H554.706C555.907 270.845 556.867 270.713 557.584 270.45C558.302 270.171 558.822 269.769 559.145 269.241C559.481 268.714 559.65 268.055 559.65 267.264C559.65 266.355 559.481 265.623 559.145 265.066C558.808 264.51 558.273 264.107 557.541 263.858C556.823 263.594 555.893 263.462 554.75 263.462H550.971V289.5H543.258V257.508H554.75C556.728 257.508 558.493 257.691 560.045 258.057C561.598 258.409 562.917 258.951 564 259.683C565.099 260.416 565.934 261.338 566.505 262.452C567.077 263.55 567.362 264.847 567.362 266.341C567.362 267.645 567.084 268.868 566.527 270.01C565.971 271.153 565.041 272.083 563.737 272.801C562.448 273.504 560.683 273.87 558.441 273.899L556.31 275.899ZM556.002 289.5H546.203L548.839 283.567H556.002C557.057 283.567 557.899 283.406 558.529 283.084C559.174 282.747 559.635 282.308 559.914 281.766C560.207 281.209 560.353 280.594 560.353 279.92C560.353 279.1 560.214 278.389 559.936 277.789C559.672 277.188 559.247 276.727 558.661 276.404C558.075 276.067 557.292 275.899 556.31 275.899H549.828L549.872 270.845H557.628L559.43 272.867C561.569 272.779 563.261 273.079 564.506 273.768C565.766 274.456 566.667 275.364 567.208 276.492C567.75 277.62 568.021 278.799 568.021 280.03C568.021 282.125 567.567 283.875 566.659 285.281C565.766 286.688 564.425 287.742 562.638 288.445C560.851 289.148 558.639 289.5 556.002 289.5ZM599.376 272.867V274.163C599.376 276.609 599.032 278.807 598.344 280.755C597.67 282.688 596.71 284.344 595.465 285.721C594.22 287.083 592.748 288.13 591.049 288.863C589.35 289.581 587.475 289.939 585.424 289.939C583.358 289.939 581.469 289.581 579.755 288.863C578.056 288.13 576.576 287.083 575.316 285.721C574.071 284.344 573.104 282.688 572.416 280.755C571.742 278.807 571.405 276.609 571.405 274.163V272.867C571.405 270.42 571.742 268.223 572.416 266.275C573.104 264.327 574.064 262.671 575.294 261.309C576.54 259.932 578.012 258.885 579.711 258.167C581.425 257.435 583.314 257.068 585.38 257.068C587.431 257.068 589.306 257.435 591.005 258.167C592.719 258.885 594.198 259.932 595.443 261.309C596.688 262.671 597.655 264.327 598.344 266.275C599.032 268.223 599.376 270.42 599.376 272.867ZM591.554 274.163V272.823C591.554 271.241 591.415 269.849 591.137 268.648C590.873 267.432 590.478 266.414 589.95 265.594C589.423 264.773 588.771 264.158 587.995 263.748C587.233 263.323 586.361 263.111 585.38 263.111C584.354 263.111 583.461 263.323 582.699 263.748C581.938 264.158 581.3 264.773 580.788 265.594C580.275 266.414 579.887 267.432 579.623 268.648C579.374 269.849 579.25 271.241 579.25 272.823V274.163C579.25 275.73 579.374 277.122 579.623 278.338C579.887 279.539 580.275 280.557 580.788 281.392C581.315 282.227 581.959 282.857 582.721 283.282C583.498 283.707 584.398 283.919 585.424 283.919C586.405 283.919 587.277 283.707 588.039 283.282C588.8 282.857 589.438 282.227 589.95 281.392C590.478 280.557 590.873 279.539 591.137 278.338C591.415 277.122 591.554 275.73 591.554 274.163ZM170.712 330.701L182.204 310.508H189.916V342.5H182.204V322.329L170.712 342.5H163V310.508H170.712V330.701ZM209.669 310.508H215.954L223.095 332.766L230.236 310.508H236.52L225.644 342.5H220.546L209.669 310.508ZM205.846 310.508H212.35L213.559 335.029V342.5H205.846V310.508ZM233.839 310.508H240.365V342.5H232.631V335.029L233.839 310.508ZM266.864 323.208V329.141H250.451V323.208H266.864ZM253.021 310.508V342.5H245.309V310.508H253.021ZM272.05 310.508V342.5H264.359V310.508H272.05ZM304.02 325.867V327.163C304.02 329.609 303.676 331.807 302.987 333.755C302.313 335.688 301.354 337.344 300.109 338.721C298.864 340.083 297.392 341.13 295.692 341.863C293.993 342.581 292.118 342.939 290.067 342.939C288.002 342.939 286.112 342.581 284.398 341.863C282.699 341.13 281.22 340.083 279.96 338.721C278.715 337.344 277.748 335.688 277.06 333.755C276.386 331.807 276.049 329.609 276.049 327.163V325.867C276.049 323.42 276.386 321.223 277.06 319.275C277.748 317.327 278.708 315.671 279.938 314.309C281.183 312.932 282.655 311.885 284.354 311.167C286.068 310.435 287.958 310.068 290.023 310.068C292.074 310.068 293.949 310.435 295.648 311.167C297.362 311.885 298.842 312.932 300.087 314.309C301.332 315.671 302.299 317.327 302.987 319.275C303.676 321.223 304.02 323.42 304.02 325.867ZM296.198 327.163V325.823C296.198 324.241 296.059 322.849 295.78 321.648C295.517 320.432 295.121 319.414 294.594 318.594C294.066 317.773 293.415 317.158 292.638 316.748C291.876 316.323 291.005 316.111 290.023 316.111C288.998 316.111 288.104 316.323 287.343 316.748C286.581 317.158 285.944 317.773 285.431 318.594C284.918 319.414 284.53 320.432 284.267 321.648C284.018 322.849 283.893 324.241 283.893 325.823V327.163C283.893 328.73 284.018 330.122 284.267 331.338C284.53 332.539 284.918 333.557 285.431 334.392C285.958 335.227 286.603 335.857 287.365 336.282C288.141 336.707 289.042 336.919 290.067 336.919C291.049 336.919 291.92 336.707 292.682 336.282C293.444 335.857 294.081 335.227 294.594 334.392C295.121 333.557 295.517 332.539 295.78 331.338C296.059 330.122 296.198 328.73 296.198 327.163ZM329.574 310.508V316.462H315.666V342.5H307.975V310.508H329.574ZM358.688 325.867V327.163C358.688 329.609 358.344 331.807 357.655 333.755C356.981 335.688 356.022 337.344 354.777 338.721C353.532 340.083 352.06 341.13 350.36 341.863C348.661 342.581 346.786 342.939 344.735 342.939C342.67 342.939 340.78 342.581 339.066 341.863C337.367 341.13 335.888 340.083 334.628 338.721C333.383 337.344 332.416 335.688 331.728 333.755C331.054 331.807 330.717 329.609 330.717 327.163V325.867C330.717 323.42 331.054 321.223 331.728 319.275C332.416 317.327 333.375 315.671 334.606 314.309C335.851 312.932 337.323 311.885 339.022 311.167C340.736 310.435 342.626 310.068 344.691 310.068C346.742 310.068 348.617 310.435 350.316 311.167C352.03 311.885 353.51 312.932 354.755 314.309C356 315.671 356.967 317.327 357.655 319.275C358.344 321.223 358.688 323.42 358.688 325.867ZM350.866 327.163V325.823C350.866 324.241 350.727 322.849 350.448 321.648C350.185 320.432 349.789 319.414 349.262 318.594C348.734 317.773 348.083 317.158 347.306 316.748C346.544 316.323 345.673 316.111 344.691 316.111C343.666 316.111 342.772 316.323 342.011 316.748C341.249 317.158 340.612 317.773 340.099 318.594C339.586 319.414 339.198 320.432 338.935 321.648C338.686 322.849 338.561 324.241 338.561 325.823V327.163C338.561 328.73 338.686 330.122 338.935 331.338C339.198 332.539 339.586 333.557 340.099 334.392C340.626 335.227 341.271 335.857 342.033 336.282C342.809 336.707 343.71 336.919 344.735 336.919C345.717 336.919 346.588 336.707 347.35 336.282C348.112 335.857 348.749 335.227 349.262 334.392C349.789 333.557 350.185 332.539 350.448 331.338C350.727 330.122 350.866 328.73 350.866 327.163ZM389.757 325.867V327.163C389.757 329.609 389.413 331.807 388.725 333.755C388.051 335.688 387.091 337.344 385.846 338.721C384.601 340.083 383.129 341.13 381.43 341.863C379.73 342.581 377.855 342.939 375.805 342.939C373.739 342.939 371.85 342.581 370.136 341.863C368.437 341.13 366.957 340.083 365.697 338.721C364.452 337.344 363.485 335.688 362.797 333.755C362.123 331.807 361.786 329.609 361.786 327.163V325.867C361.786 323.42 362.123 321.223 362.797 319.275C363.485 317.327 364.445 315.671 365.675 314.309C366.92 312.932 368.393 311.885 370.092 311.167C371.806 310.435 373.695 310.068 375.761 310.068C377.812 310.068 379.687 310.435 381.386 311.167C383.1 311.885 384.579 312.932 385.824 314.309C387.069 315.671 388.036 317.327 388.725 319.275C389.413 321.223 389.757 323.42 389.757 325.867ZM381.935 327.163V325.823C381.935 324.241 381.796 322.849 381.518 321.648C381.254 320.432 380.858 319.414 380.331 318.594C379.804 317.773 379.152 317.158 378.375 316.748C377.614 316.323 376.742 316.111 375.761 316.111C374.735 316.111 373.842 316.323 373.08 316.748C372.318 317.158 371.681 317.773 371.168 318.594C370.656 319.414 370.268 320.432 370.004 321.648C369.755 322.849 369.63 324.241 369.63 325.823V327.163C369.63 328.73 369.755 330.122 370.004 331.338C370.268 332.539 370.656 333.557 371.168 334.392C371.696 335.227 372.34 335.857 373.102 336.282C373.878 336.707 374.779 336.919 375.805 336.919C376.786 336.919 377.658 336.707 378.419 336.282C379.181 335.857 379.818 335.227 380.331 334.392C380.858 333.557 381.254 332.539 381.518 331.338C381.796 330.122 381.935 328.73 381.935 327.163ZM415.355 310.508V316.462H401.447V342.5H393.756V310.508H415.355ZM398.59 321.516H405.468C408.061 321.516 410.316 321.948 412.235 322.812C414.154 323.677 415.634 324.885 416.674 326.438C417.729 327.991 418.256 329.807 418.256 331.887C418.256 333.455 417.956 334.89 417.355 336.194C416.754 337.483 415.89 338.604 414.762 339.556C413.649 340.493 412.309 341.218 410.741 341.731C409.174 342.244 407.416 342.5 405.468 342.5H393.778V310.508H401.513V336.567H405.468C406.566 336.567 407.489 336.355 408.236 335.93C408.998 335.505 409.577 334.941 409.972 334.238C410.368 333.521 410.565 332.722 410.565 331.843C410.565 330.994 410.368 330.239 409.972 329.58C409.577 328.921 408.998 328.401 408.236 328.02C407.489 327.639 406.566 327.449 405.468 327.449H398.59V321.516ZM434.647 331.646H426.693V325.691H434.647C435.731 325.691 436.61 325.508 437.284 325.142C437.958 324.775 438.449 324.27 438.756 323.625C439.079 322.966 439.24 322.227 439.24 321.406C439.24 320.527 439.079 319.714 438.756 318.967C438.449 318.22 437.958 317.62 437.284 317.166C436.61 316.697 435.731 316.462 434.647 316.462H429.594V342.5H421.881V310.508H434.647C437.211 310.508 439.416 310.977 441.261 311.914C443.122 312.852 444.55 314.141 445.546 315.781C446.542 317.407 447.04 319.268 447.04 321.362C447.04 323.428 446.542 325.229 445.546 326.768C444.55 328.306 443.122 329.507 441.261 330.371C439.416 331.221 437.211 331.646 434.647 331.646ZM460.839 317.231L453.039 342.5H444.755L456.51 310.508H461.762L460.839 317.231ZM467.299 342.5L459.477 317.231L458.466 310.508H463.783L475.604 342.5H467.299ZM466.991 330.569V336.523H450.578V330.569H466.991ZM490.941 327.185H485.426V323.318H489.513C490.465 323.318 491.234 323.164 491.82 322.856C492.406 322.534 492.838 322.08 493.117 321.494C493.395 320.894 493.534 320.19 493.534 319.385C493.534 318.784 493.373 318.228 493.051 317.715C492.743 317.202 492.267 316.792 491.623 316.484C490.978 316.177 490.158 316.023 489.162 316.023C488.4 316.023 487.704 316.147 487.074 316.396C486.444 316.646 485.946 317.012 485.58 317.495C485.214 317.964 485.031 318.55 485.031 319.253H477.34C477.34 317.817 477.655 316.536 478.285 315.408C478.915 314.28 479.772 313.32 480.856 312.529C481.955 311.738 483.214 311.138 484.635 310.728C486.071 310.303 487.58 310.09 489.162 310.09C490.993 310.09 492.648 310.288 494.127 310.684C495.607 311.064 496.874 311.636 497.929 312.397C498.998 313.159 499.818 314.111 500.39 315.254C500.961 316.382 501.247 317.693 501.247 319.187C501.247 320.286 500.998 321.318 500.5 322.285C500.016 323.252 499.32 324.102 498.412 324.834C497.504 325.566 496.413 326.145 495.138 326.57C493.878 326.98 492.479 327.185 490.941 327.185ZM485.426 325.229H490.941C492.655 325.229 494.179 325.413 495.512 325.779C496.845 326.145 497.973 326.68 498.896 327.383C499.833 328.086 500.543 328.958 501.027 329.998C501.51 331.023 501.752 332.202 501.752 333.535C501.752 335.029 501.437 336.362 500.807 337.534C500.192 338.691 499.32 339.673 498.192 340.479C497.064 341.284 495.731 341.892 494.193 342.302C492.67 342.712 490.993 342.917 489.162 342.917C487.682 342.917 486.21 342.742 484.745 342.39C483.295 342.024 481.977 341.467 480.79 340.72C479.604 339.973 478.651 339.014 477.934 337.842C477.23 336.67 476.879 335.264 476.879 333.623H484.613C484.613 334.268 484.804 334.846 485.185 335.359C485.58 335.872 486.122 336.274 486.811 336.567C487.499 336.86 488.283 337.007 489.162 337.007C490.187 337.007 491.059 336.846 491.776 336.523C492.509 336.201 493.065 335.762 493.446 335.205C493.827 334.648 494.018 334.033 494.018 333.359C494.018 332.568 493.922 331.902 493.732 331.36C493.542 330.803 493.256 330.356 492.875 330.02C492.494 329.668 492.018 329.419 491.447 329.272C490.89 329.111 490.246 329.031 489.513 329.031H485.426V325.229ZM513.573 330.701L525.065 310.508H532.777V342.5H525.065V322.329L513.573 342.5H505.861V310.508H513.573V330.701ZM559.518 336.567V342.5H542.467V336.567H559.518ZM545.214 310.508V342.5H537.501V310.508H545.214ZM557.321 323.208V328.943H542.467V323.208H557.321ZM559.584 310.508V316.462H542.467V310.508H559.584Z" fill="white"/>
<path d="M168.824 370.978L172.597 362.405H174.422L169.48 373.5H168.167L163.246 362.405H165.071L168.824 370.978ZM164.517 362.405V373.5H162.62V362.405H164.517ZM173.069 373.5V362.405H174.976V373.5H173.069ZM182.636 373.705C181.863 373.705 181.163 373.575 180.534 373.315C179.912 373.049 179.375 372.676 178.924 372.198C178.479 371.719 178.138 371.152 177.898 370.496C177.659 369.839 177.54 369.122 177.54 368.342V367.912C177.54 367.009 177.673 366.206 177.939 365.502C178.206 364.791 178.568 364.189 179.026 363.697C179.484 363.205 180.004 362.833 180.585 362.58C181.166 362.327 181.768 362.2 182.39 362.2C183.183 362.2 183.866 362.337 184.44 362.61C185.021 362.884 185.497 363.267 185.866 363.759C186.235 364.244 186.508 364.818 186.686 365.481C186.864 366.138 186.953 366.855 186.953 367.635V368.486H178.667V366.938H185.056V366.794C185.028 366.302 184.926 365.823 184.748 365.358C184.577 364.894 184.304 364.511 183.928 364.21C183.552 363.909 183.039 363.759 182.39 363.759C181.959 363.759 181.562 363.851 181.2 364.036C180.838 364.213 180.527 364.48 180.267 364.835C180.007 365.191 179.806 365.625 179.662 366.138C179.519 366.65 179.447 367.242 179.447 367.912V368.342C179.447 368.869 179.519 369.364 179.662 369.829C179.812 370.287 180.028 370.69 180.308 371.039C180.595 371.388 180.94 371.661 181.344 371.859C181.754 372.058 182.219 372.157 182.738 372.157C183.408 372.157 183.976 372.02 184.44 371.747C184.905 371.473 185.312 371.107 185.661 370.649L186.809 371.562C186.57 371.924 186.266 372.27 185.896 372.598C185.527 372.926 185.073 373.192 184.533 373.397C184 373.603 183.367 373.705 182.636 373.705ZM191.167 362.405H193.064L192.9 366.558C192.859 367.611 192.739 368.52 192.541 369.286C192.343 370.051 192.09 370.704 191.782 371.244C191.475 371.777 191.129 372.225 190.747 372.587C190.371 372.95 189.981 373.254 189.578 373.5H188.634L188.686 371.952L189.075 371.941C189.301 371.675 189.52 371.401 189.731 371.121C189.943 370.834 190.138 370.496 190.316 370.106C190.494 369.709 190.641 369.228 190.757 368.66C190.88 368.086 190.958 367.385 190.993 366.558L191.167 362.405ZM191.639 362.405H198.314V373.5H196.417V364.159H191.639V362.405ZM188.204 371.941H199.739V376.771H197.842V373.5H190.101V376.771H188.193L188.204 371.941ZM203.892 370.496L209.009 362.405H210.916V373.5H209.009V365.41L203.892 373.5H202.005V362.405H203.892V370.496ZM220.503 371.603V365.892C220.503 365.454 220.415 365.075 220.237 364.753C220.066 364.425 219.806 364.172 219.458 363.995C219.109 363.817 218.678 363.728 218.166 363.728C217.687 363.728 217.267 363.81 216.904 363.974C216.549 364.138 216.269 364.354 216.063 364.62C215.865 364.887 215.766 365.174 215.766 365.481H213.869C213.869 365.085 213.972 364.692 214.177 364.302C214.382 363.913 214.676 363.561 215.059 363.246C215.448 362.925 215.913 362.672 216.453 362.487C217 362.296 217.608 362.2 218.278 362.2C219.085 362.2 219.796 362.337 220.411 362.61C221.033 362.884 221.519 363.297 221.867 363.851C222.223 364.398 222.4 365.085 222.4 365.912V371.08C222.4 371.449 222.431 371.842 222.493 372.259C222.561 372.676 222.66 373.035 222.79 373.336V373.5H220.811C220.715 373.281 220.64 372.991 220.585 372.628C220.531 372.259 220.503 371.917 220.503 371.603ZM220.832 366.773L220.852 368.106H218.935C218.395 368.106 217.913 368.151 217.489 368.24C217.065 368.322 216.709 368.448 216.422 368.619C216.135 368.79 215.917 369.005 215.766 369.265C215.616 369.518 215.541 369.815 215.541 370.157C215.541 370.506 215.619 370.824 215.776 371.111C215.934 371.398 216.169 371.627 216.484 371.798C216.805 371.962 217.198 372.044 217.663 372.044C218.244 372.044 218.757 371.921 219.201 371.675C219.646 371.429 219.998 371.128 220.257 370.772C220.524 370.417 220.667 370.072 220.688 369.737L221.498 370.649C221.45 370.937 221.32 371.254 221.108 371.603C220.896 371.952 220.613 372.287 220.257 372.608C219.909 372.922 219.492 373.186 219.006 373.397C218.528 373.603 217.988 373.705 217.386 373.705C216.634 373.705 215.975 373.558 215.407 373.264C214.847 372.97 214.409 372.577 214.095 372.085C213.787 371.586 213.633 371.029 213.633 370.414C213.633 369.819 213.75 369.296 213.982 368.845C214.214 368.387 214.549 368.007 214.987 367.707C215.424 367.399 215.951 367.167 216.566 367.009C217.181 366.852 217.868 366.773 218.627 366.773H220.832ZM229.332 366.374V367.932H224.328V366.374H229.332ZM237.73 371.603V365.892C237.73 365.454 237.641 365.075 237.463 364.753C237.292 364.425 237.033 364.172 236.684 363.995C236.335 363.817 235.905 363.728 235.392 363.728C234.914 363.728 234.493 363.81 234.131 363.974C233.775 364.138 233.495 364.354 233.29 364.62C233.092 364.887 232.993 365.174 232.993 365.481H231.096C231.096 365.085 231.198 364.692 231.403 364.302C231.608 363.913 231.902 363.561 232.285 363.246C232.675 362.925 233.14 362.672 233.68 362.487C234.227 362.296 234.835 362.2 235.505 362.2C236.312 362.2 237.022 362.337 237.638 362.61C238.26 362.884 238.745 363.297 239.094 363.851C239.449 364.398 239.627 365.085 239.627 365.912V371.08C239.627 371.449 239.658 371.842 239.719 372.259C239.788 372.676 239.887 373.035 240.017 373.336V373.5H238.038C237.942 373.281 237.867 372.991 237.812 372.628C237.757 372.259 237.73 371.917 237.73 371.603ZM238.058 366.773L238.079 368.106H236.161C235.621 368.106 235.139 368.151 234.715 368.24C234.292 368.322 233.936 368.448 233.649 368.619C233.362 368.79 233.143 369.005 232.993 369.265C232.842 369.518 232.767 369.815 232.767 370.157C232.767 370.506 232.846 370.824 233.003 371.111C233.16 371.398 233.396 371.627 233.71 371.798C234.032 371.962 234.425 372.044 234.89 372.044C235.471 372.044 235.983 371.921 236.428 371.675C236.872 371.429 237.224 371.128 237.484 370.772C237.75 370.417 237.894 370.072 237.915 369.737L238.725 370.649C238.677 370.937 238.547 371.254 238.335 371.603C238.123 371.952 237.839 372.287 237.484 372.608C237.135 372.922 236.718 373.186 236.233 373.397C235.754 373.603 235.214 373.705 234.613 373.705C233.861 373.705 233.201 373.558 232.634 373.264C232.073 372.97 231.636 372.577 231.321 372.085C231.014 371.586 230.86 371.029 230.86 370.414C230.86 369.819 230.976 369.296 231.208 368.845C231.441 368.387 231.776 368.007 232.213 367.707C232.651 367.399 233.177 367.167 233.792 367.009C234.408 366.852 235.095 366.773 235.854 366.773H238.058ZM246.969 362.405V373.5H245.062V362.405H246.969ZM250.691 362.405V363.943H241.411V362.405H250.691ZM259.13 362.405V363.974H253.767V362.405H259.13ZM260.801 362.405V373.5H258.904V362.405H260.801ZM253.306 362.405H255.213L254.926 367.758C254.878 368.585 254.799 369.316 254.69 369.952C254.587 370.581 254.444 371.121 254.259 371.572C254.082 372.023 253.856 372.393 253.583 372.68C253.316 372.96 252.995 373.168 252.619 373.305C252.243 373.435 251.809 373.5 251.316 373.5H250.722V371.829L251.132 371.798C251.426 371.777 251.675 371.709 251.88 371.593C252.092 371.477 252.27 371.306 252.414 371.08C252.557 370.848 252.673 370.55 252.762 370.188C252.858 369.826 252.93 369.395 252.978 368.896C253.032 368.397 253.073 367.816 253.101 367.153L253.306 362.405ZM270.399 371.603V365.892C270.399 365.454 270.31 365.075 270.132 364.753C269.961 364.425 269.702 364.172 269.353 363.995C269.004 363.817 268.574 363.728 268.061 363.728C267.583 363.728 267.162 363.81 266.8 363.974C266.444 364.138 266.164 364.354 265.959 364.62C265.761 364.887 265.662 365.174 265.662 365.481H263.765C263.765 365.085 263.867 364.692 264.072 364.302C264.277 363.913 264.571 363.561 264.954 363.246C265.344 362.925 265.809 362.672 266.349 362.487C266.896 362.296 267.504 362.2 268.174 362.2C268.98 362.2 269.691 362.337 270.307 362.61C270.929 362.884 271.414 363.297 271.763 363.851C272.118 364.398 272.296 365.085 272.296 365.912V371.08C272.296 371.449 272.327 371.842 272.388 372.259C272.457 372.676 272.556 373.035 272.686 373.336V373.5H270.707C270.611 373.281 270.536 372.991 270.481 372.628C270.426 372.259 270.399 371.917 270.399 371.603ZM270.727 366.773L270.748 368.106H268.83C268.29 368.106 267.808 368.151 267.384 368.24C266.96 368.322 266.605 368.448 266.318 368.619C266.031 368.79 265.812 369.005 265.662 369.265C265.511 369.518 265.436 369.815 265.436 370.157C265.436 370.506 265.515 370.824 265.672 371.111C265.829 371.398 266.065 371.627 266.379 371.798C266.701 371.962 267.094 372.044 267.559 372.044C268.14 372.044 268.652 371.921 269.097 371.675C269.541 371.429 269.893 371.128 270.153 370.772C270.419 370.417 270.563 370.072 270.583 369.737L271.394 370.649C271.346 370.937 271.216 371.254 271.004 371.603C270.792 371.952 270.508 372.287 270.153 372.608C269.804 372.922 269.387 373.186 268.902 373.397C268.423 373.603 267.883 373.705 267.282 373.705C266.53 373.705 265.87 373.558 265.303 373.264C264.742 372.97 264.305 372.577 263.99 372.085C263.683 371.586 263.529 371.029 263.529 370.414C263.529 369.819 263.645 369.296 263.877 368.845C264.11 368.387 264.445 368.007 264.882 367.707C265.32 367.399 265.846 367.167 266.461 367.009C267.077 366.852 267.764 366.773 268.522 366.773H270.727ZM279.72 372.146C280.171 372.146 280.588 372.054 280.971 371.87C281.354 371.685 281.668 371.432 281.914 371.111C282.16 370.783 282.3 370.41 282.334 369.993H284.139C284.105 370.649 283.883 371.261 283.473 371.829C283.069 372.389 282.54 372.844 281.883 373.192C281.227 373.534 280.506 373.705 279.72 373.705C278.886 373.705 278.158 373.558 277.536 373.264C276.92 372.97 276.408 372.567 275.998 372.054C275.594 371.542 275.29 370.954 275.085 370.291C274.887 369.621 274.788 368.913 274.788 368.168V367.737C274.788 366.992 274.887 366.288 275.085 365.625C275.29 364.955 275.594 364.364 275.998 363.851C276.408 363.338 276.92 362.935 277.536 362.641C278.158 362.347 278.886 362.2 279.72 362.2C280.588 362.2 281.347 362.378 281.996 362.733C282.646 363.082 283.155 363.561 283.524 364.169C283.9 364.771 284.105 365.454 284.139 366.22H282.334C282.3 365.762 282.17 365.348 281.945 364.979C281.726 364.61 281.425 364.316 281.042 364.097C280.667 363.872 280.226 363.759 279.72 363.759C279.139 363.759 278.65 363.875 278.253 364.107C277.864 364.333 277.553 364.641 277.32 365.03C277.095 365.413 276.931 365.84 276.828 366.312C276.732 366.777 276.685 367.252 276.685 367.737V368.168C276.685 368.653 276.732 369.132 276.828 369.604C276.924 370.075 277.084 370.502 277.31 370.885C277.542 371.268 277.854 371.576 278.243 371.808C278.64 372.034 279.132 372.146 279.72 372.146Z" fill="white"/>
</svg>
