<svg width="22" height="22" viewBox="0 0 22 22" fill="none" xmlns="http://www.w3.org/2000/svg">
<path d="M20.9744 3.47621L18.131 0.635437C17.9305 0.433976 17.6921 0.27413 17.4295 0.165081C17.167 0.0560332 16.8855 -6.81349e-05 16.6012 6.21007e-08C16.0218 6.21007e-08 15.4772 0.226942 15.0687 0.635437L12.009 3.69515C11.8076 3.89573 11.6477 4.13413 11.5387 4.39667C11.4296 4.65921 11.3735 4.94071 11.3736 5.225C11.3736 5.80437 11.6006 6.34903 12.009 6.75752L14.2464 8.9949C13.7227 10.1493 12.9946 11.1994 12.0971 12.0947C11.202 12.9943 10.152 13.725 8.99744 14.2519L6.76009 12.0146C6.55952 11.8131 6.32111 11.6533 6.05858 11.5442C5.79604 11.4352 5.51455 11.3791 5.23026 11.3791C4.6509 11.3791 4.10625 11.6061 3.69776 12.0146L0.635429 15.0716C0.433723 15.2726 0.273742 15.5114 0.16469 15.7744C0.0556388 16.0374 -0.000330847 16.3194 1.47119e-06 16.6041C1.47119e-06 17.1835 0.22694 17.7282 0.635429 18.1367L3.47349 20.9748C4.12494 21.6289 5.02468 22 5.94846 22C6.14336 22 6.33025 21.984 6.51447 21.9519C10.1134 21.3592 13.683 19.4449 16.5638 16.5667C19.4419 13.6913 21.3536 10.1243 21.9543 6.51456C22.1358 5.41189 21.7701 4.27718 20.9744 3.47621Z" fill="white"/>
</svg>
